solid TronxyX5s-Part
facet normal -0.707106781186547 0.0 -0.7071067811865479
  outer loop
    vertex 42.0 21.000000000000007 19.999999999999993
    vertex 40.0 0.0 21.999999999999993
    vertex 40.0 21.000000000000007 21.999999999999993
  endloop
endfacet
facet normal -0.707106781186547 0.0 -0.7071067811865479
  outer loop
    vertex 40.0 0.0 21.999999999999993
    vertex 42.0 21.000000000000007 19.999999999999993
    vertex 42.0 0.0 19.999999999999993
  endloop
endfacet
facet normal 3.3862217603458237e-16 1.0 -1.2561967942161691e-19
  outer loop
    vertex 56.0 1.0000000000000024 6.0000000000000115
    vertex 57.03527618041008 1.1362966948437287 0.0
    vertex 56.0 1.0000000000000024 0.0
  endloop
endfacet
facet normal -0.25881904510252063 0.9659258262890682 -1.4086592989212637e-19
  outer loop
    vertex 57.03527618041008 1.1362966948437287 0.0
    vertex 56.0 1.0000000000000024 6.0000000000000115
    vertex 57.03527618041008 1.1362966948437287 6.0000000000000115
  endloop
endfacet
facet normal -0.8660254037844375 -0.5000000000000021 3.200964014249451e-19
  outer loop
    vertex 59.46410161513776 6.999999999999998 6.0000000000000115
    vertex 59.86370330515628 6.035276180410083 0.0
    vertex 59.86370330515628 6.035276180410083 6.0000000000000115
  endloop
endfacet
facet normal -0.9659258262890679 -0.2588190451025219 2.644566998607173e-19
  outer loop
    vertex 59.86370330515628 6.035276180410083 0.0
    vertex 59.46410161513776 6.999999999999998 6.0000000000000115
    vertex 59.46410161513776 6.999999999999998 0.0
  endloop
endfacet
facet normal 0.7071067811865456 -0.7071067811865495 9.355387323105804e-20
  outer loop
    vertex 53.171572875253815 7.8284271247461925 0.0
    vertex 52.53589838486224 7.000000000000003 6.0000000000000115
    vertex 52.53589838486224 7.000000000000003 0.0
  endloop
endfacet
facet normal 0.866025403784437 -0.500000000000003 -1.1457962643851353e-19
  outer loop
    vertex 52.53589838486224 7.000000000000003 6.0000000000000115
    vertex 53.171572875253815 7.8284271247461925 0.0
    vertex 53.171572875253815 7.8284271247461925 6.0000000000000115
  endloop
endfacet
facet normal 0.7071067811865477 -0.0 0.7071067811865474
  outer loop
    vertex 58.99999999999996 21.0 15.999999999999998
    vertex 49.999999999999964 0.0 25.0
    vertex 58.99999999999996 0.0 15.999999999999998
  endloop
endfacet
facet normal 0.7071067811865477 -0.0 0.7071067811865474
  outer loop
    vertex 49.999999999999964 0.0 25.0
    vertex 58.99999999999996 21.0 15.999999999999998
    vertex 49.999999999999964 21.0 25.0
  endloop
endfacet
facet normal 0.2588190451025212 0.9659258262890682 1.3230515633586893e-19
  outer loop
    vertex 54.96472381958992 1.1362966948437294 6.0000000000000115
    vertex 56.0 1.0000000000000024 0.0
    vertex 54.96472381958992 1.1362966948437294 0.0
  endloop
endfacet
facet normal 3.3862217603458237e-16 1.0 -1.2561967942161691e-19
  outer loop
    vertex 56.0 1.0000000000000024 0.0
    vertex 54.96472381958992 1.1362966948437294 6.0000000000000115
    vertex 56.0 1.0000000000000024 6.0000000000000115
  endloop
endfacet
facet normal 0.5 -0.8660254037844386 2.850241394281865e-19
  outer loop
    vertex 54.0 8.464101615137755 6.0000000000000115
    vertex 53.171572875253815 7.8284271247461925 0.0
    vertex 54.0 8.464101615137755 0.0
  endloop
endfacet
facet normal 0.7071067811865456 -0.7071067811865495 9.355387323105804e-20
  outer loop
    vertex 53.171572875253815 7.8284271247461925 0.0
    vertex 54.0 8.464101615137755 6.0000000000000115
    vertex 53.171572875253815 7.8284271247461925 6.0000000000000115
  endloop
endfacet
facet normal 0.5 0.8660254037844386 -4.020830452935421e-19
  outer loop
    vertex 54.0 1.5358983848622483 6.0000000000000115
    vertex 54.96472381958992 1.1362966948437294 0.0
    vertex 54.0 1.5358983848622483 0.0
  endloop
endfacet
facet normal 0.2588190451025212 0.9659258262890682 1.3230515633586893e-19
  outer loop
    vertex 54.96472381958992 1.1362966948437294 0.0
    vertex 54.0 1.5358983848622483 6.0000000000000115
    vertex 54.96472381958992 1.1362966948437294 6.0000000000000115
  endloop
endfacet
facet normal 1.0 1.3866768083832328e-31 4.459649071061425e-31
  outer loop
    vertex 72.0 3.0 9.999999999999998
    vertex 72.0 10.000000000000002 6.0
    vertex 72.0 11.0 9.999999999999998
  endloop
endfacet
facet normal 1.0 1.3866768083832328e-31 4.459649071061425e-31
  outer loop
    vertex 72.0 10.000000000000002 6.0
    vertex 72.0 3.0 9.999999999999998
    vertex 72.0 10.000000000000002 3.0
  endloop
endfacet
facet normal 1.0 1.3866768083832328e-31 4.459649071061425e-31
  outer loop
    vertex 72.0 11.0 9.999999999999998
    vertex 72.0 10.000000000000002 6.0
    vertex 72.0 18.0 6.0
  endloop
endfacet
facet normal 1.0 1.3866768083832328e-31 4.459649071061425e-31
  outer loop
    vertex 72.0 11.0 9.999999999999998
    vertex 72.0 18.0 6.0
    vertex 72.0 11.0 12.999999999999998
  endloop
endfacet
facet normal 1.0 1.3866768083832328e-31 4.459649071061425e-31
  outer loop
    vertex 72.0 0.0 0.0
    vertex 72.0 3.0 9.999999999999998
    vertex 72.0 0.0 15.999999999999998
  endloop
endfacet
facet normal 1.0 1.3866768083832328e-31 4.459649071061425e-31
  outer loop
    vertex 72.0 3.0 9.999999999999998
    vertex 72.0 0.0 0.0
    vertex 72.0 10.000000000000002 3.0
  endloop
endfacet
facet normal 1.0 1.3866768083832328e-31 4.459649071061425e-31
  outer loop
    vertex 72.0 10.000000000000002 3.0
    vertex 72.0 0.0 0.0
    vertex 72.0 21.0 0.0
  endloop
endfacet
facet normal 1.0 1.3866768083832328e-31 4.459649071061425e-31
  outer loop
    vertex 72.0 10.000000000000002 3.0
    vertex 72.0 21.0 0.0
    vertex 72.0 18.0 3.0
  endloop
endfacet
facet normal 1.0 1.3866768083832328e-31 4.459649071061425e-31
  outer loop
    vertex 72.0 18.0 3.0
    vertex 72.0 21.0 0.0
    vertex 72.0 18.0 6.0
  endloop
endfacet
facet normal 1.0 1.3866768083832328e-31 4.459649071061425e-31
  outer loop
    vertex 72.0 0.0 15.999999999999998
    vertex 72.0 3.0 12.999999999999998
    vertex 72.0 21.0 15.999999999999998
  endloop
endfacet
facet normal 1.0 1.3866768083832328e-31 4.459649071061425e-31
  outer loop
    vertex 72.0 3.0 12.999999999999998
    vertex 72.0 0.0 15.999999999999998
    vertex 72.0 3.0 9.999999999999998
  endloop
endfacet
facet normal 1.0 1.3866768083832328e-31 4.459649071061425e-31
  outer loop
    vertex 72.0 21.0 15.999999999999998
    vertex 72.0 3.0 12.999999999999998
    vertex 72.0 11.0 12.999999999999998
  endloop
endfacet
facet normal 1.0 1.3866768083832328e-31 4.459649071061425e-31
  outer loop
    vertex 72.0 21.0 15.999999999999998
    vertex 72.0 11.0 12.999999999999998
    vertex 72.0 18.0 6.0
  endloop
endfacet
facet normal 1.0 1.3866768083832328e-31 4.459649071061425e-31
  outer loop
    vertex 72.0 21.0 15.999999999999998
    vertex 72.0 18.0 6.0
    vertex 72.0 21.0 0.0
  endloop
endfacet
facet normal 0.2588190451025212 -0.9659258262890682 -2.4936406220124105e-19
  outer loop
    vertex 54.96472381958992 8.863703305156275 6.0000000000000115
    vertex 54.0 8.464101615137755 0.0
    vertex 54.96472381958992 8.863703305156275 0.0
  endloop
endfacet
facet normal 0.5 -0.8660254037844386 2.850241394281865e-19
  outer loop
    vertex 54.0 8.464101615137755 0.0
    vertex 54.96472381958992 8.863703305156275 6.0000000000000115
    vertex 54.0 8.464101615137755 6.0000000000000115
  endloop
endfacet
facet normal -0.0 -0.0 1.0
  outer loop
    vertex 49.999999999999964 0.0 25.0
    vertex 22.000000000000004 21.0 25.0
    vertex 22.000000000000004 0.0 25.0
  endloop
endfacet
facet normal -0.0 -0.0 1.0
  outer loop
    vertex 22.000000000000004 21.0 25.0
    vertex 49.999999999999964 0.0 25.0
    vertex 49.999999999999964 21.0 25.0
  endloop
endfacet
facet normal -1.0 3.3513040489065013e-17 1.0354527460076572e-16
  outer loop
    vertex 68.0 18.0 15.999999999999998
    vertex 68.00000000000001 3.0 12.999999999999998
    vertex 68.0 3.0 15.999999999999998
  endloop
endfacet
facet normal -1.0 3.3513040489065013e-17 1.0354527460076572e-16
  outer loop
    vertex 68.00000000000001 3.0 12.999999999999998
    vertex 68.0 18.0 15.999999999999998
    vertex 68.00000000000001 11.0 12.999999999999998
  endloop
endfacet
facet normal -1.0 3.3513040489065013e-17 1.0354527460076572e-16
  outer loop
    vertex 68.00000000000001 11.0 12.999999999999998
    vertex 68.0 18.0 15.999999999999998
    vertex 68.00000000000001 11.0 9.999999999999998
  endloop
endfacet
facet normal -1.0 3.3513040489065013e-17 1.0354527460076572e-16
  outer loop
    vertex 68.00000000000001 11.0 9.999999999999998
    vertex 68.0 3.0 0.0
    vertex 68.00000000000001 3.0 9.999999999999998
  endloop
endfacet
facet normal -1.0 3.3513040489065013e-17 1.0354527460076572e-16
  outer loop
    vertex 68.0 3.0 0.0
    vertex 68.00000000000001 11.0 9.999999999999998
    vertex 68.00000000000001 10.000000000000002 6.0
  endloop
endfacet
facet normal -1.0 3.3513040489065013e-17 1.0354527460076572e-16
  outer loop
    vertex 68.00000000000001 10.000000000000002 6.0
    vertex 68.00000000000001 11.0 9.999999999999998
    vertex 68.00000000000001 18.0 6.0
  endloop
endfacet
facet normal -1.0 3.3513040489065013e-17 1.0354527460076572e-16
  outer loop
    vertex 68.00000000000001 18.0 6.0
    vertex 68.00000000000001 11.0 9.999999999999998
    vertex 68.0 18.0 15.999999999999998
  endloop
endfacet
facet normal -1.0 3.3513040489065013e-17 1.0354527460076572e-16
  outer loop
    vertex 68.0 3.0 0.0
    vertex 68.00000000000001 10.000000000000002 3.0
    vertex 68.0 18.0 0.0
  endloop
endfacet
facet normal -1.0 3.3513040489065013e-17 1.0354527460076572e-16
  outer loop
    vertex 68.00000000000001 10.000000000000002 3.0
    vertex 68.0 3.0 0.0
    vertex 68.00000000000001 10.000000000000002 6.0
  endloop
endfacet
facet normal -1.0 3.3513040489065013e-17 1.0354527460076572e-16
  outer loop
    vertex 68.0 18.0 0.0
    vertex 68.00000000000001 10.000000000000002 3.0
    vertex 68.00000000000001 18.0 3.0
  endloop
endfacet
facet normal -1.0 0.0 0.0
  outer loop
    vertex 42.0 21.000000000000007 19.999999999999993
    vertex 42.0 0.0 3.9999999999999996
    vertex 42.0 0.0 19.999999999999993
  endloop
endfacet
facet normal -1.0 0.0 0.0
  outer loop
    vertex 42.0 0.0 3.9999999999999996
    vertex 42.0 21.000000000000007 19.999999999999993
    vertex 42.0 21.0 3.9999999999999996
  endloop
endfacet
facet normal 1.7822219791293813e-17 -1.0 -3.902299920933706e-19
  outer loop
    vertex 56.0 9.000000000000002 6.0000000000000115
    vertex 54.96472381958992 8.863703305156275 0.0
    vertex 56.0 9.000000000000002 0.0
  endloop
endfacet
facet normal 0.2588190451025212 -0.9659258262890682 -2.4936406220124105e-19
  outer loop
    vertex 54.96472381958992 8.863703305156275 0.0
    vertex 56.0 9.000000000000002 6.0000000000000115
    vertex 54.96472381958992 8.863703305156275 6.0000000000000115
  endloop
endfacet
facet normal 0.7071067811865459 0.707106781186549 -3.5530610867800646e-19
  outer loop
    vertex 53.171572875253815 2.1715728752538124 6.0000000000000115
    vertex 54.0 1.5358983848622483 0.0
    vertex 53.171572875253815 2.1715728752538124 0.0
  endloop
endfacet
facet normal 0.5 0.8660254037844386 -4.020830452935421e-19
  outer loop
    vertex 54.0 1.5358983848622483 0.0
    vertex 53.171572875253815 2.1715728752538124 6.0000000000000115
    vertex 54.0 1.5358983848622483 6.0000000000000115
  endloop
endfacet
facet normal -0.2588190451025226 -0.9659258262890679 -1.408659298921368e-19
  outer loop
    vertex 57.03527618041009 8.863703305156273 6.0000000000000115
    vertex 56.0 9.000000000000002 0.0
    vertex 57.03527618041009 8.863703305156273 0.0
  endloop
endfacet
facet normal 1.7822219791293813e-17 -1.0 -3.902299920933706e-19
  outer loop
    vertex 56.0 9.000000000000002 0.0
    vertex 57.03527618041009 8.863703305156273 6.0000000000000115
    vertex 56.0 9.000000000000002 6.0000000000000115
  endloop
endfacet
facet normal 0.8660254037844372 0.5000000000000028 4.67769366155435e-20
  outer loop
    vertex 52.53589838486224 3.000000000000003 0.0
    vertex 53.171572875253815 2.1715728752538124 6.0000000000000115
    vertex 53.171572875253815 2.1715728752538124 0.0
  endloop
endfacet
facet normal 0.7071067811865459 0.707106781186549 -3.5530610867800646e-19
  outer loop
    vertex 53.171572875253815 2.1715728752538124 6.0000000000000115
    vertex 52.53589838486224 3.000000000000003 0.0
    vertex 52.53589838486224 3.000000000000003 6.0000000000000115
  endloop
endfacet
facet normal 0.9659258262890681 0.25881904510252174 -2.5123935884325087e-19
  outer loop
    vertex 52.13629669484372 3.9647238195899197 0.0
    vertex 52.53589838486224 3.000000000000003 6.0000000000000115
    vertex 52.53589838486224 3.000000000000003 0.0
  endloop
endfacet
facet normal 0.8660254037844372 0.5000000000000028 4.67769366155435e-20
  outer loop
    vertex 52.53589838486224 3.000000000000003 6.0000000000000115
    vertex 52.13629669484372 3.9647238195899197 0.0
    vertex 52.13629669484372 3.9647238195899197 6.0000000000000115
  endloop
endfacet
facet normal -0.9659258262890679 -0.2588190451025219 2.644566998607173e-19
  outer loop
    vertex 59.86370330515628 6.035276180410083 6.0000000000000115
    vertex 60.0 5.000000000000002 0.0
    vertex 60.0 5.000000000000002 6.0000000000000115
  endloop
endfacet
facet normal -1.0 -1.603999781216443e-16 -6.381266124795285e-19
  outer loop
    vertex 60.0 5.000000000000002 0.0
    vertex 59.86370330515628 6.035276180410083 6.0000000000000115
    vertex 59.86370330515628 6.035276180410083 0.0
  endloop
endfacet
facet normal -0.9659258262890681 0.2588190451025216 -1.2678512984434577e-19
  outer loop
    vertex 59.86370330515628 3.9647238195899166 6.0000000000000115
    vertex 59.46410161513776 3.0000000000000004 0.0
    vertex 59.46410161513776 3.0000000000000004 6.0000000000000115
  endloop
endfacet
facet normal -0.866025403784437 0.500000000000003 3.9684959592740384e-20
  outer loop
    vertex 59.46410161513776 3.0000000000000004 0.0
    vertex 59.86370330515628 3.9647238195899166 6.0000000000000115
    vertex 59.86370330515628 3.9647238195899166 0.0
  endloop
endfacet
facet normal 1.0 8.019998906082215e-17 -6.615257816793608e-20
  outer loop
    vertex 51.99999999999999 5.000000000000002 0.0
    vertex 52.13629669484372 3.9647238195899197 6.0000000000000115
    vertex 52.13629669484372 3.9647238195899197 0.0
  endloop
endfacet
facet normal 0.9659258262890681 0.25881904510252174 -2.5123935884325087e-19
  outer loop
    vertex 52.13629669484372 3.9647238195899197 6.0000000000000115
    vertex 51.99999999999999 5.000000000000002 0.0
    vertex 51.99999999999999 5.000000000000002 6.0000000000000115
  endloop
endfacet
facet normal -0.5000000000000013 -0.8660254037844379 -2.850241394281938e-19
  outer loop
    vertex 57.99999999999999 8.464101615137755 6.0000000000000115
    vertex 57.03527618041009 8.863703305156273 0.0
    vertex 57.99999999999999 8.464101615137755 0.0
  endloop
endfacet
facet normal -0.2588190451025226 -0.9659258262890679 -1.408659298921368e-19
  outer loop
    vertex 57.03527618041009 8.863703305156273 0.0
    vertex 57.99999999999999 8.464101615137755 6.0000000000000115
    vertex 57.03527618041009 8.863703305156273 6.0000000000000115
  endloop
endfacet
facet normal -1.0 -1.603999781216443e-16 -6.381266124795285e-19
  outer loop
    vertex 60.0 5.000000000000002 6.0000000000000115
    vertex 59.86370330515628 3.9647238195899166 0.0
    vertex 59.86370330515628 3.9647238195899166 6.0000000000000115
  endloop
endfacet
facet normal -0.9659258262890681 0.2588190451025216 -1.2678512984434577e-19
  outer loop
    vertex 59.86370330515628 3.9647238195899166 0.0
    vertex 60.0 5.000000000000002 6.0000000000000115
    vertex 60.0 5.000000000000002 0.0
  endloop
endfacet
facet normal -0.7071067811865466 -0.7071067811865486 -6.638352807405264e-19
  outer loop
    vertex 58.828427124746185 7.8284271247461925 6.0000000000000115
    vertex 57.99999999999999 8.464101615137755 0.0
    vertex 58.828427124746185 7.8284271247461925 0.0
  endloop
endfacet
facet normal -0.5000000000000013 -0.8660254037844379 -2.850241394281938e-19
  outer loop
    vertex 57.99999999999999 8.464101615137755 0.0
    vertex 58.828427124746185 7.8284271247461925 6.0000000000000115
    vertex 57.99999999999999 8.464101615137755 6.0000000000000115
  endloop
endfacet
facet normal -0.866025403784437 0.500000000000003 3.9684959592740384e-20
  outer loop
    vertex 59.46410161513776 3.0000000000000004 6.0000000000000115
    vertex 58.828427124746185 2.1715728752538106 0.0
    vertex 58.828427124746185 2.1715728752538106 6.0000000000000115
  endloop
endfacet
facet normal -0.7071067811865456 0.7071067811865493 -5.56347631324796e-19
  outer loop
    vertex 58.828427124746185 2.1715728752538106 0.0
    vertex 59.46410161513776 3.0000000000000004 6.0000000000000115
    vertex 59.46410161513776 3.0000000000000004 0.0
  endloop
endfacet
facet normal -0.0 1.0 -0.0
  outer loop
    vertex 65.0 3.0 15.999999999999998
    vertex 68.0 3.0 0.0
    vertex 65.0 3.0 0.0
  endloop
endfacet
facet normal -0.0 1.0 -0.0
  outer loop
    vertex 68.0 3.0 0.0
    vertex 65.0 3.0 15.999999999999998
    vertex 68.00000000000001 3.0 9.999999999999998
  endloop
endfacet
facet normal -0.0 1.0 -0.0
  outer loop
    vertex 68.00000000000001 3.0 9.999999999999998
    vertex 65.0 3.0 15.999999999999998
    vertex 68.00000000000001 3.0 12.999999999999998
  endloop
endfacet
facet normal -0.0 1.0 -0.0
  outer loop
    vertex 68.00000000000001 3.0 9.999999999999998
    vertex 68.00000000000001 3.0 12.999999999999998
    vertex 72.0 3.0 9.999999999999998
  endloop
endfacet
facet normal -0.0 1.0 -0.0
  outer loop
    vertex 68.00000000000001 3.0 12.999999999999998
    vertex 65.0 3.0 15.999999999999998
    vertex 68.0 3.0 15.999999999999998
  endloop
endfacet
facet normal -0.0 1.0 -0.0
  outer loop
    vertex 72.0 3.0 12.999999999999998
    vertex 72.0 3.0 9.999999999999998
    vertex 68.00000000000001 3.0 12.999999999999998
  endloop
endfacet
facet normal 1.0 0.0 0.0
  outer loop
    vertex 65.0 18.0 0.0
    vertex 65.0 3.0 15.999999999999998
    vertex 65.0 3.0 0.0
  endloop
endfacet
facet normal 1.0 0.0 0.0
  outer loop
    vertex 65.0 3.0 15.999999999999998
    vertex 65.0 18.0 0.0
    vertex 65.0 18.0 15.999999999999998
  endloop
endfacet
facet normal -0.7071067811865466 -0.7071067811865486 -6.638352807405264e-19
  outer loop
    vertex 58.828427124746185 7.8284271247461925 6.0000000000000115
    vertex 59.46410161513776 6.999999999999998 0.0
    vertex 59.46410161513776 6.999999999999998 6.0000000000000115
  endloop
endfacet
facet normal -0.8660254037844375 -0.5000000000000021 3.200964014249451e-19
  outer loop
    vertex 59.46410161513776 6.999999999999998 0.0
    vertex 58.828427124746185 7.8284271247461925 6.0000000000000115
    vertex 58.828427124746185 7.8284271247461925 0.0
  endloop
endfacet
facet normal -0.4999999999999999 0.8660254037844388 -2.850241394281897e-19
  outer loop
    vertex 57.99999999999999 1.535898384862247 6.0000000000000115
    vertex 58.828427124746185 2.1715728752538106 0.0
    vertex 57.99999999999999 1.535898384862247 0.0
  endloop
endfacet
facet normal -0.7071067811865456 0.7071067811865493 -5.56347631324796e-19
  outer loop
    vertex 58.828427124746185 2.1715728752538106 0.0
    vertex 57.99999999999999 1.535898384862247 6.0000000000000115
    vertex 58.828427124746185 2.1715728752538106 6.0000000000000115
  endloop
endfacet
facet normal 0.9659258262890681 -0.25881904510252157 3.7903632629930987e-19
  outer loop
    vertex 52.13629669484372 6.0352761804100865 0.0
    vertex 51.99999999999999 5.000000000000002 6.0000000000000115
    vertex 51.99999999999999 5.000000000000002 0.0
  endloop
endfacet
facet normal 1.0 8.019998906082215e-17 -6.615257816793608e-20
  outer loop
    vertex 51.99999999999999 5.000000000000002 6.0000000000000115
    vertex 52.13629669484372 6.0352761804100865 0.0
    vertex 52.13629669484372 6.0352761804100865 6.0000000000000115
  endloop
endfacet
facet normal 0.0 -1.0 0.0
  outer loop
    vertex 72.0 18.0 6.0
    vertex 68.00000000000001 18.0 3.0
    vertex 72.0 18.0 3.0
  endloop
endfacet
facet normal 0.0 -1.0 0.0
  outer loop
    vertex 68.00000000000001 18.0 3.0
    vertex 65.0 18.0 0.0
    vertex 68.0 18.0 0.0
  endloop
endfacet
facet normal 0.0 -1.0 0.0
  outer loop
    vertex 65.0 18.0 0.0
    vertex 68.00000000000001 18.0 3.0
    vertex 65.0 18.0 15.999999999999998
  endloop
endfacet
facet normal 0.0 -1.0 0.0
  outer loop
    vertex 65.0 18.0 15.999999999999998
    vertex 68.00000000000001 18.0 3.0
    vertex 68.00000000000001 18.0 6.0
  endloop
endfacet
facet normal 0.0 -1.0 0.0
  outer loop
    vertex 68.00000000000001 18.0 6.0
    vertex 68.00000000000001 18.0 3.0
    vertex 72.0 18.0 6.0
  endloop
endfacet
facet normal 0.0 -1.0 0.0
  outer loop
    vertex 65.0 18.0 15.999999999999998
    vertex 68.00000000000001 18.0 6.0
    vertex 68.0 18.0 15.999999999999998
  endloop
endfacet
facet normal 0.0 0.0 -1.0
  outer loop
    vertex 72.0 11.0 12.999999999999998
    vertex 68.00000000000001 3.0 12.999999999999998
    vertex 68.00000000000001 11.0 12.999999999999998
  endloop
endfacet
facet normal 0.0 0.0 -1.0
  outer loop
    vertex 68.00000000000001 3.0 12.999999999999998
    vertex 72.0 11.0 12.999999999999998
    vertex 72.0 3.0 12.999999999999998
  endloop
endfacet
facet normal -0.0 -0.0 1.0
  outer loop
    vertex 72.0 3.0 9.999999999999998
    vertex 68.00000000000001 11.0 9.999999999999998
    vertex 68.00000000000001 3.0 9.999999999999998
  endloop
endfacet
facet normal -0.0 -0.0 1.0
  outer loop
    vertex 68.00000000000001 11.0 9.999999999999998
    vertex 72.0 3.0 9.999999999999998
    vertex 72.0 11.0 9.999999999999998
  endloop
endfacet
facet normal -0.0 -0.9999999999999999 -0.0
  outer loop
    vertex 72.0 11.0 12.999999999999998
    vertex 68.00000000000001 11.0 9.999999999999998
    vertex 72.0 11.0 9.999999999999998
  endloop
endfacet
facet normal -0.0 -0.9999999999999999 -0.0
  outer loop
    vertex 68.00000000000001 11.0 9.999999999999998
    vertex 72.0 11.0 12.999999999999998
    vertex 68.00000000000001 11.0 12.999999999999998
  endloop
endfacet
facet normal -0.25881904510252063 0.9659258262890682 -1.4086592989212637e-19
  outer loop
    vertex 57.03527618041008 1.1362966948437287 6.0000000000000115
    vertex 57.99999999999999 1.535898384862247 0.0
    vertex 57.03527618041008 1.1362966948437287 0.0
  endloop
endfacet
facet normal -0.4999999999999999 0.8660254037844388 -2.850241394281897e-19
  outer loop
    vertex 57.99999999999999 1.535898384862247 0.0
    vertex 57.03527618041008 1.1362966948437287 6.0000000000000115
    vertex 57.99999999999999 1.535898384862247 6.0000000000000115
  endloop
endfacet
facet normal -0.7071067811865475 -0.0 0.7071067811865475
  outer loop
    vertex 22.000000000000004 21.0 25.0
    vertex 13.000000000000002 0.0 15.999999999999998
    vertex 22.000000000000004 0.0 25.0
  endloop
endfacet
facet normal -0.7071067811865475 -0.0 0.7071067811865475
  outer loop
    vertex 13.000000000000002 0.0 15.999999999999998
    vertex 22.000000000000004 21.0 25.0
    vertex 13.000000000000002 21.0 15.999999999999998
  endloop
endfacet
facet normal 0.866025403784437 -0.500000000000003 -1.1457962643851353e-19
  outer loop
    vertex 52.53589838486224 7.000000000000003 0.0
    vertex 52.13629669484372 6.0352761804100865 6.0000000000000115
    vertex 52.13629669484372 6.0352761804100865 0.0
  endloop
endfacet
facet normal 0.9659258262890681 -0.25881904510252157 3.7903632629930987e-19
  outer loop
    vertex 52.13629669484372 6.0352761804100865 6.0000000000000115
    vertex 52.53589838486224 7.000000000000003 0.0
    vertex 52.53589838486224 7.000000000000003 6.0000000000000115
  endloop
endfacet
facet normal 0.0 -1.0 0.0
  outer loop
    vertex 72.0 0.0 15.999999999999998
    vertex 46.0 0.0 0.0
    vertex 72.0 0.0 0.0
  endloop
endfacet
facet normal 0.0 -1.0 0.0
  outer loop
    vertex 46.0 0.0 0.0
    vertex 72.0 0.0 15.999999999999998
    vertex 42.0 0.0 3.9999999999999996
  endloop
endfacet
facet normal 0.0 -1.0 0.0
  outer loop
    vertex 42.0 0.0 3.9999999999999996
    vertex 72.0 0.0 15.999999999999998
    vertex 58.99999999999996 0.0 15.999999999999998
  endloop
endfacet
facet normal 0.0 -1.0 0.0
  outer loop
    vertex 42.0 0.0 3.9999999999999996
    vertex 58.99999999999996 0.0 15.999999999999998
    vertex 42.0 0.0 19.999999999999993
  endloop
endfacet
facet normal 0.0 -1.0 0.0
  outer loop
    vertex 42.0 0.0 19.999999999999993
    vertex 58.99999999999996 0.0 15.999999999999998
    vertex 49.999999999999964 0.0 25.0
  endloop
endfacet
facet normal 0.0 -1.0 0.0
  outer loop
    vertex 42.0 0.0 19.999999999999993
    vertex 49.999999999999964 0.0 25.0
    vertex 40.0 0.0 21.999999999999993
  endloop
endfacet
facet normal 0.0 -1.0 0.0
  outer loop
    vertex 40.0 0.0 21.999999999999993
    vertex 49.999999999999964 0.0 25.0
    vertex 32.0 0.0 22.0
  endloop
endfacet
facet normal 0.0 -1.0 0.0
  outer loop
    vertex 30.0 0.0 20.0
    vertex 13.000000000000002 0.0 15.999999999999998
    vertex 30.0 0.0 3.9999999999999996
  endloop
endfacet
facet normal 0.0 -1.0 0.0
  outer loop
    vertex 13.000000000000002 0.0 15.999999999999998
    vertex 30.0 0.0 20.0
    vertex 22.000000000000004 0.0 25.0
  endloop
endfacet
facet normal 0.0 -1.0 0.0
  outer loop
    vertex 22.000000000000004 0.0 25.0
    vertex 30.0 0.0 20.0
    vertex 32.0 0.0 22.0
  endloop
endfacet
facet normal 0.0 -1.0 0.0
  outer loop
    vertex 22.000000000000004 0.0 25.0
    vertex 32.0 0.0 22.0
    vertex 49.999999999999964 0.0 25.0
  endloop
endfacet
facet normal 0.0 -1.0 0.0
  outer loop
    vertex 30.0 0.0 3.9999999999999996
    vertex 0.0 0.0 0.0
    vertex 26.000000000000004 0.0 0.0
  endloop
endfacet
facet normal 0.0 -1.0 0.0
  outer loop
    vertex 0.0 0.0 0.0
    vertex 30.0 0.0 3.9999999999999996
    vertex 0.0 0.0 15.999999999999998
  endloop
endfacet
facet normal 0.0 -1.0 0.0
  outer loop
    vertex 0.0 0.0 15.999999999999998
    vertex 30.0 0.0 3.9999999999999996
    vertex 13.000000000000002 0.0 15.999999999999998
  endloop
endfacet
facet normal -1.0 0.0 0.0
  outer loop
    vertex 0.0 3.0 6.0
    vertex 0.0 10.000000000000002 9.999999999999998
    vertex 0.0 11.0 6.0
  endloop
endfacet
facet normal -1.0 0.0 0.0
  outer loop
    vertex 0.0 10.000000000000002 9.999999999999998
    vertex 0.0 3.0 6.0
    vertex 0.0 10.000000000000002 12.999999999999998
  endloop
endfacet
facet normal -1.0 0.0 0.0
  outer loop
    vertex 0.0 11.0 6.0
    vertex 0.0 10.000000000000002 9.999999999999998
    vertex 0.0 18.0 9.999999999999998
  endloop
endfacet
facet normal -1.0 0.0 0.0
  outer loop
    vertex 0.0 11.0 6.0
    vertex 0.0 18.0 9.999999999999998
    vertex 0.0 11.0 3.0
  endloop
endfacet
facet normal -1.0 0.0 0.0
  outer loop
    vertex 0.0 0.0 15.999999999999998
    vertex 0.0 3.0 6.0
    vertex 0.0 0.0 0.0
  endloop
endfacet
facet normal -1.0 0.0 0.0
  outer loop
    vertex 0.0 3.0 6.0
    vertex 0.0 0.0 15.999999999999998
    vertex 0.0 10.000000000000002 12.999999999999998
  endloop
endfacet
facet normal -1.0 0.0 0.0
  outer loop
    vertex 0.0 10.000000000000002 12.999999999999998
    vertex 0.0 0.0 15.999999999999998
    vertex 0.0 21.0 15.999999999999998
  endloop
endfacet
facet normal -1.0 0.0 0.0
  outer loop
    vertex 0.0 10.000000000000002 12.999999999999998
    vertex 0.0 21.0 15.999999999999998
    vertex 0.0 18.0 12.999999999999998
  endloop
endfacet
facet normal -1.0 0.0 0.0
  outer loop
    vertex 0.0 18.0 12.999999999999998
    vertex 0.0 21.0 15.999999999999998
    vertex 0.0 18.0 9.999999999999998
  endloop
endfacet
facet normal -1.0 0.0 0.0
  outer loop
    vertex 0.0 0.0 0.0
    vertex 0.0 3.0 3.0
    vertex 0.0 21.0 0.0
  endloop
endfacet
facet normal -1.0 0.0 0.0
  outer loop
    vertex 0.0 3.0 3.0
    vertex 0.0 0.0 0.0
    vertex 0.0 3.0 6.0
  endloop
endfacet
facet normal -1.0 0.0 0.0
  outer loop
    vertex 0.0 21.0 0.0
    vertex 0.0 3.0 3.0
    vertex 0.0 11.0 3.0
  endloop
endfacet
facet normal -1.0 0.0 0.0
  outer loop
    vertex 0.0 21.0 0.0
    vertex 0.0 11.0 3.0
    vertex 0.0 18.0 9.999999999999998
  endloop
endfacet
facet normal -1.0 0.0 0.0
  outer loop
    vertex 0.0 21.0 0.0
    vertex 0.0 18.0 9.999999999999998
    vertex 0.0 21.0 15.999999999999998
  endloop
endfacet
facet normal 0.0 0.0 -1.0
  outer loop
    vertex 0.0 21.0 0.0
    vertex 3.9999999999999996 18.0 0.0
    vertex 0.0 0.0 0.0
  endloop
endfacet
facet normal 0.0 0.0 -1.0
  outer loop
    vertex 3.9999999999999996 18.0 0.0
    vertex 0.0 21.0 0.0
    vertex 26.000000000000004 20.999999999999996 0.0
  endloop
endfacet
facet normal 0.0 0.0 -1.0
  outer loop
    vertex 3.9999999999999996 18.0 0.0
    vertex 26.000000000000004 20.999999999999996 0.0
    vertex 7.0 18.0 0.0
  endloop
endfacet
facet normal 0.0 0.0 -1.0
  outer loop
    vertex 7.0 18.0 0.0
    vertex 26.000000000000004 20.999999999999996 0.0
    vertex 7.0 3.0 0.0
  endloop
endfacet
facet normal 0.0 0.0 -1.0
  outer loop
    vertex 7.0 3.0 0.0
    vertex 26.000000000000004 20.999999999999996 0.0
    vertex 13.171572875253805 7.828427124746193 0.0
  endloop
endfacet
facet normal 0.0 0.0 -1.0
  outer loop
    vertex 7.0 3.0 0.0
    vertex 13.171572875253805 7.828427124746193 0.0
    vertex 12.535898384862241 7.000000000000004 0.0
  endloop
endfacet
facet normal 0.0 0.0 -1.0
  outer loop
    vertex 7.0 3.0 0.0
    vertex 12.535898384862241 7.000000000000004 0.0
    vertex 12.136296694843722 6.0352761804100865 0.0
  endloop
endfacet
facet normal 0.0 0.0 -1.0
  outer loop
    vertex 7.0 3.0 0.0
    vertex 12.136296694843722 6.0352761804100865 0.0
    vertex 11.999999999999995 5.000000000000003 0.0
  endloop
endfacet
facet normal 0.0 0.0 -1.0
  outer loop
    vertex 13.171572875253805 7.828427124746193 0.0
    vertex 26.000000000000004 20.999999999999996 0.0
    vertex 13.999999999999996 8.464101615137759 0.0
  endloop
endfacet
facet normal 0.0 0.0 -1.0
  outer loop
    vertex 13.999999999999996 8.464101615137759 0.0
    vertex 26.000000000000004 20.999999999999996 0.0
    vertex 14.964723819589913 8.863703305156276 0.0
  endloop
endfacet
facet normal 0.0 0.0 -1.0
  outer loop
    vertex 14.964723819589913 8.863703305156276 0.0
    vertex 26.000000000000004 20.999999999999996 0.0
    vertex 15.999999999999996 9.000000000000004 0.0
  endloop
endfacet
facet normal 0.0 0.0 -1.0
  outer loop
    vertex 15.999999999999996 9.000000000000004 0.0
    vertex 26.000000000000004 20.999999999999996 0.0
    vertex 17.035276180410083 8.863703305156276 0.0
  endloop
endfacet
facet normal 0.0 0.0 -1.0
  outer loop
    vertex 17.035276180410083 8.863703305156276 0.0
    vertex 26.000000000000004 20.999999999999996 0.0
    vertex 17.999999999999996 8.464101615137757 0.0
  endloop
endfacet
facet normal 0.0 0.0 -1.0
  outer loop
    vertex 17.999999999999996 8.464101615137757 0.0
    vertex 26.000000000000004 20.999999999999996 0.0
    vertex 18.828427124746188 7.828427124746193 0.0
  endloop
endfacet
facet normal 0.0 0.0 -1.0
  outer loop
    vertex 18.828427124746188 7.828427124746193 0.0
    vertex 26.000000000000004 20.999999999999996 0.0
    vertex 19.464101615137753 7.000000000000003 0.0
  endloop
endfacet
facet normal 0.0 0.0 -1.0
  outer loop
    vertex 19.464101615137753 7.000000000000003 0.0
    vertex 26.000000000000004 20.999999999999996 0.0
    vertex 19.86370330515627 6.035276180410086 0.0
  endloop
endfacet
facet normal 0.0 0.0 -1.0
  outer loop
    vertex 19.86370330515627 6.035276180410086 0.0
    vertex 26.000000000000004 20.999999999999996 0.0
    vertex 19.999999999999996 5.000000000000002 0.0
  endloop
endfacet
facet normal 0.0 0.0 -1.0
  outer loop
    vertex 0.0 0.0 0.0
    vertex 15.999999999999996 1.0000000000000009 0.0
    vertex 26.000000000000004 0.0 0.0
  endloop
endfacet
facet normal 0.0 0.0 -1.0
  outer loop
    vertex 15.999999999999996 1.0000000000000009 0.0
    vertex 0.0 0.0 0.0
    vertex 14.96472381958991 1.1362966948437287 0.0
  endloop
endfacet
facet normal 0.0 0.0 -1.0
  outer loop
    vertex 14.96472381958991 1.1362966948437287 0.0
    vertex 0.0 0.0 0.0
    vertex 3.9999999999999996 3.0 0.0
  endloop
endfacet
facet normal 0.0 0.0 -1.0
  outer loop
    vertex 3.9999999999999996 3.0 0.0
    vertex 0.0 0.0 0.0
    vertex 3.9999999999999996 18.0 0.0
  endloop
endfacet
facet normal 0.0 0.0 -1.0
  outer loop
    vertex 14.96472381958991 1.1362966948437287 0.0
    vertex 3.9999999999999996 3.0 0.0
    vertex 7.0 3.0 0.0
  endloop
endfacet
facet normal 0.0 0.0 -1.0
  outer loop
    vertex 14.96472381958991 1.1362966948437287 0.0
    vertex 7.0 3.0 0.0
    vertex 13.999999999999995 1.5358983848622476 0.0
  endloop
endfacet
facet normal 0.0 0.0 -1.0
  outer loop
    vertex 13.999999999999995 1.5358983848622476 0.0
    vertex 7.0 3.0 0.0
    vertex 13.171572875253805 2.171572875253813 0.0
  endloop
endfacet
facet normal 0.0 0.0 -1.0
  outer loop
    vertex 13.171572875253805 2.171572875253813 0.0
    vertex 7.0 3.0 0.0
    vertex 12.53589838486224 3.0000000000000027 0.0
  endloop
endfacet
facet normal 0.0 0.0 -1.0
  outer loop
    vertex 12.53589838486224 3.0000000000000027 0.0
    vertex 7.0 3.0 0.0
    vertex 12.136296694843722 3.96472381958992 0.0
  endloop
endfacet
facet normal 0.0 0.0 -1.0
  outer loop
    vertex 12.136296694843722 3.96472381958992 0.0
    vertex 7.0 3.0 0.0
    vertex 11.999999999999995 5.000000000000003 0.0
  endloop
endfacet
facet normal 0.0 0.0 -1.0
  outer loop
    vertex 26.000000000000004 0.0 0.0
    vertex 15.999999999999996 1.0000000000000009 0.0
    vertex 17.03527618041008 1.1362966948437272 0.0
  endloop
endfacet
facet normal 0.0 0.0 -1.0
  outer loop
    vertex 26.000000000000004 0.0 0.0
    vertex 17.03527618041008 1.1362966948437272 0.0
    vertex 17.999999999999996 1.5358983848622447 0.0
  endloop
endfacet
facet normal 0.0 0.0 -1.0
  outer loop
    vertex 26.000000000000004 0.0 0.0
    vertex 17.999999999999996 1.5358983848622447 0.0
    vertex 18.828427124746188 2.1715728752538106 0.0
  endloop
endfacet
facet normal 0.0 0.0 -1.0
  outer loop
    vertex 26.000000000000004 0.0 0.0
    vertex 18.828427124746188 2.1715728752538106 0.0
    vertex 19.46410161513775 3.0 0.0
  endloop
endfacet
facet normal 0.0 0.0 -1.0
  outer loop
    vertex 26.000000000000004 0.0 0.0
    vertex 19.46410161513775 3.0 0.0
    vertex 19.86370330515627 3.964723819589916 0.0
  endloop
endfacet
facet normal 0.0 0.0 -1.0
  outer loop
    vertex 26.000000000000004 0.0 0.0
    vertex 19.86370330515627 3.964723819589916 0.0
    vertex 19.999999999999996 5.000000000000002 0.0
  endloop
endfacet
facet normal 0.0 0.0 -1.0
  outer loop
    vertex 26.000000000000004 0.0 0.0
    vertex 19.999999999999996 5.000000000000002 0.0
    vertex 26.000000000000004 20.999999999999996 0.0
  endloop
endfacet
facet normal 0.0 0.0 -1.0
  outer loop
    vertex 12.136296694843722 6.0352761804100865 5.999999999999999
    vertex 12.136296694843722 3.96472381958992 5.999999999999999
    vertex 11.999999999999995 5.000000000000003 5.999999999999999
  endloop
endfacet
facet normal 0.0 0.0 -1.0
  outer loop
    vertex 12.136296694843722 3.96472381958992 5.999999999999999
    vertex 12.136296694843722 6.0352761804100865 5.999999999999999
    vertex 12.535898384862241 7.000000000000004 5.999999999999999
  endloop
endfacet
facet normal 0.0 0.0 -1.0
  outer loop
    vertex 12.136296694843722 3.96472381958992 5.999999999999999
    vertex 12.535898384862241 7.000000000000004 5.999999999999999
    vertex 12.53589838486224 3.0000000000000027 5.999999999999999
  endloop
endfacet
facet normal 0.0 0.0 -1.0
  outer loop
    vertex 12.53589838486224 3.0000000000000027 5.999999999999999
    vertex 12.535898384862241 7.000000000000004 5.999999999999999
    vertex 13.171572875253805 2.171572875253813 5.999999999999999
  endloop
endfacet
facet normal 0.0 0.0 -1.0
  outer loop
    vertex 13.171572875253805 2.171572875253813 5.999999999999999
    vertex 12.535898384862241 7.000000000000004 5.999999999999999
    vertex 13.171572875253805 7.828427124746193 5.999999999999999
  endloop
endfacet
facet normal 0.0 0.0 -1.0
  outer loop
    vertex 13.171572875253805 2.171572875253813 5.999999999999999
    vertex 13.171572875253805 7.828427124746193 5.999999999999999
    vertex 13.999999999999996 8.464101615137759 5.999999999999999
  endloop
endfacet
facet normal 0.0 0.0 -1.0
  outer loop
    vertex 13.171572875253805 2.171572875253813 5.999999999999999
    vertex 13.999999999999996 8.464101615137759 5.999999999999999
    vertex 13.999999999999995 1.5358983848622476 5.999999999999999
  endloop
endfacet
facet normal 0.0 0.0 -1.0
  outer loop
    vertex 13.999999999999995 1.5358983848622476 5.999999999999999
    vertex 13.999999999999996 8.464101615137759 5.999999999999999
    vertex 14.96472381958991 1.1362966948437287 5.999999999999999
  endloop
endfacet
facet normal 0.0 0.0 -1.0
  outer loop
    vertex 14.96472381958991 1.1362966948437287 5.999999999999999
    vertex 13.999999999999996 8.464101615137759 5.999999999999999
    vertex 14.964723819589913 8.863703305156276 5.999999999999999
  endloop
endfacet
facet normal 0.0 0.0 -1.0
  outer loop
    vertex 14.96472381958991 1.1362966948437287 5.999999999999999
    vertex 14.964723819589913 8.863703305156276 5.999999999999999
    vertex 15.999999999999996 1.0000000000000009 5.999999999999999
  endloop
endfacet
facet normal 0.0 0.0 -1.0
  outer loop
    vertex 15.999999999999996 1.0000000000000009 5.999999999999999
    vertex 14.964723819589913 8.863703305156276 5.999999999999999
    vertex 15.999999999999996 9.000000000000004 5.999999999999999
  endloop
endfacet
facet normal 0.0 0.0 -1.0
  outer loop
    vertex 15.999999999999996 1.0000000000000009 5.999999999999999
    vertex 15.999999999999996 9.000000000000004 5.999999999999999
    vertex 17.035276180410083 8.863703305156276 5.999999999999999
  endloop
endfacet
facet normal 0.0 0.0 -1.0
  outer loop
    vertex 15.999999999999996 1.0000000000000009 5.999999999999999
    vertex 17.035276180410083 8.863703305156276 5.999999999999999
    vertex 17.03527618041008 1.1362966948437272 5.999999999999999
  endloop
endfacet
facet normal 0.0 0.0 -1.0
  outer loop
    vertex 17.03527618041008 1.1362966948437272 5.999999999999999
    vertex 17.035276180410083 8.863703305156276 5.999999999999999
    vertex 17.999999999999996 1.5358983848622447 5.999999999999999
  endloop
endfacet
facet normal 0.0 0.0 -1.0
  outer loop
    vertex 17.999999999999996 1.5358983848622447 5.999999999999999
    vertex 17.035276180410083 8.863703305156276 5.999999999999999
    vertex 17.999999999999996 8.464101615137757 5.999999999999999
  endloop
endfacet
facet normal 0.0 0.0 -1.0
  outer loop
    vertex 17.999999999999996 1.5358983848622447 5.999999999999999
    vertex 17.999999999999996 8.464101615137757 5.999999999999999
    vertex 18.828427124746188 2.1715728752538106 5.999999999999999
  endloop
endfacet
facet normal 0.0 0.0 -1.0
  outer loop
    vertex 18.828427124746188 2.1715728752538106 5.999999999999999
    vertex 17.999999999999996 8.464101615137757 5.999999999999999
    vertex 18.828427124746188 7.828427124746193 5.999999999999999
  endloop
endfacet
facet normal 0.0 0.0 -1.0
  outer loop
    vertex 18.828427124746188 2.1715728752538106 5.999999999999999
    vertex 18.828427124746188 7.828427124746193 5.999999999999999
    vertex 19.464101615137753 7.000000000000003 5.999999999999999
  endloop
endfacet
facet normal 0.0 0.0 -1.0
  outer loop
    vertex 18.828427124746188 2.1715728752538106 5.999999999999999
    vertex 19.464101615137753 7.000000000000003 5.999999999999999
    vertex 19.46410161513775 3.0 5.999999999999999
  endloop
endfacet
facet normal 0.0 0.0 -1.0
  outer loop
    vertex 19.46410161513775 3.0 5.999999999999999
    vertex 19.464101615137753 7.000000000000003 5.999999999999999
    vertex 19.86370330515627 3.964723819589916 5.999999999999999
  endloop
endfacet
facet normal 0.0 0.0 -1.0
  outer loop
    vertex 19.86370330515627 3.964723819589916 5.999999999999999
    vertex 19.464101615137753 7.000000000000003 5.999999999999999
    vertex 19.86370330515627 6.035276180410086 5.999999999999999
  endloop
endfacet
facet normal 0.0 0.0 -1.0
  outer loop
    vertex 19.86370330515627 3.964723819589916 5.999999999999999
    vertex 19.86370330515627 6.035276180410086 5.999999999999999
    vertex 19.999999999999996 5.000000000000002 5.999999999999999
  endloop
endfacet
facet normal 1.0 -0.0 -0.0
  outer loop
    vertex 30.0 20.999999999999996 3.9999999999999996
    vertex 30.0 0.0 20.0
    vertex 30.0 0.0 3.9999999999999996
  endloop
endfacet
facet normal 1.0 -0.0 -0.0
  outer loop
    vertex 30.0 0.0 20.0
    vertex 30.0 20.999999999999996 3.9999999999999996
    vertex 30.0 21.000000000000007 20.0
  endloop
endfacet
facet normal -0.0 -0.0 -1.0
  outer loop
    vertex 52.13629669484372 6.0352761804100865 6.0000000000000115
    vertex 52.13629669484372 3.9647238195899197 6.0000000000000115
    vertex 51.99999999999999 5.000000000000002 6.0000000000000115
  endloop
endfacet
facet normal -0.0 -0.0 -1.0
  outer loop
    vertex 52.13629669484372 3.9647238195899197 6.0000000000000115
    vertex 52.13629669484372 6.0352761804100865 6.0000000000000115
    vertex 52.53589838486224 7.000000000000003 6.0000000000000115
  endloop
endfacet
facet normal -0.0 -0.0 -1.0
  outer loop
    vertex 52.13629669484372 3.9647238195899197 6.0000000000000115
    vertex 52.53589838486224 7.000000000000003 6.0000000000000115
    vertex 52.53589838486224 3.000000000000003 6.0000000000000115
  endloop
endfacet
facet normal -0.0 -0.0 -1.0
  outer loop
    vertex 52.53589838486224 3.000000000000003 6.0000000000000115
    vertex 52.53589838486224 7.000000000000003 6.0000000000000115
    vertex 53.171572875253815 7.8284271247461925 6.0000000000000115
  endloop
endfacet
facet normal -0.0 -0.0 -1.0
  outer loop
    vertex 52.53589838486224 3.000000000000003 6.0000000000000115
    vertex 53.171572875253815 7.8284271247461925 6.0000000000000115
    vertex 53.171572875253815 2.1715728752538124 6.0000000000000115
  endloop
endfacet
facet normal -0.0 -0.0 -1.0
  outer loop
    vertex 53.171572875253815 2.1715728752538124 6.0000000000000115
    vertex 53.171572875253815 7.8284271247461925 6.0000000000000115
    vertex 54.0 8.464101615137755 6.0000000000000115
  endloop
endfacet
facet normal -0.0 -0.0 -1.0
  outer loop
    vertex 53.171572875253815 2.1715728752538124 6.0000000000000115
    vertex 54.0 8.464101615137755 6.0000000000000115
    vertex 54.0 1.5358983848622483 6.0000000000000115
  endloop
endfacet
facet normal -0.0 -0.0 -1.0
  outer loop
    vertex 54.0 1.5358983848622483 6.0000000000000115
    vertex 54.0 8.464101615137755 6.0000000000000115
    vertex 54.96472381958992 8.863703305156275 6.0000000000000115
  endloop
endfacet
facet normal -0.0 -0.0 -1.0
  outer loop
    vertex 54.0 1.5358983848622483 6.0000000000000115
    vertex 54.96472381958992 8.863703305156275 6.0000000000000115
    vertex 54.96472381958992 1.1362966948437294 6.0000000000000115
  endloop
endfacet
facet normal -0.0 -0.0 -1.0
  outer loop
    vertex 54.96472381958992 1.1362966948437294 6.0000000000000115
    vertex 54.96472381958992 8.863703305156275 6.0000000000000115
    vertex 56.0 9.000000000000002 6.0000000000000115
  endloop
endfacet
facet normal -0.0 -0.0 -1.0
  outer loop
    vertex 54.96472381958992 1.1362966948437294 6.0000000000000115
    vertex 56.0 9.000000000000002 6.0000000000000115
    vertex 56.0 1.0000000000000024 6.0000000000000115
  endloop
endfacet
facet normal -0.0 -0.0 -1.0
  outer loop
    vertex 56.0 1.0000000000000024 6.0000000000000115
    vertex 56.0 9.000000000000002 6.0000000000000115
    vertex 57.03527618041009 8.863703305156273 6.0000000000000115
  endloop
endfacet
facet normal -0.0 -0.0 -1.0
  outer loop
    vertex 56.0 1.0000000000000024 6.0000000000000115
    vertex 57.03527618041009 8.863703305156273 6.0000000000000115
    vertex 57.03527618041008 1.1362966948437287 6.0000000000000115
  endloop
endfacet
facet normal -0.0 -0.0 -1.0
  outer loop
    vertex 57.03527618041008 1.1362966948437287 6.0000000000000115
    vertex 57.03527618041009 8.863703305156273 6.0000000000000115
    vertex 57.99999999999999 1.535898384862247 6.0000000000000115
  endloop
endfacet
facet normal -0.0 -0.0 -1.0
  outer loop
    vertex 57.99999999999999 1.535898384862247 6.0000000000000115
    vertex 57.03527618041009 8.863703305156273 6.0000000000000115
    vertex 57.99999999999999 8.464101615137755 6.0000000000000115
  endloop
endfacet
facet normal -0.0 -0.0 -1.0
  outer loop
    vertex 57.99999999999999 1.535898384862247 6.0000000000000115
    vertex 57.99999999999999 8.464101615137755 6.0000000000000115
    vertex 58.828427124746185 7.8284271247461925 6.0000000000000115
  endloop
endfacet
facet normal -0.0 -0.0 -1.0
  outer loop
    vertex 57.99999999999999 1.535898384862247 6.0000000000000115
    vertex 58.828427124746185 7.8284271247461925 6.0000000000000115
    vertex 58.828427124746185 2.1715728752538106 6.0000000000000115
  endloop
endfacet
facet normal -0.0 -0.0 -1.0
  outer loop
    vertex 58.828427124746185 2.1715728752538106 6.0000000000000115
    vertex 58.828427124746185 7.8284271247461925 6.0000000000000115
    vertex 59.46410161513776 6.999999999999998 6.0000000000000115
  endloop
endfacet
facet normal -0.0 -0.0 -1.0
  outer loop
    vertex 58.828427124746185 2.1715728752538106 6.0000000000000115
    vertex 59.46410161513776 6.999999999999998 6.0000000000000115
    vertex 59.46410161513776 3.0000000000000004 6.0000000000000115
  endloop
endfacet
facet normal -0.0 -0.0 -1.0
  outer loop
    vertex 59.46410161513776 3.0000000000000004 6.0000000000000115
    vertex 59.46410161513776 6.999999999999998 6.0000000000000115
    vertex 59.86370330515628 6.035276180410083 6.0000000000000115
  endloop
endfacet
facet normal -0.0 -0.0 -1.0
  outer loop
    vertex 59.46410161513776 3.0000000000000004 6.0000000000000115
    vertex 59.86370330515628 6.035276180410083 6.0000000000000115
    vertex 59.86370330515628 3.9647238195899166 6.0000000000000115
  endloop
endfacet
facet normal -0.0 -0.0 -1.0
  outer loop
    vertex 59.86370330515628 3.9647238195899166 6.0000000000000115
    vertex 59.86370330515628 6.035276180410083 6.0000000000000115
    vertex 60.0 5.000000000000002 6.0000000000000115
  endloop
endfacet
facet normal -0.0 -0.0 1.0
  outer loop
    vertex 58.99999999999996 0.0 15.999999999999998
    vertex 65.0 3.0 15.999999999999998
    vertex 58.99999999999996 21.0 15.999999999999998
  endloop
endfacet
facet normal -0.0 -0.0 1.0
  outer loop
    vertex 65.0 3.0 15.999999999999998
    vertex 58.99999999999996 0.0 15.999999999999998
    vertex 72.0 0.0 15.999999999999998
  endloop
endfacet
facet normal -0.0 -0.0 1.0
  outer loop
    vertex 65.0 3.0 15.999999999999998
    vertex 72.0 0.0 15.999999999999998
    vertex 68.0 3.0 15.999999999999998
  endloop
endfacet
facet normal -0.0 -0.0 1.0
  outer loop
    vertex 68.0 3.0 15.999999999999998
    vertex 72.0 0.0 15.999999999999998
    vertex 68.0 18.0 15.999999999999998
  endloop
endfacet
facet normal -0.0 -0.0 1.0
  outer loop
    vertex 58.99999999999996 21.0 15.999999999999998
    vertex 65.0 18.0 15.999999999999998
    vertex 72.0 21.0 15.999999999999998
  endloop
endfacet
facet normal -0.0 -0.0 1.0
  outer loop
    vertex 65.0 18.0 15.999999999999998
    vertex 58.99999999999996 21.0 15.999999999999998
    vertex 65.0 3.0 15.999999999999998
  endloop
endfacet
facet normal -0.0 -0.0 1.0
  outer loop
    vertex 72.0 21.0 15.999999999999998
    vertex 65.0 18.0 15.999999999999998
    vertex 68.0 18.0 15.999999999999998
  endloop
endfacet
facet normal -0.0 -0.0 1.0
  outer loop
    vertex 72.0 21.0 15.999999999999998
    vertex 68.0 18.0 15.999999999999998
    vertex 72.0 0.0 15.999999999999998
  endloop
endfacet
facet normal 0.0 0.0 -1.0
  outer loop
    vertex 72.0 18.0 6.0
    vertex 68.00000000000001 10.000000000000002 6.0
    vertex 68.00000000000001 18.0 6.0
  endloop
endfacet
facet normal 0.0 0.0 -1.0
  outer loop
    vertex 68.00000000000001 10.000000000000002 6.0
    vertex 72.0 18.0 6.0
    vertex 72.0 10.000000000000002 6.0
  endloop
endfacet
facet normal -0.0 -0.0 1.0
  outer loop
    vertex 72.0 10.000000000000002 3.0
    vertex 68.00000000000001 18.0 3.0
    vertex 68.00000000000001 10.000000000000002 3.0
  endloop
endfacet
facet normal -0.0 -0.0 1.0
  outer loop
    vertex 68.00000000000001 18.0 3.0
    vertex 72.0 10.000000000000002 3.0
    vertex 72.0 18.0 3.0
  endloop
endfacet
facet normal 0.0 0.9999999999999999 0.0
  outer loop
    vertex 68.00000000000001 10.000000000000002 6.0
    vertex 72.0 10.000000000000002 3.0
    vertex 68.00000000000001 10.000000000000002 3.0
  endloop
endfacet
facet normal 0.0 0.9999999999999999 0.0
  outer loop
    vertex 72.0 10.000000000000002 3.0
    vertex 68.00000000000001 10.000000000000002 6.0
    vertex 72.0 10.000000000000002 6.0
  endloop
endfacet
facet normal 0.0 0.0 -1.0
  outer loop
    vertex 46.0 21.0 0.0
    vertex 53.171572875253815 7.8284271247461925 0.0
    vertex 46.0 0.0 0.0
  endloop
endfacet
facet normal 0.0 0.0 -1.0
  outer loop
    vertex 53.171572875253815 7.8284271247461925 0.0
    vertex 46.0 21.0 0.0
    vertex 65.0 18.0 0.0
  endloop
endfacet
facet normal 0.0 0.0 -1.0
  outer loop
    vertex 65.0 18.0 0.0
    vertex 46.0 21.0 0.0
    vertex 72.0 21.0 0.0
  endloop
endfacet
facet normal 0.0 0.0 -1.0
  outer loop
    vertex 46.0 0.0 0.0
    vertex 53.171572875253815 7.8284271247461925 0.0
    vertex 52.53589838486224 7.000000000000003 0.0
  endloop
endfacet
facet normal 0.0 0.0 -1.0
  outer loop
    vertex 46.0 0.0 0.0
    vertex 52.53589838486224 7.000000000000003 0.0
    vertex 52.13629669484372 6.0352761804100865 0.0
  endloop
endfacet
facet normal 0.0 0.0 -1.0
  outer loop
    vertex 46.0 0.0 0.0
    vertex 52.13629669484372 6.0352761804100865 0.0
    vertex 51.99999999999999 5.000000000000002 0.0
  endloop
endfacet
facet normal 0.0 0.0 -1.0
  outer loop
    vertex 53.171572875253815 7.8284271247461925 0.0
    vertex 65.0 18.0 0.0
    vertex 54.0 8.464101615137755 0.0
  endloop
endfacet
facet normal 0.0 0.0 -1.0
  outer loop
    vertex 54.0 8.464101615137755 0.0
    vertex 65.0 18.0 0.0
    vertex 54.96472381958992 8.863703305156275 0.0
  endloop
endfacet
facet normal 0.0 0.0 -1.0
  outer loop
    vertex 54.96472381958992 8.863703305156275 0.0
    vertex 65.0 18.0 0.0
    vertex 56.0 9.000000000000002 0.0
  endloop
endfacet
facet normal 0.0 0.0 -1.0
  outer loop
    vertex 56.0 9.000000000000002 0.0
    vertex 65.0 18.0 0.0
    vertex 57.03527618041009 8.863703305156273 0.0
  endloop
endfacet
facet normal 0.0 0.0 -1.0
  outer loop
    vertex 57.03527618041009 8.863703305156273 0.0
    vertex 65.0 18.0 0.0
    vertex 57.99999999999999 8.464101615137755 0.0
  endloop
endfacet
facet normal 0.0 0.0 -1.0
  outer loop
    vertex 57.99999999999999 8.464101615137755 0.0
    vertex 65.0 18.0 0.0
    vertex 58.828427124746185 7.8284271247461925 0.0
  endloop
endfacet
facet normal 0.0 0.0 -1.0
  outer loop
    vertex 58.828427124746185 7.8284271247461925 0.0
    vertex 65.0 18.0 0.0
    vertex 59.46410161513776 6.999999999999998 0.0
  endloop
endfacet
facet normal 0.0 0.0 -1.0
  outer loop
    vertex 59.46410161513776 6.999999999999998 0.0
    vertex 65.0 18.0 0.0
    vertex 59.86370330515628 6.035276180410083 0.0
  endloop
endfacet
facet normal 0.0 0.0 -1.0
  outer loop
    vertex 59.86370330515628 6.035276180410083 0.0
    vertex 65.0 18.0 0.0
    vertex 60.0 5.000000000000002 0.0
  endloop
endfacet
facet normal 0.0 0.0 -1.0
  outer loop
    vertex 65.0 18.0 0.0
    vertex 72.0 21.0 0.0
    vertex 68.0 18.0 0.0
  endloop
endfacet
facet normal 0.0 0.0 -1.0
  outer loop
    vertex 68.0 18.0 0.0
    vertex 72.0 21.0 0.0
    vertex 68.0 3.0 0.0
  endloop
endfacet
facet normal 0.0 0.0 -1.0
  outer loop
    vertex 46.0 0.0 0.0
    vertex 56.0 1.0000000000000024 0.0
    vertex 72.0 0.0 0.0
  endloop
endfacet
facet normal 0.0 0.0 -1.0
  outer loop
    vertex 56.0 1.0000000000000024 0.0
    vertex 46.0 0.0 0.0
    vertex 54.96472381958992 1.1362966948437294 0.0
  endloop
endfacet
facet normal 0.0 0.0 -1.0
  outer loop
    vertex 54.96472381958992 1.1362966948437294 0.0
    vertex 46.0 0.0 0.0
    vertex 54.0 1.5358983848622483 0.0
  endloop
endfacet
facet normal 0.0 0.0 -1.0
  outer loop
    vertex 54.0 1.5358983848622483 0.0
    vertex 46.0 0.0 0.0
    vertex 53.171572875253815 2.1715728752538124 0.0
  endloop
endfacet
facet normal 0.0 0.0 -1.0
  outer loop
    vertex 53.171572875253815 2.1715728752538124 0.0
    vertex 46.0 0.0 0.0
    vertex 52.53589838486224 3.000000000000003 0.0
  endloop
endfacet
facet normal 0.0 0.0 -1.0
  outer loop
    vertex 52.53589838486224 3.000000000000003 0.0
    vertex 46.0 0.0 0.0
    vertex 52.13629669484372 3.9647238195899197 0.0
  endloop
endfacet
facet normal 0.0 0.0 -1.0
  outer loop
    vertex 52.13629669484372 3.9647238195899197 0.0
    vertex 46.0 0.0 0.0
    vertex 51.99999999999999 5.000000000000002 0.0
  endloop
endfacet
facet normal 0.0 0.0 -1.0
  outer loop
    vertex 72.0 0.0 0.0
    vertex 56.0 1.0000000000000024 0.0
    vertex 57.03527618041008 1.1362966948437287 0.0
  endloop
endfacet
facet normal 0.0 0.0 -1.0
  outer loop
    vertex 72.0 0.0 0.0
    vertex 57.03527618041008 1.1362966948437287 0.0
    vertex 57.99999999999999 1.535898384862247 0.0
  endloop
endfacet
facet normal 0.0 0.0 -1.0
  outer loop
    vertex 72.0 0.0 0.0
    vertex 57.99999999999999 1.535898384862247 0.0
    vertex 58.828427124746185 2.1715728752538106 0.0
  endloop
endfacet
facet normal 0.0 0.0 -1.0
  outer loop
    vertex 72.0 0.0 0.0
    vertex 58.828427124746185 2.1715728752538106 0.0
    vertex 59.46410161513776 3.0000000000000004 0.0
  endloop
endfacet
facet normal 0.0 0.0 -1.0
  outer loop
    vertex 72.0 0.0 0.0
    vertex 59.46410161513776 3.0000000000000004 0.0
    vertex 59.86370330515628 3.9647238195899166 0.0
  endloop
endfacet
facet normal 0.0 0.0 -1.0
  outer loop
    vertex 72.0 0.0 0.0
    vertex 59.86370330515628 3.9647238195899166 0.0
    vertex 60.0 5.000000000000002 0.0
  endloop
endfacet
facet normal 0.0 0.0 -1.0
  outer loop
    vertex 72.0 0.0 0.0
    vertex 60.0 5.000000000000002 0.0
    vertex 65.0 3.0 0.0
  endloop
endfacet
facet normal 0.0 0.0 -1.0
  outer loop
    vertex 65.0 3.0 0.0
    vertex 60.0 5.000000000000002 0.0
    vertex 65.0 18.0 0.0
  endloop
endfacet
facet normal 0.0 0.0 -1.0
  outer loop
    vertex 72.0 0.0 0.0
    vertex 65.0 3.0 0.0
    vertex 68.0 3.0 0.0
  endloop
endfacet
facet normal 0.0 0.0 -1.0
  outer loop
    vertex 72.0 0.0 0.0
    vertex 68.0 3.0 0.0
    vertex 72.0 21.0 0.0
  endloop
endfacet
facet normal -6.042785319745496e-16 8.508061435628524e-33 -1.0
  outer loop
    vertex 40.0 21.000000000000007 21.999999999999993
    vertex 32.0 0.0 22.0
    vertex 32.0 21.000000000000007 22.0
  endloop
endfacet
facet normal -6.042785319745496e-16 8.508061435628524e-33 -1.0
  outer loop
    vertex 32.0 0.0 22.0
    vertex 40.0 21.000000000000007 21.999999999999993
    vertex 40.0 0.0 21.999999999999993
  endloop
endfacet
facet normal 0.707106781186547 0.0 -0.7071067811865479
  outer loop
    vertex 32.0 21.000000000000007 22.0
    vertex 30.0 0.0 20.0
    vertex 30.0 21.000000000000007 20.0
  endloop
endfacet
facet normal 0.707106781186547 0.0 -0.7071067811865479
  outer loop
    vertex 30.0 0.0 20.0
    vertex 32.0 21.000000000000007 22.0
    vertex 32.0 0.0 22.0
  endloop
endfacet
facet normal -6.436442756172109e-18 1.0 -1.720640705897873e-16
  outer loop
    vertex 0.0 21.0 15.999999999999998
    vertex 26.000000000000004 20.999999999999996 0.0
    vertex 0.0 21.0 0.0
  endloop
endfacet
facet normal -6.436442756172109e-18 1.0 -1.720640705897873e-16
  outer loop
    vertex 26.000000000000004 20.999999999999996 0.0
    vertex 0.0 21.0 15.999999999999998
    vertex 30.0 20.999999999999996 3.9999999999999996
  endloop
endfacet
facet normal -6.436442756172109e-18 1.0 -1.720640705897873e-16
  outer loop
    vertex 30.0 20.999999999999996 3.9999999999999996
    vertex 0.0 21.0 15.999999999999998
    vertex 13.000000000000002 21.0 15.999999999999998
  endloop
endfacet
facet normal -6.436442756172109e-18 1.0 -1.720640705897873e-16
  outer loop
    vertex 30.0 20.999999999999996 3.9999999999999996
    vertex 13.000000000000002 21.0 15.999999999999998
    vertex 30.0 21.000000000000007 20.0
  endloop
endfacet
facet normal -6.436442756172109e-18 1.0 -1.720640705897873e-16
  outer loop
    vertex 30.0 21.000000000000007 20.0
    vertex 13.000000000000002 21.0 15.999999999999998
    vertex 22.000000000000004 21.0 25.0
  endloop
endfacet
facet normal -6.436442756172109e-18 1.0 -1.720640705897873e-16
  outer loop
    vertex 30.0 21.000000000000007 20.0
    vertex 22.000000000000004 21.0 25.0
    vertex 32.0 21.000000000000007 22.0
  endloop
endfacet
facet normal -6.436442756172109e-18 1.0 -1.720640705897873e-16
  outer loop
    vertex 42.0 21.000000000000007 19.999999999999993
    vertex 58.99999999999996 21.0 15.999999999999998
    vertex 42.0 21.0 3.9999999999999996
  endloop
endfacet
facet normal -6.436442756172109e-18 1.0 -1.720640705897873e-16
  outer loop
    vertex 58.99999999999996 21.0 15.999999999999998
    vertex 42.0 21.000000000000007 19.999999999999993
    vertex 49.999999999999964 21.0 25.0
  endloop
endfacet
facet normal -6.436442756172109e-18 1.0 -1.720640705897873e-16
  outer loop
    vertex 49.999999999999964 21.0 25.0
    vertex 42.0 21.000000000000007 19.999999999999993
    vertex 40.0 21.000000000000007 21.999999999999993
  endloop
endfacet
facet normal -6.436442756172109e-18 1.0 -1.720640705897873e-16
  outer loop
    vertex 49.999999999999964 21.0 25.0
    vertex 40.0 21.000000000000007 21.999999999999993
    vertex 32.0 21.000000000000007 22.0
  endloop
endfacet
facet normal -6.436442756172109e-18 1.0 -1.720640705897873e-16
  outer loop
    vertex 49.999999999999964 21.0 25.0
    vertex 32.0 21.000000000000007 22.0
    vertex 22.000000000000004 21.0 25.0
  endloop
endfacet
facet normal -6.436442756172109e-18 1.0 -1.720640705897873e-16
  outer loop
    vertex 42.0 21.0 3.9999999999999996
    vertex 72.0 21.0 0.0
    vertex 46.0 21.0 0.0
  endloop
endfacet
facet normal -6.436442756172109e-18 1.0 -1.720640705897873e-16
  outer loop
    vertex 72.0 21.0 0.0
    vertex 42.0 21.0 3.9999999999999996
    vertex 72.0 21.0 15.999999999999998
  endloop
endfacet
facet normal -6.436442756172109e-18 1.0 -1.720640705897873e-16
  outer loop
    vertex 72.0 21.0 15.999999999999998
    vertex 42.0 21.0 3.9999999999999996
    vertex 58.99999999999996 21.0 15.999999999999998
  endloop
endfacet
facet normal -0.8660254037844389 -0.49999999999999956 7.048421676835903e-19
  outer loop
    vertex 19.464101615137753 7.000000000000003 5.999999999999999
    vertex 19.86370330515627 6.035276180410086 0.0
    vertex 19.86370330515627 6.035276180410086 5.999999999999999
  endloop
endfacet
facet normal -0.9659258262890684 -0.2588190451025203 7.666317975203146e-19
  outer loop
    vertex 19.86370330515627 6.035276180410086 0.0
    vertex 19.464101615137753 7.000000000000003 5.999999999999999
    vertex 19.464101615137753 7.000000000000003 0.0
  endloop
endfacet
facet normal -0.2588190451025208 -0.9659258262890682 7.621534831447754e-19
  outer loop
    vertex 17.035276180410083 8.863703305156276 5.999999999999999
    vertex 15.999999999999996 9.000000000000004 0.0
    vertex 17.035276180410083 8.863703305156276 0.0
  endloop
endfacet
facet normal 1.9604441770423192e-16 -1.0 -3.523806083481263e-20
  outer loop
    vertex 15.999999999999996 9.000000000000004 0.0
    vertex 17.035276180410083 8.863703305156276 5.999999999999999
    vertex 15.999999999999996 9.000000000000004 5.999999999999999
  endloop
endfacet
facet normal -0.0 -0.0 1.0
  outer loop
    vertex 0.0 0.0 15.999999999999998
    vertex 3.9999999999999996 3.0 15.999999999999998
    vertex 0.0 21.0 15.999999999999998
  endloop
endfacet
facet normal -0.0 -0.0 1.0
  outer loop
    vertex 3.9999999999999996 3.0 15.999999999999998
    vertex 0.0 0.0 15.999999999999998
    vertex 13.000000000000002 0.0 15.999999999999998
  endloop
endfacet
facet normal -0.0 -0.0 1.0
  outer loop
    vertex 3.9999999999999996 3.0 15.999999999999998
    vertex 13.000000000000002 0.0 15.999999999999998
    vertex 7.0 3.0 15.999999999999998
  endloop
endfacet
facet normal -0.0 -0.0 1.0
  outer loop
    vertex 7.0 3.0 15.999999999999998
    vertex 13.000000000000002 0.0 15.999999999999998
    vertex 7.0 18.0 15.999999999999998
  endloop
endfacet
facet normal -0.0 -0.0 1.0
  outer loop
    vertex 0.0 21.0 15.999999999999998
    vertex 3.9999999999999996 18.0 15.999999999999998
    vertex 13.000000000000002 21.0 15.999999999999998
  endloop
endfacet
facet normal -0.0 -0.0 1.0
  outer loop
    vertex 3.9999999999999996 18.0 15.999999999999998
    vertex 0.0 21.0 15.999999999999998
    vertex 3.9999999999999996 3.0 15.999999999999998
  endloop
endfacet
facet normal -0.0 -0.0 1.0
  outer loop
    vertex 13.000000000000002 21.0 15.999999999999998
    vertex 3.9999999999999996 18.0 15.999999999999998
    vertex 7.0 18.0 15.999999999999998
  endloop
endfacet
facet normal -0.0 -0.0 1.0
  outer loop
    vertex 13.000000000000002 21.0 15.999999999999998
    vertex 7.0 18.0 15.999999999999998
    vertex 13.000000000000002 0.0 15.999999999999998
  endloop
endfacet
facet normal 0.0 0.0 -1.0
  outer loop
    vertex 4.0000000000000036 11.0 6.0
    vertex 0.0 3.0 6.0
    vertex 0.0 11.0 6.0
  endloop
endfacet
facet normal 0.0 0.0 -1.0
  outer loop
    vertex 0.0 3.0 6.0
    vertex 4.0000000000000036 11.0 6.0
    vertex 4.0000000000000036 3.0 6.0
  endloop
endfacet
facet normal -0.0 -0.0 1.0
  outer loop
    vertex 4.0000000000000036 3.0 3.0
    vertex 0.0 11.0 3.0
    vertex 0.0 3.0 3.0
  endloop
endfacet
facet normal -0.0 -0.0 1.0
  outer loop
    vertex 0.0 11.0 3.0
    vertex 4.0000000000000036 3.0 3.0
    vertex 4.0000000000000036 11.0 3.0
  endloop
endfacet
facet normal -0.7071067811865475 -0.7071067811865477 -1.0709051108130514e-19
  outer loop
    vertex 18.828427124746188 7.828427124746193 5.999999999999999
    vertex 19.464101615137753 7.000000000000003 0.0
    vertex 19.464101615137753 7.000000000000003 5.999999999999999
  endloop
endfacet
facet normal -0.8660254037844389 -0.49999999999999956 7.048421676835903e-19
  outer loop
    vertex 19.464101615137753 7.000000000000003 0.0
    vertex 18.828427124746188 7.828427124746193 5.999999999999999
    vertex 18.828427124746188 7.828427124746193 0.0
  endloop
endfacet
facet normal -0.9659258262890684 -0.2588190451025203 7.666317975203146e-19
  outer loop
    vertex 19.86370330515627 6.035276180410086 5.999999999999999
    vertex 19.999999999999996 5.000000000000002 0.0
    vertex 19.999999999999996 5.000000000000002 5.999999999999999
  endloop
endfacet
facet normal -1.0 -1.6931108801729119e-16 -1.7619030417406571e-19
  outer loop
    vertex 19.999999999999996 5.000000000000002 0.0
    vertex 19.86370330515627 6.035276180410086 5.999999999999999
    vertex 19.86370330515627 6.035276180410086 0.0
  endloop
endfacet
facet normal -0.0 -0.9999999999999999 -0.0
  outer loop
    vertex 4.0000000000000036 11.0 6.0
    vertex 0.0 11.0 3.0
    vertex 4.0000000000000036 11.0 3.0
  endloop
endfacet
facet normal -0.0 -0.9999999999999999 -0.0
  outer loop
    vertex 0.0 11.0 3.0
    vertex 4.0000000000000036 11.0 6.0
    vertex 0.0 11.0 6.0
  endloop
endfacet
facet normal 0.0 0.0 -1.0
  outer loop
    vertex 3.9999999999999942 18.0 12.999999999999998
    vertex 0.0 10.000000000000002 12.999999999999998
    vertex 0.0 18.0 12.999999999999998
  endloop
endfacet
facet normal 0.0 0.0 -1.0
  outer loop
    vertex 0.0 10.000000000000002 12.999999999999998
    vertex 3.9999999999999942 18.0 12.999999999999998
    vertex 3.9999999999999942 10.000000000000002 12.999999999999998
  endloop
endfacet
facet normal -0.5 -0.8660254037844386 8.930429060742603e-19
  outer loop
    vertex 17.999999999999996 8.464101615137757 5.999999999999999
    vertex 17.035276180410083 8.863703305156276 0.0
    vertex 17.999999999999996 8.464101615137757 0.0
  endloop
endfacet
facet normal -0.2588190451025208 -0.9659258262890682 7.621534831447754e-19
  outer loop
    vertex 17.035276180410083 8.863703305156276 0.0
    vertex 17.999999999999996 8.464101615137757 5.999999999999999
    vertex 17.035276180410083 8.863703305156276 5.999999999999999
  endloop
endfacet
facet normal -1.0 -1.6931108801729119e-16 -1.7619030417406571e-19
  outer loop
    vertex 19.999999999999996 5.000000000000002 5.999999999999999
    vertex 19.86370330515627 3.964723819589916 0.0
    vertex 19.86370330515627 3.964723819589916 5.999999999999999
  endloop
endfacet
facet normal -0.9659258262890681 0.25881904510252146 5.909792862926302e-19
  outer loop
    vertex 19.86370330515627 3.964723819589916 0.0
    vertex 19.999999999999996 5.000000000000002 5.999999999999999
    vertex 19.999999999999996 5.000000000000002 0.0
  endloop
endfacet
facet normal 1.9604441770423192e-16 -1.0 -3.523806083481263e-20
  outer loop
    vertex 15.999999999999996 9.000000000000004 5.999999999999999
    vertex 14.964723819589913 8.863703305156276 0.0
    vertex 15.999999999999996 9.000000000000004 0.0
  endloop
endfacet
facet normal 0.25881904510252046 -0.9659258262890684 1.0108968077517637e-18
  outer loop
    vertex 14.964723819589913 8.863703305156276 0.0
    vertex 15.999999999999996 9.000000000000004 5.999999999999999
    vertex 14.964723819589913 8.863703305156276 5.999999999999999
  endloop
endfacet
facet normal 0.25881904510252046 -0.9659258262890684 1.0108968077517637e-18
  outer loop
    vertex 14.964723819589913 8.863703305156276 5.999999999999999
    vertex 13.999999999999996 8.464101615137759 0.0
    vertex 14.964723819589913 8.863703305156276 0.0
  endloop
endfacet
facet normal 0.49999999999999933 -0.8660254037844392 1.054675252503225e-18
  outer loop
    vertex 13.999999999999996 8.464101615137759 0.0
    vertex 14.964723819589913 8.863703305156276 5.999999999999999
    vertex 13.999999999999996 8.464101615137759 5.999999999999999
  endloop
endfacet
facet normal 0.49999999999999933 -0.8660254037844392 1.054675252503225e-18
  outer loop
    vertex 13.999999999999996 8.464101615137759 5.999999999999999
    vertex 13.171572875253805 7.828427124746193 0.0
    vertex 13.999999999999996 8.464101615137759 0.0
  endloop
endfacet
facet normal 0.7071067811865475 -0.7071067811865477 1.394298068461334e-19
  outer loop
    vertex 13.171572875253805 7.828427124746193 0.0
    vertex 13.999999999999996 8.464101615137759 5.999999999999999
    vertex 13.171572875253805 7.828427124746193 5.999999999999999
  endloop
endfacet
facet normal 0.7071067811865475 -0.7071067811865477 1.394298068461334e-19
  outer loop
    vertex 13.171572875253805 7.828427124746193 0.0
    vertex 12.535898384862241 7.000000000000004 5.999999999999999
    vertex 12.535898384862241 7.000000000000004 0.0
  endloop
endfacet
facet normal 0.8660254037844387 -0.4999999999999999 5.83104605397675e-19
  outer loop
    vertex 12.535898384862241 7.000000000000004 5.999999999999999
    vertex 13.171572875253805 7.828427124746193 0.0
    vertex 13.171572875253805 7.828427124746193 5.999999999999999
  endloop
endfacet
facet normal -0.0 0.9999999999999999 -0.0
  outer loop
    vertex 0.0 10.000000000000002 12.999999999999998
    vertex 3.9999999999999942 10.000000000000002 9.999999999999998
    vertex 0.0 10.000000000000002 9.999999999999998
  endloop
endfacet
facet normal -0.0 0.9999999999999999 -0.0
  outer loop
    vertex 3.9999999999999942 10.000000000000002 9.999999999999998
    vertex 0.0 10.000000000000002 12.999999999999998
    vertex 3.9999999999999942 10.000000000000002 12.999999999999998
  endloop
endfacet
facet normal -0.0 -0.0 1.0
  outer loop
    vertex 3.9999999999999942 10.000000000000002 9.999999999999998
    vertex 0.0 18.0 9.999999999999998
    vertex 0.0 10.000000000000002 9.999999999999998
  endloop
endfacet
facet normal -0.0 -0.0 1.0
  outer loop
    vertex 0.0 18.0 9.999999999999998
    vertex 3.9999999999999942 10.000000000000002 9.999999999999998
    vertex 3.9999999999999942 18.0 9.999999999999998
  endloop
endfacet
facet normal -0.7071067811865477 0.0 -0.7071067811865474
  outer loop
    vertex 42.0 21.0 3.9999999999999996
    vertex 46.0 0.0 0.0
    vertex 42.0 0.0 3.9999999999999996
  endloop
endfacet
facet normal -0.7071067811865477 0.0 -0.7071067811865474
  outer loop
    vertex 46.0 0.0 0.0
    vertex 42.0 21.0 3.9999999999999996
    vertex 46.0 21.0 0.0
  endloop
endfacet
facet normal -0.7071067811865475 -0.7071067811865477 -1.0709051108130514e-19
  outer loop
    vertex 18.828427124746188 7.828427124746193 5.999999999999999
    vertex 17.999999999999996 8.464101615137757 0.0
    vertex 18.828427124746188 7.828427124746193 0.0
  endloop
endfacet
facet normal -0.5 -0.8660254037844386 8.930429060742603e-19
  outer loop
    vertex 17.999999999999996 8.464101615137757 0.0
    vertex 18.828427124746188 7.828427124746193 5.999999999999999
    vertex 17.999999999999996 8.464101615137757 5.999999999999999
  endloop
endfacet
facet normal 0.8660254037844387 -0.4999999999999999 5.83104605397675e-19
  outer loop
    vertex 12.535898384862241 7.000000000000004 0.0
    vertex 12.136296694843722 6.0352761804100865 5.999999999999999
    vertex 12.136296694843722 6.0352761804100865 0.0
  endloop
endfacet
facet normal 0.9659258262890682 -0.25881904510252074 6.284054866422516e-19
  outer loop
    vertex 12.136296694843722 6.0352761804100865 5.999999999999999
    vertex 12.535898384862241 7.000000000000004 0.0
    vertex 12.535898384862241 7.000000000000004 5.999999999999999
  endloop
endfacet
facet normal 0.7071067811865477 -0.0 -0.7071067811865474
  outer loop
    vertex 26.000000000000004 20.999999999999996 0.0
    vertex 30.0 0.0 3.9999999999999996
    vertex 26.000000000000004 0.0 0.0
  endloop
endfacet
facet normal 0.7071067811865477 -0.0 -0.7071067811865474
  outer loop
    vertex 30.0 0.0 3.9999999999999996
    vertex 26.000000000000004 20.999999999999996 0.0
    vertex 30.0 20.999999999999996 3.9999999999999996
  endloop
endfacet
facet normal -1.0 0.0 0.0
  outer loop
    vertex 7.0 18.0 15.999999999999998
    vertex 7.0 3.0 0.0
    vertex 7.0 3.0 15.999999999999998
  endloop
endfacet
facet normal -1.0 0.0 0.0
  outer loop
    vertex 7.0 3.0 0.0
    vertex 7.0 18.0 15.999999999999998
    vertex 7.0 18.0 0.0
  endloop
endfacet
facet normal -0.0 1.0 -0.0
  outer loop
    vertex 0.0 3.0 6.0
    vertex 4.0000000000000036 3.0 3.0
    vertex 0.0 3.0 3.0
  endloop
endfacet
facet normal -0.0 1.0 -0.0
  outer loop
    vertex 4.0000000000000036 3.0 3.0
    vertex 7.0 3.0 0.0
    vertex 3.9999999999999996 3.0 0.0
  endloop
endfacet
facet normal -0.0 1.0 -0.0
  outer loop
    vertex 7.0 3.0 0.0
    vertex 4.0000000000000036 3.0 3.0
    vertex 7.0 3.0 15.999999999999998
  endloop
endfacet
facet normal -0.0 1.0 -0.0
  outer loop
    vertex 7.0 3.0 15.999999999999998
    vertex 4.0000000000000036 3.0 3.0
    vertex 4.0000000000000036 3.0 6.0
  endloop
endfacet
facet normal -0.0 1.0 -0.0
  outer loop
    vertex 4.0000000000000036 3.0 6.0
    vertex 4.0000000000000036 3.0 3.0
    vertex 0.0 3.0 6.0
  endloop
endfacet
facet normal -0.0 1.0 -0.0
  outer loop
    vertex 7.0 3.0 15.999999999999998
    vertex 4.0000000000000036 3.0 6.0
    vertex 3.9999999999999996 3.0 15.999999999999998
  endloop
endfacet
facet normal 0.0 -1.0 0.0
  outer loop
    vertex 7.0 18.0 15.999999999999998
    vertex 3.9999999999999996 18.0 0.0
    vertex 7.0 18.0 0.0
  endloop
endfacet
facet normal 0.0 -1.0 0.0
  outer loop
    vertex 3.9999999999999996 18.0 0.0
    vertex 7.0 18.0 15.999999999999998
    vertex 3.9999999999999942 18.0 9.999999999999998
  endloop
endfacet
facet normal 0.0 -1.0 0.0
  outer loop
    vertex 3.9999999999999942 18.0 9.999999999999998
    vertex 7.0 18.0 15.999999999999998
    vertex 3.9999999999999942 18.0 12.999999999999998
  endloop
endfacet
facet normal 0.0 -1.0 0.0
  outer loop
    vertex 3.9999999999999942 18.0 9.999999999999998
    vertex 3.9999999999999942 18.0 12.999999999999998
    vertex 0.0 18.0 9.999999999999998
  endloop
endfacet
facet normal 0.0 -1.0 0.0
  outer loop
    vertex 3.9999999999999942 18.0 12.999999999999998
    vertex 7.0 18.0 15.999999999999998
    vertex 3.9999999999999996 18.0 15.999999999999998
  endloop
endfacet
facet normal 0.0 -1.0 0.0
  outer loop
    vertex 0.0 18.0 12.999999999999998
    vertex 0.0 18.0 9.999999999999998
    vertex 3.9999999999999942 18.0 12.999999999999998
  endloop
endfacet
facet normal 1.0 2.7170892419768135e-16 2.0979052007149765e-16
  outer loop
    vertex 3.9999999999999996 18.0 0.0
    vertex 4.0000000000000036 3.0 3.0
    vertex 3.9999999999999996 3.0 0.0
  endloop
endfacet
facet normal 1.0 2.7170892419768135e-16 2.0979052007149765e-16
  outer loop
    vertex 4.0000000000000036 3.0 3.0
    vertex 3.9999999999999996 18.0 0.0
    vertex 4.0000000000000036 11.0 3.0
  endloop
endfacet
facet normal 1.0 2.7170892419768135e-16 2.0979052007149765e-16
  outer loop
    vertex 4.0000000000000036 11.0 3.0
    vertex 3.9999999999999996 18.0 0.0
    vertex 4.0000000000000036 11.0 6.0
  endloop
endfacet
facet normal 1.0 2.7170892419768135e-16 2.0979052007149765e-16
  outer loop
    vertex 4.0000000000000036 11.0 6.0
    vertex 3.9999999999999996 3.0 15.999999999999998
    vertex 4.0000000000000036 3.0 6.0
  endloop
endfacet
facet normal 1.0 2.7170892419768135e-16 2.0979052007149765e-16
  outer loop
    vertex 3.9999999999999996 3.0 15.999999999999998
    vertex 4.0000000000000036 11.0 6.0
    vertex 3.9999999999999942 10.000000000000002 9.999999999999998
  endloop
endfacet
facet normal 1.0 2.7170892419768135e-16 2.0979052007149765e-16
  outer loop
    vertex 3.9999999999999942 10.000000000000002 9.999999999999998
    vertex 4.0000000000000036 11.0 6.0
    vertex 3.9999999999999942 18.0 9.999999999999998
  endloop
endfacet
facet normal 1.0 2.7170892419768135e-16 2.0979052007149765e-16
  outer loop
    vertex 3.9999999999999942 18.0 9.999999999999998
    vertex 4.0000000000000036 11.0 6.0
    vertex 3.9999999999999996 18.0 0.0
  endloop
endfacet
facet normal 1.0 2.7170892419768135e-16 2.0979052007149765e-16
  outer loop
    vertex 3.9999999999999996 3.0 15.999999999999998
    vertex 3.9999999999999942 10.000000000000002 12.999999999999998
    vertex 3.9999999999999996 18.0 15.999999999999998
  endloop
endfacet
facet normal 1.0 2.7170892419768135e-16 2.0979052007149765e-16
  outer loop
    vertex 3.9999999999999942 10.000000000000002 12.999999999999998
    vertex 3.9999999999999996 3.0 15.999999999999998
    vertex 3.9999999999999942 10.000000000000002 9.999999999999998
  endloop
endfacet
facet normal 1.0 2.7170892419768135e-16 2.0979052007149765e-16
  outer loop
    vertex 3.9999999999999996 18.0 15.999999999999998
    vertex 3.9999999999999942 10.000000000000002 12.999999999999998
    vertex 3.9999999999999942 18.0 12.999999999999998
  endloop
endfacet
facet normal -0.9659258262890681 0.25881904510252146 5.909792862926302e-19
  outer loop
    vertex 19.86370330515627 3.964723819589916 5.999999999999999
    vertex 19.46410161513775 3.0 0.0
    vertex 19.46410161513775 3.0 5.999999999999999
  endloop
endfacet
facet normal -0.8660254037844386 0.5000000000000003 1.5536757261004183e-18
  outer loop
    vertex 19.46410161513775 3.0 0.0
    vertex 19.86370330515627 3.964723819589916 5.999999999999999
    vertex 19.86370330515627 3.964723819589916 0.0
  endloop
endfacet
facet normal -0.8660254037844386 0.5000000000000003 1.5536757261004183e-18
  outer loop
    vertex 19.46410161513775 3.0 5.999999999999999
    vertex 18.828427124746188 2.1715728752538106 0.0
    vertex 18.828427124746188 2.1715728752538106 5.999999999999999
  endloop
endfacet
facet normal -0.7071067811865477 0.7071067811865472 7.57055801561822e-19
  outer loop
    vertex 18.828427124746188 2.1715728752538106 0.0
    vertex 19.46410161513775 3.0 5.999999999999999
    vertex 19.46410161513775 3.0 0.0
  endloop
endfacet
facet normal -0.49999999999999956 0.8660254037844389 -2.195368723984589e-19
  outer loop
    vertex 17.999999999999996 1.5358983848622447 5.999999999999999
    vertex 18.828427124746188 2.1715728752538106 0.0
    vertex 17.999999999999996 1.5358983848622447 0.0
  endloop
endfacet
facet normal -0.7071067811865477 0.7071067811865472 7.57055801561822e-19
  outer loop
    vertex 18.828427124746188 2.1715728752538106 0.0
    vertex 17.999999999999996 1.5358983848622447 5.999999999999999
    vertex 18.828427124746188 2.1715728752538106 5.999999999999999
  endloop
endfacet
facet normal -0.25881904510252013 0.9659258262890684 -8.259175067611579e-20
  outer loop
    vertex 17.03527618041008 1.1362966948437272 5.999999999999999
    vertex 17.999999999999996 1.5358983848622447 0.0
    vertex 17.03527618041008 1.1362966948437272 0.0
  endloop
endfacet
facet normal -0.49999999999999956 0.8660254037844389 -2.195368723984589e-19
  outer loop
    vertex 17.999999999999996 1.5358983848622447 0.0
    vertex 17.03527618041008 1.1362966948437272 5.999999999999999
    vertex 17.999999999999996 1.5358983848622447 5.999999999999999
  endloop
endfacet
facet normal 4.901110442605798e-16 1.0 -1.6906788359005714e-19
  outer loop
    vertex 15.999999999999996 1.0000000000000009 5.999999999999999
    vertex 17.03527618041008 1.1362966948437272 0.0
    vertex 15.999999999999996 1.0000000000000009 0.0
  endloop
endfacet
facet normal -0.25881904510252013 0.9659258262890684 -8.259175067611579e-20
  outer loop
    vertex 17.03527618041008 1.1362966948437272 0.0
    vertex 15.999999999999996 1.0000000000000009 5.999999999999999
    vertex 17.03527618041008 1.1362966948437272 5.999999999999999
  endloop
endfacet
facet normal 0.2588190451025212 0.9659258262890682 -2.1118567441265674e-19
  outer loop
    vertex 14.96472381958991 1.1362966948437287 5.999999999999999
    vertex 15.999999999999996 1.0000000000000009 0.0
    vertex 14.96472381958991 1.1362966948437287 0.0
  endloop
endfacet
facet normal 4.901110442605798e-16 1.0 -1.6906788359005714e-19
  outer loop
    vertex 15.999999999999996 1.0000000000000009 0.0
    vertex 14.96472381958991 1.1362966948437287 5.999999999999999
    vertex 15.999999999999996 1.0000000000000009 5.999999999999999
  endloop
endfacet
facet normal 0.5000000000000006 0.8660254037844384 1.2716662666456845e-19
  outer loop
    vertex 13.999999999999995 1.5358983848622476 5.999999999999999
    vertex 14.96472381958991 1.1362966948437287 0.0
    vertex 13.999999999999995 1.5358983848622476 0.0
  endloop
endfacet
facet normal 0.2588190451025212 0.9659258262890682 -2.1118567441265674e-19
  outer loop
    vertex 14.96472381958991 1.1362966948437287 0.0
    vertex 13.999999999999995 1.5358983848622476 5.999999999999999
    vertex 14.96472381958991 1.1362966948437287 5.999999999999999
  endloop
endfacet
facet normal 0.8660254037844388 0.4999999999999997 -8.968206502633707e-19
  outer loop
    vertex 12.53589838486224 3.0000000000000027 0.0
    vertex 13.171572875253805 2.171572875253813 5.999999999999999
    vertex 13.171572875253805 2.171572875253813 0.0
  endloop
endfacet
facet normal 0.7071067811865477 0.7071067811865475 3.091662306597585e-34
  outer loop
    vertex 13.171572875253805 2.171572875253813 5.999999999999999
    vertex 12.53589838486224 3.0000000000000027 0.0
    vertex 12.53589838486224 3.0000000000000027 5.999999999999999
  endloop
endfacet
facet normal 0.7071067811865477 0.7071067811865475 3.091662306597585e-34
  outer loop
    vertex 13.171572875253805 2.171572875253813 5.999999999999999
    vertex 13.999999999999995 1.5358983848622476 0.0
    vertex 13.171572875253805 2.171572875253813 0.0
  endloop
endfacet
facet normal 0.5000000000000006 0.8660254037844384 1.2716662666456845e-19
  outer loop
    vertex 13.999999999999995 1.5358983848622476 0.0
    vertex 13.171572875253805 2.171572875253813 5.999999999999999
    vertex 13.999999999999995 1.5358983848622476 5.999999999999999
  endloop
endfacet
facet normal 0.9659258262890682 -0.25881904510252074 6.284054866422516e-19
  outer loop
    vertex 12.136296694843722 6.0352761804100865 0.0
    vertex 11.999999999999995 5.000000000000003 5.999999999999999
    vertex 11.999999999999995 5.000000000000003 0.0
  endloop
endfacet
facet normal 1.0 5.346665937388143e-17 2.0964775986286953e-19
  outer loop
    vertex 11.999999999999995 5.000000000000003 5.999999999999999
    vertex 12.136296694843722 6.0352761804100865 0.0
    vertex 12.136296694843722 6.0352761804100865 5.999999999999999
  endloop
endfacet
facet normal 1.0 5.346665937388143e-17 2.0964775986286953e-19
  outer loop
    vertex 11.999999999999995 5.000000000000003 0.0
    vertex 12.136296694843722 3.96472381958992 5.999999999999999
    vertex 12.136296694843722 3.96472381958992 0.0
  endloop
endfacet
facet normal 0.9659258262890684 0.2588190451025203 -6.253832605637719e-19
  outer loop
    vertex 12.136296694843722 3.96472381958992 5.999999999999999
    vertex 11.999999999999995 5.000000000000003 0.0
    vertex 11.999999999999995 5.000000000000003 5.999999999999999
  endloop
endfacet
facet normal 0.9659258262890684 0.2588190451025203 -6.253832605637719e-19
  outer loop
    vertex 12.136296694843722 3.96472381958992 0.0
    vertex 12.53589838486224 3.0000000000000027 5.999999999999999
    vertex 12.53589838486224 3.0000000000000027 0.0
  endloop
endfacet
facet normal 0.8660254037844388 0.4999999999999997 -8.968206502633707e-19
  outer loop
    vertex 12.53589838486224 3.0000000000000027 5.999999999999999
    vertex 12.136296694843722 3.96472381958992 0.0
    vertex 12.136296694843722 3.96472381958992 5.999999999999999
  endloop
endfacet
endsolid TronxyX5s-Part
