solid YiCam-Mount-X8C-1
facet normal 0.0 0.0 1.0
  outer loop
    vertex -39.350087331119944 228.7757445560919 21.99999999999999
    vertex -40.75008733111994 231.77574455609192 21.99999999999999
    vertex -40.75008733111994 228.7757445560919 21.99999999999999
  endloop
endfacet
facet normal 0.0 0.0 1.0
  outer loop
    vertex -40.75008733111994 231.77574455609192 21.99999999999999
    vertex -39.350087331119944 228.7757445560919 21.99999999999999
    vertex -40.75008733111994 247.77574455609198 21.99999999999999
  endloop
endfacet
facet normal 0.0 0.0 1.0
  outer loop
    vertex -40.75008733111994 247.77574455609198 21.99999999999999
    vertex -39.350087331119944 228.7757445560919 21.99999999999999
    vertex -40.75008733111994 250.77574455609195 21.99999999999999
  endloop
endfacet
facet normal 0.0 0.0 1.0
  outer loop
    vertex -40.75008733111994 250.77574455609195 21.99999999999999
    vertex -39.350087331119944 228.7757445560919 21.99999999999999
    vertex -39.350087331119944 250.77574455609195 21.99999999999999
  endloop
endfacet
facet normal 0.0 0.0 1.0
  outer loop
    vertex -40.75008733111994 231.77574455609192 21.99999999999999
    vertex -51.35008733111992 247.77574455609198 21.99999999999999
    vertex -51.35008733111992 231.77574455609192 21.99999999999999
  endloop
endfacet
facet normal 0.0 0.0 1.0
  outer loop
    vertex -51.35008733111992 247.77574455609198 21.99999999999999
    vertex -40.75008733111994 231.77574455609192 21.99999999999999
    vertex -40.75008733111994 247.77574455609198 21.99999999999999
  endloop
endfacet
facet normal 0.0 0.0 1.0
  outer loop
    vertex -54.35008733111991 226.77574455609195 21.99999999999999
    vertex -51.35008733111992 252.77574455609198 21.99999999999999
    vertex -54.35008733111993 252.77574455609198 21.99999999999999
  endloop
endfacet
facet normal 0.0 0.0 1.0
  outer loop
    vertex -51.35008733111992 252.77574455609198 21.99999999999999
    vertex -54.35008733111991 226.77574455609195 21.99999999999999
    vertex -51.35008733111992 226.77574455609195 21.99999999999999
  endloop
endfacet
facet normal 0.0 0.0 1.0
  outer loop
    vertex -51.35008733111992 252.77574455609198 21.99999999999999
    vertex -51.35008733111992 226.77574455609195 21.99999999999999
    vertex -51.35008733111992 231.77574455609192 21.99999999999999
  endloop
endfacet
facet normal 0.0 0.0 1.0
  outer loop
    vertex -51.35008733111992 252.77574455609198 21.99999999999999
    vertex -51.35008733111992 231.77574455609192 21.99999999999999
    vertex -51.35008733111992 247.77574455609198 21.99999999999999
  endloop
endfacet
facet normal 5.464393894362658e-17 4.810107407611974e-18 -1.0
  outer loop
    vertex -39.350087331119944 252.77574455609192 1.4099832412739487e-15
    vertex -40.75008733111994 247.77574455609198 1.4099832412739487e-15
    vertex -40.75008733111994 252.77574455609192 1.4099832412739487e-15
  endloop
endfacet
facet normal 5.464393894362658e-17 4.810107407611974e-18 -1.0
  outer loop
    vertex -40.75008733111994 247.77574455609198 1.4099832412739487e-15
    vertex -39.350087331119944 252.77574455609192 1.4099832412739487e-15
    vertex -40.75008733111994 231.77574455609192 1.4099832412739487e-15
  endloop
endfacet
facet normal 5.464393894362658e-17 4.810107407611974e-18 -1.0
  outer loop
    vertex -40.75008733111994 231.77574455609192 1.4099832412739487e-15
    vertex -39.350087331119944 252.77574455609192 1.4099832412739487e-15
    vertex -40.75008733111994 226.7757445560919 1.4099832412739487e-15
  endloop
endfacet
facet normal 5.464393894362658e-17 4.810107407611974e-18 -1.0
  outer loop
    vertex -40.75008733111994 226.7757445560919 1.4099832412739487e-15
    vertex -39.350087331119944 252.77574455609192 1.4099832412739487e-15
    vertex -39.350087331119944 226.7757445560919 1.4099832412739487e-15
  endloop
endfacet
facet normal 5.464393894362658e-17 4.810107407611974e-18 -1.0
  outer loop
    vertex -40.75008733111994 247.77574455609198 1.4099832412739487e-15
    vertex -51.35008733111992 231.77574455609192 1.4099832412739487e-15
    vertex -51.35008733111992 247.77574455609198 1.4099832412739487e-15
  endloop
endfacet
facet normal 5.464393894362658e-17 4.810107407611974e-18 -1.0
  outer loop
    vertex -51.35008733111992 231.77574455609192 1.4099832412739487e-15
    vertex -40.75008733111994 247.77574455609198 1.4099832412739487e-15
    vertex -40.75008733111994 231.77574455609192 1.4099832412739487e-15
  endloop
endfacet
facet normal 5.464393894362658e-17 4.810107407611974e-18 -1.0
  outer loop
    vertex -51.35008733111992 252.77574455609198 0.0
    vertex -54.35008733111991 226.77574455609195 0.0
    vertex -54.35008733111993 252.77574455609198 0.0
  endloop
endfacet
facet normal 5.464393894362658e-17 4.810107407611974e-18 -1.0
  outer loop
    vertex -54.35008733111991 226.77574455609195 0.0
    vertex -51.35008733111992 252.77574455609198 0.0
    vertex -51.35008733111992 226.77574455609195 0.0
  endloop
endfacet
facet normal 5.464393894362658e-17 4.810107407611974e-18 -1.0
  outer loop
    vertex -51.35008733111992 226.77574455609195 0.0
    vertex -51.35008733111992 252.77574455609198 0.0
    vertex -51.35008733111992 247.77574455609198 1.4099832412739487e-15
  endloop
endfacet
facet normal 5.464393894362658e-17 4.810107407611974e-18 -1.0
  outer loop
    vertex -51.35008733111992 226.77574455609195 0.0
    vertex -51.35008733111992 247.77574455609198 1.4099832412739487e-15
    vertex -51.35008733111992 231.77574455609192 1.4099832412739487e-15
  endloop
endfacet
facet normal 1.0 -0.0 -0.0
  outer loop
    vertex -51.35008733111992 231.77574455609192 1.4099832412739487e-15
    vertex -51.35008733111992 226.77574455609195 21.99999999999999
    vertex -51.35008733111992 226.77574455609195 0.0
  endloop
endfacet
facet normal 1.0 -0.0 -0.0
  outer loop
    vertex -51.35008733111992 226.77574455609195 21.99999999999999
    vertex -51.35008733111992 231.77574455609192 1.4099832412739487e-15
    vertex -51.35008733111992 231.77574455609192 21.99999999999999
  endloop
endfacet
facet normal 0.0 -1.0 0.0
  outer loop
    vertex -51.35008733111992 226.77574455609195 21.99999999999999
    vertex -54.35008733111991 226.77574455609195 0.0
    vertex -51.35008733111992 226.77574455609195 0.0
  endloop
endfacet
facet normal 0.0 -1.0 0.0
  outer loop
    vertex -54.35008733111991 226.77574455609195 0.0
    vertex -51.35008733111992 226.77574455609195 21.99999999999999
    vertex -54.35008733111991 226.77574455609195 21.99999999999999
  endloop
endfacet
facet normal -0.0 1.0 -0.0
  outer loop
    vertex -54.35008733111993 252.77574455609198 21.99999999999999
    vertex -51.35008733111992 252.77574455609198 0.0
    vertex -54.35008733111993 252.77574455609198 0.0
  endloop
endfacet
facet normal -0.0 1.0 -0.0
  outer loop
    vertex -51.35008733111992 252.77574455609198 0.0
    vertex -54.35008733111993 252.77574455609198 21.99999999999999
    vertex -51.35008733111992 252.77574455609198 21.99999999999999
  endloop
endfacet
facet normal 1.0 -0.0 -0.0
  outer loop
    vertex -40.950087331119946 247.27574455609192 1.5000000000000016
    vertex -40.950087331119946 232.2757445560919 17.99999999999999
    vertex -40.950087331119946 232.2757445560919 1.5000000000000016
  endloop
endfacet
facet normal 1.0 -0.0 -0.0
  outer loop
    vertex -40.950087331119946 232.2757445560919 17.99999999999999
    vertex -40.950087331119946 247.27574455609192 1.5000000000000016
    vertex -40.950087331119946 247.27574455609192 17.99999999999999
  endloop
endfacet
facet normal 0.0 0.0 1.0
  outer loop
    vertex -39.350087331119944 226.7757445560919 1.3999999999999988
    vertex -40.75008733111994 228.7757445560919 1.3999999999999988
    vertex -40.75008733111994 226.7757445560919 1.3999999999999988
  endloop
endfacet
facet normal 0.0 0.0 1.0
  outer loop
    vertex -40.75008733111994 228.7757445560919 1.3999999999999988
    vertex -39.350087331119944 226.7757445560919 1.3999999999999988
    vertex -39.350087331119944 228.7757445560919 1.3999999999999988
  endloop
endfacet
facet normal 1.0 -0.0 -0.0
  outer loop
    vertex -39.350087331119944 252.77574455609192 1.4099832412739487e-15
    vertex -39.350087331119944 226.7757445560919 1.3999999999999988
    vertex -39.350087331119944 226.7757445560919 1.4099832412739487e-15
  endloop
endfacet
facet normal 1.0 -0.0 -0.0
  outer loop
    vertex -39.350087331119944 226.7757445560919 1.3999999999999988
    vertex -39.350087331119944 252.77574455609192 1.4099832412739487e-15
    vertex -39.350087331119944 228.7757445560919 1.3999999999999988
  endloop
endfacet
facet normal 1.0 -0.0 -0.0
  outer loop
    vertex -39.350087331119944 228.7757445560919 1.3999999999999988
    vertex -39.350087331119944 252.77574455609192 1.4099832412739487e-15
    vertex -39.350087331119944 232.2757445560919 1.5000000000000016
  endloop
endfacet
facet normal 1.0 -0.0 -0.0
  outer loop
    vertex -39.350087331119944 228.7757445560919 1.3999999999999988
    vertex -39.350087331119944 232.2757445560919 1.5000000000000016
    vertex -39.350087331119944 228.7757445560919 21.99999999999999
  endloop
endfacet
facet normal 1.0 -0.0 -0.0
  outer loop
    vertex -39.350087331119944 232.2757445560919 1.5000000000000016
    vertex -39.350087331119944 252.77574455609192 1.4099832412739487e-15
    vertex -39.350087331119944 247.27574455609192 1.5000000000000016
  endloop
endfacet
facet normal 1.0 -0.0 -0.0
  outer loop
    vertex -39.350087331119944 247.27574455609192 1.5000000000000016
    vertex -39.350087331119944 252.77574455609192 1.4099832412739487e-15
    vertex -39.350087331119944 250.77574455609195 1.400000000000003
  endloop
endfacet
facet normal 1.0 -0.0 -0.0
  outer loop
    vertex -39.350087331119944 247.27574455609192 1.5000000000000016
    vertex -39.350087331119944 250.77574455609195 1.400000000000003
    vertex -39.350087331119944 247.27574455609192 19.999999999999996
  endloop
endfacet
facet normal 1.0 -0.0 -0.0
  outer loop
    vertex -39.350087331119944 250.77574455609195 1.400000000000003
    vertex -39.350087331119944 252.77574455609192 1.4099832412739487e-15
    vertex -39.350087331119944 252.77574455609192 1.400000000000003
  endloop
endfacet
facet normal 1.0 -0.0 -0.0
  outer loop
    vertex -39.350087331119944 228.7757445560919 21.99999999999999
    vertex -39.350087331119944 232.2757445560919 19.999999999999996
    vertex -39.350087331119944 250.77574455609195 21.99999999999999
  endloop
endfacet
facet normal 1.0 -0.0 -0.0
  outer loop
    vertex -39.350087331119944 232.2757445560919 19.999999999999996
    vertex -39.350087331119944 228.7757445560919 21.99999999999999
    vertex -39.350087331119944 232.2757445560919 1.5000000000000016
  endloop
endfacet
facet normal 1.0 -0.0 -0.0
  outer loop
    vertex -39.350087331119944 250.77574455609195 21.99999999999999
    vertex -39.350087331119944 232.2757445560919 19.999999999999996
    vertex -39.350087331119944 247.27574455609192 19.999999999999996
  endloop
endfacet
facet normal 1.0 -0.0 -0.0
  outer loop
    vertex -39.350087331119944 250.77574455609195 21.99999999999999
    vertex -39.350087331119944 247.27574455609192 19.999999999999996
    vertex -39.350087331119944 250.77574455609195 1.400000000000003
  endloop
endfacet
facet normal -0.0 1.0 -0.0
  outer loop
    vertex -51.35008733111992 247.77574455609198 21.99999999999999
    vertex -40.75008733111994 247.77574455609198 1.4099832412739487e-15
    vertex -51.35008733111992 247.77574455609198 1.4099832412739487e-15
  endloop
endfacet
facet normal -0.0 1.0 -0.0
  outer loop
    vertex -40.75008733111994 247.77574455609198 1.4099832412739487e-15
    vertex -51.35008733111992 247.77574455609198 21.99999999999999
    vertex -40.75008733111994 247.77574455609198 21.99999999999999
  endloop
endfacet
facet normal 0.0 0.0 1.0
  outer loop
    vertex -39.350087331119944 232.2757445560919 1.5000000000000016
    vertex -40.950087331119946 247.27574455609192 1.5000000000000016
    vertex -40.950087331119946 232.2757445560919 1.5000000000000016
  endloop
endfacet
facet normal 0.0 0.0 1.0
  outer loop
    vertex -40.950087331119946 247.27574455609192 1.5000000000000016
    vertex -39.350087331119944 232.2757445560919 1.5000000000000016
    vertex -39.350087331119944 247.27574455609192 1.5000000000000016
  endloop
endfacet
facet normal -1.0 0.0 0.0
  outer loop
    vertex -40.75008733111994 231.77574455609192 21.99999999999999
    vertex -40.75008733111994 228.7757445560919 1.3999999999999988
    vertex -40.75008733111994 228.7757445560919 21.99999999999999
  endloop
endfacet
facet normal -1.0 0.0 0.0
  outer loop
    vertex -40.75008733111994 228.7757445560919 1.3999999999999988
    vertex -40.75008733111994 226.7757445560919 1.4099832412739487e-15
    vertex -40.75008733111994 226.7757445560919 1.3999999999999988
  endloop
endfacet
facet normal -1.0 0.0 0.0
  outer loop
    vertex -40.75008733111994 226.7757445560919 1.4099832412739487e-15
    vertex -40.75008733111994 228.7757445560919 1.3999999999999988
    vertex -40.75008733111994 231.77574455609192 1.4099832412739487e-15
  endloop
endfacet
facet normal -1.0 0.0 0.0
  outer loop
    vertex -40.75008733111994 231.77574455609192 1.4099832412739487e-15
    vertex -40.75008733111994 228.7757445560919 1.3999999999999988
    vertex -40.75008733111994 231.77574455609192 21.99999999999999
  endloop
endfacet
facet normal 0.0 1.0 0.0
  outer loop
    vertex -40.75008733111994 252.77574455609192 1.400000000000003
    vertex -39.350087331119944 252.77574455609192 1.4099832412739487e-15
    vertex -40.75008733111994 252.77574455609192 1.4099832412739487e-15
  endloop
endfacet
facet normal 0.0 1.0 0.0
  outer loop
    vertex -39.350087331119944 252.77574455609192 1.4099832412739487e-15
    vertex -40.75008733111994 252.77574455609192 1.400000000000003
    vertex -39.350087331119944 252.77574455609192 1.400000000000003
  endloop
endfacet
facet normal 0.0 0.0 1.0
  outer loop
    vertex -39.350087331119944 250.77574455609195 1.400000000000003
    vertex -40.75008733111994 252.77574455609192 1.400000000000003
    vertex -40.75008733111994 250.77574455609195 1.400000000000003
  endloop
endfacet
facet normal 0.0 0.0 1.0
  outer loop
    vertex -40.75008733111994 252.77574455609192 1.400000000000003
    vertex -39.350087331119944 250.77574455609195 1.400000000000003
    vertex -39.350087331119944 252.77574455609192 1.400000000000003
  endloop
endfacet
facet normal 0.0 -1.0 0.0
  outer loop
    vertex -39.350087331119944 228.7757445560919 21.99999999999999
    vertex -40.75008733111994 228.7757445560919 1.3999999999999988
    vertex -39.350087331119944 228.7757445560919 1.3999999999999988
  endloop
endfacet
facet normal 0.0 -1.0 0.0
  outer loop
    vertex -40.75008733111994 228.7757445560919 1.3999999999999988
    vertex -39.350087331119944 228.7757445560919 21.99999999999999
    vertex -40.75008733111994 228.7757445560919 21.99999999999999
  endloop
endfacet
facet normal 0.0 1.0 0.0
  outer loop
    vertex -40.75008733111994 250.77574455609195 21.99999999999999
    vertex -39.350087331119944 250.77574455609195 1.400000000000003
    vertex -40.75008733111994 250.77574455609195 1.400000000000003
  endloop
endfacet
facet normal 0.0 1.0 0.0
  outer loop
    vertex -39.350087331119944 250.77574455609195 1.400000000000003
    vertex -40.75008733111994 250.77574455609195 21.99999999999999
    vertex -39.350087331119944 250.77574455609195 21.99999999999999
  endloop
endfacet
facet normal 0.0 -1.0 0.0
  outer loop
    vertex -40.75008733111994 231.77574455609192 21.99999999999999
    vertex -51.35008733111992 231.77574455609192 1.4099832412739487e-15
    vertex -40.75008733111994 231.77574455609192 1.4099832412739487e-15
  endloop
endfacet
facet normal 0.0 -1.0 0.0
  outer loop
    vertex -51.35008733111992 231.77574455609192 1.4099832412739487e-15
    vertex -40.75008733111994 231.77574455609192 21.99999999999999
    vertex -51.35008733111992 231.77574455609192 21.99999999999999
  endloop
endfacet
facet normal 0.0 -1.0 0.0
  outer loop
    vertex -39.350087331119944 226.7757445560919 1.3999999999999988
    vertex -40.75008733111994 226.7757445560919 1.4099832412739487e-15
    vertex -39.350087331119944 226.7757445560919 1.4099832412739487e-15
  endloop
endfacet
facet normal 0.0 -1.0 0.0
  outer loop
    vertex -40.75008733111994 226.7757445560919 1.4099832412739487e-15
    vertex -39.350087331119944 226.7757445560919 1.3999999999999988
    vertex -40.75008733111994 226.7757445560919 1.3999999999999988
  endloop
endfacet
facet normal 1.0 -0.0 -0.0
  outer loop
    vertex -51.35008733111992 252.77574455609198 0.0
    vertex -51.35008733111992 247.77574455609198 21.99999999999999
    vertex -51.35008733111992 247.77574455609198 1.4099832412739487e-15
  endloop
endfacet
facet normal 1.0 -0.0 -0.0
  outer loop
    vertex -51.35008733111992 247.77574455609198 21.99999999999999
    vertex -51.35008733111992 252.77574455609198 0.0
    vertex -51.35008733111992 252.77574455609198 21.99999999999999
  endloop
endfacet
facet normal 0.780868809443032 -0.0 -0.6246950475544222
  outer loop
    vertex -40.950087331119946 247.27574455609192 17.99999999999999
    vertex -39.350087331119944 232.2757445560919 19.999999999999996
    vertex -40.950087331119946 232.2757445560919 17.99999999999999
  endloop
endfacet
facet normal 0.780868809443032 -0.0 -0.6246950475544222
  outer loop
    vertex -39.350087331119944 232.2757445560919 19.999999999999996
    vertex -40.950087331119946 247.27574455609192 17.99999999999999
    vertex -39.350087331119944 247.27574455609192 19.999999999999996
  endloop
endfacet
facet normal -0.0 1.0 -0.0
  outer loop
    vertex -40.950087331119946 232.2757445560919 17.99999999999999
    vertex -39.350087331119944 232.2757445560919 1.5000000000000016
    vertex -40.950087331119946 232.2757445560919 1.5000000000000016
  endloop
endfacet
facet normal -0.0 1.0 -0.0
  outer loop
    vertex -39.350087331119944 232.2757445560919 1.5000000000000016
    vertex -40.950087331119946 232.2757445560919 17.99999999999999
    vertex -39.350087331119944 232.2757445560919 19.999999999999996
  endloop
endfacet
facet normal 0.0 -1.0 0.0
  outer loop
    vertex -39.350087331119944 247.27574455609192 19.999999999999996
    vertex -40.950087331119946 247.27574455609192 1.5000000000000016
    vertex -39.350087331119944 247.27574455609192 1.5000000000000016
  endloop
endfacet
facet normal 0.0 -1.0 0.0
  outer loop
    vertex -40.950087331119946 247.27574455609192 1.5000000000000016
    vertex -39.350087331119944 247.27574455609192 19.999999999999996
    vertex -40.950087331119946 247.27574455609192 17.99999999999999
  endloop
endfacet
facet normal -1.0 0.0 0.0
  outer loop
    vertex -40.75008733111994 250.77574455609195 21.99999999999999
    vertex -40.75008733111994 247.77574455609198 1.4099832412739487e-15
    vertex -40.75008733111994 247.77574455609198 21.99999999999999
  endloop
endfacet
facet normal -1.0 0.0 0.0
  outer loop
    vertex -40.75008733111994 247.77574455609198 1.4099832412739487e-15
    vertex -40.75008733111994 250.77574455609195 21.99999999999999
    vertex -40.75008733111994 250.77574455609195 1.400000000000003
  endloop
endfacet
facet normal -1.0 0.0 0.0
  outer loop
    vertex -40.75008733111994 247.77574455609198 1.4099832412739487e-15
    vertex -40.75008733111994 250.77574455609195 1.400000000000003
    vertex -40.75008733111994 252.77574455609192 1.4099832412739487e-15
  endloop
endfacet
facet normal -1.0 0.0 0.0
  outer loop
    vertex -40.75008733111994 252.77574455609192 1.4099832412739487e-15
    vertex -40.75008733111994 250.77574455609195 1.400000000000003
    vertex -40.75008733111994 252.77574455609192 1.400000000000003
  endloop
endfacet
facet normal -1.0 -9.338624130300784e-16 -2.5143947300029816e-32
  outer loop
    vertex -54.35008733111993 252.77574455609198 21.99999999999999
    vertex -54.35008733111991 226.77574455609195 0.0
    vertex -54.35008733111991 226.77574455609195 21.99999999999999
  endloop
endfacet
facet normal -1.0 -9.338624130300784e-16 -2.5143947300029816e-32
  outer loop
    vertex -54.35008733111991 226.77574455609195 0.0
    vertex -54.35008733111993 252.77574455609198 21.99999999999999
    vertex -54.35008733111993 252.77574455609198 0.0
  endloop
endfacet
endsolid YiCam-Mount-X8C-1
