 0
SECTION
 2
ENTITIES
  0
POLYLINE
 8
Layer0
 66
     1
70
    8
 10
0.0
 20
 0.0
 30
0.0
  0
VERTEX
  8
MY3DLAYER
10
296.7685065476495
20
29.144156418754797
30
0.0
 70
     32
  0
VERTEX
  8
MY3DLAYER
10
231.76850654764954
20
29.144156418754797
30
0.0
 70
     32
  0
VERTEX
  8
MY3DLAYER
10
231.76850654764954
20
139.14415641875482
30
0.0
 70
     32
  0
VERTEX
  8
MY3DLAYER
10
236.76850654764954
20
139.14415641875482
30
0.0
 70
     32
  0
VERTEX
  8
MY3DLAYER
10
236.76850654764954
20
137.14415641875482
30
0.0
 70
     32
  0
VERTEX
  8
MY3DLAYER
10
237.54496368295713
20
137.041933897622
30
0.0
 70
     32
  0
VERTEX
  8
MY3DLAYER
10
238.26850654764954
20
136.74223263010813
30
0.0
 70
     32
  0
VERTEX
  8
MY3DLAYER
10
238.88982689120922
20
136.26547676231445
30
0.0
 70
     32
  0
VERTEX
  8
MY3DLAYER
10
239.36658275900288
20
135.64415641875482
30
0.0
 70
     32
  0
VERTEX
  8
MY3DLAYER
10
239.66628402651673
20
134.92061355406236
30
0.0
 70
     32
  0
VERTEX
  8
MY3DLAYER
10
237.3720599382428
20
134.93072251124028
30
0.0
 70
     32
  0
VERTEX
  8
MY3DLAYER
10
237.2685065476495
20
135.0101818225392
30
0.0
 70
     32
  0
VERTEX
  8
MY3DLAYER
10
237.02732559275208
20
135.11008224504388
30
0.0
 70
     32
  0
VERTEX
  8
MY3DLAYER
10
236.76850654764954
20
135.1441564187548
30
0.0
 70
     32
  0
VERTEX
  8
MY3DLAYER
10
236.509687502547
20
135.11008224504388
30
0.0
 70
     32
  0
VERTEX
  8
MY3DLAYER
10
236.26850654764957
20
135.0101818225392
30
0.0
 70
     32
  0
VERTEX
  8
MY3DLAYER
10
236.061399766463
20
134.85126319994134
30
0.0
 70
     32
  0
VERTEX
  8
MY3DLAYER
10
235.90248114386515
20
134.64415641875482
30
0.0
 70
     32
  0
VERTEX
  8
MY3DLAYER
10
235.8025807213605
20
134.40297546385733
30
0.0
 70
     32
  0
VERTEX
  8
MY3DLAYER
10
235.76850654764957
20
134.1441564187548
30
0.0
 70
     32
  0
VERTEX
  8
MY3DLAYER
10
235.8025807213605
20
133.8853373736523
30
0.0
 70
     32
  0
VERTEX
  8
MY3DLAYER
10
235.90248114386515
20
133.64415641875482
30
0.0
 70
     32
  0
VERTEX
  8
MY3DLAYER
10
236.061399766463
20
133.43704963756824
30
0.0
 70
     32
  0
VERTEX
  8
MY3DLAYER
10
236.26850654764957
20
133.27813101497034
30
0.0
 70
     32
  0
VERTEX
  8
MY3DLAYER
10
236.509687502547
20
133.17823059246575
30
0.0
 70
     32
  0
VERTEX
  8
MY3DLAYER
10
236.76850654764954
20
133.1441564187548
30
0.0
 70
     32
  0
VERTEX
  8
MY3DLAYER
10
237.02732559275208
20
133.17823059246575
30
0.0
 70
     32
  0
VERTEX
  8
MY3DLAYER
10
237.2685065476495
20
133.27813101497034
30
0.0
 70
     32
  0
VERTEX
  8
MY3DLAYER
10
237.3720599382428
20
133.3575903262693
30
0.0
 70
     32
  0
VERTEX
  8
MY3DLAYER
10
239.66628402651673
20
133.36769928344722
30
0.0
 70
     32
  0
VERTEX
  8
MY3DLAYER
10
239.36658275900288
20
132.64415641875482
30
0.0
 70
     32
  0
VERTEX
  8
MY3DLAYER
10
238.88982689120922
20
132.02283607519513
30
0.0
 70
     32
  0
VERTEX
  8
MY3DLAYER
10
238.26850654764954
20
131.5460802074015
30
0.0
 70
     32
  0
VERTEX
  8
MY3DLAYER
10
237.54496368295713
20
131.2463789398876
30
0.0
 70
     32
  0
VERTEX
  8
MY3DLAYER
10
236.76850654764954
20
131.1441564187548
30
0.0
 70
     32
  0
VERTEX
  8
MY3DLAYER
10
236.76850654764954
20
111.14415641875483
30
0.0
 70
     32
  0
VERTEX
  8
MY3DLAYER
10
237.54496368295713
20
111.041933897622
30
0.0
 70
     32
  0
VERTEX
  8
MY3DLAYER
10
238.26850654764954
20
110.74223263010813
30
0.0
 70
     32
  0
VERTEX
  8
MY3DLAYER
10
238.88982689120922
20
110.26547676231444
30
0.0
 70
     32
  0
VERTEX
  8
MY3DLAYER
10
239.36658275900288
20
109.64415641875482
30
0.0
 70
     32
  0
VERTEX
  8
MY3DLAYER
10
239.66628402651673
20
108.92061355406234
30
0.0
 70
     32
  0
VERTEX
  8
MY3DLAYER
10
237.3720599382428
20
108.93072251124028
30
0.0
 70
     32
  0
VERTEX
  8
MY3DLAYER
10
237.2685065476495
20
109.01018182253922
30
0.0
 70
     32
  0
VERTEX
  8
MY3DLAYER
10
237.02732559275208
20
109.11008224504387
30
0.0
 70
     32
  0
VERTEX
  8
MY3DLAYER
10
236.76850654764954
20
109.14415641875479
30
0.0
 70
     32
  0
VERTEX
  8
MY3DLAYER
10
236.509687502547
20
109.11008224504387
30
0.0
 70
     32
  0
VERTEX
  8
MY3DLAYER
10
236.26850654764957
20
109.01018182253922
30
0.0
 70
     32
  0
VERTEX
  8
MY3DLAYER
10
236.061399766463
20
108.85126319994134
30
0.0
 70
     32
  0
VERTEX
  8
MY3DLAYER
10
235.90248114386515
20
108.64415641875482
30
0.0
 70
     32
  0
VERTEX
  8
MY3DLAYER
10
235.8025807213605
20
108.40297546385733
30
0.0
 70
     32
  0
VERTEX
  8
MY3DLAYER
10
235.76850654764957
20
108.14415641875479
30
0.0
 70
     32
  0
VERTEX
  8
MY3DLAYER
10
235.8025807213605
20
107.8853373736523
30
0.0
 70
     32
  0
VERTEX
  8
MY3DLAYER
10
235.90248114386515
20
107.64415641875482
30
0.0
 70
     32
  0
VERTEX
  8
MY3DLAYER
10
236.061399766463
20
107.43704963756824
30
0.0
 70
     32
  0
VERTEX
  8
MY3DLAYER
10
236.26850654764957
20
107.27813101497036
30
0.0
 70
     32
  0
VERTEX
  8
MY3DLAYER
10
236.509687502547
20
107.17823059246575
30
0.0
 70
     32
  0
VERTEX
  8
MY3DLAYER
10
236.76850654764954
20
107.14415641875479
30
0.0
 70
     32
  0
VERTEX
  8
MY3DLAYER
10
237.02732559275208
20
107.17823059246575
30
0.0
 70
     32
  0
VERTEX
  8
MY3DLAYER
10
237.2685065476495
20
107.27813101497036
30
0.0
 70
     32
  0
VERTEX
  8
MY3DLAYER
10
237.3720599382428
20
107.3575903262693
30
0.0
 70
     32
  0
VERTEX
  8
MY3DLAYER
10
239.66628402651673
20
107.36769928344724
30
0.0
 70
     32
  0
VERTEX
  8
MY3DLAYER
10
239.36658275900288
20
106.64415641875482
30
0.0
 70
     32
  0
VERTEX
  8
MY3DLAYER
10
238.88982689120922
20
106.02283607519514
30
0.0
 70
     32
  0
VERTEX
  8
MY3DLAYER
10
238.26850654764954
20
105.54608020740149
30
0.0
 70
     32
  0
VERTEX
  8
MY3DLAYER
10
237.54496368295713
20
105.24637893988759
30
0.0
 70
     32
  0
VERTEX
  8
MY3DLAYER
10
236.76850654764954
20
105.1441564187548
30
0.0
 70
     32
  0
VERTEX
  8
MY3DLAYER
10
236.26850654764957
20
89.14415641875478
30
0.0
 70
     32
  0
VERTEX
  8
MY3DLAYER
10
237.04496368295707
20
89.04193389762199
30
0.0
 70
     32
  0
VERTEX
  8
MY3DLAYER
10
237.76850654764957
20
88.7422326301081
30
0.0
 70
     32
  0
VERTEX
  8
MY3DLAYER
10
238.38982689120917
20
88.26547676231444
30
0.0
 70
     32
  0
VERTEX
  8
MY3DLAYER
10
238.86658275900285
20
87.64415641875479
30
0.0
 70
     32
  0
VERTEX
  8
MY3DLAYER
10
239.16628402651676
20
86.92061355406234
30
0.0
 70
     32
  0
VERTEX
  8
MY3DLAYER
10
236.87205993824276
20
86.93072251124028
30
0.0
 70
     32
  0
VERTEX
  8
MY3DLAYER
10
236.76850654764954
20
87.01018182253922
30
0.0
 70
     32
  0
VERTEX
  8
MY3DLAYER
10
236.52732559275208
20
87.11008224504384
30
0.0
 70
     32
  0
VERTEX
  8
MY3DLAYER
10
236.26850654764957
20
87.14415641875479
30
0.0
 70
     32
  0
VERTEX
  8
MY3DLAYER
10
236.00968750254702
20
87.11008224504387
30
0.0
 70
     32
  0
VERTEX
  8
MY3DLAYER
10
235.76850654764957
20
87.01018182253922
30
0.0
 70
     32
  0
VERTEX
  8
MY3DLAYER
10
235.56139976646296
20
86.85126319994134
30
0.0
 70
     32
  0
VERTEX
  8
MY3DLAYER
10
235.4024811438651
20
86.64415641875479
30
0.0
 70
     32
  0
VERTEX
  8
MY3DLAYER
10
235.30258072136053
20
86.40297546385732
30
0.0
 70
     32
  0
VERTEX
  8
MY3DLAYER
10
235.2685065476495
20
86.14415641875479
30
0.0
 70
     32
  0
VERTEX
  8
MY3DLAYER
10
235.30258072136047
20
85.88533737365228
30
0.0
 70
     32
  0
VERTEX
  8
MY3DLAYER
10
235.4024811438651
20
85.64415641875479
30
0.0
 70
     32
  0
VERTEX
  8
MY3DLAYER
10
235.56139976646296
20
85.43704963756824
30
0.0
 70
     32
  0
VERTEX
  8
MY3DLAYER
10
235.76850654764957
20
85.27813101497036
30
0.0
 70
     32
  0
VERTEX
  8
MY3DLAYER
10
236.00968750254702
20
85.17823059246572
30
0.0
 70
     32
  0
VERTEX
  8
MY3DLAYER
10
236.26850654764957
20
85.14415641875479
30
0.0
 70
     32
  0
VERTEX
  8
MY3DLAYER
10
236.52732559275208
20
85.17823059246572
30
0.0
 70
     32
  0
VERTEX
  8
MY3DLAYER
10
236.76850654764954
20
85.27813101497036
30
0.0
 70
     32
  0
VERTEX
  8
MY3DLAYER
10
236.87205993824276
20
85.35759032626929
30
0.0
 70
     32
  0
VERTEX
  8
MY3DLAYER
10
239.16628402651676
20
85.36769928344722
30
0.0
 70
     32
  0
VERTEX
  8
MY3DLAYER
10
238.86658275900285
20
84.64415641875479
30
0.0
 70
     32
  0
VERTEX
  8
MY3DLAYER
10
238.38982689120917
20
84.02283607519516
30
0.0
 70
     32
  0
VERTEX
  8
MY3DLAYER
10
237.76850654764957
20
83.54608020740149
30
0.0
 70
     32
  0
VERTEX
  8
MY3DLAYER
10
237.04496368295707
20
83.24637893988758
30
0.0
 70
     32
  0
VERTEX
  8
MY3DLAYER
10
236.26850654764957
20
83.14415641875479
30
0.0
 70
     32
  0
VERTEX
  8
MY3DLAYER
10
234.76850654764954
20
50.14415641875479
30
0.0
 70
     32
  0
VERTEX
  8
MY3DLAYER
10
235.5449636829571
20
50.041933897622
30
0.0
 70
     32
  0
VERTEX
  8
MY3DLAYER
10
236.26850654764957
20
49.74223263010812
30
0.0
 70
     32
  0
VERTEX
  8
MY3DLAYER
10
236.88982689120914
20
49.26547676231444
30
0.0
 70
     32
  0
VERTEX
  8
MY3DLAYER
10
237.36658275900288
20
48.6441564187548
30
0.0
 70
     32
  0
VERTEX
  8
MY3DLAYER
10
237.66628402651673
20
47.920613554062356
30
0.0
 70
     32
  0
VERTEX
  8
MY3DLAYER
10
235.37205993824278
20
47.93072251124029
30
0.0
 70
     32
  0
VERTEX
  8
MY3DLAYER
10
235.2685065476495
20
48.01018182253923
30
0.0
 70
     32
  0
VERTEX
  8
MY3DLAYER
10
235.02732559275208
20
48.110082245043856
30
0.0
 70
     32
  0
VERTEX
  8
MY3DLAYER
10
234.76850654764954
20
48.1441564187548
30
0.0
 70
     32
  0
VERTEX
  8
MY3DLAYER
10
234.509687502547
20
48.110082245043856
30
0.0
 70
     32
  0
VERTEX
  8
MY3DLAYER
10
234.26850654764957
20
48.01018182253923
30
0.0
 70
     32
  0
VERTEX
  8
MY3DLAYER
10
234.06139976646298
20
47.85126319994134
30
0.0
 70
     32
  0
VERTEX
  8
MY3DLAYER
10
233.9024811438651
20
47.6441564187548
30
0.0
 70
     32
  0
VERTEX
  8
MY3DLAYER
10
233.8025807213605
20
47.40297546385731
30
0.0
 70
     32
  0
VERTEX
  8
MY3DLAYER
10
233.76850654764954
20
47.1441564187548
30
0.0
 70
     32
  0
VERTEX
  8
MY3DLAYER
10
233.8025807213605
20
46.88533737365226
30
0.0
 70
     32
  0
VERTEX
  8
MY3DLAYER
10
233.9024811438651
20
46.6441564187548
30
0.0
 70
     32
  0
VERTEX
  8
MY3DLAYER
10
234.06139976646298
20
46.437049637568244
30
0.0
 70
     32
  0
VERTEX
  8
MY3DLAYER
10
234.26850654764957
20
46.27813101497036
30
0.0
 70
     32
  0
VERTEX
  8
MY3DLAYER
10
234.509687502547
20
46.17823059246574
30
0.0
 70
     32
  0
VERTEX
  8
MY3DLAYER
10
234.76850654764954
20
46.1441564187548
30
0.0
 70
     32
  0
VERTEX
  8
MY3DLAYER
10
235.02732559275208
20
46.17823059246574
30
0.0
 70
     32
  0
VERTEX
  8
MY3DLAYER
10
235.2685065476495
20
46.27813101497036
30
0.0
 70
     32
  0
VERTEX
  8
MY3DLAYER
10
235.37205993824278
20
46.3575903262693
30
0.0
 70
     32
  0
VERTEX
  8
MY3DLAYER
10
237.76850654764954
20
46.36769928344724
30
0.0
 70
     32
  0
VERTEX
  8
MY3DLAYER
10
237.76850654764954
20
39.1441564187548
30
0.0
 70
     32
  0
VERTEX
  8
MY3DLAYER
10
254.2685065476495
20
42.14415641875478
30
0.0
 70
     32
  0
VERTEX
  8
MY3DLAYER
10
264.2685065476495
20
42.14415641875478
30
0.0
 70
     32
  0
VERTEX
  8
MY3DLAYER
10
274.2685065476495
20
42.14415641875478
30
0.0
 70
     32
  0
VERTEX
  8
MY3DLAYER
10
290.7685065476495
20
39.1441564187548
30
0.0
 70
     32
  0
VERTEX
  8
MY3DLAYER
10
290.7685065476495
20
46.36769928344724
30
0.0
 70
     32
  0
VERTEX
  8
MY3DLAYER
10
293.1649531570563
20
46.3575903262693
30
0.0
 70
     32
  0
VERTEX
  8
MY3DLAYER
10
293.26850654764957
20
46.27813101497036
30
0.0
 70
     32
  0
VERTEX
  8
MY3DLAYER
10
293.509687502547
20
46.17823059246574
30
0.0
 70
     32
  0
VERTEX
  8
MY3DLAYER
10
293.76850654764957
20
46.1441564187548
30
0.0
 70
     32
  0
VERTEX
  8
MY3DLAYER
10
294.0273255927521
20
46.17823059246574
30
0.0
 70
     32
  0
VERTEX
  8
MY3DLAYER
10
294.26850654764957
20
46.27813101497036
30
0.0
 70
     32
  0
VERTEX
  8
MY3DLAYER
10
294.47561332883606
20
46.437049637568244
30
0.0
 70
     32
  0
VERTEX
  8
MY3DLAYER
10
294.6345319514339
20
46.6441564187548
30
0.0
 70
     32
  0
VERTEX
  8
MY3DLAYER
10
294.7344323739386
20
46.88533737365226
30
0.0
 70
     32
  0
VERTEX
  8
MY3DLAYER
10
294.7685065476495
20
47.1441564187548
30
0.0
 70
     32
  0
VERTEX
  8
MY3DLAYER
10
294.7344323739386
20
47.40297546385731
30
0.0
 70
     32
  0
VERTEX
  8
MY3DLAYER
10
294.6345319514339
20
47.6441564187548
30
0.0
 70
     32
  0
VERTEX
  8
MY3DLAYER
10
294.47561332883606
20
47.85126319994134
30
0.0
 70
     32
  0
VERTEX
  8
MY3DLAYER
10
294.26850654764957
20
48.01018182253923
30
0.0
 70
     32
  0
VERTEX
  8
MY3DLAYER
10
294.0273255927521
20
48.110082245043856
30
0.0
 70
     32
  0
VERTEX
  8
MY3DLAYER
10
293.76850654764957
20
48.1441564187548
30
0.0
 70
     32
  0
VERTEX
  8
MY3DLAYER
10
293.509687502547
20
48.110082245043856
30
0.0
 70
     32
  0
VERTEX
  8
MY3DLAYER
10
293.26850654764957
20
48.01018182253923
30
0.0
 70
     32
  0
VERTEX
  8
MY3DLAYER
10
293.1649531570563
20
47.93072251124029
30
0.0
 70
     32
  0
VERTEX
  8
MY3DLAYER
10
290.87072906878234
20
47.920613554062356
30
0.0
 70
     32
  0
VERTEX
  8
MY3DLAYER
10
291.1704303362962
20
48.6441564187548
30
0.0
 70
     32
  0
VERTEX
  8
MY3DLAYER
10
291.64718620408985
20
49.26547676231444
30
0.0
 70
     32
  0
VERTEX
  8
MY3DLAYER
10
292.26850654764957
20
49.74223263010812
30
0.0
 70
     32
  0
VERTEX
  8
MY3DLAYER
10
292.99204941234194
20
50.041933897622
30
0.0
 70
     32
  0
VERTEX
  8
MY3DLAYER
10
293.76850654764957
20
50.14415641875479
30
0.0
 70
     32
  0
VERTEX
  8
MY3DLAYER
10
292.26850654764957
20
83.14415641875479
30
0.0
 70
     32
  0
VERTEX
  8
MY3DLAYER
10
291.49204941234206
20
83.24637893988758
30
0.0
 70
     32
  0
VERTEX
  8
MY3DLAYER
10
290.7685065476495
20
83.54608020740149
30
0.0
 70
     32
  0
VERTEX
  8
MY3DLAYER
10
290.14718620408996
20
84.02283607519516
30
0.0
 70
     32
  0
VERTEX
  8
MY3DLAYER
10
289.6704303362963
20
84.64415641875479
30
0.0
 70
     32
  0
VERTEX
  8
MY3DLAYER
10
289.37072906878234
20
85.36769928344722
30
0.0
 70
     32
  0
VERTEX
  8
MY3DLAYER
10
291.66495315705635
20
85.35759032626929
30
0.0
 70
     32
  0
VERTEX
  8
MY3DLAYER
10
291.76850654764957
20
85.27813101497036
30
0.0
 70
     32
  0
VERTEX
  8
MY3DLAYER
10
292.009687502547
20
85.17823059246572
30
0.0
 70
     32
  0
VERTEX
  8
MY3DLAYER
10
292.26850654764957
20
85.14415641875479
30
0.0
 70
     32
  0
VERTEX
  8
MY3DLAYER
10
292.52732559275205
20
85.17823059246572
30
0.0
 70
     32
  0
VERTEX
  8
MY3DLAYER
10
292.7685065476495
20
85.27813101497036
30
0.0
 70
     32
  0
VERTEX
  8
MY3DLAYER
10
292.9756133288361
20
85.43704963756824
30
0.0
 70
     32
  0
VERTEX
  8
MY3DLAYER
10
293.13453195143404
20
85.64415641875479
30
0.0
 70
     32
  0
VERTEX
  8
MY3DLAYER
10
293.2344323739386
20
85.88533737365228
30
0.0
 70
     32
  0
VERTEX
  8
MY3DLAYER
10
293.26850654764957
20
86.14415641875479
30
0.0
 70
     32
  0
VERTEX
  8
MY3DLAYER
10
293.2344323739386
20
86.40297546385732
30
0.0
 70
     32
  0
VERTEX
  8
MY3DLAYER
10
293.13453195143404
20
86.64415641875479
30
0.0
 70
     32
  0
VERTEX
  8
MY3DLAYER
10
292.9756133288361
20
86.85126319994134
30
0.0
 70
     32
  0
VERTEX
  8
MY3DLAYER
10
292.7685065476495
20
87.01018182253922
30
0.0
 70
     32
  0
VERTEX
  8
MY3DLAYER
10
292.52732559275205
20
87.11008224504384
30
0.0
 70
     32
  0
VERTEX
  8
MY3DLAYER
10
292.26850654764957
20
87.14415641875479
30
0.0
 70
     32
  0
VERTEX
  8
MY3DLAYER
10
292.009687502547
20
87.11008224504387
30
0.0
 70
     32
  0
VERTEX
  8
MY3DLAYER
10
291.76850654764957
20
87.01018182253922
30
0.0
 70
     32
  0
VERTEX
  8
MY3DLAYER
10
291.66495315705635
20
86.93072251124028
30
0.0
 70
     32
  0
VERTEX
  8
MY3DLAYER
10
289.37072906878234
20
86.92061355406237
30
0.0
 70
     32
  0
VERTEX
  8
MY3DLAYER
10
289.6704303362963
20
87.64415641875479
30
0.0
 70
     32
  0
VERTEX
  8
MY3DLAYER
10
290.14718620408996
20
88.26547676231444
30
0.0
 70
     32
  0
VERTEX
  8
MY3DLAYER
10
290.7685065476495
20
88.7422326301081
30
0.0
 70
     32
  0
VERTEX
  8
MY3DLAYER
10
291.49204941234206
20
89.04193389762199
30
0.0
 70
     32
  0
VERTEX
  8
MY3DLAYER
10
292.26850654764957
20
89.14415641875478
30
0.0
 70
     32
  0
VERTEX
  8
MY3DLAYER
10
291.76850654764957
20
105.1441564187548
30
0.0
 70
     32
  0
VERTEX
  8
MY3DLAYER
10
290.99204941234194
20
105.24637893988759
30
0.0
 70
     32
  0
VERTEX
  8
MY3DLAYER
10
290.26850654764957
20
105.54608020740149
30
0.0
 70
     32
  0
VERTEX
  8
MY3DLAYER
10
289.64718620408985
20
106.02283607519514
30
0.0
 70
     32
  0
VERTEX
  8
MY3DLAYER
10
289.1704303362962
20
106.64415641875482
30
0.0
 70
     32
  0
VERTEX
  8
MY3DLAYER
10
288.87072906878234
20
107.36769928344724
30
0.0
 70
     32
  0
VERTEX
  8
MY3DLAYER
10
291.1649531570563
20
107.3575903262693
30
0.0
 70
     32
  0
VERTEX
  8
MY3DLAYER
10
291.26850654764957
20
107.27813101497036
30
0.0
 70
     32
  0
VERTEX
  8
MY3DLAYER
10
291.509687502547
20
107.17823059246575
30
0.0
 70
     32
  0
VERTEX
  8
MY3DLAYER
10
291.76850654764957
20
107.14415641875479
30
0.0
 70
     32
  0
VERTEX
  8
MY3DLAYER
10
292.0273255927521
20
107.17823059246575
30
0.0
 70
     32
  0
VERTEX
  8
MY3DLAYER
10
292.26850654764957
20
107.27813101497036
30
0.0
 70
     32
  0
VERTEX
  8
MY3DLAYER
10
292.47561332883606
20
107.43704963756824
30
0.0
 70
     32
  0
VERTEX
  8
MY3DLAYER
10
292.6345319514339
20
107.64415641875482
30
0.0
 70
     32
  0
VERTEX
  8
MY3DLAYER
10
292.7344323739386
20
107.8853373736523
30
0.0
 70
     32
  0
VERTEX
  8
MY3DLAYER
10
292.7685065476495
20
108.14415641875479
30
0.0
 70
     32
  0
VERTEX
  8
MY3DLAYER
10
292.7344323739386
20
108.40297546385733
30
0.0
 70
     32
  0
VERTEX
  8
MY3DLAYER
10
292.6345319514339
20
108.64415641875482
30
0.0
 70
     32
  0
VERTEX
  8
MY3DLAYER
10
292.47561332883606
20
108.85126319994134
30
0.0
 70
     32
  0
VERTEX
  8
MY3DLAYER
10
292.26850654764957
20
109.01018182253922
30
0.0
 70
     32
  0
VERTEX
  8
MY3DLAYER
10
292.0273255927521
20
109.11008224504387
30
0.0
 70
     32
  0
VERTEX
  8
MY3DLAYER
10
291.76850654764957
20
109.14415641875479
30
0.0
 70
     32
  0
VERTEX
  8
MY3DLAYER
10
291.509687502547
20
109.11008224504387
30
0.0
 70
     32
  0
VERTEX
  8
MY3DLAYER
10
291.26850654764957
20
109.01018182253922
30
0.0
 70
     32
  0
VERTEX
  8
MY3DLAYER
10
291.1649531570563
20
108.93072251124028
30
0.0
 70
     32
  0
VERTEX
  8
MY3DLAYER
10
288.87072906878234
20
108.92061355406234
30
0.0
 70
     32
  0
VERTEX
  8
MY3DLAYER
10
289.1704303362962
20
109.64415641875482
30
0.0
 70
     32
  0
VERTEX
  8
MY3DLAYER
10
289.64718620408985
20
110.26547676231444
30
0.0
 70
     32
  0
VERTEX
  8
MY3DLAYER
10
290.26850654764957
20
110.74223263010813
30
0.0
 70
     32
  0
VERTEX
  8
MY3DLAYER
10
290.99204941234194
20
111.041933897622
30
0.0
 70
     32
  0
VERTEX
  8
MY3DLAYER
10
291.76850654764957
20
111.14415641875479
30
0.0
 70
     32
  0
VERTEX
  8
MY3DLAYER
10
291.76850654764957
20
131.1441564187548
30
0.0
 70
     32
  0
VERTEX
  8
MY3DLAYER
10
290.99204941234194
20
131.2463789398876
30
0.0
 70
     32
  0
VERTEX
  8
MY3DLAYER
10
290.26850654764957
20
131.5460802074015
30
0.0
 70
     32
  0
VERTEX
  8
MY3DLAYER
10
289.64718620408985
20
132.02283607519513
30
0.0
 70
     32
  0
VERTEX
  8
MY3DLAYER
10
289.1704303362962
20
132.64415641875482
30
0.0
 70
     32
  0
VERTEX
  8
MY3DLAYER
10
288.87072906878234
20
133.36769928344722
30
0.0
 70
     32
  0
VERTEX
  8
MY3DLAYER
10
291.1649531570563
20
133.3575903262693
30
0.0
 70
     32
  0
VERTEX
  8
MY3DLAYER
10
291.26850654764957
20
133.27813101497034
30
0.0
 70
     32
  0
VERTEX
  8
MY3DLAYER
10
291.509687502547
20
133.17823059246575
30
0.0
 70
     32
  0
VERTEX
  8
MY3DLAYER
10
291.76850654764957
20
133.1441564187548
30
0.0
 70
     32
  0
VERTEX
  8
MY3DLAYER
10
292.0273255927521
20
133.17823059246575
30
0.0
 70
     32
  0
VERTEX
  8
MY3DLAYER
10
292.26850654764957
20
133.27813101497034
30
0.0
 70
     32
  0
VERTEX
  8
MY3DLAYER
10
292.47561332883606
20
133.43704963756824
30
0.0
 70
     32
  0
VERTEX
  8
MY3DLAYER
10
292.6345319514339
20
133.64415641875482
30
0.0
 70
     32
  0
VERTEX
  8
MY3DLAYER
10
292.7344323739386
20
133.8853373736523
30
0.0
 70
     32
  0
VERTEX
  8
MY3DLAYER
10
292.7685065476495
20
134.1441564187548
30
0.0
 70
     32
  0
VERTEX
  8
MY3DLAYER
10
292.7344323739386
20
134.40297546385733
30
0.0
 70
     32
  0
VERTEX
  8
MY3DLAYER
10
292.6345319514339
20
134.64415641875482
30
0.0
 70
     32
  0
VERTEX
  8
MY3DLAYER
10
292.47561332883606
20
134.85126319994134
30
0.0
 70
     32
  0
VERTEX
  8
MY3DLAYER
10
292.26850654764957
20
135.0101818225392
30
0.0
 70
     32
  0
VERTEX
  8
MY3DLAYER
10
292.0273255927521
20
135.11008224504388
30
0.0
 70
     32
  0
VERTEX
  8
MY3DLAYER
10
291.76850654764957
20
135.1441564187548
30
0.0
 70
     32
  0
VERTEX
  8
MY3DLAYER
10
291.509687502547
20
135.11008224504388
30
0.0
 70
     32
  0
VERTEX
  8
MY3DLAYER
10
291.26850654764957
20
135.0101818225392
30
0.0
 70
     32
  0
VERTEX
  8
MY3DLAYER
10
291.1649531570563
20
134.93072251124028
30
0.0
 70
     32
  0
VERTEX
  8
MY3DLAYER
10
288.87072906878234
20
134.92061355406236
30
0.0
 70
     32
  0
VERTEX
  8
MY3DLAYER
10
289.1704303362962
20
135.64415641875482
30
0.0
 70
     32
  0
VERTEX
  8
MY3DLAYER
10
289.64718620408985
20
136.26547676231445
30
0.0
 70
     32
  0
VERTEX
  8
MY3DLAYER
10
290.26850654764957
20
136.74223263010813
30
0.0
 70
     32
  0
VERTEX
  8
MY3DLAYER
10
290.99204941234194
20
137.041933897622
30
0.0
 70
     32
  0
VERTEX
  8
MY3DLAYER
10
291.76850654764957
20
137.1441564187548
30
0.0
 70
     32
  0
VERTEX
  8
MY3DLAYER
10
291.76850654764957
20
139.14415641875482
30
0.0
 70
     32
  0
VERTEX
  8
MY3DLAYER
10
296.7685065476495
20
139.14415641875482
30
0.0
 70
     32
  0
VERTEX
  8
MY3DLAYER
10
296.7685065476495
20
29.144156418754797
30
0.0
 70
     32
  0
SEQEND
  0
POLYLINE
 8
Layer0
 66
     1
70
    8
 10
0.0
 20
 0.0
 30
0.0
  0
VERTEX
  8
MY3DLAYER
10
262.7685065476495
20
40.1441564187548
30
0.0
 70
     32
  0
VERTEX
  8
MY3DLAYER
10
262.7685065476495
20
30.144156418754793
30
0.0
 70
     32
  0
VERTEX
  8
MY3DLAYER
10
265.76850654764945
20
30.144156418754793
30
0.0
 70
     32
  0
VERTEX
  8
MY3DLAYER
10
265.76850654764945
20
40.1441564187548
30
0.0
 70
     32
  0
VERTEX
  8
MY3DLAYER
10
262.7685065476495
20
40.1441564187548
30
0.0
 70
     32
  0
SEQEND
 0
ENDSEC
 0
EOF
