 0
SECTION
 2
ENTITIES
  0
POLYLINE
 8
Layer0
 66
     1
70
    8
 10
0.0
 20
 0.0
 30
0.0
  0
VERTEX
  8
MY3DLAYER
10
368.5817020073761
20
-66.0502042176629
30
0.0
 70
     32
  0
VERTEX
  8
MY3DLAYER
10
360.61007541821846
20
-67.47750320606637
30
0.0
 70
     32
  0
VERTEX
  8
MY3DLAYER
10
352.6384488290608
20
-66.0502042176629
30
0.0
 70
     32
  0
VERTEX
  8
MY3DLAYER
10
345.2100754182184
20
-61.86557531978894
30
0.0
 70
     32
  0
VERTEX
  8
MY3DLAYER
10
338.83118655767277
20
-55.208792056408505
30
0.0
 70
     32
  0
VERTEX
  8
MY3DLAYER
10
333.93649298165775
20
-46.53350320606642
30
0.0
 70
     32
  0
VERTEX
  8
MY3DLAYER
10
330.85955996851516
20
-36.43091536732079
30
0.0
 70
     32
  0
VERTEX
  8
MY3DLAYER
10
329.81007541821845
20
-25.58950320606643
30
0.0
 70
     32
  0
VERTEX
  8
MY3DLAYER
10
330.85955996851516
20
-14.748091044812027
30
0.0
 70
     32
  0
VERTEX
  8
MY3DLAYER
10
333.93649298165775
20
-4.645503206066422
30
0.0
 70
     32
  0
VERTEX
  8
MY3DLAYER
10
338.8311865576728
20
4.0297856442756625
30
0.0
 70
     32
  0
VERTEX
  8
MY3DLAYER
10
345.2100754182185
20
10.686568907656135
30
0.0
 70
     32
  0
VERTEX
  8
MY3DLAYER
10
352.6384488290608
20
14.871197805530054
30
0.0
 70
     32
  0
VERTEX
  8
MY3DLAYER
10
360.61007541821846
20
16.29849679393356
30
0.0
 70
     32
  0
VERTEX
  8
MY3DLAYER
10
368.5817020073761
20
14.87119780553003
30
0.0
 70
     32
  0
VERTEX
  8
MY3DLAYER
10
376.0100754182185
20
10.68656890765613
30
0.0
 70
     32
  0
VERTEX
  8
MY3DLAYER
10
382.3889642787641
20
4.02978564427566
30
0.0
 70
     32
  0
VERTEX
  8
MY3DLAYER
10
387.28365785477916
20
-4.645503206066441
30
0.0
 70
     32
  0
VERTEX
  8
MY3DLAYER
10
390.36059086792176
20
-14.748091044812037
30
0.0
 70
     32
  0
VERTEX
  8
MY3DLAYER
10
391.41007541821847
20
-25.58950320606643
30
0.0
 70
     32
  0
VERTEX
  8
MY3DLAYER
10
390.36059086792176
20
-36.43091536732086
30
0.0
 70
     32
  0
VERTEX
  8
MY3DLAYER
10
387.28365785477916
20
-46.53350320606644
30
0.0
 70
     32
  0
VERTEX
  8
MY3DLAYER
10
382.3889642787641
20
-55.20879205640853
30
0.0
 70
     32
  0
VERTEX
  8
MY3DLAYER
10
376.01007541821843
20
-61.86557531978896
30
0.0
 70
     32
  0
VERTEX
  8
MY3DLAYER
10
368.5817020073761
20
-66.0502042176629
30
0.0
 70
     32
  0
SEQEND
  0
POLYLINE
 8
Layer0
 66
     1
70
    8
 10
0.0
 20
 0.0
 30
0.0
  0
VERTEX
  8
MY3DLAYER
10
359.11007541821846
20
-4.645503206066419
30
0.0
 70
     32
  0
VERTEX
  8
MY3DLAYER
10
359.11007541821846
20
-24.645503206066415
30
0.0
 70
     32
  0
VERTEX
  8
MY3DLAYER
10
362.11007541821846
20
-24.645503206066415
30
0.0
 70
     32
  0
VERTEX
  8
MY3DLAYER
10
362.11007541821846
20
-4.645503206066419
30
0.0
 70
     32
  0
VERTEX
  8
MY3DLAYER
10
359.11007541821846
20
-4.645503206066419
30
0.0
 70
     32
  0
SEQEND
  0
POLYLINE
 8
Layer0
 66
     1
70
    8
 10
0.0
 20
 0.0
 30
0.0
  0
VERTEX
  8
MY3DLAYER
10
327.48908659096264
20
-52.98830790863034
30
0.0
 70
     32
  0
VERTEX
  8
MY3DLAYER
10
321.98908659096264
20
-52.98830790863034
30
0.0
 70
     32
  0
VERTEX
  8
MY3DLAYER
10
321.98908659096264
20
-55.98830790863033
30
0.0
 70
     32
  0
VERTEX
  8
MY3DLAYER
10
301.98908659096264
20
-55.98830790863033
30
0.0
 70
     32
  0
VERTEX
  8
MY3DLAYER
10
301.98908659096264
20
-52.98830790863034
30
0.0
 70
     32
  0
VERTEX
  8
MY3DLAYER
10
296.48908659096264
20
-52.98830790863034
30
0.0
 70
     32
  0
VERTEX
  8
MY3DLAYER
10
316.48908659096264
20
7.011692091369645
30
0.0
 70
     32
  0
VERTEX
  8
MY3DLAYER
10
316.98908659096264
20
7.011692091369645
30
0.0
 70
     32
  0
VERTEX
  8
MY3DLAYER
10
316.98908659096264
20
13.011692091369646
30
0.0
 70
     32
  0
VERTEX
  8
MY3DLAYER
10
326.9890865909626
20
13.011692091369646
30
0.0
 70
     32
  0
VERTEX
  8
MY3DLAYER
10
326.9890865909626
20
7.011692091369645
30
0.0
 70
     32
  0
VERTEX
  8
MY3DLAYER
10
327.48908659096264
20
7.011692091369645
30
0.0
 70
     32
  0
VERTEX
  8
MY3DLAYER
10
327.48908659096264
20
-52.98830790863034
30
0.0
 70
     32
  0
SEQEND
 0
ENDSEC
 0
EOF
