solid WifiYagiWood
facet normal 0.0 0.0 -1.0
  outer loop
    vertex 578.5425992054861 -16.923955212645982 0.0
    vertex 578.5425992054861 -38.60677953515474 0.0
    vertex 577.4931146551894 -27.765367373900382 0.0
  endloop
endfacet
facet normal 0.0 0.0 -1.0
  outer loop
    vertex 578.5425992054861 -38.60677953515474 0.0
    vertex 578.5425992054861 -16.923955212645982 0.0
    vertex 581.6195322186287 -6.821367373900373 0.0
  endloop
endfacet
facet normal 0.0 0.0 -1.0
  outer loop
    vertex 578.5425992054861 -38.60677953515474 0.0
    vertex 581.6195322186287 -6.821367373900373 0.0
    vertex 581.6195322186287 -48.70936737390037 0.0
  endloop
endfacet
facet normal 0.0 0.0 -1.0
  outer loop
    vertex 581.6195322186287 -48.70936737390037 0.0
    vertex 581.6195322186287 -6.821367373900373 0.0
    vertex 586.5142257946438 1.8539214764417073 0.0
  endloop
endfacet
facet normal 0.0 0.0 -1.0
  outer loop
    vertex 581.6195322186287 -48.70936737390037 0.0
    vertex 586.5142257946438 1.8539214764417073 0.0
    vertex 586.5142257946437 -57.384656224242455 0.0
  endloop
endfacet
facet normal 0.0 0.0 -1.0
  outer loop
    vertex 586.5142257946437 -57.384656224242455 0.0
    vertex 586.5142257946438 1.8539214764417073 0.0
    vertex 592.8931146551894 -64.0414394876229 0.0
  endloop
endfacet
facet normal 0.0 0.0 -1.0
  outer loop
    vertex 592.8931146551894 -64.0414394876229 0.0
    vertex 586.5142257946438 1.8539214764417073 0.0
    vertex 592.8931146551894 8.510704739822176 0.0
  endloop
endfacet
facet normal 0.0 0.0 -1.0
  outer loop
    vertex 592.8931146551894 -64.0414394876229 0.0
    vertex 592.8931146551894 8.510704739822176 0.0
    vertex 600.3214880660317 12.695333637696105 0.0
  endloop
endfacet
facet normal 0.0 0.0 -1.0
  outer loop
    vertex 592.8931146551894 -64.0414394876229 0.0
    vertex 600.3214880660317 12.695333637696105 0.0
    vertex 600.3214880660317 -68.22606838549684 0.0
  endloop
endfacet
facet normal 0.0 0.0 -1.0
  outer loop
    vertex 600.3214880660317 -68.22606838549684 0.0
    vertex 600.3214880660317 12.695333637696105 0.0
    vertex 608.2931146551894 14.122632626099602 0.0
  endloop
endfacet
facet normal 0.0 0.0 -1.0
  outer loop
    vertex 600.3214880660317 -68.22606838549684 0.0
    vertex 608.2931146551894 14.122632626099602 0.0
    vertex 606.6931146551892 -6.721367373900373 0.0
  endloop
endfacet
facet normal 0.0 0.0 -1.0
  outer loop
    vertex 606.6931146551892 -6.721367373900373 0.0
    vertex 608.2931146551894 14.122632626099602 0.0
    vertex 609.8931146551894 -6.721367373900373 0.0
  endloop
endfacet
facet normal 0.0 0.0 -1.0
  outer loop
    vertex 609.8931146551894 -6.721367373900373 0.0
    vertex 608.2931146551894 14.122632626099602 0.0
    vertex 616.2647412443471 12.695333637696082 0.0
  endloop
endfacet
facet normal 0.0 0.0 -1.0
  outer loop
    vertex 609.8931146551894 -6.721367373900373 0.0
    vertex 616.2647412443471 12.695333637696082 0.0
    vertex 609.8931146551894 -26.92136737390037 0.0
  endloop
endfacet
facet normal 0.0 0.0 -1.0
  outer loop
    vertex 600.3214880660317 -68.22606838549684 0.0
    vertex 606.6931146551892 -26.92136737390037 0.0
    vertex 608.2931146551894 -69.65336737390034 0.0
  endloop
endfacet
facet normal 0.0 0.0 -1.0
  outer loop
    vertex 606.6931146551892 -26.92136737390037 0.0
    vertex 600.3214880660317 -68.22606838549684 0.0
    vertex 606.6931146551892 -6.721367373900373 0.0
  endloop
endfacet
facet normal 0.0 0.0 -1.0
  outer loop
    vertex 608.2931146551894 -69.65336737390034 0.0
    vertex 606.6931146551892 -26.92136737390037 0.0
    vertex 609.8931146551894 -26.92136737390037 0.0
  endloop
endfacet
facet normal 0.0 0.0 -1.0
  outer loop
    vertex 608.2931146551894 -69.65336737390034 0.0
    vertex 609.8931146551894 -26.92136737390037 0.0
    vertex 616.2647412443471 -68.22606838549684 0.0
  endloop
endfacet
facet normal 0.0 0.0 -1.0
  outer loop
    vertex 616.2647412443471 -68.22606838549684 0.0
    vertex 609.8931146551894 -26.92136737390037 0.0
    vertex 616.2647412443471 12.695333637696082 0.0
  endloop
endfacet
facet normal 0.0 0.0 -1.0
  outer loop
    vertex 616.2647412443471 -68.22606838549684 0.0
    vertex 616.2647412443471 12.695333637696082 0.0
    vertex 623.6931146551894 8.510704739822176 0.0
  endloop
endfacet
facet normal 0.0 0.0 -1.0
  outer loop
    vertex 616.2647412443471 -68.22606838549684 0.0
    vertex 623.6931146551894 8.510704739822176 0.0
    vertex 623.6931146551893 -64.04143948762291 0.0
  endloop
endfacet
facet normal 0.0 0.0 -1.0
  outer loop
    vertex 623.6931146551893 -64.04143948762291 0.0
    vertex 623.6931146551894 8.510704739822176 0.0
    vertex 630.0720035157351 -57.384656224242484 0.0
  endloop
endfacet
facet normal 0.0 0.0 -1.0
  outer loop
    vertex 630.0720035157351 -57.384656224242484 0.0
    vertex 623.6931146551894 8.510704739822176 0.0
    vertex 630.0720035157351 1.8539214764417073 0.0
  endloop
endfacet
facet normal 0.0 0.0 -1.0
  outer loop
    vertex 630.0720035157351 -57.384656224242484 0.0
    vertex 630.0720035157351 1.8539214764417073 0.0
    vertex 634.9666970917501 -6.8213673739003955 0.0
  endloop
endfacet
facet normal 0.0 0.0 -1.0
  outer loop
    vertex 630.0720035157351 -57.384656224242484 0.0
    vertex 634.9666970917501 -6.8213673739003955 0.0
    vertex 634.9666970917501 -48.7093673739004 0.0
  endloop
endfacet
facet normal 0.0 0.0 -1.0
  outer loop
    vertex 634.9666970917501 -48.7093673739004 0.0
    vertex 634.9666970917501 -6.8213673739003955 0.0
    vertex 638.0436301048927 -16.923955212645996 0.0
  endloop
endfacet
facet normal 0.0 0.0 -1.0
  outer loop
    vertex 634.9666970917501 -48.7093673739004 0.0
    vertex 638.0436301048927 -16.923955212645996 0.0
    vertex 638.0436301048927 -38.60677953515481 0.0
  endloop
endfacet
facet normal 0.0 0.0 -1.0
  outer loop
    vertex 638.0436301048927 -38.60677953515481 0.0
    vertex 638.0436301048927 -16.923955212645996 0.0
    vertex 639.0931146551894 -27.765367373900382 0.0
  endloop
endfacet
facet normal 0.0 0.0 -1.0
  outer loop
    vertex 661.4528135436713 0.8940648199877537 0.0
    vertex 651.4528135436711 -8.10593518001224 0.0
    vertex 651.4528135436711 0.8940648199877537 0.0
  endloop
endfacet
facet normal 0.0 0.0 -1.0
  outer loop
    vertex 651.4528135436711 -8.10593518001224 0.0
    vertex 661.4528135436713 0.8940648199877537 0.0
    vertex 656.4528135436713 -65.10593518001222 0.0
  endloop
endfacet
facet normal 0.0 0.0 -1.0
  outer loop
    vertex 656.4528135436713 -65.10593518001222 0.0
    vertex 661.4528135436713 0.8940648199877537 0.0
    vertex 661.4528135436713 -5.1059351800122466 0.0
  endloop
endfacet
facet normal 0.0 0.0 -1.0
  outer loop
    vertex 656.4528135436713 -65.10593518001222 0.0
    vertex 661.4528135436713 -5.1059351800122466 0.0
    vertex 661.9528135436711 -65.10593518001222 0.0
  endloop
endfacet
facet normal 0.0 0.0 -1.0
  outer loop
    vertex 661.9528135436711 -65.10593518001222 0.0
    vertex 661.4528135436713 -5.1059351800122466 0.0
    vertex 661.9528135436711 -5.1059351800122466 0.0
  endloop
endfacet
facet normal 0.0 0.0 -1.0
  outer loop
    vertex 649.9528135436713 -8.105935180012253 0.0
    vertex 636.4528135436713 -65.10593518001222 0.0
    vertex 630.9528135436711 -65.10593518001222 0.0
  endloop
endfacet
facet normal 0.0 0.0 -1.0
  outer loop
    vertex 636.4528135436713 -65.10593518001222 0.0
    vertex 649.9528135436713 -8.105935180012253 0.0
    vertex 636.4528135436713 -68.10593518001222 0.0
  endloop
endfacet
facet normal 0.0 0.0 -1.0
  outer loop
    vertex 636.4528135436713 -68.10593518001222 0.0
    vertex 649.9528135436713 -8.105935180012253 0.0
    vertex 656.4528135436713 -68.10593518001222 0.0
  endloop
endfacet
facet normal 0.0 0.0 -1.0
  outer loop
    vertex 656.4528135436713 -68.10593518001222 0.0
    vertex 649.9528135436713 -8.105935180012253 0.0
    vertex 651.4528135436711 -8.10593518001224 0.0
  endloop
endfacet
facet normal 0.0 0.0 -1.0
  outer loop
    vertex 656.4528135436713 -68.10593518001222 0.0
    vertex 651.4528135436711 -8.10593518001224 0.0
    vertex 656.4528135436713 -65.10593518001222 0.0
  endloop
endfacet
facet normal 1.0 -0.0 -0.0
  outer loop
    vertex 661.9528135436711 -5.1059351800122466 0.0
    vertex 661.9528135436711 -65.10593518001222 3.0
    vertex 661.9528135436711 -65.10593518001222 0.0
  endloop
endfacet
facet normal 1.0 -0.0 -0.0
  outer loop
    vertex 661.9528135436711 -65.10593518001222 3.0
    vertex 661.9528135436711 -5.1059351800122466 0.0
    vertex 661.9528135436711 -5.1059351800122466 3.0
  endloop
endfacet
facet normal -0.0 1.0 -0.0
  outer loop
    vertex 651.4528135436711 0.8940648199877537 3.0
    vertex 661.4528135436713 0.8940648199877537 0.0
    vertex 651.4528135436711 0.8940648199877537 0.0
  endloop
endfacet
facet normal -0.0 1.0 -0.0
  outer loop
    vertex 661.4528135436713 0.8940648199877537 0.0
    vertex 651.4528135436711 0.8940648199877537 3.0
    vertex 661.4528135436713 0.8940648199877537 3.0
  endloop
endfacet
facet normal 1.0 -0.0 -0.0
  outer loop
    vertex 661.4528135436713 0.8940648199877537 0.0
    vertex 661.4528135436713 -5.1059351800122466 3.0
    vertex 661.4528135436713 -5.1059351800122466 0.0
  endloop
endfacet
facet normal 1.0 -0.0 -0.0
  outer loop
    vertex 661.4528135436713 -5.1059351800122466 3.0
    vertex 661.4528135436713 0.8940648199877537 0.0
    vertex 661.4528135436713 0.8940648199877537 3.0
  endloop
endfacet
facet normal -0.0 -0.0 1.0
  outer loop
    vertex 578.5425992054861 -38.60677953515474 3.0
    vertex 578.5425992054861 -16.923955212645982 3.0
    vertex 577.4931146551894 -27.765367373900382 3.0
  endloop
endfacet
facet normal -0.0 -0.0 1.0
  outer loop
    vertex 578.5425992054861 -16.923955212645982 3.0
    vertex 578.5425992054861 -38.60677953515474 3.0
    vertex 581.6195322186287 -48.70936737390037 3.0
  endloop
endfacet
facet normal -0.0 -0.0 1.0
  outer loop
    vertex 578.5425992054861 -16.923955212645982 3.0
    vertex 581.6195322186287 -48.70936737390037 3.0
    vertex 581.6195322186287 -6.821367373900373 3.0
  endloop
endfacet
facet normal -0.0 -0.0 1.0
  outer loop
    vertex 581.6195322186287 -6.821367373900373 3.0
    vertex 581.6195322186287 -48.70936737390037 3.0
    vertex 586.5142257946437 -57.384656224242455 3.0
  endloop
endfacet
facet normal -0.0 -0.0 1.0
  outer loop
    vertex 581.6195322186287 -6.821367373900373 3.0
    vertex 586.5142257946437 -57.384656224242455 3.0
    vertex 586.5142257946438 1.8539214764417073 3.0
  endloop
endfacet
facet normal -0.0 -0.0 1.0
  outer loop
    vertex 586.5142257946438 1.8539214764417073 3.0
    vertex 586.5142257946437 -57.384656224242455 3.0
    vertex 592.8931146551894 -64.0414394876229 3.0
  endloop
endfacet
facet normal -0.0 -0.0 1.0
  outer loop
    vertex 586.5142257946438 1.8539214764417073 3.0
    vertex 592.8931146551894 -64.0414394876229 3.0
    vertex 592.8931146551894 8.510704739822176 3.0
  endloop
endfacet
facet normal -0.0 -0.0 1.0
  outer loop
    vertex 592.8931146551894 8.510704739822176 3.0
    vertex 592.8931146551894 -64.0414394876229 3.0
    vertex 600.3214880660317 -68.22606838549684 3.0
  endloop
endfacet
facet normal -0.0 -0.0 1.0
  outer loop
    vertex 592.8931146551894 8.510704739822176 3.0
    vertex 600.3214880660317 -68.22606838549684 3.0
    vertex 600.3214880660317 12.695333637696105 3.0
  endloop
endfacet
facet normal -0.0 -0.0 1.0
  outer loop
    vertex 600.3214880660317 12.695333637696105 3.0
    vertex 600.3214880660317 -68.22606838549684 3.0
    vertex 608.2931146551894 -69.65336737390034 3.0
  endloop
endfacet
facet normal -0.0 -0.0 1.0
  outer loop
    vertex 600.3214880660317 12.695333637696105 3.0
    vertex 608.2931146551894 -69.65336737390034 3.0
    vertex 606.6931146551892 -26.92136737390037 3.0
  endloop
endfacet
facet normal -0.0 -0.0 1.0
  outer loop
    vertex 606.6931146551892 -26.92136737390037 3.0
    vertex 608.2931146551894 -69.65336737390034 3.0
    vertex 609.8931146551894 -26.92136737390037 3.0
  endloop
endfacet
facet normal -0.0 -0.0 1.0
  outer loop
    vertex 609.8931146551894 -26.92136737390037 3.0
    vertex 608.2931146551894 -69.65336737390034 3.0
    vertex 616.2647412443471 -68.22606838549684 3.0
  endloop
endfacet
facet normal -0.0 -0.0 1.0
  outer loop
    vertex 609.8931146551894 -26.92136737390037 3.0
    vertex 616.2647412443471 -68.22606838549684 3.0
    vertex 609.8931146551894 -6.721367373900373 3.0
  endloop
endfacet
facet normal -0.0 -0.0 1.0
  outer loop
    vertex 600.3214880660317 12.695333637696105 3.0
    vertex 606.6931146551892 -6.721367373900373 3.0
    vertex 608.2931146551894 14.122632626099602 3.0
  endloop
endfacet
facet normal -0.0 -0.0 1.0
  outer loop
    vertex 606.6931146551892 -6.721367373900373 3.0
    vertex 600.3214880660317 12.695333637696105 3.0
    vertex 606.6931146551892 -26.92136737390037 3.0
  endloop
endfacet
facet normal -0.0 -0.0 1.0
  outer loop
    vertex 608.2931146551894 14.122632626099602 3.0
    vertex 606.6931146551892 -6.721367373900373 3.0
    vertex 609.8931146551894 -6.721367373900373 3.0
  endloop
endfacet
facet normal -0.0 -0.0 1.0
  outer loop
    vertex 608.2931146551894 14.122632626099602 3.0
    vertex 609.8931146551894 -6.721367373900373 3.0
    vertex 616.2647412443471 12.695333637696082 3.0
  endloop
endfacet
facet normal -0.0 -0.0 1.0
  outer loop
    vertex 616.2647412443471 12.695333637696082 3.0
    vertex 609.8931146551894 -6.721367373900373 3.0
    vertex 616.2647412443471 -68.22606838549684 3.0
  endloop
endfacet
facet normal -0.0 -0.0 1.0
  outer loop
    vertex 616.2647412443471 12.695333637696082 3.0
    vertex 616.2647412443471 -68.22606838549684 3.0
    vertex 623.6931146551893 -64.04143948762291 3.0
  endloop
endfacet
facet normal -0.0 -0.0 1.0
  outer loop
    vertex 616.2647412443471 12.695333637696082 3.0
    vertex 623.6931146551893 -64.04143948762291 3.0
    vertex 623.6931146551894 8.510704739822176 3.0
  endloop
endfacet
facet normal -0.0 -0.0 1.0
  outer loop
    vertex 623.6931146551894 8.510704739822176 3.0
    vertex 623.6931146551893 -64.04143948762291 3.0
    vertex 630.0720035157351 -57.384656224242484 3.0
  endloop
endfacet
facet normal -0.0 -0.0 1.0
  outer loop
    vertex 623.6931146551894 8.510704739822176 3.0
    vertex 630.0720035157351 -57.384656224242484 3.0
    vertex 630.0720035157351 1.8539214764417073 3.0
  endloop
endfacet
facet normal -0.0 -0.0 1.0
  outer loop
    vertex 630.0720035157351 1.8539214764417073 3.0
    vertex 630.0720035157351 -57.384656224242484 3.0
    vertex 634.9666970917501 -48.7093673739004 3.0
  endloop
endfacet
facet normal -0.0 -0.0 1.0
  outer loop
    vertex 630.0720035157351 1.8539214764417073 3.0
    vertex 634.9666970917501 -48.7093673739004 3.0
    vertex 634.9666970917501 -6.8213673739003955 3.0
  endloop
endfacet
facet normal -0.0 -0.0 1.0
  outer loop
    vertex 634.9666970917501 -6.8213673739003955 3.0
    vertex 634.9666970917501 -48.7093673739004 3.0
    vertex 638.0436301048927 -38.60677953515481 3.0
  endloop
endfacet
facet normal -0.0 -0.0 1.0
  outer loop
    vertex 634.9666970917501 -6.8213673739003955 3.0
    vertex 638.0436301048927 -38.60677953515481 3.0
    vertex 638.0436301048927 -16.923955212645996 3.0
  endloop
endfacet
facet normal -0.0 -0.0 1.0
  outer loop
    vertex 638.0436301048927 -16.923955212645996 3.0
    vertex 638.0436301048927 -38.60677953515481 3.0
    vertex 639.0931146551894 -27.765367373900382 3.0
  endloop
endfacet
facet normal 0.0 -1.0 0.0
  outer loop
    vertex 636.4528135436713 -65.10593518001222 3.0
    vertex 630.9528135436711 -65.10593518001222 0.0
    vertex 636.4528135436713 -65.10593518001222 0.0
  endloop
endfacet
facet normal 0.0 -1.0 0.0
  outer loop
    vertex 630.9528135436711 -65.10593518001222 0.0
    vertex 636.4528135436713 -65.10593518001222 3.0
    vertex 630.9528135436711 -65.10593518001222 3.0
  endloop
endfacet
facet normal 0.0 -1.0 0.0
  outer loop
    vertex 656.4528135436713 -68.10593518001222 3.0
    vertex 636.4528135436713 -68.10593518001222 0.0
    vertex 656.4528135436713 -68.10593518001222 0.0
  endloop
endfacet
facet normal 0.0 -1.0 0.0
  outer loop
    vertex 636.4528135436713 -68.10593518001222 0.0
    vertex 656.4528135436713 -68.10593518001222 3.0
    vertex 636.4528135436713 -68.10593518001222 3.0
  endloop
endfacet
facet normal 1.0 -0.0 -0.0
  outer loop
    vertex 656.4528135436713 -65.10593518001222 0.0
    vertex 656.4528135436713 -68.10593518001222 3.0
    vertex 656.4528135436713 -68.10593518001222 0.0
  endloop
endfacet
facet normal 1.0 -0.0 -0.0
  outer loop
    vertex 656.4528135436713 -68.10593518001222 3.0
    vertex 656.4528135436713 -65.10593518001222 0.0
    vertex 656.4528135436713 -65.10593518001222 3.0
  endloop
endfacet
facet normal -1.0 0.0 0.0
  outer loop
    vertex 636.4528135436713 -65.10593518001222 3.0
    vertex 636.4528135436713 -68.10593518001222 0.0
    vertex 636.4528135436713 -68.10593518001222 3.0
  endloop
endfacet
facet normal -1.0 0.0 0.0
  outer loop
    vertex 636.4528135436713 -68.10593518001222 0.0
    vertex 636.4528135436713 -65.10593518001222 3.0
    vertex 636.4528135436713 -65.10593518001222 0.0
  endloop
endfacet
facet normal -0.0 1.0 -0.0
  outer loop
    vertex 661.4528135436713 -5.1059351800122466 3.0
    vertex 661.9528135436711 -5.1059351800122466 0.0
    vertex 661.4528135436713 -5.1059351800122466 0.0
  endloop
endfacet
facet normal -0.0 1.0 -0.0
  outer loop
    vertex 661.9528135436711 -5.1059351800122466 0.0
    vertex 661.4528135436713 -5.1059351800122466 3.0
    vertex 661.9528135436711 -5.1059351800122466 3.0
  endloop
endfacet
facet normal 0.0 -1.0 0.0
  outer loop
    vertex 661.9528135436711 -65.10593518001222 3.0
    vertex 656.4528135436713 -65.10593518001222 0.0
    vertex 661.9528135436711 -65.10593518001222 0.0
  endloop
endfacet
facet normal 0.0 -1.0 0.0
  outer loop
    vertex 656.4528135436713 -65.10593518001222 0.0
    vertex 661.9528135436711 -65.10593518001222 3.0
    vertex 656.4528135436713 -65.10593518001222 3.0
  endloop
endfacet
facet normal -0.49081077377367277 -0.8712661960317805 -0.0
  outer loop
    vertex 600.3214880660317 -68.22606838549684 3.0
    vertex 592.8931146551894 -64.0414394876229 0.0
    vertex 600.3214880660317 -68.22606838549684 0.0
  endloop
endfacet
facet normal -0.49081077377367277 -0.8712661960317805 -0.0
  outer loop
    vertex 592.8931146551894 -64.0414394876229 0.0
    vertex 600.3214880660317 -68.22606838549684 3.0
    vertex 592.8931146551894 -64.0414394876229 3.0
  endloop
endfacet
facet normal -0.8709380429962911 -0.49139284209458184 -0.0
  outer loop
    vertex 581.6195322186287 -48.70936737390037 3.0
    vertex 586.5142257946437 -57.384656224242455 0.0
    vertex 586.5142257946437 -57.384656224242455 3.0
  endloop
endfacet
facet normal -0.8709380429962911 -0.49139284209458184 -0.0
  outer loop
    vertex 586.5142257946437 -57.384656224242455 0.0
    vertex 581.6195322186287 -48.70936737390037 3.0
    vertex 581.6195322186287 -48.70936737390037 0.0
  endloop
endfacet
facet normal 0.17624465902290493 -0.984346392366986 0.0
  outer loop
    vertex 616.2647412443471 -68.22606838549684 3.0
    vertex 608.2931146551894 -69.65336737390034 0.0
    vertex 616.2647412443471 -68.22606838549684 0.0
  endloop
endfacet
facet normal 0.17624465902290493 -0.984346392366986 0.0
  outer loop
    vertex 608.2931146551894 -69.65336737390034 0.0
    vertex 616.2647412443471 -68.22606838549684 3.0
    vertex 608.2931146551894 -69.65336737390034 3.0
  endloop
endfacet
facet normal -0.9953472348340622 -0.09635290399456857 -0.0
  outer loop
    vertex 577.4931146551894 -27.765367373900382 3.0
    vertex 578.5425992054861 -38.60677953515474 0.0
    vertex 578.5425992054861 -38.60677953515474 3.0
  endloop
endfacet
facet normal -0.9953472348340622 -0.09635290399456857 -0.0
  outer loop
    vertex 578.5425992054861 -38.60677953515474 0.0
    vertex 577.4931146551894 -27.765367373900382 3.0
    vertex 577.4931146551894 -27.765367373900382 0.0
  endloop
endfacet
facet normal -0.17624465902290684 -0.9843463923669856 -0.0
  outer loop
    vertex 608.2931146551894 -69.65336737390034 3.0
    vertex 600.3214880660317 -68.22606838549684 0.0
    vertex 608.2931146551894 -69.65336737390034 0.0
  endloop
endfacet
facet normal -0.17624465902290684 -0.9843463923669856 -0.0
  outer loop
    vertex 600.3214880660317 -68.22606838549684 0.0
    vertex 608.2931146551894 -69.65336737390034 3.0
    vertex 600.3214880660317 -68.22606838549684 3.0
  endloop
endfacet
facet normal -0.7220168363908669 -0.6918754858846528 -0.0
  outer loop
    vertex 586.5142257946437 -57.384656224242455 3.0
    vertex 592.8931146551894 -64.0414394876229 0.0
    vertex 592.8931146551894 -64.0414394876229 3.0
  endloop
endfacet
facet normal -0.7220168363908669 -0.6918754858846528 -0.0
  outer loop
    vertex 592.8931146551894 -64.0414394876229 0.0
    vertex 586.5142257946437 -57.384656224242455 3.0
    vertex 586.5142257946437 -57.384656224242455 0.0
  endloop
endfacet
facet normal -0.9566149808282309 -0.29135507281494816 -0.0
  outer loop
    vertex 578.5425992054861 -38.60677953515474 3.0
    vertex 581.6195322186287 -48.70936737390037 0.0
    vertex 581.6195322186287 -48.70936737390037 3.0
  endloop
endfacet
facet normal -0.9566149808282309 -0.29135507281494816 -0.0
  outer loop
    vertex 581.6195322186287 -48.70936737390037 0.0
    vertex 578.5425992054861 -38.60677953515474 3.0
    vertex 578.5425992054861 -38.60677953515474 0.0
  endloop
endfacet
facet normal -0.0 -0.0 1.0
  outer loop
    vertex 661.9528135436711 -65.10593518001222 3.0
    vertex 661.4528135436713 -5.1059351800122466 3.0
    vertex 656.4528135436713 -65.10593518001222 3.0
  endloop
endfacet
facet normal -0.0 -0.0 1.0
  outer loop
    vertex 661.4528135436713 -5.1059351800122466 3.0
    vertex 661.9528135436711 -65.10593518001222 3.0
    vertex 661.9528135436711 -5.1059351800122466 3.0
  endloop
endfacet
facet normal -0.0 -0.0 1.0
  outer loop
    vertex 656.4528135436713 -68.10593518001222 3.0
    vertex 636.4528135436713 -65.10593518001222 3.0
    vertex 636.4528135436713 -68.10593518001222 3.0
  endloop
endfacet
facet normal -0.0 -0.0 1.0
  outer loop
    vertex 636.4528135436713 -65.10593518001222 3.0
    vertex 656.4528135436713 -68.10593518001222 3.0
    vertex 649.9528135436713 -8.105935180012253 3.0
  endloop
endfacet
facet normal -0.0 -0.0 1.0
  outer loop
    vertex 649.9528135436713 -8.105935180012253 3.0
    vertex 656.4528135436713 -68.10593518001222 3.0
    vertex 651.4528135436711 -8.10593518001224 3.0
  endloop
endfacet
facet normal -0.0 -0.0 1.0
  outer loop
    vertex 651.4528135436711 -8.10593518001224 3.0
    vertex 656.4528135436713 -68.10593518001222 3.0
    vertex 651.4528135436711 0.8940648199877537 3.0
  endloop
endfacet
facet normal -0.0 -0.0 1.0
  outer loop
    vertex 651.4528135436711 0.8940648199877537 3.0
    vertex 656.4528135436713 -68.10593518001222 3.0
    vertex 656.4528135436713 -65.10593518001222 3.0
  endloop
endfacet
facet normal -0.0 -0.0 1.0
  outer loop
    vertex 651.4528135436711 0.8940648199877537 3.0
    vertex 656.4528135436713 -65.10593518001222 3.0
    vertex 661.4528135436713 0.8940648199877537 3.0
  endloop
endfacet
facet normal -0.0 -0.0 1.0
  outer loop
    vertex 661.4528135436713 0.8940648199877537 3.0
    vertex 656.4528135436713 -65.10593518001222 3.0
    vertex 661.4528135436713 -5.1059351800122466 3.0
  endloop
endfacet
facet normal -0.0 -0.0 1.0
  outer loop
    vertex 649.9528135436713 -8.105935180012253 3.0
    vertex 630.9528135436711 -65.10593518001222 3.0
    vertex 636.4528135436713 -65.10593518001222 3.0
  endloop
endfacet
facet normal -0.9953472348340621 0.09635290399456825 0.0
  outer loop
    vertex 578.5425992054861 -16.923955212645982 3.0
    vertex 577.4931146551894 -27.765367373900382 0.0
    vertex 577.4931146551894 -27.765367373900382 3.0
  endloop
endfacet
facet normal -0.9953472348340621 0.09635290399456825 0.0
  outer loop
    vertex 577.4931146551894 -27.765367373900382 0.0
    vertex 578.5425992054861 -16.923955212645982 3.0
    vertex 578.5425992054861 -16.923955212645982 0.0
  endloop
endfacet
facet normal 0.4908107737736642 0.8712661960317852 0.0
  outer loop
    vertex 616.2647412443471 12.695333637696082 3.0
    vertex 623.6931146551894 8.510704739822176 0.0
    vertex 616.2647412443471 12.695333637696082 0.0
  endloop
endfacet
facet normal 0.4908107737736642 0.8712661960317852 0.0
  outer loop
    vertex 623.6931146551894 8.510704739822176 0.0
    vertex 616.2647412443471 12.695333637696082 3.0
    vertex 623.6931146551894 8.510704739822176 3.0
  endloop
endfacet
facet normal -0.7220168363908734 0.6918754858846458 0.0
  outer loop
    vertex 592.8931146551894 8.510704739822176 3.0
    vertex 586.5142257946438 1.8539214764417073 0.0
    vertex 586.5142257946438 1.8539214764417073 3.0
  endloop
endfacet
facet normal -0.7220168363908734 0.6918754858846458 0.0
  outer loop
    vertex 586.5142257946438 1.8539214764417073 0.0
    vertex 592.8931146551894 8.510704739822176 3.0
    vertex 592.8931146551894 8.510704739822176 0.0
  endloop
endfacet
facet normal 0.7220168363908734 0.6918754858846458 0.0
  outer loop
    vertex 623.6931146551894 8.510704739822176 0.0
    vertex 630.0720035157351 1.8539214764417073 3.0
    vertex 630.0720035157351 1.8539214764417073 0.0
  endloop
endfacet
facet normal 0.7220168363908734 0.6918754858846458 0.0
  outer loop
    vertex 630.0720035157351 1.8539214764417073 3.0
    vertex 623.6931146551894 8.510704739822176 0.0
    vertex 623.6931146551894 8.510704739822176 3.0
  endloop
endfacet
facet normal -0.1762446590229082 0.9843463923669854 0.0
  outer loop
    vertex 600.3214880660317 12.695333637696105 3.0
    vertex 608.2931146551894 14.122632626099602 0.0
    vertex 600.3214880660317 12.695333637696105 0.0
  endloop
endfacet
facet normal -0.1762446590229082 0.9843463923669854 0.0
  outer loop
    vertex 608.2931146551894 14.122632626099602 0.0
    vertex 600.3214880660317 12.695333637696105 3.0
    vertex 608.2931146551894 14.122632626099602 3.0
  endloop
endfacet
facet normal 0.8709380429962915 0.4913928420945812 0.0
  outer loop
    vertex 630.0720035157351 1.8539214764417073 0.0
    vertex 634.9666970917501 -6.8213673739003955 3.0
    vertex 634.9666970917501 -6.8213673739003955 0.0
  endloop
endfacet
facet normal 0.8709380429962915 0.4913928420945812 0.0
  outer loop
    vertex 634.9666970917501 -6.8213673739003955 3.0
    vertex 630.0720035157351 1.8539214764417073 0.0
    vertex 630.0720035157351 1.8539214764417073 3.0
  endloop
endfacet
facet normal -0.8709380429962871 0.49139284209458894 0.0
  outer loop
    vertex 586.5142257946438 1.8539214764417073 3.0
    vertex 581.6195322186287 -6.821367373900373 0.0
    vertex 581.6195322186287 -6.821367373900373 3.0
  endloop
endfacet
facet normal -0.8709380429962871 0.49139284209458894 0.0
  outer loop
    vertex 581.6195322186287 -6.821367373900373 0.0
    vertex 586.5142257946438 1.8539214764417073 3.0
    vertex 586.5142257946438 1.8539214764417073 0.0
  endloop
endfacet
facet normal -0.4908107737736707 0.8712661960317815 0.0
  outer loop
    vertex 592.8931146551894 8.510704739822176 3.0
    vertex 600.3214880660317 12.695333637696105 0.0
    vertex 592.8931146551894 8.510704739822176 0.0
  endloop
endfacet
facet normal -0.4908107737736707 0.8712661960317815 0.0
  outer loop
    vertex 600.3214880660317 12.695333637696105 0.0
    vertex 592.8931146551894 8.510704739822176 3.0
    vertex 600.3214880660317 12.695333637696105 3.0
  endloop
endfacet
facet normal 0.9566149808282306 0.2913550728149489 0.0
  outer loop
    vertex 634.9666970917501 -6.8213673739003955 0.0
    vertex 638.0436301048927 -16.923955212645996 3.0
    vertex 638.0436301048927 -16.923955212645996 0.0
  endloop
endfacet
facet normal 0.9566149808282306 0.2913550728149489 0.0
  outer loop
    vertex 638.0436301048927 -16.923955212645996 3.0
    vertex 634.9666970917501 -6.8213673739003955 0.0
    vertex 634.9666970917501 -6.8213673739003955 3.0
  endloop
endfacet
facet normal -0.9566149808282308 0.2913550728149486 0.0
  outer loop
    vertex 581.6195322186287 -6.821367373900373 3.0
    vertex 578.5425992054861 -16.923955212645982 0.0
    vertex 578.5425992054861 -16.923955212645982 3.0
  endloop
endfacet
facet normal -0.9566149808282308 0.2913550728149486 0.0
  outer loop
    vertex 578.5425992054861 -16.923955212645982 0.0
    vertex 581.6195322186287 -6.821367373900373 3.0
    vertex 581.6195322186287 -6.821367373900373 0.0
  endloop
endfacet
facet normal 0.17624465902290898 0.9843463923669853 0.0
  outer loop
    vertex 608.2931146551894 14.122632626099602 3.0
    vertex 616.2647412443471 12.695333637696082 0.0
    vertex 608.2931146551894 14.122632626099602 0.0
  endloop
endfacet
facet normal 0.17624465902290898 0.9843463923669853 0.0
  outer loop
    vertex 616.2647412443471 12.695333637696082 0.0
    vertex 608.2931146551894 14.122632626099602 3.0
    vertex 616.2647412443471 12.695333637696082 3.0
  endloop
endfacet
facet normal -0.9486832980505138 0.3162277660168382 0.0
  outer loop
    vertex 649.9528135436713 -8.105935180012253 3.0
    vertex 630.9528135436711 -65.10593518001222 0.0
    vertex 630.9528135436711 -65.10593518001222 3.0
  endloop
endfacet
facet normal -0.9486832980505138 0.3162277660168382 0.0
  outer loop
    vertex 630.9528135436711 -65.10593518001222 0.0
    vertex 649.9528135436713 -8.105935180012253 3.0
    vertex 649.9528135436713 -8.105935180012253 0.0
  endloop
endfacet
facet normal -1.0 0.0 0.0
  outer loop
    vertex 651.4528135436711 0.8940648199877537 3.0
    vertex 651.4528135436711 -8.10593518001224 0.0
    vertex 651.4528135436711 -8.10593518001224 3.0
  endloop
endfacet
facet normal -1.0 0.0 0.0
  outer loop
    vertex 651.4528135436711 -8.10593518001224 0.0
    vertex 651.4528135436711 0.8940648199877537 3.0
    vertex 651.4528135436711 0.8940648199877537 0.0
  endloop
endfacet
facet normal -7.519910620128079e-15 1.0 -0.0
  outer loop
    vertex 649.9528135436713 -8.105935180012253 3.0
    vertex 651.4528135436711 -8.10593518001224 0.0
    vertex 649.9528135436713 -8.105935180012253 0.0
  endloop
endfacet
facet normal -7.519910620128079e-15 1.0 -0.0
  outer loop
    vertex 651.4528135436711 -8.10593518001224 0.0
    vertex 649.9528135436713 -8.105935180012253 3.0
    vertex 651.4528135436711 -8.10593518001224 3.0
  endloop
endfacet
facet normal 0.7220168363908669 -0.6918754858846528 0.0
  outer loop
    vertex 630.0720035157351 -57.384656224242484 0.0
    vertex 623.6931146551893 -64.04143948762291 3.0
    vertex 623.6931146551893 -64.04143948762291 0.0
  endloop
endfacet
facet normal 0.7220168363908669 -0.6918754858846528 0.0
  outer loop
    vertex 623.6931146551893 -64.04143948762291 3.0
    vertex 630.0720035157351 -57.384656224242484 0.0
    vertex 630.0720035157351 -57.384656224242484 3.0
  endloop
endfacet
facet normal 0.9566149808282306 -0.2913550728149492 0.0
  outer loop
    vertex 638.0436301048927 -38.60677953515481 0.0
    vertex 634.9666970917501 -48.7093673739004 3.0
    vertex 634.9666970917501 -48.7093673739004 0.0
  endloop
endfacet
facet normal 0.9566149808282306 -0.2913550728149492 0.0
  outer loop
    vertex 634.9666970917501 -48.7093673739004 3.0
    vertex 638.0436301048927 -38.60677953515481 0.0
    vertex 638.0436301048927 -38.60677953515481 3.0
  endloop
endfacet
facet normal 1.0 0.0 0.0
  outer loop
    vertex 606.6931146551892 -6.721367373900373 0.0
    vertex 606.6931146551892 -26.92136737390037 3.0
    vertex 606.6931146551892 -26.92136737390037 0.0
  endloop
endfacet
facet normal 1.0 0.0 0.0
  outer loop
    vertex 606.6931146551892 -26.92136737390037 3.0
    vertex 606.6931146551892 -6.721367373900373 0.0
    vertex 606.6931146551892 -6.721367373900373 3.0
  endloop
endfacet
facet normal 0.9953472348340622 -0.09635290399456801 0.0
  outer loop
    vertex 639.0931146551894 -27.765367373900382 0.0
    vertex 638.0436301048927 -38.60677953515481 3.0
    vertex 638.0436301048927 -38.60677953515481 0.0
  endloop
endfacet
facet normal 0.9953472348340622 -0.09635290399456801 0.0
  outer loop
    vertex 638.0436301048927 -38.60677953515481 3.0
    vertex 639.0931146551894 -27.765367373900382 0.0
    vertex 639.0931146551894 -27.765367373900382 3.0
  endloop
endfacet
facet normal 0.4908107737736707 -0.8712661960317815 0.0
  outer loop
    vertex 623.6931146551893 -64.04143948762291 3.0
    vertex 616.2647412443471 -68.22606838549684 0.0
    vertex 623.6931146551893 -64.04143948762291 0.0
  endloop
endfacet
facet normal 0.4908107737736707 -0.8712661960317815 0.0
  outer loop
    vertex 616.2647412443471 -68.22606838549684 0.0
    vertex 623.6931146551893 -64.04143948762291 3.0
    vertex 616.2647412443471 -68.22606838549684 3.0
  endloop
endfacet
facet normal 0.8709380429962911 -0.49139284209458184 0.0
  outer loop
    vertex 634.9666970917501 -48.7093673739004 0.0
    vertex 630.0720035157351 -57.384656224242484 3.0
    vertex 630.0720035157351 -57.384656224242484 0.0
  endloop
endfacet
facet normal 0.8709380429962911 -0.49139284209458184 0.0
  outer loop
    vertex 630.0720035157351 -57.384656224242484 3.0
    vertex 634.9666970917501 -48.7093673739004 0.0
    vertex 634.9666970917501 -48.7093673739004 3.0
  endloop
endfacet
facet normal 0.0 1.0 0.0
  outer loop
    vertex 606.6931146551892 -26.92136737390037 3.0
    vertex 609.8931146551894 -26.92136737390037 0.0
    vertex 606.6931146551892 -26.92136737390037 0.0
  endloop
endfacet
facet normal 0.0 1.0 0.0
  outer loop
    vertex 609.8931146551894 -26.92136737390037 0.0
    vertex 606.6931146551892 -26.92136737390037 3.0
    vertex 609.8931146551894 -26.92136737390037 3.0
  endloop
endfacet
facet normal -0.0 -1.0 -0.0
  outer loop
    vertex 609.8931146551894 -6.721367373900373 3.0
    vertex 606.6931146551892 -6.721367373900373 0.0
    vertex 609.8931146551894 -6.721367373900373 0.0
  endloop
endfacet
facet normal -0.0 -1.0 -0.0
  outer loop
    vertex 606.6931146551892 -6.721367373900373 0.0
    vertex 609.8931146551894 -6.721367373900373 3.0
    vertex 606.6931146551892 -6.721367373900373 3.0
  endloop
endfacet
facet normal 0.9953472348340622 0.09635290399456838 0.0
  outer loop
    vertex 638.0436301048927 -16.923955212645996 0.0
    vertex 639.0931146551894 -27.765367373900382 3.0
    vertex 639.0931146551894 -27.765367373900382 0.0
  endloop
endfacet
facet normal 0.9953472348340622 0.09635290399456838 0.0
  outer loop
    vertex 639.0931146551894 -27.765367373900382 3.0
    vertex 638.0436301048927 -16.923955212645996 0.0
    vertex 638.0436301048927 -16.923955212645996 3.0
  endloop
endfacet
facet normal -1.0 0.0 0.0
  outer loop
    vertex 609.8931146551894 -6.721367373900373 3.0
    vertex 609.8931146551894 -26.92136737390037 0.0
    vertex 609.8931146551894 -26.92136737390037 3.0
  endloop
endfacet
facet normal -1.0 0.0 0.0
  outer loop
    vertex 609.8931146551894 -26.92136737390037 0.0
    vertex 609.8931146551894 -6.721367373900373 3.0
    vertex 609.8931146551894 -6.721367373900373 0.0
  endloop
endfacet
endsolid WifiYagiWood
