 0
SECTION
 2
ENTITIES
  0
POLYLINE
 8
Layer0
 66
     1
70
    8
 10
0.0
 20
 0.0
 30
0.0
  0
VERTEX
  8
MY3DLAYER
10
427.16676212114544
20
29.144156418754797
30
0.0
 70
     32
  0
VERTEX
  8
MY3DLAYER
10
362.16676212114544
20
29.144156418754797
30
0.0
 70
     32
  0
VERTEX
  8
MY3DLAYER
10
362.16676212114544
20
139.1441564187548
30
0.0
 70
     32
  0
VERTEX
  8
MY3DLAYER
10
367.16676212114544
20
139.1441564187548
30
0.0
 70
     32
  0
VERTEX
  8
MY3DLAYER
10
367.16676212114544
20
137.14415641875482
30
0.0
 70
     32
  0
VERTEX
  8
MY3DLAYER
10
367.94321925645295
20
137.041933897622
30
0.0
 70
     32
  0
VERTEX
  8
MY3DLAYER
10
368.66676212114544
20
136.7422326301081
30
0.0
 70
     32
  0
VERTEX
  8
MY3DLAYER
10
369.28808246470504
20
136.26547676231445
30
0.0
 70
     32
  0
VERTEX
  8
MY3DLAYER
10
369.7648383324987
20
135.6441564187548
30
0.0
 70
     32
  0
VERTEX
  8
MY3DLAYER
10
370.06453960001267
20
134.92061355406236
30
0.0
 70
     32
  0
VERTEX
  8
MY3DLAYER
10
370.1667621211454
20
134.1441564187548
30
0.0
 70
     32
  0
VERTEX
  8
MY3DLAYER
10
370.06453960001267
20
133.36769928344722
30
0.0
 70
     32
  0
VERTEX
  8
MY3DLAYER
10
369.7648383324987
20
132.6441564187548
30
0.0
 70
     32
  0
VERTEX
  8
MY3DLAYER
10
369.28808246470504
20
132.02283607519513
30
0.0
 70
     32
  0
VERTEX
  8
MY3DLAYER
10
368.6667621211454
20
131.54608020740147
30
0.0
 70
     32
  0
VERTEX
  8
MY3DLAYER
10
367.94321925645295
20
131.2463789398876
30
0.0
 70
     32
  0
VERTEX
  8
MY3DLAYER
10
367.16676212114544
20
131.14415641875476
30
0.0
 70
     32
  0
VERTEX
  8
MY3DLAYER
10
367.16676212114544
20
111.1441564187548
30
0.0
 70
     32
  0
VERTEX
  8
MY3DLAYER
10
367.94321925645295
20
111.041933897622
30
0.0
 70
     32
  0
VERTEX
  8
MY3DLAYER
10
368.66676212114544
20
110.74223263010812
30
0.0
 70
     32
  0
VERTEX
  8
MY3DLAYER
10
369.28808246470504
20
110.26547676231444
30
0.0
 70
     32
  0
VERTEX
  8
MY3DLAYER
10
369.7648383324987
20
109.64415641875479
30
0.0
 70
     32
  0
VERTEX
  8
MY3DLAYER
10
370.06453960001267
20
108.92061355406234
30
0.0
 70
     32
  0
VERTEX
  8
MY3DLAYER
10
370.1667621211454
20
108.14415641875479
30
0.0
 70
     32
  0
VERTEX
  8
MY3DLAYER
10
370.06453960001267
20
107.36769928344724
30
0.0
 70
     32
  0
VERTEX
  8
MY3DLAYER
10
369.7648383324987
20
106.64415641875479
30
0.0
 70
     32
  0
VERTEX
  8
MY3DLAYER
10
369.28808246470504
20
106.02283607519514
30
0.0
 70
     32
  0
VERTEX
  8
MY3DLAYER
10
368.6667621211454
20
105.54608020740147
30
0.0
 70
     32
  0
VERTEX
  8
MY3DLAYER
10
367.94321925645295
20
105.24637893988759
30
0.0
 70
     32
  0
VERTEX
  8
MY3DLAYER
10
367.16676212114544
20
105.14415641875478
30
0.0
 70
     32
  0
VERTEX
  8
MY3DLAYER
10
366.6667621211454
20
89.14415641875478
30
0.0
 70
     32
  0
VERTEX
  8
MY3DLAYER
10
367.443219256453
20
89.04193389762199
30
0.0
 70
     32
  0
VERTEX
  8
MY3DLAYER
10
368.1667621211454
20
88.7422326301081
30
0.0
 70
     32
  0
VERTEX
  8
MY3DLAYER
10
368.7880824647051
20
88.26547676231444
30
0.0
 70
     32
  0
VERTEX
  8
MY3DLAYER
10
369.26483833249875
20
87.64415641875479
30
0.0
 70
     32
  0
VERTEX
  8
MY3DLAYER
10
369.5645396000126
20
86.92061355406234
30
0.0
 70
     32
  0
VERTEX
  8
MY3DLAYER
10
369.66676212114544
20
86.14415641875479
30
0.0
 70
     32
  0
VERTEX
  8
MY3DLAYER
10
369.5645396000126
20
85.36769928344722
30
0.0
 70
     32
  0
VERTEX
  8
MY3DLAYER
10
369.26483833249875
20
84.64415641875479
30
0.0
 70
     32
  0
VERTEX
  8
MY3DLAYER
10
368.7880824647051
20
84.02283607519516
30
0.0
 70
     32
  0
VERTEX
  8
MY3DLAYER
10
368.1667621211454
20
83.54608020740149
30
0.0
 70
     32
  0
VERTEX
  8
MY3DLAYER
10
367.443219256453
20
83.24637893988758
30
0.0
 70
     32
  0
VERTEX
  8
MY3DLAYER
10
366.6667621211454
20
83.14415641875479
30
0.0
 70
     32
  0
VERTEX
  8
MY3DLAYER
10
365.16676212114544
20
50.14415641875478
30
0.0
 70
     32
  0
VERTEX
  8
MY3DLAYER
10
365.94321925645295
20
50.04193389762199
30
0.0
 70
     32
  0
VERTEX
  8
MY3DLAYER
10
366.6667621211454
20
49.742232630108106
30
0.0
 70
     32
  0
VERTEX
  8
MY3DLAYER
10
367.28808246470504
20
49.26547676231443
30
0.0
 70
     32
  0
VERTEX
  8
MY3DLAYER
10
367.7648383324987
20
48.64415641875479
30
0.0
 70
     32
  0
VERTEX
  8
MY3DLAYER
10
368.0645396000126
20
47.920613554062356
30
0.0
 70
     32
  0
VERTEX
  8
MY3DLAYER
10
368.1667621211454
20
47.14415641875479
30
0.0
 70
     32
  0
VERTEX
  8
MY3DLAYER
10
368.1667621211454
20
39.1441564187548
30
0.0
 70
     32
  0
VERTEX
  8
MY3DLAYER
10
384.66676212114544
20
42.14415641875478
30
0.0
 70
     32
  0
VERTEX
  8
MY3DLAYER
10
384.66676212114544
20
47.14415641875479
30
0.0
 70
     32
  0
VERTEX
  8
MY3DLAYER
10
387.16676212114544
20
75.64415641875479
30
0.0
 70
     32
  0
VERTEX
  8
MY3DLAYER
10
389.6667621211453
20
75.64415641875487
30
0.0
 70
     32
  0
VERTEX
  8
MY3DLAYER
10
389.6685743361564
20
77.15792155837751
30
0.0
 70
     32
  0
VERTEX
  8
MY3DLAYER
10
390.06211604938477
20
78.6196373659165
30
0.0
 70
     32
  0
VERTEX
  8
MY3DLAYER
10
390.8205680434328
20
79.92969032468761
30
0.0
 70
     32
  0
VERTEX
  8
MY3DLAYER
10
391.8922430683071
20
80.99880249051536
30
0.0
 70
     32
  0
VERTEX
  8
MY3DLAYER
10
393.2041082420891
20
81.75411563609013
30
0.0
 70
     32
  0
VERTEX
  8
MY3DLAYER
10
394.6667621211454
20
82.14415641875482
30
0.0
 70
     32
  0
VERTEX
  8
MY3DLAYER
10
396.1294160002019
20
81.75411563608998
30
0.0
 70
     32
  0
VERTEX
  8
MY3DLAYER
10
397.44128117398384
20
80.9988024905152
30
0.0
 70
     32
  0
VERTEX
  8
MY3DLAYER
10
398.51295619885803
20
79.92969032468743
30
0.0
 70
     32
  0
VERTEX
  8
MY3DLAYER
10
399.271408192906
20
78.61963736591636
30
0.0
 70
     32
  0
VERTEX
  8
MY3DLAYER
10
399.6649499061346
20
77.15792155837741
30
0.0
 70
     32
  0
VERTEX
  8
MY3DLAYER
10
399.66676212114544
20
75.64415641875472
30
0.0
 70
     32
  0
VERTEX
  8
MY3DLAYER
10
402.16676212114544
20
75.64415641875479
30
0.0
 70
     32
  0
VERTEX
  8
MY3DLAYER
10
404.6667621211454
20
47.14415641875479
30
0.0
 70
     32
  0
VERTEX
  8
MY3DLAYER
10
404.6667621211454
20
42.14415641875478
30
0.0
 70
     32
  0
VERTEX
  8
MY3DLAYER
10
421.16676212114544
20
39.1441564187548
30
0.0
 70
     32
  0
VERTEX
  8
MY3DLAYER
10
421.16676212114544
20
47.14415641875479
30
0.0
 70
     32
  0
VERTEX
  8
MY3DLAYER
10
421.2689846422782
20
47.920613554062356
30
0.0
 70
     32
  0
VERTEX
  8
MY3DLAYER
10
421.5686859097921
20
48.64415641875479
30
0.0
 70
     32
  0
VERTEX
  8
MY3DLAYER
10
422.0454417775858
20
49.26547676231443
30
0.0
 70
     32
  0
VERTEX
  8
MY3DLAYER
10
422.6667621211454
20
49.742232630108106
30
0.0
 70
     32
  0
VERTEX
  8
MY3DLAYER
10
423.3903049858379
20
50.04193389762199
30
0.0
 70
     32
  0
VERTEX
  8
MY3DLAYER
10
424.1667621211454
20
50.14415641875478
30
0.0
 70
     32
  0
VERTEX
  8
MY3DLAYER
10
422.6667621211454
20
83.14415641875479
30
0.0
 70
     32
  0
VERTEX
  8
MY3DLAYER
10
421.8903049858379
20
83.24637893988758
30
0.0
 70
     32
  0
VERTEX
  8
MY3DLAYER
10
421.16676212114544
20
83.54608020740149
30
0.0
 70
     32
  0
VERTEX
  8
MY3DLAYER
10
420.5454417775858
20
84.02283607519516
30
0.0
 70
     32
  0
VERTEX
  8
MY3DLAYER
10
420.0686859097921
20
84.64415641875479
30
0.0
 70
     32
  0
VERTEX
  8
MY3DLAYER
10
419.76898464227816
20
85.36769928344722
30
0.0
 70
     32
  0
VERTEX
  8
MY3DLAYER
10
419.66676212114544
20
86.14415641875479
30
0.0
 70
     32
  0
VERTEX
  8
MY3DLAYER
10
419.76898464227816
20
86.92061355406237
30
0.0
 70
     32
  0
VERTEX
  8
MY3DLAYER
10
420.0686859097921
20
87.64415641875479
30
0.0
 70
     32
  0
VERTEX
  8
MY3DLAYER
10
420.5454417775858
20
88.26547676231444
30
0.0
 70
     32
  0
VERTEX
  8
MY3DLAYER
10
421.16676212114544
20
88.7422326301081
30
0.0
 70
     32
  0
VERTEX
  8
MY3DLAYER
10
421.8903049858379
20
89.04193389762199
30
0.0
 70
     32
  0
VERTEX
  8
MY3DLAYER
10
422.6667621211454
20
89.14415641875478
30
0.0
 70
     32
  0
VERTEX
  8
MY3DLAYER
10
422.1667621211454
20
105.1441564187548
30
0.0
 70
     32
  0
VERTEX
  8
MY3DLAYER
10
421.3903049858379
20
105.24637893988759
30
0.0
 70
     32
  0
VERTEX
  8
MY3DLAYER
10
420.6667621211454
20
105.54608020740149
30
0.0
 70
     32
  0
VERTEX
  8
MY3DLAYER
10
420.0454417775858
20
106.02283607519514
30
0.0
 70
     32
  0
VERTEX
  8
MY3DLAYER
10
419.5686859097921
20
106.64415641875479
30
0.0
 70
     32
  0
VERTEX
  8
MY3DLAYER
10
419.2689846422782
20
107.36769928344724
30
0.0
 70
     32
  0
VERTEX
  8
MY3DLAYER
10
419.16676212114544
20
108.14415641875479
30
0.0
 70
     32
  0
VERTEX
  8
MY3DLAYER
10
419.2689846422782
20
108.92061355406234
30
0.0
 70
     32
  0
VERTEX
  8
MY3DLAYER
10
419.5686859097921
20
109.64415641875479
30
0.0
 70
     32
  0
VERTEX
  8
MY3DLAYER
10
420.0454417775858
20
110.26547676231444
30
0.0
 70
     32
  0
VERTEX
  8
MY3DLAYER
10
420.6667621211454
20
110.74223263010812
30
0.0
 70
     32
  0
VERTEX
  8
MY3DLAYER
10
421.3903049858379
20
111.041933897622
30
0.0
 70
     32
  0
VERTEX
  8
MY3DLAYER
10
422.1667621211454
20
111.14415641875479
30
0.0
 70
     32
  0
VERTEX
  8
MY3DLAYER
10
422.1667621211454
20
131.1441564187548
30
0.0
 70
     32
  0
VERTEX
  8
MY3DLAYER
10
421.3903049858379
20
131.2463789398876
30
0.0
 70
     32
  0
VERTEX
  8
MY3DLAYER
10
420.6667621211454
20
131.5460802074015
30
0.0
 70
     32
  0
VERTEX
  8
MY3DLAYER
10
420.0454417775858
20
132.02283607519513
30
0.0
 70
     32
  0
VERTEX
  8
MY3DLAYER
10
419.5686859097921
20
132.6441564187548
30
0.0
 70
     32
  0
VERTEX
  8
MY3DLAYER
10
419.2689846422782
20
133.36769928344722
30
0.0
 70
     32
  0
VERTEX
  8
MY3DLAYER
10
419.16676212114544
20
134.1441564187548
30
0.0
 70
     32
  0
VERTEX
  8
MY3DLAYER
10
419.2689846422782
20
134.92061355406236
30
0.0
 70
     32
  0
VERTEX
  8
MY3DLAYER
10
419.5686859097921
20
135.6441564187548
30
0.0
 70
     32
  0
VERTEX
  8
MY3DLAYER
10
420.0454417775858
20
136.26547676231445
30
0.0
 70
     32
  0
VERTEX
  8
MY3DLAYER
10
420.6667621211454
20
136.7422326301081
30
0.0
 70
     32
  0
VERTEX
  8
MY3DLAYER
10
421.3903049858379
20
137.041933897622
30
0.0
 70
     32
  0
VERTEX
  8
MY3DLAYER
10
422.1667621211454
20
137.1441564187548
30
0.0
 70
     32
  0
VERTEX
  8
MY3DLAYER
10
422.1667621211454
20
139.1441564187548
30
0.0
 70
     32
  0
VERTEX
  8
MY3DLAYER
10
427.16676212114544
20
139.1441564187548
30
0.0
 70
     32
  0
VERTEX
  8
MY3DLAYER
10
427.16676212114544
20
29.144156418754797
30
0.0
 70
     32
  0
SEQEND
  0
POLYLINE
 8
Layer0
 66
     1
70
    8
 10
0.0
 20
 0.0
 30
0.0
  0
VERTEX
  8
MY3DLAYER
10
393.70083629485634
20
47.40297546385732
30
0.0
 70
     32
  0
VERTEX
  8
MY3DLAYER
10
393.6667621211454
20
47.14415641875479
30
0.0
 70
     32
  0
VERTEX
  8
MY3DLAYER
10
393.70083629485634
20
46.88533737365228
30
0.0
 70
     32
  0
VERTEX
  8
MY3DLAYER
10
393.80073671736096
20
46.64415641875479
30
0.0
 70
     32
  0
VERTEX
  8
MY3DLAYER
10
393.95965533995883
20
46.437049637568244
30
0.0
 70
     32
  0
VERTEX
  8
MY3DLAYER
10
394.16676212114544
20
46.27813101497035
30
0.0
 70
     32
  0
VERTEX
  8
MY3DLAYER
10
394.4079430760429
20
46.178230592465724
30
0.0
 70
     32
  0
VERTEX
  8
MY3DLAYER
10
394.66676212114544
20
46.14415641875479
30
0.0
 70
     32
  0
VERTEX
  8
MY3DLAYER
10
394.925581166248
20
46.178230592465724
30
0.0
 70
     32
  0
VERTEX
  8
MY3DLAYER
10
395.1667621211454
20
46.27813101497035
30
0.0
 70
     32
  0
VERTEX
  8
MY3DLAYER
10
395.37386890233194
20
46.437049637568244
30
0.0
 70
     32
  0
VERTEX
  8
MY3DLAYER
10
395.5327875249298
20
46.64415641875479
30
0.0
 70
     32
  0
VERTEX
  8
MY3DLAYER
10
395.6326879474345
20
46.88533737365227
30
0.0
 70
     32
  0
VERTEX
  8
MY3DLAYER
10
395.6667621211454
20
47.14415641875479
30
0.0
 70
     32
  0
VERTEX
  8
MY3DLAYER
10
395.6326879474345
20
47.40297546385732
30
0.0
 70
     32
  0
VERTEX
  8
MY3DLAYER
10
395.5327875249298
20
47.64415641875479
30
0.0
 70
     32
  0
VERTEX
  8
MY3DLAYER
10
395.37386890233194
20
47.851263199941336
30
0.0
 70
     32
  0
VERTEX
  8
MY3DLAYER
10
395.1667621211454
20
48.01018182253923
30
0.0
 70
     32
  0
VERTEX
  8
MY3DLAYER
10
394.925581166248
20
48.110082245043856
30
0.0
 70
     32
  0
VERTEX
  8
MY3DLAYER
10
394.66676212114544
20
48.14415641875479
30
0.0
 70
     32
  0
VERTEX
  8
MY3DLAYER
10
394.4079430760429
20
48.110082245043856
30
0.0
 70
     32
  0
VERTEX
  8
MY3DLAYER
10
394.16676212114544
20
48.01018182253923
30
0.0
 70
     32
  0
VERTEX
  8
MY3DLAYER
10
393.95965533995883
20
47.851263199941336
30
0.0
 70
     32
  0
VERTEX
  8
MY3DLAYER
10
393.80073671736096
20
47.64415641875479
30
0.0
 70
     32
  0
VERTEX
  8
MY3DLAYER
10
393.70083629485634
20
47.40297546385732
30
0.0
 70
     32
  0
SEQEND
  0
POLYLINE
 8
Layer0
 66
     1
70
    8
 10
0.0
 20
 0.0
 30
0.0
  0
VERTEX
  8
MY3DLAYER
10
368.1326879474345
20
133.88533737365228
30
0.0
 70
     32
  0
VERTEX
  8
MY3DLAYER
10
368.1667621211454
20
134.1441564187548
30
0.0
 70
     32
  0
VERTEX
  8
MY3DLAYER
10
368.1326879474345
20
134.4029754638573
30
0.0
 70
     32
  0
VERTEX
  8
MY3DLAYER
10
368.03278752492986
20
134.6441564187548
30
0.0
 70
     32
  0
VERTEX
  8
MY3DLAYER
10
367.87386890233194
20
134.85126319994134
30
0.0
 70
     32
  0
VERTEX
  8
MY3DLAYER
10
367.66676212114544
20
135.0101818225392
30
0.0
 70
     32
  0
VERTEX
  8
MY3DLAYER
10
367.4255811662479
20
135.11008224504386
30
0.0
 70
     32
  0
VERTEX
  8
MY3DLAYER
10
367.16676212114544
20
135.1441564187548
30
0.0
 70
     32
  0
VERTEX
  8
MY3DLAYER
10
366.9079430760429
20
135.11008224504386
30
0.0
 70
     32
  0
VERTEX
  8
MY3DLAYER
10
366.6667621211454
20
135.0101818225392
30
0.0
 70
     32
  0
VERTEX
  8
MY3DLAYER
10
366.4596553399589
20
134.85126319994134
30
0.0
 70
     32
  0
VERTEX
  8
MY3DLAYER
10
366.30073671736096
20
134.6441564187548
30
0.0
 70
     32
  0
VERTEX
  8
MY3DLAYER
10
366.20083629485634
20
134.4029754638573
30
0.0
 70
     32
  0
VERTEX
  8
MY3DLAYER
10
366.16676212114544
20
134.1441564187548
30
0.0
 70
     32
  0
VERTEX
  8
MY3DLAYER
10
366.20083629485634
20
133.88533737365228
30
0.0
 70
     32
  0
VERTEX
  8
MY3DLAYER
10
366.30073671736096
20
133.6441564187548
30
0.0
 70
     32
  0
VERTEX
  8
MY3DLAYER
10
366.4596553399589
20
133.43704963756824
30
0.0
 70
     32
  0
VERTEX
  8
MY3DLAYER
10
366.6667621211454
20
133.27813101497034
30
0.0
 70
     32
  0
VERTEX
  8
MY3DLAYER
10
366.9079430760429
20
133.17823059246572
30
0.0
 70
     32
  0
VERTEX
  8
MY3DLAYER
10
367.16676212114544
20
133.1441564187548
30
0.0
 70
     32
  0
VERTEX
  8
MY3DLAYER
10
367.4255811662479
20
133.17823059246572
30
0.0
 70
     32
  0
VERTEX
  8
MY3DLAYER
10
367.66676212114544
20
133.27813101497034
30
0.0
 70
     32
  0
VERTEX
  8
MY3DLAYER
10
367.87386890233194
20
133.43704963756824
30
0.0
 70
     32
  0
VERTEX
  8
MY3DLAYER
10
368.03278752492986
20
133.6441564187548
30
0.0
 70
     32
  0
VERTEX
  8
MY3DLAYER
10
368.1326879474345
20
133.88533737365228
30
0.0
 70
     32
  0
SEQEND
  0
POLYLINE
 8
Layer0
 66
     1
70
    8
 10
0.0
 20
 0.0
 30
0.0
  0
VERTEX
  8
MY3DLAYER
10
367.63268794743453
20
85.88533737365228
30
0.0
 70
     32
  0
VERTEX
  8
MY3DLAYER
10
367.66676212114544
20
86.14415641875479
30
0.0
 70
     32
  0
VERTEX
  8
MY3DLAYER
10
367.63268794743453
20
86.40297546385732
30
0.0
 70
     32
  0
VERTEX
  8
MY3DLAYER
10
367.53278752492986
20
86.64415641875479
30
0.0
 70
     32
  0
VERTEX
  8
MY3DLAYER
10
367.373868902332
20
86.85126319994134
30
0.0
 70
     32
  0
VERTEX
  8
MY3DLAYER
10
367.16676212114544
20
87.01018182253922
30
0.0
 70
     32
  0
VERTEX
  8
MY3DLAYER
10
366.9255811662479
20
87.11008224504384
30
0.0
 70
     32
  0
VERTEX
  8
MY3DLAYER
10
366.6667621211454
20
87.14415641875479
30
0.0
 70
     32
  0
VERTEX
  8
MY3DLAYER
10
366.4079430760429
20
87.11008224504387
30
0.0
 70
     32
  0
VERTEX
  8
MY3DLAYER
10
366.16676212114544
20
87.01018182253922
30
0.0
 70
     32
  0
VERTEX
  8
MY3DLAYER
10
365.9596553399589
20
86.85126319994134
30
0.0
 70
     32
  0
VERTEX
  8
MY3DLAYER
10
365.800736717361
20
86.64415641875479
30
0.0
 70
     32
  0
VERTEX
  8
MY3DLAYER
10
365.70083629485634
20
86.40297546385732
30
0.0
 70
     32
  0
VERTEX
  8
MY3DLAYER
10
365.66676212114544
20
86.14415641875479
30
0.0
 70
     32
  0
VERTEX
  8
MY3DLAYER
10
365.70083629485634
20
85.88533737365228
30
0.0
 70
     32
  0
VERTEX
  8
MY3DLAYER
10
365.800736717361
20
85.64415641875479
30
0.0
 70
     32
  0
VERTEX
  8
MY3DLAYER
10
365.9596553399589
20
85.43704963756824
30
0.0
 70
     32
  0
VERTEX
  8
MY3DLAYER
10
366.16676212114544
20
85.27813101497036
30
0.0
 70
     32
  0
VERTEX
  8
MY3DLAYER
10
366.4079430760429
20
85.17823059246572
30
0.0
 70
     32
  0
VERTEX
  8
MY3DLAYER
10
366.6667621211454
20
85.14415641875479
30
0.0
 70
     32
  0
VERTEX
  8
MY3DLAYER
10
366.9255811662479
20
85.17823059246572
30
0.0
 70
     32
  0
VERTEX
  8
MY3DLAYER
10
367.16676212114544
20
85.27813101497036
30
0.0
 70
     32
  0
VERTEX
  8
MY3DLAYER
10
367.373868902332
20
85.43704963756824
30
0.0
 70
     32
  0
VERTEX
  8
MY3DLAYER
10
367.53278752492986
20
85.64415641875479
30
0.0
 70
     32
  0
VERTEX
  8
MY3DLAYER
10
367.63268794743453
20
85.88533737365228
30
0.0
 70
     32
  0
SEQEND
  0
POLYLINE
 8
Layer0
 66
     1
70
    8
 10
0.0
 20
 0.0
 30
0.0
  0
VERTEX
  8
MY3DLAYER
10
421.20083629485634
20
134.4029754638573
30
0.0
 70
     32
  0
VERTEX
  8
MY3DLAYER
10
421.16676212114544
20
134.1441564187548
30
0.0
 70
     32
  0
VERTEX
  8
MY3DLAYER
10
421.20083629485634
20
133.88533737365228
30
0.0
 70
     32
  0
VERTEX
  8
MY3DLAYER
10
421.300736717361
20
133.6441564187548
30
0.0
 70
     32
  0
VERTEX
  8
MY3DLAYER
10
421.4596553399589
20
133.43704963756824
30
0.0
 70
     32
  0
VERTEX
  8
MY3DLAYER
10
421.66676212114544
20
133.27813101497034
30
0.0
 70
     32
  0
VERTEX
  8
MY3DLAYER
10
421.90794307604284
20
133.17823059246572
30
0.0
 70
     32
  0
VERTEX
  8
MY3DLAYER
10
422.1667621211454
20
133.1441564187548
30
0.0
 70
     32
  0
VERTEX
  8
MY3DLAYER
10
422.4255811662479
20
133.17823059246572
30
0.0
 70
     32
  0
VERTEX
  8
MY3DLAYER
10
422.6667621211454
20
133.27813101497034
30
0.0
 70
     32
  0
VERTEX
  8
MY3DLAYER
10
422.873868902332
20
133.43704963756824
30
0.0
 70
     32
  0
VERTEX
  8
MY3DLAYER
10
423.03278752492986
20
133.6441564187548
30
0.0
 70
     32
  0
VERTEX
  8
MY3DLAYER
10
423.1326879474344
20
133.88533737365228
30
0.0
 70
     32
  0
VERTEX
  8
MY3DLAYER
10
423.16676212114544
20
134.1441564187548
30
0.0
 70
     32
  0
VERTEX
  8
MY3DLAYER
10
423.1326879474344
20
134.4029754638573
30
0.0
 70
     32
  0
VERTEX
  8
MY3DLAYER
10
423.03278752492986
20
134.6441564187548
30
0.0
 70
     32
  0
VERTEX
  8
MY3DLAYER
10
422.873868902332
20
134.85126319994134
30
0.0
 70
     32
  0
VERTEX
  8
MY3DLAYER
10
422.6667621211454
20
135.0101818225392
30
0.0
 70
     32
  0
VERTEX
  8
MY3DLAYER
10
422.4255811662479
20
135.11008224504386
30
0.0
 70
     32
  0
VERTEX
  8
MY3DLAYER
10
422.1667621211454
20
135.1441564187548
30
0.0
 70
     32
  0
VERTEX
  8
MY3DLAYER
10
421.90794307604284
20
135.11008224504386
30
0.0
 70
     32
  0
VERTEX
  8
MY3DLAYER
10
421.66676212114544
20
135.0101818225392
30
0.0
 70
     32
  0
VERTEX
  8
MY3DLAYER
10
421.4596553399589
20
134.85126319994134
30
0.0
 70
     32
  0
VERTEX
  8
MY3DLAYER
10
421.300736717361
20
134.6441564187548
30
0.0
 70
     32
  0
VERTEX
  8
MY3DLAYER
10
421.20083629485634
20
134.4029754638573
30
0.0
 70
     32
  0
SEQEND
  0
POLYLINE
 8
Layer0
 66
     1
70
    8
 10
0.0
 20
 0.0
 30
0.0
  0
VERTEX
  8
MY3DLAYER
10
423.20083629485634
20
47.40297546385732
30
0.0
 70
     32
  0
VERTEX
  8
MY3DLAYER
10
423.16676212114544
20
47.14415641875479
30
0.0
 70
     32
  0
VERTEX
  8
MY3DLAYER
10
423.20083629485634
20
46.88533737365228
30
0.0
 70
     32
  0
VERTEX
  8
MY3DLAYER
10
423.300736717361
20
46.64415641875479
30
0.0
 70
     32
  0
VERTEX
  8
MY3DLAYER
10
423.4596553399589
20
46.437049637568244
30
0.0
 70
     32
  0
VERTEX
  8
MY3DLAYER
10
423.66676212114544
20
46.27813101497035
30
0.0
 70
     32
  0
VERTEX
  8
MY3DLAYER
10
423.90794307604284
20
46.178230592465724
30
0.0
 70
     32
  0
VERTEX
  8
MY3DLAYER
10
424.1667621211454
20
46.14415641875479
30
0.0
 70
     32
  0
VERTEX
  8
MY3DLAYER
10
424.4255811662479
20
46.178230592465724
30
0.0
 70
     32
  0
VERTEX
  8
MY3DLAYER
10
424.6667621211454
20
46.27813101497035
30
0.0
 70
     32
  0
VERTEX
  8
MY3DLAYER
10
424.873868902332
20
46.437049637568244
30
0.0
 70
     32
  0
VERTEX
  8
MY3DLAYER
10
425.03278752492986
20
46.64415641875479
30
0.0
 70
     32
  0
VERTEX
  8
MY3DLAYER
10
425.1326879474344
20
46.88533737365227
30
0.0
 70
     32
  0
VERTEX
  8
MY3DLAYER
10
425.16676212114544
20
47.14415641875479
30
0.0
 70
     32
  0
VERTEX
  8
MY3DLAYER
10
425.1326879474344
20
47.40297546385732
30
0.0
 70
     32
  0
VERTEX
  8
MY3DLAYER
10
425.03278752492986
20
47.64415641875479
30
0.0
 70
     32
  0
VERTEX
  8
MY3DLAYER
10
424.873868902332
20
47.851263199941336
30
0.0
 70
     32
  0
VERTEX
  8
MY3DLAYER
10
424.6667621211454
20
48.01018182253923
30
0.0
 70
     32
  0
VERTEX
  8
MY3DLAYER
10
424.4255811662479
20
48.110082245043856
30
0.0
 70
     32
  0
VERTEX
  8
MY3DLAYER
10
424.1667621211454
20
48.14415641875479
30
0.0
 70
     32
  0
VERTEX
  8
MY3DLAYER
10
423.90794307604284
20
48.110082245043856
30
0.0
 70
     32
  0
VERTEX
  8
MY3DLAYER
10
423.66676212114544
20
48.01018182253923
30
0.0
 70
     32
  0
VERTEX
  8
MY3DLAYER
10
423.4596553399589
20
47.851263199941336
30
0.0
 70
     32
  0
VERTEX
  8
MY3DLAYER
10
423.300736717361
20
47.64415641875479
30
0.0
 70
     32
  0
VERTEX
  8
MY3DLAYER
10
423.20083629485634
20
47.40297546385732
30
0.0
 70
     32
  0
SEQEND
  0
POLYLINE
 8
Layer0
 66
     1
70
    8
 10
0.0
 20
 0.0
 30
0.0
  0
VERTEX
  8
MY3DLAYER
10
364.20083629485634
20
47.40297546385732
30
0.0
 70
     32
  0
VERTEX
  8
MY3DLAYER
10
364.16676212114544
20
47.14415641875479
30
0.0
 70
     32
  0
VERTEX
  8
MY3DLAYER
10
364.20083629485634
20
46.88533737365227
30
0.0
 70
     32
  0
VERTEX
  8
MY3DLAYER
10
364.30073671736096
20
46.64415641875479
30
0.0
 70
     32
  0
VERTEX
  8
MY3DLAYER
10
364.4596553399589
20
46.437049637568244
30
0.0
 70
     32
  0
VERTEX
  8
MY3DLAYER
10
364.6667621211454
20
46.27813101497035
30
0.0
 70
     32
  0
VERTEX
  8
MY3DLAYER
10
364.9079430760429
20
46.178230592465724
30
0.0
 70
     32
  0
VERTEX
  8
MY3DLAYER
10
365.16676212114544
20
46.14415641875479
30
0.0
 70
     32
  0
VERTEX
  8
MY3DLAYER
10
365.4255811662479
20
46.178230592465724
30
0.0
 70
     32
  0
VERTEX
  8
MY3DLAYER
10
365.66676212114544
20
46.27813101497035
30
0.0
 70
     32
  0
VERTEX
  8
MY3DLAYER
10
365.873868902332
20
46.437049637568244
30
0.0
 70
     32
  0
VERTEX
  8
MY3DLAYER
10
366.03278752492986
20
46.64415641875479
30
0.0
 70
     32
  0
VERTEX
  8
MY3DLAYER
10
366.1326879474345
20
46.88533737365227
30
0.0
 70
     32
  0
VERTEX
  8
MY3DLAYER
10
366.16676212114544
20
47.14415641875479
30
0.0
 70
     32
  0
VERTEX
  8
MY3DLAYER
10
366.1326879474345
20
47.40297546385731
30
0.0
 70
     32
  0
VERTEX
  8
MY3DLAYER
10
366.03278752492986
20
47.64415641875479
30
0.0
 70
     32
  0
VERTEX
  8
MY3DLAYER
10
365.873868902332
20
47.851263199941336
30
0.0
 70
     32
  0
VERTEX
  8
MY3DLAYER
10
365.66676212114544
20
48.01018182253923
30
0.0
 70
     32
  0
VERTEX
  8
MY3DLAYER
10
365.4255811662479
20
48.110082245043856
30
0.0
 70
     32
  0
VERTEX
  8
MY3DLAYER
10
365.16676212114544
20
48.14415641875479
30
0.0
 70
     32
  0
VERTEX
  8
MY3DLAYER
10
364.9079430760429
20
48.110082245043856
30
0.0
 70
     32
  0
VERTEX
  8
MY3DLAYER
10
364.6667621211454
20
48.01018182253923
30
0.0
 70
     32
  0
VERTEX
  8
MY3DLAYER
10
364.4596553399589
20
47.851263199941336
30
0.0
 70
     32
  0
VERTEX
  8
MY3DLAYER
10
364.30073671736096
20
47.64415641875479
30
0.0
 70
     32
  0
VERTEX
  8
MY3DLAYER
10
364.20083629485634
20
47.40297546385732
30
0.0
 70
     32
  0
SEQEND
  0
POLYLINE
 8
Layer0
 66
     1
70
    8
 10
0.0
 20
 0.0
 30
0.0
  0
VERTEX
  8
MY3DLAYER
10
421.70083629485634
20
86.40297546385732
30
0.0
 70
     32
  0
VERTEX
  8
MY3DLAYER
10
421.66676212114544
20
86.14415641875479
30
0.0
 70
     32
  0
VERTEX
  8
MY3DLAYER
10
421.70083629485634
20
85.88533737365228
30
0.0
 70
     32
  0
VERTEX
  8
MY3DLAYER
10
421.80073671736096
20
85.64415641875479
30
0.0
 70
     32
  0
VERTEX
  8
MY3DLAYER
10
421.9596553399589
20
85.43704963756824
30
0.0
 70
     32
  0
VERTEX
  8
MY3DLAYER
10
422.1667621211454
20
85.27813101497036
30
0.0
 70
     32
  0
VERTEX
  8
MY3DLAYER
10
422.40794307604295
20
85.17823059246572
30
0.0
 70
     32
  0
VERTEX
  8
MY3DLAYER
10
422.6667621211454
20
85.14415641875479
30
0.0
 70
     32
  0
VERTEX
  8
MY3DLAYER
10
422.9255811662479
20
85.17823059246572
30
0.0
 70
     32
  0
VERTEX
  8
MY3DLAYER
10
423.16676212114544
20
85.27813101497036
30
0.0
 70
     32
  0
VERTEX
  8
MY3DLAYER
10
423.373868902332
20
85.43704963756824
30
0.0
 70
     32
  0
VERTEX
  8
MY3DLAYER
10
423.53278752492986
20
85.64415641875479
30
0.0
 70
     32
  0
VERTEX
  8
MY3DLAYER
10
423.63268794743453
20
85.88533737365228
30
0.0
 70
     32
  0
VERTEX
  8
MY3DLAYER
10
423.66676212114544
20
86.14415641875479
30
0.0
 70
     32
  0
VERTEX
  8
MY3DLAYER
10
423.63268794743453
20
86.40297546385732
30
0.0
 70
     32
  0
VERTEX
  8
MY3DLAYER
10
423.53278752492986
20
86.64415641875479
30
0.0
 70
     32
  0
VERTEX
  8
MY3DLAYER
10
423.373868902332
20
86.85126319994134
30
0.0
 70
     32
  0
VERTEX
  8
MY3DLAYER
10
423.16676212114544
20
87.01018182253922
30
0.0
 70
     32
  0
VERTEX
  8
MY3DLAYER
10
422.9255811662479
20
87.11008224504384
30
0.0
 70
     32
  0
VERTEX
  8
MY3DLAYER
10
422.6667621211454
20
87.14415641875479
30
0.0
 70
     32
  0
VERTEX
  8
MY3DLAYER
10
422.40794307604295
20
87.11008224504387
30
0.0
 70
     32
  0
VERTEX
  8
MY3DLAYER
10
422.1667621211454
20
87.01018182253922
30
0.0
 70
     32
  0
VERTEX
  8
MY3DLAYER
10
421.9596553399589
20
86.85126319994134
30
0.0
 70
     32
  0
VERTEX
  8
MY3DLAYER
10
421.80073671736096
20
86.64415641875479
30
0.0
 70
     32
  0
VERTEX
  8
MY3DLAYER
10
421.70083629485634
20
86.40297546385732
30
0.0
 70
     32
  0
SEQEND
  0
POLYLINE
 8
Layer0
 66
     1
70
    8
 10
0.0
 20
 0.0
 30
0.0
  0
VERTEX
  8
MY3DLAYER
10
421.20083629485634
20
108.4029754638573
30
0.0
 70
     32
  0
VERTEX
  8
MY3DLAYER
10
421.16676212114544
20
108.14415641875479
30
0.0
 70
     32
  0
VERTEX
  8
MY3DLAYER
10
421.20083629485634
20
107.88533737365228
30
0.0
 70
     32
  0
VERTEX
  8
MY3DLAYER
10
421.300736717361
20
107.64415641875479
30
0.0
 70
     32
  0
VERTEX
  8
MY3DLAYER
10
421.4596553399589
20
107.43704963756824
30
0.0
 70
     32
  0
VERTEX
  8
MY3DLAYER
10
421.66676212114544
20
107.27813101497036
30
0.0
 70
     32
  0
VERTEX
  8
MY3DLAYER
10
421.90794307604284
20
107.17823059246574
30
0.0
 70
     32
  0
VERTEX
  8
MY3DLAYER
10
422.1667621211454
20
107.14415641875479
30
0.0
 70
     32
  0
VERTEX
  8
MY3DLAYER
10
422.4255811662479
20
107.17823059246574
30
0.0
 70
     32
  0
VERTEX
  8
MY3DLAYER
10
422.6667621211454
20
107.27813101497036
30
0.0
 70
     32
  0
VERTEX
  8
MY3DLAYER
10
422.873868902332
20
107.43704963756824
30
0.0
 70
     32
  0
VERTEX
  8
MY3DLAYER
10
423.03278752492986
20
107.64415641875479
30
0.0
 70
     32
  0
VERTEX
  8
MY3DLAYER
10
423.1326879474344
20
107.88533737365228
30
0.0
 70
     32
  0
VERTEX
  8
MY3DLAYER
10
423.16676212114544
20
108.14415641875479
30
0.0
 70
     32
  0
VERTEX
  8
MY3DLAYER
10
423.1326879474344
20
108.4029754638573
30
0.0
 70
     32
  0
VERTEX
  8
MY3DLAYER
10
423.03278752492986
20
108.64415641875479
30
0.0
 70
     32
  0
VERTEX
  8
MY3DLAYER
10
422.873868902332
20
108.85126319994134
30
0.0
 70
     32
  0
VERTEX
  8
MY3DLAYER
10
422.6667621211454
20
109.01018182253922
30
0.0
 70
     32
  0
VERTEX
  8
MY3DLAYER
10
422.4255811662479
20
109.11008224504386
30
0.0
 70
     32
  0
VERTEX
  8
MY3DLAYER
10
422.1667621211454
20
109.14415641875479
30
0.0
 70
     32
  0
VERTEX
  8
MY3DLAYER
10
421.90794307604284
20
109.11008224504386
30
0.0
 70
     32
  0
VERTEX
  8
MY3DLAYER
10
421.66676212114544
20
109.01018182253922
30
0.0
 70
     32
  0
VERTEX
  8
MY3DLAYER
10
421.4596553399589
20
108.85126319994134
30
0.0
 70
     32
  0
VERTEX
  8
MY3DLAYER
10
421.300736717361
20
108.64415641875479
30
0.0
 70
     32
  0
VERTEX
  8
MY3DLAYER
10
421.20083629485634
20
108.4029754638573
30
0.0
 70
     32
  0
SEQEND
  0
POLYLINE
 8
Layer0
 66
     1
70
    8
 10
0.0
 20
 0.0
 30
0.0
  0
VERTEX
  8
MY3DLAYER
10
368.1326879474345
20
107.88533737365228
30
0.0
 70
     32
  0
VERTEX
  8
MY3DLAYER
10
368.1667621211454
20
108.14415641875479
30
0.0
 70
     32
  0
VERTEX
  8
MY3DLAYER
10
368.1326879474345
20
108.4029754638573
30
0.0
 70
     32
  0
VERTEX
  8
MY3DLAYER
10
368.03278752492986
20
108.64415641875479
30
0.0
 70
     32
  0
VERTEX
  8
MY3DLAYER
10
367.87386890233194
20
108.85126319994134
30
0.0
 70
     32
  0
VERTEX
  8
MY3DLAYER
10
367.66676212114544
20
109.01018182253922
30
0.0
 70
     32
  0
VERTEX
  8
MY3DLAYER
10
367.4255811662479
20
109.11008224504386
30
0.0
 70
     32
  0
VERTEX
  8
MY3DLAYER
10
367.16676212114544
20
109.14415641875479
30
0.0
 70
     32
  0
VERTEX
  8
MY3DLAYER
10
366.9079430760429
20
109.11008224504386
30
0.0
 70
     32
  0
VERTEX
  8
MY3DLAYER
10
366.6667621211454
20
109.01018182253922
30
0.0
 70
     32
  0
VERTEX
  8
MY3DLAYER
10
366.4596553399589
20
108.85126319994134
30
0.0
 70
     32
  0
VERTEX
  8
MY3DLAYER
10
366.30073671736096
20
108.64415641875479
30
0.0
 70
     32
  0
VERTEX
  8
MY3DLAYER
10
366.20083629485634
20
108.4029754638573
30
0.0
 70
     32
  0
VERTEX
  8
MY3DLAYER
10
366.16676212114544
20
108.14415641875479
30
0.0
 70
     32
  0
VERTEX
  8
MY3DLAYER
10
366.20083629485634
20
107.88533737365228
30
0.0
 70
     32
  0
VERTEX
  8
MY3DLAYER
10
366.30073671736096
20
107.64415641875479
30
0.0
 70
     32
  0
VERTEX
  8
MY3DLAYER
10
366.4596553399589
20
107.43704963756824
30
0.0
 70
     32
  0
VERTEX
  8
MY3DLAYER
10
366.6667621211454
20
107.27813101497036
30
0.0
 70
     32
  0
VERTEX
  8
MY3DLAYER
10
366.9079430760429
20
107.17823059246574
30
0.0
 70
     32
  0
VERTEX
  8
MY3DLAYER
10
367.16676212114544
20
107.14415641875479
30
0.0
 70
     32
  0
VERTEX
  8
MY3DLAYER
10
367.4255811662479
20
107.17823059246574
30
0.0
 70
     32
  0
VERTEX
  8
MY3DLAYER
10
367.66676212114544
20
107.27813101497036
30
0.0
 70
     32
  0
VERTEX
  8
MY3DLAYER
10
367.87386890233194
20
107.43704963756824
30
0.0
 70
     32
  0
VERTEX
  8
MY3DLAYER
10
368.03278752492986
20
107.64415641875479
30
0.0
 70
     32
  0
VERTEX
  8
MY3DLAYER
10
368.1326879474345
20
107.88533737365228
30
0.0
 70
     32
  0
SEQEND
  0
POLYLINE
 8
Layer0
 66
     1
70
    8
 10
0.0
 20
 0.0
 30
0.0
  0
VERTEX
  8
MY3DLAYER
10
394.66676212114544
20
66.14415641875479
30
0.0
 70
     32
  0
VERTEX
  8
MY3DLAYER
10
394.925581166248
20
66.17823059246571
30
0.0
 70
     32
  0
VERTEX
  8
MY3DLAYER
10
395.1667621211454
20
66.27813101497036
30
0.0
 70
     32
  0
VERTEX
  8
MY3DLAYER
10
395.373868902332
20
66.43704963756824
30
0.0
 70
     32
  0
VERTEX
  8
MY3DLAYER
10
395.53278752492986
20
66.64415641875479
30
0.0
 70
     32
  0
VERTEX
  8
MY3DLAYER
10
395.63268794743453
20
66.88533737365226
30
0.0
 70
     32
  0
VERTEX
  8
MY3DLAYER
10
395.66676212114544
20
67.14415641875479
30
0.0
 70
     32
  0
VERTEX
  8
MY3DLAYER
10
395.63268794743453
20
67.40297546385732
30
0.0
 70
     32
  0
VERTEX
  8
MY3DLAYER
10
395.53278752492986
20
67.64415641875479
30
0.0
 70
     32
  0
VERTEX
  8
MY3DLAYER
10
395.373868902332
20
67.85126319994134
30
0.0
 70
     32
  0
VERTEX
  8
MY3DLAYER
10
395.16676212114544
20
68.01018182253922
30
0.0
 70
     32
  0
VERTEX
  8
MY3DLAYER
10
394.925581166248
20
68.11008224504386
30
0.0
 70
     32
  0
VERTEX
  8
MY3DLAYER
10
394.66676212114544
20
68.14415641875479
30
0.0
 70
     32
  0
VERTEX
  8
MY3DLAYER
10
394.4079430760429
20
68.11008224504386
30
0.0
 70
     32
  0
VERTEX
  8
MY3DLAYER
10
394.16676212114544
20
68.01018182253922
30
0.0
 70
     32
  0
VERTEX
  8
MY3DLAYER
10
393.9596553399589
20
67.85126319994134
30
0.0
 70
     32
  0
VERTEX
  8
MY3DLAYER
10
393.800736717361
20
67.64415641875479
30
0.0
 70
     32
  0
VERTEX
  8
MY3DLAYER
10
393.70083629485634
20
67.40297546385732
30
0.0
 70
     32
  0
VERTEX
  8
MY3DLAYER
10
393.66676212114544
20
67.14415641875479
30
0.0
 70
     32
  0
VERTEX
  8
MY3DLAYER
10
393.70083629485634
20
66.88533737365226
30
0.0
 70
     32
  0
VERTEX
  8
MY3DLAYER
10
393.800736717361
20
66.64415641875479
30
0.0
 70
     32
  0
VERTEX
  8
MY3DLAYER
10
393.9596553399589
20
66.43704963756824
30
0.0
 70
     32
  0
VERTEX
  8
MY3DLAYER
10
394.1667621211454
20
66.27813101497036
30
0.0
 70
     32
  0
VERTEX
  8
MY3DLAYER
10
394.4079430760429
20
66.17823059246572
30
0.0
 70
     32
  0
VERTEX
  8
MY3DLAYER
10
394.66676212114544
20
66.14415641875479
30
0.0
 70
     32
  0
SEQEND
  0
POLYLINE
 8
Layer0
 66
     1
70
    8
 10
0.0
 20
 0.0
 30
0.0
  0
VERTEX
  8
MY3DLAYER
10
393.1667621211454
20
40.14415641875479
30
0.0
 70
     32
  0
VERTEX
  8
MY3DLAYER
10
393.1667621211454
20
30.144156418754793
30
0.0
 70
     32
  0
VERTEX
  8
MY3DLAYER
10
396.1667621211454
20
30.144156418754793
30
0.0
 70
     32
  0
VERTEX
  8
MY3DLAYER
10
396.1667621211454
20
40.14415641875479
30
0.0
 70
     32
  0
VERTEX
  8
MY3DLAYER
10
393.1667621211454
20
40.14415641875479
30
0.0
 70
     32
  0
SEQEND
 0
ENDSEC
 0
EOF
