 0
SECTION
 2
ENTITIES
  0
POLYLINE
 8
Layer0
 66
     1
70
    8
 10
0.0
 20
 0.0
 30
0.0
  0
VERTEX
  8
MY3DLAYER
10
505.9291751741931
20
75.11284078976712
30
0.0
 70
     32
  0
VERTEX
  8
MY3DLAYER
10
509.78372690700263
20
67.16284078976712
30
0.0
 70
     32
  0
VERTEX
  8
MY3DLAYER
10
509.78372690700263
20
56.16284078976714
30
0.0
 70
     32
  0
VERTEX
  8
MY3DLAYER
10
505.78372690700263
20
56.16284078976714
30
0.0
 70
     32
  0
VERTEX
  8
MY3DLAYER
10
505.78372690700263
20
57.16284078976713
30
0.0
 70
     32
  0
VERTEX
  8
MY3DLAYER
10
505.78372690700263
20
67.16284078976712
30
0.0
 70
     32
  0
VERTEX
  8
MY3DLAYER
10
502.78372690700263
20
67.16284078976712
30
0.0
 70
     32
  0
VERTEX
  8
MY3DLAYER
10
502.78372690700263
20
57.16284078976713
30
0.0
 70
     32
  0
VERTEX
  8
MY3DLAYER
10
502.78372690700263
20
56.16284078976714
30
0.0
 70
     32
  0
VERTEX
  8
MY3DLAYER
10
498.78372690700263
20
56.16284078976714
30
0.0
 70
     32
  0
VERTEX
  8
MY3DLAYER
10
498.78372690700263
20
67.16284078976712
30
0.0
 70
     32
  0
VERTEX
  8
MY3DLAYER
10
502.44846783705344
20
74.65459697546191
30
0.0
 70
     32
  0
VERTEX
  8
MY3DLAYER
10
502.6382786398122
20
75.11284078976712
30
0.0
 70
     32
  0
VERTEX
  8
MY3DLAYER
10
502.94022402274817
20
75.50634367402158
30
0.0
 70
     32
  0
VERTEX
  8
MY3DLAYER
10
503.33372690700264
20
75.80828905695756
30
0.0
 70
     32
  0
VERTEX
  8
MY3DLAYER
10
503.7919707213078
20
75.99809985971635
30
0.0
 70
     32
  0
VERTEX
  8
MY3DLAYER
10
504.28372690700263
20
76.06284078976712
30
0.0
 70
     32
  0
VERTEX
  8
MY3DLAYER
10
504.7754830926975
20
75.99809985971635
30
0.0
 70
     32
  0
VERTEX
  8
MY3DLAYER
10
505.2337269070027
20
75.80828905695756
30
0.0
 70
     32
  0
VERTEX
  8
MY3DLAYER
10
505.6272297912571
20
75.50634367402158
30
0.0
 70
     32
  0
VERTEX
  8
MY3DLAYER
10
505.9291751741931
20
75.11284078976712
30
0.0
 70
     32
  0
SEQEND
  0
POLYLINE
 8
Layer0
 66
     1
70
    8
 10
0.0
 20
 0.0
 30
0.0
  0
VERTEX
  8
MY3DLAYER
10
504.5425459521052
20
75.12876661605618
30
0.0
 70
     32
  0
VERTEX
  8
MY3DLAYER
10
504.28372690700263
20
75.1628407897671
30
0.0
 70
     32
  0
VERTEX
  8
MY3DLAYER
10
504.0249078619001
20
75.12876661605618
30
0.0
 70
     32
  0
VERTEX
  8
MY3DLAYER
10
503.78372690700263
20
75.02886619355154
30
0.0
 70
     32
  0
VERTEX
  8
MY3DLAYER
10
503.57662012581613
20
74.86994757095366
30
0.0
 70
     32
  0
VERTEX
  8
MY3DLAYER
10
503.41770150321827
20
74.66284078976713
30
0.0
 70
     32
  0
VERTEX
  8
MY3DLAYER
10
503.3178010807136
20
74.42165983486964
30
0.0
 70
     32
  0
VERTEX
  8
MY3DLAYER
10
503.2837269070027
20
74.1628407897671
30
0.0
 70
     32
  0
VERTEX
  8
MY3DLAYER
10
503.3178010807136
20
73.90402174466458
30
0.0
 70
     32
  0
VERTEX
  8
MY3DLAYER
10
503.41770150321827
20
73.66284078976713
30
0.0
 70
     32
  0
VERTEX
  8
MY3DLAYER
10
503.57662012581613
20
73.45573400858055
30
0.0
 70
     32
  0
VERTEX
  8
MY3DLAYER
10
503.78372690700263
20
73.29681538598267
30
0.0
 70
     32
  0
VERTEX
  8
MY3DLAYER
10
504.0249078619001
20
73.19691496347802
30
0.0
 70
     32
  0
VERTEX
  8
MY3DLAYER
10
504.28372690700263
20
73.1628407897671
30
0.0
 70
     32
  0
VERTEX
  8
MY3DLAYER
10
504.5425459521052
20
73.19691496347802
30
0.0
 70
     32
  0
VERTEX
  8
MY3DLAYER
10
504.7837269070027
20
73.29681538598267
30
0.0
 70
     32
  0
VERTEX
  8
MY3DLAYER
10
504.9908336881891
20
73.45573400858055
30
0.0
 70
     32
  0
VERTEX
  8
MY3DLAYER
10
505.149752310787
20
73.66284078976713
30
0.0
 70
     32
  0
VERTEX
  8
MY3DLAYER
10
505.2496527332918
20
73.90402174466458
30
0.0
 70
     32
  0
VERTEX
  8
MY3DLAYER
10
505.2837269070026
20
74.1628407897671
30
0.0
 70
     32
  0
VERTEX
  8
MY3DLAYER
10
505.2496527332918
20
74.42165983486964
30
0.0
 70
     32
  0
VERTEX
  8
MY3DLAYER
10
505.149752310787
20
74.66284078976713
30
0.0
 70
     32
  0
VERTEX
  8
MY3DLAYER
10
504.9908336881891
20
74.86994757095366
30
0.0
 70
     32
  0
VERTEX
  8
MY3DLAYER
10
504.7837269070027
20
75.02886619355154
30
0.0
 70
     32
  0
VERTEX
  8
MY3DLAYER
10
504.5425459521052
20
75.12876661605618
30
0.0
 70
     32
  0
SEQEND
  0
POLYLINE
 8
Layer0
 66
     1
70
    8
 10
0.0
 20
 0.0
 30
0.0
  0
VERTEX
  8
MY3DLAYER
10
503.4967006553191
20
115.2829762961983
30
3.504883571651026e-33
 70
     32
  0
VERTEX
  8
MY3DLAYER
10
503.7090418816667
20
114.20959818250233
30
3.504883571651026e-33
 70
     32
  0
VERTEX
  8
MY3DLAYER
10
503.7090418816667
20
111.99050805092878
30
3.504883571651026e-33
 70
     32
  0
VERTEX
  8
MY3DLAYER
10
506.20904188166617
20
111.99050805092892
30
3.504883571651026e-33
 70
     32
  0
VERTEX
  8
MY3DLAYER
10
508.5599190746485
20
86.19050805092876
30
3.504883571651026e-33
 70
     32
  0
VERTEX
  8
MY3DLAYER
10
499.7090418816661
20
86.19050805092876
30
3.504883571651026e-33
 70
     32
  0
VERTEX
  8
MY3DLAYER
10
499.7090418816661
20
104.49050805092891
30
3.504883571651026e-33
 70
     32
  0
VERTEX
  8
MY3DLAYER
10
499.6749677079553
20
104.74932709603145
30
3.504883571651026e-33
 70
     32
  0
VERTEX
  8
MY3DLAYER
10
499.57506728545064
20
104.99050805092894
30
3.504883571651026e-33
 70
     32
  0
VERTEX
  8
MY3DLAYER
10
499.41614866285266
20
105.19761483211546
30
3.504883571651026e-33
 70
     32
  0
VERTEX
  8
MY3DLAYER
10
499.20904188166617
20
105.35653345471334
30
3.504883571651026e-33
 70
     32
  0
VERTEX
  8
MY3DLAYER
10
498.9678609267687
20
105.45643387721799
30
3.504883571651026e-33
 70
     32
  0
VERTEX
  8
MY3DLAYER
10
498.70904188166617
20
105.49050805092891
30
3.504883571651026e-33
 70
     32
  0
VERTEX
  8
MY3DLAYER
10
498.45022283656357
20
105.45643387721799
30
3.504883571651026e-33
 70
     32
  0
VERTEX
  8
MY3DLAYER
10
498.2090418816663
20
105.35653345471334
30
3.504883571651026e-33
 70
     32
  0
VERTEX
  8
MY3DLAYER
10
498.00193510047967
20
105.19761483211546
30
3.504883571651026e-33
 70
     32
  0
VERTEX
  8
MY3DLAYER
10
497.8430164778818
20
104.99050805092894
30
3.504883571651026e-33
 70
     32
  0
VERTEX
  8
MY3DLAYER
10
497.743116055377
20
104.74932709603145
30
3.504883571651026e-33
 70
     32
  0
VERTEX
  8
MY3DLAYER
10
497.7090418816662
20
104.49050805092891
30
3.504883571651026e-33
 70
     32
  0
VERTEX
  8
MY3DLAYER
10
497.7090418816662
20
86.19050805092876
30
3.504883571651026e-33
 70
     32
  0
VERTEX
  8
MY3DLAYER
10
488.8581646886837
20
86.19050805092876
30
3.504883571651026e-33
 70
     32
  0
VERTEX
  8
MY3DLAYER
10
491.2090418816662
20
111.99050805092892
30
3.504883571651026e-33
 70
     32
  0
VERTEX
  8
MY3DLAYER
10
493.70904188166566
20
111.99050805092898
30
3.504883571651026e-33
 70
     32
  0
VERTEX
  8
MY3DLAYER
10
493.70904188166566
20
114.20959818250255
30
3.504883571651026e-33
 70
     32
  0
VERTEX
  8
MY3DLAYER
10
493.92138310801295
20
115.28297629619836
30
3.504883571651026e-33
 70
     32
  0
VERTEX
  8
MY3DLAYER
10
494.6557410227668
20
116.77604195686175
30
3.504883571651026e-33
 70
     32
  0
VERTEX
  8
MY3DLAYER
10
495.7515101269355
20
118.02816682458163
30
3.504883571651026e-33
 70
     32
  0
VERTEX
  8
MY3DLAYER
10
497.1340155669138
20
118.95402065885754
30
3.504883571651026e-33
 70
     32
  0
VERTEX
  8
MY3DLAYER
10
498.70904188166617
20
119.49050805092887
30
3.504883571651026e-33
 70
     32
  0
VERTEX
  8
MY3DLAYER
10
500.2840681964187
20
118.9540206588574
30
3.504883571651026e-33
 70
     32
  0
VERTEX
  8
MY3DLAYER
10
501.66657363639706
20
118.02816682458155
30
3.504883571651026e-33
 70
     32
  0
VERTEX
  8
MY3DLAYER
10
502.7623427405655
20
116.77604195686159
30
3.504883571651026e-33
 70
     32
  0
VERTEX
  8
MY3DLAYER
10
503.4967006553191
20
115.2829762961983
30
3.504883571651026e-33
 70
     32
  0
SEQEND
  0
POLYLINE
 8
Layer0
 66
     1
70
    8
 10
0.0
 20
 0.0
 30
0.0
  0
VERTEX
  8
MY3DLAYER
10
503.16552188695096
20
98.96206381572189
30
3.504883571651026e-33
 70
     32
  0
VERTEX
  8
MY3DLAYER
10
503.7090418816663
20
98.89050805092891
30
3.504883571651026e-33
 70
     32
  0
VERTEX
  8
MY3DLAYER
10
504.25256187638155
20
98.96206381572189
30
3.504883571651026e-33
 70
     32
  0
VERTEX
  8
MY3DLAYER
10
504.7590418816661
20
99.17185470298162
30
3.504883571651026e-33
 70
     32
  0
VERTEX
  8
MY3DLAYER
10
505.1939661221579
20
99.50558381043717
30
3.504883571651026e-33
 70
     32
  0
VERTEX
  8
MY3DLAYER
10
505.5276952296135
20
99.94050805092891
30
3.504883571651026e-33
 70
     32
  0
VERTEX
  8
MY3DLAYER
10
505.7374861168732
20
100.44698805621361
30
3.504883571651026e-33
 70
     32
  0
VERTEX
  8
MY3DLAYER
10
505.80904188166625
20
100.99050805092898
30
3.504883571651026e-33
 70
     32
  0
VERTEX
  8
MY3DLAYER
10
505.7374861168732
20
101.5340280456443
30
3.504883571651026e-33
 70
     32
  0
VERTEX
  8
MY3DLAYER
10
505.5276952296135
20
102.04050805092902
30
3.504883571651026e-33
 70
     32
  0
VERTEX
  8
MY3DLAYER
10
505.1939661221579
20
102.47543229142074
30
3.504883571651026e-33
 70
     32
  0
VERTEX
  8
MY3DLAYER
10
504.7590418816661
20
102.80916139887631
30
3.504883571651026e-33
 70
     32
  0
VERTEX
  8
MY3DLAYER
10
504.25256187638155
20
103.01895228613607
30
3.504883571651026e-33
 70
     32
  0
VERTEX
  8
MY3DLAYER
10
503.7090418816663
20
103.090508050929
30
3.504883571651026e-33
 70
     32
  0
VERTEX
  8
MY3DLAYER
10
503.16552188695096
20
103.01895228613607
30
3.504883571651026e-33
 70
     32
  0
VERTEX
  8
MY3DLAYER
10
502.65904188166627
20
102.80916139887631
30
3.504883571651026e-33
 70
     32
  0
VERTEX
  8
MY3DLAYER
10
502.2241176411745
20
102.47543229142074
30
3.504883571651026e-33
 70
     32
  0
VERTEX
  8
MY3DLAYER
10
501.89038853371886
20
102.04050805092902
30
3.504883571651026e-33
 70
     32
  0
VERTEX
  8
MY3DLAYER
10
501.6805976464591
20
101.5340280456443
30
3.504883571651026e-33
 70
     32
  0
VERTEX
  8
MY3DLAYER
10
501.60904188166614
20
100.99050805092898
30
3.504883571651026e-33
 70
     32
  0
VERTEX
  8
MY3DLAYER
10
501.6805976464591
20
100.44698805621361
30
3.504883571651026e-33
 70
     32
  0
VERTEX
  8
MY3DLAYER
10
501.89038853371886
20
99.94050805092891
30
3.504883571651026e-33
 70
     32
  0
VERTEX
  8
MY3DLAYER
10
502.2241176411745
20
99.50558381043717
30
3.504883571651026e-33
 70
     32
  0
VERTEX
  8
MY3DLAYER
10
502.6590418816661
20
99.17185470298162
30
3.504883571651026e-33
 70
     32
  0
VERTEX
  8
MY3DLAYER
10
503.16552188695096
20
98.96206381572189
30
3.504883571651026e-33
 70
     32
  0
SEQEND
  0
POLYLINE
 8
Layer0
 66
     1
70
    8
 10
0.0
 20
 0.0
 30
0.0
  0
VERTEX
  8
MY3DLAYER
10
493.19140379146114
20
90.92235970350701
30
3.504883571651026e-33
 70
     32
  0
VERTEX
  8
MY3DLAYER
10
492.7090418816661
20
90.72255885849776
30
3.504883571651026e-33
 70
     32
  0
VERTEX
  8
MY3DLAYER
10
492.29482831929306
20
90.4047216133019
30
3.504883571651026e-33
 70
     32
  0
VERTEX
  8
MY3DLAYER
10
491.97699107409727
20
89.9905080509288
30
3.504883571651026e-33
 70
     32
  0
VERTEX
  8
MY3DLAYER
10
491.777190229088
20
89.50814614113386
30
3.504883571651026e-33
 70
     32
  0
VERTEX
  8
MY3DLAYER
10
491.7090418816661
20
88.99050805092882
30
3.504883571651026e-33
 70
     32
  0
VERTEX
  8
MY3DLAYER
10
491.777190229088
20
88.4728699607239
30
3.504883571651026e-33
 70
     32
  0
VERTEX
  8
MY3DLAYER
10
491.97699107409727
20
87.9905080509289
30
3.504883571651026e-33
 70
     32
  0
VERTEX
  8
MY3DLAYER
10
492.29482831929306
20
87.57629448855579
30
3.504883571651026e-33
 70
     32
  0
VERTEX
  8
MY3DLAYER
10
492.7090418816661
20
87.25845724335998
30
3.504883571651026e-33
 70
     32
  0
VERTEX
  8
MY3DLAYER
10
493.19140379146114
20
87.05865639835072
30
3.504883571651026e-33
 70
     32
  0
VERTEX
  8
MY3DLAYER
10
493.70904188166605
20
86.9905080509289
30
3.504883571651026e-33
 70
     32
  0
VERTEX
  8
MY3DLAYER
10
494.22667997187114
20
87.05865639835072
30
3.504883571651026e-33
 70
     32
  0
VERTEX
  8
MY3DLAYER
10
494.70904188166617
20
87.25845724335998
30
3.504883571651026e-33
 70
     32
  0
VERTEX
  8
MY3DLAYER
10
495.1232554440392
20
87.57629448855579
30
3.504883571651026e-33
 70
     32
  0
VERTEX
  8
MY3DLAYER
10
495.441092689235
20
87.9905080509289
30
3.504883571651026e-33
 70
     32
  0
VERTEX
  8
MY3DLAYER
10
495.6408935342443
20
88.4728699607239
30
3.504883571651026e-33
 70
     32
  0
VERTEX
  8
MY3DLAYER
10
495.7090418816661
20
88.99050805092882
30
3.504883571651026e-33
 70
     32
  0
VERTEX
  8
MY3DLAYER
10
495.6408935342443
20
89.50814614113382
30
3.504883571651026e-33
 70
     32
  0
VERTEX
  8
MY3DLAYER
10
495.441092689235
20
89.9905080509288
30
3.504883571651026e-33
 70
     32
  0
VERTEX
  8
MY3DLAYER
10
495.1232554440392
20
90.4047216133019
30
3.504883571651026e-33
 70
     32
  0
VERTEX
  8
MY3DLAYER
10
494.70904188166617
20
90.72255885849776
30
3.504883571651026e-33
 70
     32
  0
VERTEX
  8
MY3DLAYER
10
494.22667997187114
20
90.92235970350701
30
3.504883571651026e-33
 70
     32
  0
VERTEX
  8
MY3DLAYER
10
493.70904188166605
20
90.9905080509289
30
3.504883571651026e-33
 70
     32
  0
VERTEX
  8
MY3DLAYER
10
493.19140379146114
20
90.92235970350701
30
3.504883571651026e-33
 70
     32
  0
SEQEND
  0
POLYLINE
 8
Layer0
 66
     1
70
    8
 10
0.0
 20
 0.0
 30
0.0
  0
VERTEX
  8
MY3DLAYER
10
504.2266799718712
20
90.92235970350706
30
3.504883571651026e-33
 70
     32
  0
VERTEX
  8
MY3DLAYER
10
503.7090418816663
20
90.9905080509289
30
3.504883571651026e-33
 70
     32
  0
VERTEX
  8
MY3DLAYER
10
503.19140379146114
20
90.92235970350706
30
3.504883571651026e-33
 70
     32
  0
VERTEX
  8
MY3DLAYER
10
502.7090418816662
20
90.72255885849776
30
3.504883571651026e-33
 70
     32
  0
VERTEX
  8
MY3DLAYER
10
502.294828319293
20
90.4047216133019
30
3.504883571651026e-33
 70
     32
  0
VERTEX
  8
MY3DLAYER
10
501.97699107409727
20
89.9905080509288
30
3.504883571651026e-33
 70
     32
  0
VERTEX
  8
MY3DLAYER
10
501.77719022908815
20
89.50814614113386
30
3.504883571651026e-33
 70
     32
  0
VERTEX
  8
MY3DLAYER
10
501.7090418816661
20
88.99050805092882
30
3.504883571651026e-33
 70
     32
  0
VERTEX
  8
MY3DLAYER
10
501.77719022908815
20
88.4728699607239
30
3.504883571651026e-33
 70
     32
  0
VERTEX
  8
MY3DLAYER
10
501.97699107409727
20
87.9905080509289
30
3.504883571651026e-33
 70
     32
  0
VERTEX
  8
MY3DLAYER
10
502.294828319293
20
87.57629448855579
30
3.504883571651026e-33
 70
     32
  0
VERTEX
  8
MY3DLAYER
10
502.7090418816662
20
87.25845724335998
30
3.504883571651026e-33
 70
     32
  0
VERTEX
  8
MY3DLAYER
10
503.19140379146114
20
87.05865639835072
30
3.504883571651026e-33
 70
     32
  0
VERTEX
  8
MY3DLAYER
10
503.7090418816663
20
86.9905080509289
30
3.504883571651026e-33
 70
     32
  0
VERTEX
  8
MY3DLAYER
10
504.2266799718712
20
87.05865639835072
30
3.504883571651026e-33
 70
     32
  0
VERTEX
  8
MY3DLAYER
10
504.70904188166617
20
87.25845724335998
30
3.504883571651026e-33
 70
     32
  0
VERTEX
  8
MY3DLAYER
10
505.1232554440392
20
87.57629448855579
30
3.504883571651026e-33
 70
     32
  0
VERTEX
  8
MY3DLAYER
10
505.441092689235
20
87.9905080509289
30
3.504883571651026e-33
 70
     32
  0
VERTEX
  8
MY3DLAYER
10
505.6408935342443
20
88.4728699607239
30
3.504883571651026e-33
 70
     32
  0
VERTEX
  8
MY3DLAYER
10
505.7090418816661
20
88.99050805092882
30
3.504883571651026e-33
 70
     32
  0
VERTEX
  8
MY3DLAYER
10
505.6408935342443
20
89.50814614113386
30
3.504883571651026e-33
 70
     32
  0
VERTEX
  8
MY3DLAYER
10
505.441092689235
20
89.9905080509288
30
3.504883571651026e-33
 70
     32
  0
VERTEX
  8
MY3DLAYER
10
505.1232554440392
20
90.4047216133019
30
3.504883571651026e-33
 70
     32
  0
VERTEX
  8
MY3DLAYER
10
504.70904188166617
20
90.72255885849776
30
3.504883571651026e-33
 70
     32
  0
VERTEX
  8
MY3DLAYER
10
504.2266799718712
20
90.92235970350706
30
3.504883571651026e-33
 70
     32
  0
SEQEND
  0
POLYLINE
 8
Layer0
 66
     1
70
    8
 10
0.0
 20
 0.0
 30
0.0
  0
VERTEX
  8
MY3DLAYER
10
494.20079806736095
20
102.82576712087823
30
3.504883571651026e-33
 70
     32
  0
VERTEX
  8
MY3DLAYER
10
493.70904188166605
20
102.890508050929
30
3.504883571651026e-33
 70
     32
  0
VERTEX
  8
MY3DLAYER
10
493.2172856959713
20
102.82576712087823
30
3.504883571651026e-33
 70
     32
  0
VERTEX
  8
MY3DLAYER
10
492.75904188166606
20
102.63595631811944
30
3.504883571651026e-33
 70
     32
  0
VERTEX
  8
MY3DLAYER
10
492.3655389974116
20
102.33401093518346
30
3.504883571651026e-33
 70
     32
  0
VERTEX
  8
MY3DLAYER
10
492.0635936144756
20
101.940508050929
30
3.504883571651026e-33
 70
     32
  0
VERTEX
  8
MY3DLAYER
10
491.87378281171686
20
101.48226423662379
30
3.504883571651026e-33
 70
     32
  0
VERTEX
  8
MY3DLAYER
10
491.80904188166613
20
100.99050805092898
30
3.504883571651026e-33
 70
     32
  0
VERTEX
  8
MY3DLAYER
10
491.87378281171686
20
100.49875186523413
30
3.504883571651026e-33
 70
     32
  0
VERTEX
  8
MY3DLAYER
10
492.0635936144756
20
100.04050805092893
30
3.504883571651026e-33
 70
     32
  0
VERTEX
  8
MY3DLAYER
10
492.3655389974116
20
99.64700516667446
30
3.504883571651026e-33
 70
     32
  0
VERTEX
  8
MY3DLAYER
10
492.75904188166606
20
99.34505978373848
30
3.504883571651026e-33
 70
     32
  0
VERTEX
  8
MY3DLAYER
10
493.2172856959713
20
99.15524898097969
30
3.504883571651026e-33
 70
     32
  0
VERTEX
  8
MY3DLAYER
10
493.70904188166605
20
99.09050805092892
30
3.504883571651026e-33
 70
     32
  0
VERTEX
  8
MY3DLAYER
10
494.20079806736095
20
99.15524898097969
30
3.504883571651026e-33
 70
     32
  0
VERTEX
  8
MY3DLAYER
10
494.6590418816662
20
99.34505978373848
30
3.504883571651026e-33
 70
     32
  0
VERTEX
  8
MY3DLAYER
10
495.0525447659205
20
99.64700516667446
30
3.504883571651026e-33
 70
     32
  0
VERTEX
  8
MY3DLAYER
10
495.35449014885666
20
100.04050805092893
30
3.504883571651026e-33
 70
     32
  0
VERTEX
  8
MY3DLAYER
10
495.5443009516154
20
100.49875186523413
30
3.504883571651026e-33
 70
     32
  0
VERTEX
  8
MY3DLAYER
10
495.60904188166614
20
100.99050805092898
30
3.504883571651026e-33
 70
     32
  0
VERTEX
  8
MY3DLAYER
10
495.5443009516154
20
101.48226423662379
30
3.504883571651026e-33
 70
     32
  0
VERTEX
  8
MY3DLAYER
10
495.35449014885666
20
101.940508050929
30
3.504883571651026e-33
 70
     32
  0
VERTEX
  8
MY3DLAYER
10
495.0525447659205
20
102.33401093518346
30
3.504883571651026e-33
 70
     32
  0
VERTEX
  8
MY3DLAYER
10
494.6590418816662
20
102.63595631811944
30
3.504883571651026e-33
 70
     32
  0
VERTEX
  8
MY3DLAYER
10
494.20079806736095
20
102.82576712087823
30
3.504883571651026e-33
 70
     32
  0
SEQEND
  0
POLYLINE
 8
Layer0
 66
     1
70
    8
 10
0.0
 20
 0.0
 30
0.0
  0
VERTEX
  8
MY3DLAYER
10
517.5506005562537
20
29.144156418754797
30
0.0
 70
     32
  0
VERTEX
  8
MY3DLAYER
10
452.55060055625364
20
29.144156418754797
30
0.0
 70
     32
  0
VERTEX
  8
MY3DLAYER
10
452.55060055625364
20
139.1441564187548
30
0.0
 70
     32
  0
VERTEX
  8
MY3DLAYER
10
457.5506005562537
20
139.1441564187548
30
0.0
 70
     32
  0
VERTEX
  8
MY3DLAYER
10
457.5506005562537
20
137.14415641875482
30
0.0
 70
     32
  0
VERTEX
  8
MY3DLAYER
10
458.3270576915612
20
137.041933897622
30
0.0
 70
     32
  0
VERTEX
  8
MY3DLAYER
10
459.0506005562536
20
136.7422326301081
30
0.0
 70
     32
  0
VERTEX
  8
MY3DLAYER
10
459.6719208998133
20
136.26547676231445
30
0.0
 70
     32
  0
VERTEX
  8
MY3DLAYER
10
460.14867676760696
20
135.6441564187548
30
0.0
 70
     32
  0
VERTEX
  8
MY3DLAYER
10
460.44837803512087
20
134.92061355406236
30
0.0
 70
     32
  0
VERTEX
  8
MY3DLAYER
10
460.55060055625364
20
134.1441564187548
30
0.0
 70
     32
  0
VERTEX
  8
MY3DLAYER
10
460.44837803512087
20
133.36769928344722
30
0.0
 70
     32
  0
VERTEX
  8
MY3DLAYER
10
460.14867676760696
20
132.6441564187548
30
0.0
 70
     32
  0
VERTEX
  8
MY3DLAYER
10
459.6719208998133
20
132.02283607519513
30
0.0
 70
     32
  0
VERTEX
  8
MY3DLAYER
10
459.0506005562536
20
131.54608020740147
30
0.0
 70
     32
  0
VERTEX
  8
MY3DLAYER
10
458.3270576915612
20
131.2463789398876
30
0.0
 70
     32
  0
VERTEX
  8
MY3DLAYER
10
457.5506005562537
20
131.14415641875476
30
0.0
 70
     32
  0
VERTEX
  8
MY3DLAYER
10
457.5506005562537
20
111.1441564187548
30
0.0
 70
     32
  0
VERTEX
  8
MY3DLAYER
10
458.3270576915612
20
111.041933897622
30
0.0
 70
     32
  0
VERTEX
  8
MY3DLAYER
10
459.0506005562536
20
110.74223263010812
30
0.0
 70
     32
  0
VERTEX
  8
MY3DLAYER
10
459.6719208998133
20
110.26547676231444
30
0.0
 70
     32
  0
VERTEX
  8
MY3DLAYER
10
460.14867676760696
20
109.64415641875479
30
0.0
 70
     32
  0
VERTEX
  8
MY3DLAYER
10
460.44837803512087
20
108.92061355406234
30
0.0
 70
     32
  0
VERTEX
  8
MY3DLAYER
10
460.55060055625364
20
108.14415641875479
30
0.0
 70
     32
  0
VERTEX
  8
MY3DLAYER
10
460.44837803512087
20
107.36769928344724
30
0.0
 70
     32
  0
VERTEX
  8
MY3DLAYER
10
460.14867676760696
20
106.64415641875479
30
0.0
 70
     32
  0
VERTEX
  8
MY3DLAYER
10
459.6719208998133
20
106.02283607519514
30
0.0
 70
     32
  0
VERTEX
  8
MY3DLAYER
10
459.0506005562536
20
105.54608020740147
30
0.0
 70
     32
  0
VERTEX
  8
MY3DLAYER
10
458.3270576915612
20
105.24637893988759
30
0.0
 70
     32
  0
VERTEX
  8
MY3DLAYER
10
457.5506005562537
20
105.14415641875478
30
0.0
 70
     32
  0
VERTEX
  8
MY3DLAYER
10
457.0506005562536
20
89.14415641875478
30
0.0
 70
     32
  0
VERTEX
  8
MY3DLAYER
10
457.8270576915612
20
89.04193389762199
30
0.0
 70
     32
  0
VERTEX
  8
MY3DLAYER
10
458.55060055625364
20
88.7422326301081
30
0.0
 70
     32
  0
VERTEX
  8
MY3DLAYER
10
459.1719208998133
20
88.26547676231444
30
0.0
 70
     32
  0
VERTEX
  8
MY3DLAYER
10
459.64867676760696
20
87.64415641875479
30
0.0
 70
     32
  0
VERTEX
  8
MY3DLAYER
10
459.9483780351208
20
86.92061355406234
30
0.0
 70
     32
  0
VERTEX
  8
MY3DLAYER
10
460.05060055625364
20
86.14415641875479
30
0.0
 70
     32
  0
VERTEX
  8
MY3DLAYER
10
459.9483780351208
20
85.36769928344722
30
0.0
 70
     32
  0
VERTEX
  8
MY3DLAYER
10
459.64867676760696
20
84.64415641875479
30
0.0
 70
     32
  0
VERTEX
  8
MY3DLAYER
10
459.1719208998133
20
84.02283607519516
30
0.0
 70
     32
  0
VERTEX
  8
MY3DLAYER
10
458.55060055625364
20
83.54608020740149
30
0.0
 70
     32
  0
VERTEX
  8
MY3DLAYER
10
457.8270576915612
20
83.24637893988758
30
0.0
 70
     32
  0
VERTEX
  8
MY3DLAYER
10
457.0506005562536
20
83.14415641875479
30
0.0
 70
     32
  0
VERTEX
  8
MY3DLAYER
10
455.5506005562537
20
50.14415641875478
30
0.0
 70
     32
  0
VERTEX
  8
MY3DLAYER
10
456.3270576915612
20
50.04193389762199
30
0.0
 70
     32
  0
VERTEX
  8
MY3DLAYER
10
457.0506005562536
20
49.742232630108106
30
0.0
 70
     32
  0
VERTEX
  8
MY3DLAYER
10
457.6719208998133
20
49.26547676231443
30
0.0
 70
     32
  0
VERTEX
  8
MY3DLAYER
10
458.14867676760696
20
48.64415641875479
30
0.0
 70
     32
  0
VERTEX
  8
MY3DLAYER
10
458.44837803512087
20
47.920613554062356
30
0.0
 70
     32
  0
VERTEX
  8
MY3DLAYER
10
458.55060055625364
20
47.14415641875479
30
0.0
 70
     32
  0
VERTEX
  8
MY3DLAYER
10
458.55060055625364
20
39.1441564187548
30
0.0
 70
     32
  0
VERTEX
  8
MY3DLAYER
10
475.05060055625364
20
42.14415641875478
30
0.0
 70
     32
  0
VERTEX
  8
MY3DLAYER
10
475.05060055625364
20
47.14415641875479
30
0.0
 70
     32
  0
VERTEX
  8
MY3DLAYER
10
477.55060055625364
20
74.64415641875479
30
0.0
 70
     32
  0
VERTEX
  8
MY3DLAYER
10
480.5506005562536
20
74.64415641875479
30
0.0
 70
     32
  0
VERTEX
  8
MY3DLAYER
10
480.5506005562536
20
72.64415641875479
30
0.0
 70
     32
  0
VERTEX
  8
MY3DLAYER
10
489.5506005562537
20
72.64415641875479
30
0.0
 70
     32
  0
VERTEX
  8
MY3DLAYER
10
489.5506005562537
20
74.64415641875479
30
0.0
 70
     32
  0
VERTEX
  8
MY3DLAYER
10
492.55060055625364
20
74.64415641875479
30
0.0
 70
     32
  0
VERTEX
  8
MY3DLAYER
10
495.05060055625364
20
47.14415641875479
30
0.0
 70
     32
  0
VERTEX
  8
MY3DLAYER
10
495.05060055625364
20
42.14415641875478
30
0.0
 70
     32
  0
VERTEX
  8
MY3DLAYER
10
511.5506005562537
20
39.1441564187548
30
0.0
 70
     32
  0
VERTEX
  8
MY3DLAYER
10
511.5506005562537
20
47.14415641875479
30
0.0
 70
     32
  0
VERTEX
  8
MY3DLAYER
10
511.6528230773864
20
47.920613554062356
30
0.0
 70
     32
  0
VERTEX
  8
MY3DLAYER
10
511.9525243449004
20
48.64415641875479
30
0.0
 70
     32
  0
VERTEX
  8
MY3DLAYER
10
512.429280212694
20
49.26547676231443
30
0.0
 70
     32
  0
VERTEX
  8
MY3DLAYER
10
513.0506005562536
20
49.742232630108106
30
0.0
 70
     32
  0
VERTEX
  8
MY3DLAYER
10
513.7741434209461
20
50.04193389762199
30
0.0
 70
     32
  0
VERTEX
  8
MY3DLAYER
10
514.5506005562536
20
50.14415641875478
30
0.0
 70
     32
  0
VERTEX
  8
MY3DLAYER
10
513.0506005562536
20
83.14415641875479
30
0.0
 70
     32
  0
VERTEX
  8
MY3DLAYER
10
512.2741434209461
20
83.24637893988758
30
0.0
 70
     32
  0
VERTEX
  8
MY3DLAYER
10
511.5506005562537
20
83.54608020740149
30
0.0
 70
     32
  0
VERTEX
  8
MY3DLAYER
10
510.929280212694
20
84.02283607519516
30
0.0
 70
     32
  0
VERTEX
  8
MY3DLAYER
10
510.4525243449003
20
84.64415641875479
30
0.0
 70
     32
  0
VERTEX
  8
MY3DLAYER
10
510.1528230773864
20
85.36769928344722
30
0.0
 70
     32
  0
VERTEX
  8
MY3DLAYER
10
510.05060055625364
20
86.14415641875479
30
0.0
 70
     32
  0
VERTEX
  8
MY3DLAYER
10
510.1528230773864
20
86.92061355406237
30
0.0
 70
     32
  0
VERTEX
  8
MY3DLAYER
10
510.4525243449003
20
87.64415641875479
30
0.0
 70
     32
  0
VERTEX
  8
MY3DLAYER
10
510.929280212694
20
88.26547676231444
30
0.0
 70
     32
  0
VERTEX
  8
MY3DLAYER
10
511.5506005562537
20
88.7422326301081
30
0.0
 70
     32
  0
VERTEX
  8
MY3DLAYER
10
512.2741434209461
20
89.04193389762199
30
0.0
 70
     32
  0
VERTEX
  8
MY3DLAYER
10
513.0506005562536
20
89.14415641875478
30
0.0
 70
     32
  0
VERTEX
  8
MY3DLAYER
10
512.5506005562536
20
105.1441564187548
30
0.0
 70
     32
  0
VERTEX
  8
MY3DLAYER
10
511.77414342094613
20
105.24637893988759
30
0.0
 70
     32
  0
VERTEX
  8
MY3DLAYER
10
511.0506005562536
20
105.54608020740149
30
0.0
 70
     32
  0
VERTEX
  8
MY3DLAYER
10
510.42928021269404
20
106.02283607519514
30
0.0
 70
     32
  0
VERTEX
  8
MY3DLAYER
10
509.9525243449004
20
106.64415641875479
30
0.0
 70
     32
  0
VERTEX
  8
MY3DLAYER
10
509.6528230773864
20
107.36769928344724
30
0.0
 70
     32
  0
VERTEX
  8
MY3DLAYER
10
509.5506005562537
20
108.14415641875479
30
0.0
 70
     32
  0
VERTEX
  8
MY3DLAYER
10
509.6528230773864
20
108.92061355406234
30
0.0
 70
     32
  0
VERTEX
  8
MY3DLAYER
10
509.9525243449004
20
109.64415641875479
30
0.0
 70
     32
  0
VERTEX
  8
MY3DLAYER
10
510.42928021269404
20
110.26547676231444
30
0.0
 70
     32
  0
VERTEX
  8
MY3DLAYER
10
511.0506005562536
20
110.74223263010812
30
0.0
 70
     32
  0
VERTEX
  8
MY3DLAYER
10
511.77414342094613
20
111.041933897622
30
0.0
 70
     32
  0
VERTEX
  8
MY3DLAYER
10
512.5506005562536
20
111.14415641875479
30
0.0
 70
     32
  0
VERTEX
  8
MY3DLAYER
10
512.5506005562536
20
131.1441564187548
30
0.0
 70
     32
  0
VERTEX
  8
MY3DLAYER
10
511.77414342094613
20
131.2463789398876
30
0.0
 70
     32
  0
VERTEX
  8
MY3DLAYER
10
511.0506005562536
20
131.5460802074015
30
0.0
 70
     32
  0
VERTEX
  8
MY3DLAYER
10
510.42928021269404
20
132.02283607519513
30
0.0
 70
     32
  0
VERTEX
  8
MY3DLAYER
10
509.9525243449004
20
132.6441564187548
30
0.0
 70
     32
  0
VERTEX
  8
MY3DLAYER
10
509.6528230773864
20
133.36769928344722
30
0.0
 70
     32
  0
VERTEX
  8
MY3DLAYER
10
509.5506005562537
20
134.1441564187548
30
0.0
 70
     32
  0
VERTEX
  8
MY3DLAYER
10
509.6528230773864
20
134.92061355406236
30
0.0
 70
     32
  0
VERTEX
  8
MY3DLAYER
10
509.9525243449004
20
135.6441564187548
30
0.0
 70
     32
  0
VERTEX
  8
MY3DLAYER
10
510.42928021269404
20
136.26547676231445
30
0.0
 70
     32
  0
VERTEX
  8
MY3DLAYER
10
511.0506005562536
20
136.7422326301081
30
0.0
 70
     32
  0
VERTEX
  8
MY3DLAYER
10
511.77414342094613
20
137.041933897622
30
0.0
 70
     32
  0
VERTEX
  8
MY3DLAYER
10
512.5506005562536
20
137.1441564187548
30
0.0
 70
     32
  0
VERTEX
  8
MY3DLAYER
10
512.5506005562536
20
139.1441564187548
30
0.0
 70
     32
  0
VERTEX
  8
MY3DLAYER
10
517.5506005562537
20
139.1441564187548
30
0.0
 70
     32
  0
VERTEX
  8
MY3DLAYER
10
517.5506005562537
20
29.144156418754797
30
0.0
 70
     32
  0
SEQEND
  0
POLYLINE
 8
Layer0
 66
     1
70
    8
 10
0.0
 20
 0.0
 30
0.0
  0
VERTEX
  8
MY3DLAYER
10
456.90355294349735
20
31.72934185303213
30
0.0
 70
     32
  0
VERTEX
  8
MY3DLAYER
10
457.5506005562536
20
31.644156418754797
30
0.0
 70
     32
  0
VERTEX
  8
MY3DLAYER
10
458.19764816900994
20
31.72934185303213
30
0.0
 70
     32
  0
VERTEX
  8
MY3DLAYER
10
458.80060055625364
20
31.9790929092937
30
0.0
 70
     32
  0
VERTEX
  8
MY3DLAYER
10
459.31836750921997
20
32.37638946578843
30
0.0
 70
     32
  0
VERTEX
  8
MY3DLAYER
10
459.71566406571475
20
32.8941564187548
30
0.0
 70
     32
  0
VERTEX
  8
MY3DLAYER
10
459.9654151219763
20
33.497108805998494
30
0.0
 70
     32
  0
VERTEX
  8
MY3DLAYER
10
460.05060055625364
20
34.1441564187548
30
0.0
 70
     32
  0
VERTEX
  8
MY3DLAYER
10
459.9654151219763
20
34.7912040315111
30
0.0
 70
     32
  0
VERTEX
  8
MY3DLAYER
10
459.71566406571475
20
35.3941564187548
30
0.0
 70
     32
  0
VERTEX
  8
MY3DLAYER
10
459.31836750921997
20
35.911923371721166
30
0.0
 70
     32
  0
VERTEX
  8
MY3DLAYER
10
458.80060055625364
20
36.309219928215896
30
0.0
 70
     32
  0
VERTEX
  8
MY3DLAYER
10
458.19764816900994
20
36.55897098447747
30
0.0
 70
     32
  0
VERTEX
  8
MY3DLAYER
10
457.5506005562536
20
36.6441564187548
30
0.0
 70
     32
  0
VERTEX
  8
MY3DLAYER
10
456.90355294349735
20
36.55897098447747
30
0.0
 70
     32
  0
VERTEX
  8
MY3DLAYER
10
456.3006005562537
20
36.309219928215896
30
0.0
 70
     32
  0
VERTEX
  8
MY3DLAYER
10
455.78283360328726
20
35.911923371721166
30
0.0
 70
     32
  0
VERTEX
  8
MY3DLAYER
10
455.38553704679254
20
35.394156418754804
30
0.0
 70
     32
  0
VERTEX
  8
MY3DLAYER
10
455.13578599053096
20
34.7912040315111
30
0.0
 70
     32
  0
VERTEX
  8
MY3DLAYER
10
455.05060055625364
20
34.1441564187548
30
0.0
 70
     32
  0
VERTEX
  8
MY3DLAYER
10
455.13578599053096
20
33.497108805998494
30
0.0
 70
     32
  0
VERTEX
  8
MY3DLAYER
10
455.38553704679254
20
32.8941564187548
30
0.0
 70
     32
  0
VERTEX
  8
MY3DLAYER
10
455.78283360328726
20
32.37638946578843
30
0.0
 70
     32
  0
VERTEX
  8
MY3DLAYER
10
456.3006005562537
20
31.9790929092937
30
0.0
 70
     32
  0
VERTEX
  8
MY3DLAYER
10
456.90355294349735
20
31.72934185303213
30
0.0
 70
     32
  0
SEQEND
  0
POLYLINE
 8
Layer0
 66
     1
70
    8
 10
0.0
 20
 0.0
 30
0.0
  0
VERTEX
  8
MY3DLAYER
10
458.51652638254274
20
107.88533737365228
30
0.0
 70
     32
  0
VERTEX
  8
MY3DLAYER
10
458.55060055625364
20
108.14415641875479
30
0.0
 70
     32
  0
VERTEX
  8
MY3DLAYER
10
458.51652638254274
20
108.4029754638573
30
0.0
 70
     32
  0
VERTEX
  8
MY3DLAYER
10
458.41662596003806
20
108.64415641875479
30
0.0
 70
     32
  0
VERTEX
  8
MY3DLAYER
10
458.2577073374402
20
108.85126319994134
30
0.0
 70
     32
  0
VERTEX
  8
MY3DLAYER
10
458.05060055625364
20
109.01018182253922
30
0.0
 70
     32
  0
VERTEX
  8
MY3DLAYER
10
457.8094196013561
20
109.11008224504386
30
0.0
 70
     32
  0
VERTEX
  8
MY3DLAYER
10
457.5506005562537
20
109.14415641875479
30
0.0
 70
     32
  0
VERTEX
  8
MY3DLAYER
10
457.29178151115116
20
109.11008224504386
30
0.0
 70
     32
  0
VERTEX
  8
MY3DLAYER
10
457.0506005562536
20
109.01018182253922
30
0.0
 70
     32
  0
VERTEX
  8
MY3DLAYER
10
456.8434937750671
20
108.85126319994134
30
0.0
 70
     32
  0
VERTEX
  8
MY3DLAYER
10
456.6845751524692
20
108.64415641875479
30
0.0
 70
     32
  0
VERTEX
  8
MY3DLAYER
10
456.58467472996455
20
108.4029754638573
30
0.0
 70
     32
  0
VERTEX
  8
MY3DLAYER
10
456.55060055625364
20
108.14415641875479
30
0.0
 70
     32
  0
VERTEX
  8
MY3DLAYER
10
456.58467472996455
20
107.88533737365228
30
0.0
 70
     32
  0
VERTEX
  8
MY3DLAYER
10
456.6845751524692
20
107.64415641875479
30
0.0
 70
     32
  0
VERTEX
  8
MY3DLAYER
10
456.8434937750671
20
107.43704963756824
30
0.0
 70
     32
  0
VERTEX
  8
MY3DLAYER
10
457.0506005562536
20
107.27813101497036
30
0.0
 70
     32
  0
VERTEX
  8
MY3DLAYER
10
457.29178151115116
20
107.17823059246574
30
0.0
 70
     32
  0
VERTEX
  8
MY3DLAYER
10
457.5506005562537
20
107.14415641875479
30
0.0
 70
     32
  0
VERTEX
  8
MY3DLAYER
10
457.8094196013561
20
107.17823059246574
30
0.0
 70
     32
  0
VERTEX
  8
MY3DLAYER
10
458.05060055625364
20
107.27813101497036
30
0.0
 70
     32
  0
VERTEX
  8
MY3DLAYER
10
458.2577073374402
20
107.43704963756824
30
0.0
 70
     32
  0
VERTEX
  8
MY3DLAYER
10
458.41662596003806
20
107.64415641875479
30
0.0
 70
     32
  0
VERTEX
  8
MY3DLAYER
10
458.51652638254274
20
107.88533737365228
30
0.0
 70
     32
  0
SEQEND
  0
POLYLINE
 8
Layer0
 66
     1
70
    8
 10
0.0
 20
 0.0
 30
0.0
  0
VERTEX
  8
MY3DLAYER
10
511.5846747299646
20
108.4029754638573
30
0.0
 70
     32
  0
VERTEX
  8
MY3DLAYER
10
511.5506005562537
20
108.14415641875479
30
0.0
 70
     32
  0
VERTEX
  8
MY3DLAYER
10
511.5846747299646
20
107.88533737365228
30
0.0
 70
     32
  0
VERTEX
  8
MY3DLAYER
10
511.6845751524692
20
107.64415641875479
30
0.0
 70
     32
  0
VERTEX
  8
MY3DLAYER
10
511.84349377506715
20
107.43704963756824
30
0.0
 70
     32
  0
VERTEX
  8
MY3DLAYER
10
512.0506005562537
20
107.27813101497036
30
0.0
 70
     32
  0
VERTEX
  8
MY3DLAYER
10
512.291781511151
20
107.17823059246574
30
0.0
 70
     32
  0
VERTEX
  8
MY3DLAYER
10
512.5506005562536
20
107.14415641875479
30
0.0
 70
     32
  0
VERTEX
  8
MY3DLAYER
10
512.8094196013561
20
107.17823059246574
30
0.0
 70
     32
  0
VERTEX
  8
MY3DLAYER
10
513.0506005562536
20
107.27813101497036
30
0.0
 70
     32
  0
VERTEX
  8
MY3DLAYER
10
513.2577073374403
20
107.43704963756824
30
0.0
 70
     32
  0
VERTEX
  8
MY3DLAYER
10
513.4166259600381
20
107.64415641875479
30
0.0
 70
     32
  0
VERTEX
  8
MY3DLAYER
10
513.5165263825427
20
107.88533737365228
30
0.0
 70
     32
  0
VERTEX
  8
MY3DLAYER
10
513.5506005562537
20
108.14415641875479
30
0.0
 70
     32
  0
VERTEX
  8
MY3DLAYER
10
513.5165263825427
20
108.4029754638573
30
0.0
 70
     32
  0
VERTEX
  8
MY3DLAYER
10
513.4166259600381
20
108.64415641875479
30
0.0
 70
     32
  0
VERTEX
  8
MY3DLAYER
10
513.2577073374403
20
108.85126319994134
30
0.0
 70
     32
  0
VERTEX
  8
MY3DLAYER
10
513.0506005562536
20
109.01018182253922
30
0.0
 70
     32
  0
VERTEX
  8
MY3DLAYER
10
512.8094196013561
20
109.11008224504386
30
0.0
 70
     32
  0
VERTEX
  8
MY3DLAYER
10
512.5506005562536
20
109.14415641875479
30
0.0
 70
     32
  0
VERTEX
  8
MY3DLAYER
10
512.291781511151
20
109.11008224504386
30
0.0
 70
     32
  0
VERTEX
  8
MY3DLAYER
10
512.0506005562537
20
109.01018182253922
30
0.0
 70
     32
  0
VERTEX
  8
MY3DLAYER
10
511.84349377506715
20
108.85126319994134
30
0.0
 70
     32
  0
VERTEX
  8
MY3DLAYER
10
511.6845751524692
20
108.64415641875479
30
0.0
 70
     32
  0
VERTEX
  8
MY3DLAYER
10
511.5846747299646
20
108.4029754638573
30
0.0
 70
     32
  0
SEQEND
  0
POLYLINE
 8
Layer0
 66
     1
70
    8
 10
0.0
 20
 0.0
 30
0.0
  0
VERTEX
  8
MY3DLAYER
10
512.0846747299646
20
86.40297546385732
30
0.0
 70
     32
  0
VERTEX
  8
MY3DLAYER
10
512.0506005562537
20
86.14415641875479
30
0.0
 70
     32
  0
VERTEX
  8
MY3DLAYER
10
512.0846747299646
20
85.88533737365228
30
0.0
 70
     32
  0
VERTEX
  8
MY3DLAYER
10
512.1845751524692
20
85.64415641875479
30
0.0
 70
     32
  0
VERTEX
  8
MY3DLAYER
10
512.3434937750671
20
85.43704963756824
30
0.0
 70
     32
  0
VERTEX
  8
MY3DLAYER
10
512.5506005562536
20
85.27813101497036
30
0.0
 70
     32
  0
VERTEX
  8
MY3DLAYER
10
512.7917815111512
20
85.17823059246572
30
0.0
 70
     32
  0
VERTEX
  8
MY3DLAYER
10
513.0506005562536
20
85.14415641875479
30
0.0
 70
     32
  0
VERTEX
  8
MY3DLAYER
10
513.3094196013561
20
85.17823059246572
30
0.0
 70
     32
  0
VERTEX
  8
MY3DLAYER
10
513.5506005562537
20
85.27813101497036
30
0.0
 70
     32
  0
VERTEX
  8
MY3DLAYER
10
513.7577073374401
20
85.43704963756824
30
0.0
 70
     32
  0
VERTEX
  8
MY3DLAYER
10
513.9166259600381
20
85.64415641875479
30
0.0
 70
     32
  0
VERTEX
  8
MY3DLAYER
10
514.0165263825427
20
85.88533737365228
30
0.0
 70
     32
  0
VERTEX
  8
MY3DLAYER
10
514.0506005562537
20
86.14415641875479
30
0.0
 70
     32
  0
VERTEX
  8
MY3DLAYER
10
514.0165263825427
20
86.40297546385732
30
0.0
 70
     32
  0
VERTEX
  8
MY3DLAYER
10
513.9166259600381
20
86.64415641875479
30
0.0
 70
     32
  0
VERTEX
  8
MY3DLAYER
10
513.7577073374401
20
86.85126319994134
30
0.0
 70
     32
  0
VERTEX
  8
MY3DLAYER
10
513.5506005562537
20
87.01018182253922
30
0.0
 70
     32
  0
VERTEX
  8
MY3DLAYER
10
513.3094196013561
20
87.11008224504384
30
0.0
 70
     32
  0
VERTEX
  8
MY3DLAYER
10
513.0506005562536
20
87.14415641875479
30
0.0
 70
     32
  0
VERTEX
  8
MY3DLAYER
10
512.7917815111512
20
87.11008224504387
30
0.0
 70
     32
  0
VERTEX
  8
MY3DLAYER
10
512.5506005562536
20
87.01018182253922
30
0.0
 70
     32
  0
VERTEX
  8
MY3DLAYER
10
512.3434937750671
20
86.85126319994134
30
0.0
 70
     32
  0
VERTEX
  8
MY3DLAYER
10
512.1845751524692
20
86.64415641875479
30
0.0
 70
     32
  0
VERTEX
  8
MY3DLAYER
10
512.0846747299646
20
86.40297546385732
30
0.0
 70
     32
  0
SEQEND
  0
POLYLINE
 8
Layer0
 66
     1
70
    8
 10
0.0
 20
 0.0
 30
0.0
  0
VERTEX
  8
MY3DLAYER
10
454.58467472996455
20
47.40297546385732
30
0.0
 70
     32
  0
VERTEX
  8
MY3DLAYER
10
454.55060055625364
20
47.14415641875479
30
0.0
 70
     32
  0
VERTEX
  8
MY3DLAYER
10
454.58467472996455
20
46.88533737365227
30
0.0
 70
     32
  0
VERTEX
  8
MY3DLAYER
10
454.6845751524692
20
46.64415641875479
30
0.0
 70
     32
  0
VERTEX
  8
MY3DLAYER
10
454.8434937750671
20
46.437049637568244
30
0.0
 70
     32
  0
VERTEX
  8
MY3DLAYER
10
455.05060055625364
20
46.27813101497035
30
0.0
 70
     32
  0
VERTEX
  8
MY3DLAYER
10
455.29178151115116
20
46.178230592465724
30
0.0
 70
     32
  0
VERTEX
  8
MY3DLAYER
10
455.5506005562537
20
46.14415641875479
30
0.0
 70
     32
  0
VERTEX
  8
MY3DLAYER
10
455.8094196013561
20
46.178230592465724
30
0.0
 70
     32
  0
VERTEX
  8
MY3DLAYER
10
456.05060055625364
20
46.27813101497035
30
0.0
 70
     32
  0
VERTEX
  8
MY3DLAYER
10
456.2577073374402
20
46.437049637568244
30
0.0
 70
     32
  0
VERTEX
  8
MY3DLAYER
10
456.41662596003806
20
46.64415641875479
30
0.0
 70
     32
  0
VERTEX
  8
MY3DLAYER
10
456.51652638254274
20
46.88533737365227
30
0.0
 70
     32
  0
VERTEX
  8
MY3DLAYER
10
456.55060055625364
20
47.14415641875479
30
0.0
 70
     32
  0
VERTEX
  8
MY3DLAYER
10
456.51652638254274
20
47.40297546385731
30
0.0
 70
     32
  0
VERTEX
  8
MY3DLAYER
10
456.41662596003806
20
47.64415641875479
30
0.0
 70
     32
  0
VERTEX
  8
MY3DLAYER
10
456.2577073374402
20
47.851263199941336
30
0.0
 70
     32
  0
VERTEX
  8
MY3DLAYER
10
456.05060055625364
20
48.01018182253923
30
0.0
 70
     32
  0
VERTEX
  8
MY3DLAYER
10
455.8094196013561
20
48.110082245043856
30
0.0
 70
     32
  0
VERTEX
  8
MY3DLAYER
10
455.5506005562537
20
48.14415641875479
30
0.0
 70
     32
  0
VERTEX
  8
MY3DLAYER
10
455.29178151115116
20
48.110082245043856
30
0.0
 70
     32
  0
VERTEX
  8
MY3DLAYER
10
455.05060055625364
20
48.01018182253923
30
0.0
 70
     32
  0
VERTEX
  8
MY3DLAYER
10
454.8434937750671
20
47.851263199941336
30
0.0
 70
     32
  0
VERTEX
  8
MY3DLAYER
10
454.6845751524692
20
47.64415641875479
30
0.0
 70
     32
  0
VERTEX
  8
MY3DLAYER
10
454.58467472996455
20
47.40297546385732
30
0.0
 70
     32
  0
SEQEND
  0
POLYLINE
 8
Layer0
 66
     1
70
    8
 10
0.0
 20
 0.0
 30
0.0
  0
VERTEX
  8
MY3DLAYER
10
513.5846747299646
20
47.40297546385732
30
0.0
 70
     32
  0
VERTEX
  8
MY3DLAYER
10
513.5506005562537
20
47.14415641875479
30
0.0
 70
     32
  0
VERTEX
  8
MY3DLAYER
10
513.5846747299646
20
46.88533737365228
30
0.0
 70
     32
  0
VERTEX
  8
MY3DLAYER
10
513.6845751524693
20
46.64415641875479
30
0.0
 70
     32
  0
VERTEX
  8
MY3DLAYER
10
513.8434937750671
20
46.437049637568244
30
0.0
 70
     32
  0
VERTEX
  8
MY3DLAYER
10
514.0506005562537
20
46.27813101497035
30
0.0
 70
     32
  0
VERTEX
  8
MY3DLAYER
10
514.291781511151
20
46.178230592465724
30
0.0
 70
     32
  0
VERTEX
  8
MY3DLAYER
10
514.5506005562536
20
46.14415641875479
30
0.0
 70
     32
  0
VERTEX
  8
MY3DLAYER
10
514.8094196013561
20
46.178230592465724
30
0.0
 70
     32
  0
VERTEX
  8
MY3DLAYER
10
515.0506005562536
20
46.27813101497035
30
0.0
 70
     32
  0
VERTEX
  8
MY3DLAYER
10
515.2577073374403
20
46.437049637568244
30
0.0
 70
     32
  0
VERTEX
  8
MY3DLAYER
10
515.4166259600381
20
46.64415641875479
30
0.0
 70
     32
  0
VERTEX
  8
MY3DLAYER
10
515.5165263825427
20
46.88533737365227
30
0.0
 70
     32
  0
VERTEX
  8
MY3DLAYER
10
515.5506005562537
20
47.14415641875479
30
0.0
 70
     32
  0
VERTEX
  8
MY3DLAYER
10
515.5165263825427
20
47.40297546385732
30
0.0
 70
     32
  0
VERTEX
  8
MY3DLAYER
10
515.4166259600381
20
47.64415641875479
30
0.0
 70
     32
  0
VERTEX
  8
MY3DLAYER
10
515.2577073374403
20
47.851263199941336
30
0.0
 70
     32
  0
VERTEX
  8
MY3DLAYER
10
515.0506005562536
20
48.01018182253923
30
0.0
 70
     32
  0
VERTEX
  8
MY3DLAYER
10
514.8094196013561
20
48.110082245043856
30
0.0
 70
     32
  0
VERTEX
  8
MY3DLAYER
10
514.5506005562536
20
48.14415641875479
30
0.0
 70
     32
  0
VERTEX
  8
MY3DLAYER
10
514.291781511151
20
48.110082245043856
30
0.0
 70
     32
  0
VERTEX
  8
MY3DLAYER
10
514.0506005562537
20
48.01018182253923
30
0.0
 70
     32
  0
VERTEX
  8
MY3DLAYER
10
513.8434937750671
20
47.851263199941336
30
0.0
 70
     32
  0
VERTEX
  8
MY3DLAYER
10
513.6845751524693
20
47.64415641875479
30
0.0
 70
     32
  0
VERTEX
  8
MY3DLAYER
10
513.5846747299646
20
47.40297546385732
30
0.0
 70
     32
  0
SEQEND
  0
POLYLINE
 8
Layer0
 66
     1
70
    8
 10
0.0
 20
 0.0
 30
0.0
  0
VERTEX
  8
MY3DLAYER
10
511.5846747299646
20
134.4029754638573
30
0.0
 70
     32
  0
VERTEX
  8
MY3DLAYER
10
511.5506005562537
20
134.1441564187548
30
0.0
 70
     32
  0
VERTEX
  8
MY3DLAYER
10
511.5846747299646
20
133.88533737365228
30
0.0
 70
     32
  0
VERTEX
  8
MY3DLAYER
10
511.6845751524692
20
133.6441564187548
30
0.0
 70
     32
  0
VERTEX
  8
MY3DLAYER
10
511.84349377506715
20
133.43704963756824
30
0.0
 70
     32
  0
VERTEX
  8
MY3DLAYER
10
512.0506005562537
20
133.27813101497034
30
0.0
 70
     32
  0
VERTEX
  8
MY3DLAYER
10
512.291781511151
20
133.17823059246572
30
0.0
 70
     32
  0
VERTEX
  8
MY3DLAYER
10
512.5506005562536
20
133.1441564187548
30
0.0
 70
     32
  0
VERTEX
  8
MY3DLAYER
10
512.8094196013561
20
133.17823059246572
30
0.0
 70
     32
  0
VERTEX
  8
MY3DLAYER
10
513.0506005562536
20
133.27813101497034
30
0.0
 70
     32
  0
VERTEX
  8
MY3DLAYER
10
513.2577073374403
20
133.43704963756824
30
0.0
 70
     32
  0
VERTEX
  8
MY3DLAYER
10
513.4166259600381
20
133.6441564187548
30
0.0
 70
     32
  0
VERTEX
  8
MY3DLAYER
10
513.5165263825427
20
133.88533737365228
30
0.0
 70
     32
  0
VERTEX
  8
MY3DLAYER
10
513.5506005562537
20
134.1441564187548
30
0.0
 70
     32
  0
VERTEX
  8
MY3DLAYER
10
513.5165263825427
20
134.4029754638573
30
0.0
 70
     32
  0
VERTEX
  8
MY3DLAYER
10
513.4166259600381
20
134.6441564187548
30
0.0
 70
     32
  0
VERTEX
  8
MY3DLAYER
10
513.2577073374403
20
134.85126319994134
30
0.0
 70
     32
  0
VERTEX
  8
MY3DLAYER
10
513.0506005562536
20
135.0101818225392
30
0.0
 70
     32
  0
VERTEX
  8
MY3DLAYER
10
512.8094196013561
20
135.11008224504386
30
0.0
 70
     32
  0
VERTEX
  8
MY3DLAYER
10
512.5506005562536
20
135.1441564187548
30
0.0
 70
     32
  0
VERTEX
  8
MY3DLAYER
10
512.291781511151
20
135.11008224504386
30
0.0
 70
     32
  0
VERTEX
  8
MY3DLAYER
10
512.0506005562537
20
135.0101818225392
30
0.0
 70
     32
  0
VERTEX
  8
MY3DLAYER
10
511.84349377506715
20
134.85126319994134
30
0.0
 70
     32
  0
VERTEX
  8
MY3DLAYER
10
511.6845751524692
20
134.6441564187548
30
0.0
 70
     32
  0
VERTEX
  8
MY3DLAYER
10
511.5846747299646
20
134.4029754638573
30
0.0
 70
     32
  0
SEQEND
  0
POLYLINE
 8
Layer0
 66
     1
70
    8
 10
0.0
 20
 0.0
 30
0.0
  0
VERTEX
  8
MY3DLAYER
10
458.01652638254274
20
85.88533737365228
30
0.0
 70
     32
  0
VERTEX
  8
MY3DLAYER
10
458.05060055625364
20
86.14415641875479
30
0.0
 70
     32
  0
VERTEX
  8
MY3DLAYER
10
458.01652638254274
20
86.40297546385732
30
0.0
 70
     32
  0
VERTEX
  8
MY3DLAYER
10
457.9166259600381
20
86.64415641875479
30
0.0
 70
     32
  0
VERTEX
  8
MY3DLAYER
10
457.7577073374402
20
86.85126319994134
30
0.0
 70
     32
  0
VERTEX
  8
MY3DLAYER
10
457.5506005562537
20
87.01018182253922
30
0.0
 70
     32
  0
VERTEX
  8
MY3DLAYER
10
457.3094196013561
20
87.11008224504384
30
0.0
 70
     32
  0
VERTEX
  8
MY3DLAYER
10
457.0506005562536
20
87.14415641875479
30
0.0
 70
     32
  0
VERTEX
  8
MY3DLAYER
10
456.79178151115116
20
87.11008224504387
30
0.0
 70
     32
  0
VERTEX
  8
MY3DLAYER
10
456.55060055625364
20
87.01018182253922
30
0.0
 70
     32
  0
VERTEX
  8
MY3DLAYER
10
456.3434937750671
20
86.85126319994134
30
0.0
 70
     32
  0
VERTEX
  8
MY3DLAYER
10
456.1845751524692
20
86.64415641875479
30
0.0
 70
     32
  0
VERTEX
  8
MY3DLAYER
10
456.08467472996455
20
86.40297546385732
30
0.0
 70
     32
  0
VERTEX
  8
MY3DLAYER
10
456.05060055625364
20
86.14415641875479
30
0.0
 70
     32
  0
VERTEX
  8
MY3DLAYER
10
456.08467472996455
20
85.88533737365228
30
0.0
 70
     32
  0
VERTEX
  8
MY3DLAYER
10
456.1845751524692
20
85.64415641875479
30
0.0
 70
     32
  0
VERTEX
  8
MY3DLAYER
10
456.3434937750671
20
85.43704963756824
30
0.0
 70
     32
  0
VERTEX
  8
MY3DLAYER
10
456.55060055625364
20
85.27813101497036
30
0.0
 70
     32
  0
VERTEX
  8
MY3DLAYER
10
456.79178151115116
20
85.17823059246572
30
0.0
 70
     32
  0
VERTEX
  8
MY3DLAYER
10
457.0506005562536
20
85.14415641875479
30
0.0
 70
     32
  0
VERTEX
  8
MY3DLAYER
10
457.3094196013561
20
85.17823059246572
30
0.0
 70
     32
  0
VERTEX
  8
MY3DLAYER
10
457.5506005562537
20
85.27813101497036
30
0.0
 70
     32
  0
VERTEX
  8
MY3DLAYER
10
457.7577073374402
20
85.43704963756824
30
0.0
 70
     32
  0
VERTEX
  8
MY3DLAYER
10
457.9166259600381
20
85.64415641875479
30
0.0
 70
     32
  0
VERTEX
  8
MY3DLAYER
10
458.01652638254274
20
85.88533737365228
30
0.0
 70
     32
  0
SEQEND
  0
POLYLINE
 8
Layer0
 66
     1
70
    8
 10
0.0
 20
 0.0
 30
0.0
  0
VERTEX
  8
MY3DLAYER
10
458.51652638254274
20
133.88533737365228
30
0.0
 70
     32
  0
VERTEX
  8
MY3DLAYER
10
458.55060055625364
20
134.1441564187548
30
0.0
 70
     32
  0
VERTEX
  8
MY3DLAYER
10
458.51652638254274
20
134.4029754638573
30
0.0
 70
     32
  0
VERTEX
  8
MY3DLAYER
10
458.41662596003806
20
134.6441564187548
30
0.0
 70
     32
  0
VERTEX
  8
MY3DLAYER
10
458.2577073374402
20
134.85126319994134
30
0.0
 70
     32
  0
VERTEX
  8
MY3DLAYER
10
458.05060055625364
20
135.0101818225392
30
0.0
 70
     32
  0
VERTEX
  8
MY3DLAYER
10
457.8094196013561
20
135.11008224504386
30
0.0
 70
     32
  0
VERTEX
  8
MY3DLAYER
10
457.5506005562537
20
135.1441564187548
30
0.0
 70
     32
  0
VERTEX
  8
MY3DLAYER
10
457.29178151115116
20
135.11008224504386
30
0.0
 70
     32
  0
VERTEX
  8
MY3DLAYER
10
457.0506005562536
20
135.0101818225392
30
0.0
 70
     32
  0
VERTEX
  8
MY3DLAYER
10
456.8434937750671
20
134.85126319994134
30
0.0
 70
     32
  0
VERTEX
  8
MY3DLAYER
10
456.6845751524692
20
134.6441564187548
30
0.0
 70
     32
  0
VERTEX
  8
MY3DLAYER
10
456.58467472996455
20
134.4029754638573
30
0.0
 70
     32
  0
VERTEX
  8
MY3DLAYER
10
456.55060055625364
20
134.1441564187548
30
0.0
 70
     32
  0
VERTEX
  8
MY3DLAYER
10
456.58467472996455
20
133.88533737365228
30
0.0
 70
     32
  0
VERTEX
  8
MY3DLAYER
10
456.6845751524692
20
133.6441564187548
30
0.0
 70
     32
  0
VERTEX
  8
MY3DLAYER
10
456.8434937750671
20
133.43704963756824
30
0.0
 70
     32
  0
VERTEX
  8
MY3DLAYER
10
457.0506005562536
20
133.27813101497034
30
0.0
 70
     32
  0
VERTEX
  8
MY3DLAYER
10
457.29178151115116
20
133.17823059246572
30
0.0
 70
     32
  0
VERTEX
  8
MY3DLAYER
10
457.5506005562537
20
133.1441564187548
30
0.0
 70
     32
  0
VERTEX
  8
MY3DLAYER
10
457.8094196013561
20
133.17823059246572
30
0.0
 70
     32
  0
VERTEX
  8
MY3DLAYER
10
458.05060055625364
20
133.27813101497034
30
0.0
 70
     32
  0
VERTEX
  8
MY3DLAYER
10
458.2577073374402
20
133.43704963756824
30
0.0
 70
     32
  0
VERTEX
  8
MY3DLAYER
10
458.41662596003806
20
133.6441564187548
30
0.0
 70
     32
  0
VERTEX
  8
MY3DLAYER
10
458.51652638254274
20
133.88533737365228
30
0.0
 70
     32
  0
SEQEND
  0
POLYLINE
 8
Layer0
 66
     1
70
    8
 10
0.0
 20
 0.0
 30
0.0
  0
VERTEX
  8
MY3DLAYER
10
486.0165263825428
20
66.88533737365226
30
0.0
 70
     32
  0
VERTEX
  8
MY3DLAYER
10
486.0506005562536
20
67.14415641875479
30
0.0
 70
     32
  0
VERTEX
  8
MY3DLAYER
10
486.0165263825428
20
67.40297546385732
30
0.0
 70
     32
  0
VERTEX
  8
MY3DLAYER
10
485.91662596003806
20
67.64415641875479
30
0.0
 70
     32
  0
VERTEX
  8
MY3DLAYER
10
485.75770733744025
20
67.85126319994134
30
0.0
 70
     32
  0
VERTEX
  8
MY3DLAYER
10
485.5506005562537
20
68.01018182253922
30
0.0
 70
     32
  0
VERTEX
  8
MY3DLAYER
10
485.3094196013562
20
68.11008224504386
30
0.0
 70
     32
  0
VERTEX
  8
MY3DLAYER
10
485.05060055625364
20
68.14415641875479
30
0.0
 70
     32
  0
VERTEX
  8
MY3DLAYER
10
484.7917815111511
20
68.11008224504386
30
0.0
 70
     32
  0
VERTEX
  8
MY3DLAYER
10
484.5506005562537
20
68.01018182253922
30
0.0
 70
     32
  0
VERTEX
  8
MY3DLAYER
10
484.34349377506703
20
67.85126319994134
30
0.0
 70
     32
  0
VERTEX
  8
MY3DLAYER
10
484.1845751524693
20
67.64415641875479
30
0.0
 70
     32
  0
VERTEX
  8
MY3DLAYER
10
484.08467472996455
20
67.40297546385732
30
0.0
 70
     32
  0
VERTEX
  8
MY3DLAYER
10
484.0506005562537
20
67.14415641875479
30
0.0
 70
     32
  0
VERTEX
  8
MY3DLAYER
10
484.08467472996455
20
66.88533737365226
30
0.0
 70
     32
  0
VERTEX
  8
MY3DLAYER
10
484.1845751524693
20
66.64415641875479
30
0.0
 70
     32
  0
VERTEX
  8
MY3DLAYER
10
484.34349377506703
20
66.43704963756824
30
0.0
 70
     32
  0
VERTEX
  8
MY3DLAYER
10
484.5506005562536
20
66.27813101497036
30
0.0
 70
     32
  0
VERTEX
  8
MY3DLAYER
10
484.7917815111511
20
66.17823059246572
30
0.0
 70
     32
  0
VERTEX
  8
MY3DLAYER
10
485.05060055625364
20
66.14415641875479
30
0.0
 70
     32
  0
VERTEX
  8
MY3DLAYER
10
485.3094196013562
20
66.17823059246571
30
0.0
 70
     32
  0
VERTEX
  8
MY3DLAYER
10
485.55060055625364
20
66.27813101497036
30
0.0
 70
     32
  0
VERTEX
  8
MY3DLAYER
10
485.75770733744025
20
66.43704963756824
30
0.0
 70
     32
  0
VERTEX
  8
MY3DLAYER
10
485.91662596003806
20
66.64415641875479
30
0.0
 70
     32
  0
VERTEX
  8
MY3DLAYER
10
486.0165263825428
20
66.88533737365226
30
0.0
 70
     32
  0
SEQEND
  0
POLYLINE
 8
Layer0
 66
     1
70
    8
 10
0.0
 20
 0.0
 30
0.0
  0
VERTEX
  8
MY3DLAYER
10
480.5423567419484
20
65.47941548870412
30
0.0
 70
     32
  0
VERTEX
  8
MY3DLAYER
10
480.0506005562535
20
65.5441564187549
30
0.0
 70
     32
  0
VERTEX
  8
MY3DLAYER
10
479.5588443705588
20
65.47941548870412
30
0.0
 70
     32
  0
VERTEX
  8
MY3DLAYER
10
479.10060055625354
20
65.28960468594533
30
0.0
 70
     32
  0
VERTEX
  8
MY3DLAYER
10
478.70709767199907
20
64.98765930300932
30
0.0
 70
     32
  0
VERTEX
  8
MY3DLAYER
10
478.4051522890631
20
64.59415641875488
30
0.0
 70
     32
  0
VERTEX
  8
MY3DLAYER
10
478.21534148630434
20
64.13591260444967
30
0.0
 70
     32
  0
VERTEX
  8
MY3DLAYER
10
478.1506005562536
20
63.644156418754875
30
0.0
 70
     32
  0
VERTEX
  8
MY3DLAYER
10
478.21534148630434
20
63.15240023306008
30
0.0
 70
     32
  0
VERTEX
  8
MY3DLAYER
10
478.4051522890631
20
62.694156418754865
30
0.0
 70
     32
  0
VERTEX
  8
MY3DLAYER
10
478.70709767199907
20
62.30065353450042
30
0.0
 70
     32
  0
VERTEX
  8
MY3DLAYER
10
479.10060055625354
20
61.99870815156443
30
0.0
 70
     32
  0
VERTEX
  8
MY3DLAYER
10
479.5588443705588
20
61.80889734880563
30
0.0
 70
     32
  0
VERTEX
  8
MY3DLAYER
10
480.0506005562535
20
61.744156418754855
30
0.0
 70
     32
  0
VERTEX
  8
MY3DLAYER
10
480.5423567419484
20
61.80889734880563
30
0.0
 70
     32
  0
VERTEX
  8
MY3DLAYER
10
481.0006005562536
20
61.998708151564415
30
0.0
 70
     32
  0
VERTEX
  8
MY3DLAYER
10
481.394103440508
20
62.30065353450042
30
0.0
 70
     32
  0
VERTEX
  8
MY3DLAYER
10
481.696048823444
20
62.694156418754865
30
0.0
 70
     32
  0
VERTEX
  8
MY3DLAYER
10
481.88585962620283
20
63.15240023306008
30
0.0
 70
     32
  0
VERTEX
  8
MY3DLAYER
10
481.9506005562536
20
63.644156418754875
30
0.0
 70
     32
  0
VERTEX
  8
MY3DLAYER
10
481.88585962620283
20
64.13591260444967
30
0.0
 70
     32
  0
VERTEX
  8
MY3DLAYER
10
481.696048823444
20
64.59415641875488
30
0.0
 70
     32
  0
VERTEX
  8
MY3DLAYER
10
481.394103440508
20
64.98765930300932
30
0.0
 70
     32
  0
VERTEX
  8
MY3DLAYER
10
481.0006005562536
20
65.28960468594533
30
0.0
 70
     32
  0
VERTEX
  8
MY3DLAYER
10
480.5423567419484
20
65.47941548870412
30
0.0
 70
     32
  0
SEQEND
  0
POLYLINE
 8
Layer0
 66
     1
70
    8
 10
0.0
 20
 0.0
 30
0.0
  0
VERTEX
  8
MY3DLAYER
10
490.56823864645867
20
53.576008071333014
30
0.0
 70
     32
  0
VERTEX
  8
MY3DLAYER
10
490.0506005562537
20
53.64415641875487
30
0.0
 70
     32
  0
VERTEX
  8
MY3DLAYER
10
489.53296246604873
20
53.576008071333014
30
0.0
 70
     32
  0
VERTEX
  8
MY3DLAYER
10
489.05060055625364
20
53.37620722632375
30
0.0
 70
     32
  0
VERTEX
  8
MY3DLAYER
10
488.6363869938806
20
53.058369981127974
30
0.0
 70
     32
  0
VERTEX
  8
MY3DLAYER
10
488.3185497486848
20
52.64415641875487
30
0.0
 70
     32
  0
VERTEX
  8
MY3DLAYER
10
488.1187489036755
20
52.161794508959915
30
0.0
 70
     32
  0
VERTEX
  8
MY3DLAYER
10
488.0506005562537
20
51.644156418754875
30
0.0
 70
     32
  0
VERTEX
  8
MY3DLAYER
10
488.1187489036755
20
51.12651832854983
30
0.0
 70
     32
  0
VERTEX
  8
MY3DLAYER
10
488.3185497486848
20
50.644156418754875
30
0.0
 70
     32
  0
VERTEX
  8
MY3DLAYER
10
488.6363869938806
20
50.229942856381776
30
0.0
 70
     32
  0
VERTEX
  8
MY3DLAYER
10
489.05060055625364
20
49.91210561118599
30
0.0
 70
     32
  0
VERTEX
  8
MY3DLAYER
10
489.53296246604873
20
49.712304766176736
30
0.0
 70
     32
  0
VERTEX
  8
MY3DLAYER
10
490.0506005562537
20
49.64415641875487
30
0.0
 70
     32
  0
VERTEX
  8
MY3DLAYER
10
490.56823864645867
20
49.712304766176736
30
0.0
 70
     32
  0
VERTEX
  8
MY3DLAYER
10
491.05060055625376
20
49.91210561118599
30
0.0
 70
     32
  0
VERTEX
  8
MY3DLAYER
10
491.4648141186268
20
50.229942856381776
30
0.0
 70
     32
  0
VERTEX
  8
MY3DLAYER
10
491.78265136382254
20
50.64415641875487
30
0.0
 70
     32
  0
VERTEX
  8
MY3DLAYER
10
491.98245220883183
20
51.12651832854983
30
0.0
 70
     32
  0
VERTEX
  8
MY3DLAYER
10
492.0506005562537
20
51.644156418754875
30
0.0
 70
     32
  0
VERTEX
  8
MY3DLAYER
10
491.98245220883183
20
52.161794508959915
30
0.0
 70
     32
  0
VERTEX
  8
MY3DLAYER
10
491.78265136382254
20
52.64415641875487
30
0.0
 70
     32
  0
VERTEX
  8
MY3DLAYER
10
491.4648141186268
20
53.058369981127974
30
0.0
 70
     32
  0
VERTEX
  8
MY3DLAYER
10
491.05060055625376
20
53.37620722632375
30
0.0
 70
     32
  0
VERTEX
  8
MY3DLAYER
10
490.56823864645867
20
53.576008071333014
30
0.0
 70
     32
  0
SEQEND
  0
POLYLINE
 8
Layer0
 66
     1
70
    8
 10
0.0
 20
 0.0
 30
0.0
  0
VERTEX
  8
MY3DLAYER
10
479.53296246604856
20
53.57600807133301
30
0.0
 70
     32
  0
VERTEX
  8
MY3DLAYER
10
479.0506005562536
20
53.37620722632375
30
0.0
 70
     32
  0
VERTEX
  8
MY3DLAYER
10
478.63638699388054
20
53.05836998112796
30
0.0
 70
     32
  0
VERTEX
  8
MY3DLAYER
10
478.31854974868475
20
52.64415641875487
30
0.0
 70
     32
  0
VERTEX
  8
MY3DLAYER
10
478.11874890367545
20
52.161794508959915
30
0.0
 70
     32
  0
VERTEX
  8
MY3DLAYER
10
478.05060055625364
20
51.644156418754875
30
0.0
 70
     32
  0
VERTEX
  8
MY3DLAYER
10
478.11874890367545
20
51.12651832854983
30
0.0
 70
     32
  0
VERTEX
  8
MY3DLAYER
10
478.31854974868475
20
50.644156418754875
30
0.0
 70
     32
  0
VERTEX
  8
MY3DLAYER
10
478.63638699388054
20
50.22994285638178
30
0.0
 70
     32
  0
VERTEX
  8
MY3DLAYER
10
479.0506005562536
20
49.912105611186
30
0.0
 70
     32
  0
VERTEX
  8
MY3DLAYER
10
479.53296246604856
20
49.71230476617674
30
0.0
 70
     32
  0
VERTEX
  8
MY3DLAYER
10
480.0506005562535
20
49.644156418754875
30
0.0
 70
     32
  0
VERTEX
  8
MY3DLAYER
10
480.5682386464586
20
49.71230476617674
30
0.0
 70
     32
  0
VERTEX
  8
MY3DLAYER
10
481.0506005562536
20
49.912105611186
30
0.0
 70
     32
  0
VERTEX
  8
MY3DLAYER
10
481.4648141186267
20
50.22994285638178
30
0.0
 70
     32
  0
VERTEX
  8
MY3DLAYER
10
481.7826513638225
20
50.644156418754875
30
0.0
 70
     32
  0
VERTEX
  8
MY3DLAYER
10
481.9824522088317
20
51.12651832854983
30
0.0
 70
     32
  0
VERTEX
  8
MY3DLAYER
10
482.0506005562536
20
51.644156418754875
30
0.0
 70
     32
  0
VERTEX
  8
MY3DLAYER
10
481.9824522088317
20
52.16179450895991
30
0.0
 70
     32
  0
VERTEX
  8
MY3DLAYER
10
481.7826513638225
20
52.64415641875487
30
0.0
 70
     32
  0
VERTEX
  8
MY3DLAYER
10
481.4648141186267
20
53.05836998112796
30
0.0
 70
     32
  0
VERTEX
  8
MY3DLAYER
10
481.0506005562536
20
53.37620722632375
30
0.0
 70
     32
  0
VERTEX
  8
MY3DLAYER
10
480.5682386464586
20
53.57600807133301
30
0.0
 70
     32
  0
VERTEX
  8
MY3DLAYER
10
480.0506005562535
20
53.64415641875487
30
0.0
 70
     32
  0
VERTEX
  8
MY3DLAYER
10
479.53296246604856
20
53.57600807133301
30
0.0
 70
     32
  0
SEQEND
  0
POLYLINE
 8
Layer0
 66
     1
70
    8
 10
0.0
 20
 0.0
 30
0.0
  0
VERTEX
  8
MY3DLAYER
10
489.5070805615384
20
61.61571218354781
30
0.0
 70
     32
  0
VERTEX
  8
MY3DLAYER
10
490.0506005562537
20
61.54415641875485
30
0.0
 70
     32
  0
VERTEX
  8
MY3DLAYER
10
490.594120550969
20
61.61571218354781
30
0.0
 70
     32
  0
VERTEX
  8
MY3DLAYER
10
491.1006005562537
20
61.825503070807535
30
0.0
 70
     32
  0
VERTEX
  8
MY3DLAYER
10
491.5355247967455
20
62.1592321782631
30
0.0
 70
     32
  0
VERTEX
  8
MY3DLAYER
10
491.869253904201
20
62.594156418754864
30
0.0
 70
     32
  0
VERTEX
  8
MY3DLAYER
10
492.0790447914607
20
63.10063642403957
30
0.0
 70
     32
  0
VERTEX
  8
MY3DLAYER
10
492.15060055625366
20
63.644156418754875
30
0.0
 70
     32
  0
VERTEX
  8
MY3DLAYER
10
492.0790447914607
20
64.18767641347017
30
0.0
 70
     32
  0
VERTEX
  8
MY3DLAYER
10
491.869253904201
20
64.69415641875489
30
0.0
 70
     32
  0
VERTEX
  8
MY3DLAYER
10
491.5355247967455
20
65.12908065924664
30
0.0
 70
     32
  0
VERTEX
  8
MY3DLAYER
10
491.1006005562537
20
65.46280976670221
30
0.0
 70
     32
  0
VERTEX
  8
MY3DLAYER
10
490.594120550969
20
65.67260065396194
30
0.0
 70
     32
  0
VERTEX
  8
MY3DLAYER
10
490.0506005562537
20
65.7441564187549
30
0.0
 70
     32
  0
VERTEX
  8
MY3DLAYER
10
489.5070805615384
20
65.67260065396194
30
0.0
 70
     32
  0
VERTEX
  8
MY3DLAYER
10
489.00060055625363
20
65.46280976670221
30
0.0
 70
     32
  0
VERTEX
  8
MY3DLAYER
10
488.5656763157619
20
65.12908065924664
30
0.0
 70
     32
  0
VERTEX
  8
MY3DLAYER
10
488.23194720830634
20
64.69415641875489
30
0.0
 70
     32
  0
VERTEX
  8
MY3DLAYER
10
488.0221563210466
20
64.18767641347017
30
0.0
 70
     32
  0
VERTEX
  8
MY3DLAYER
10
487.95060055625373
20
63.644156418754875
30
0.0
 70
     32
  0
VERTEX
  8
MY3DLAYER
10
488.0221563210466
20
63.10063642403957
30
0.0
 70
     32
  0
VERTEX
  8
MY3DLAYER
10
488.23194720830634
20
62.594156418754864
30
0.0
 70
     32
  0
VERTEX
  8
MY3DLAYER
10
488.5656763157619
20
62.1592321782631
30
0.0
 70
     32
  0
VERTEX
  8
MY3DLAYER
10
489.00060055625363
20
61.825503070807535
30
0.0
 70
     32
  0
VERTEX
  8
MY3DLAYER
10
489.5070805615384
20
61.61571218354781
30
0.0
 70
     32
  0
SEQEND
  0
POLYLINE
 8
Layer0
 66
     1
70
    8
 10
0.0
 20
 0.0
 30
0.0
  0
VERTEX
  8
MY3DLAYER
10
485.3094196013562
20
48.110082245043856
30
0.0
 70
     32
  0
VERTEX
  8
MY3DLAYER
10
485.05060055625364
20
48.14415641875479
30
0.0
 70
     32
  0
VERTEX
  8
MY3DLAYER
10
484.7917815111511
20
48.110082245043856
30
0.0
 70
     32
  0
VERTEX
  8
MY3DLAYER
10
484.5506005562537
20
48.01018182253923
30
0.0
 70
     32
  0
VERTEX
  8
MY3DLAYER
10
484.34349377506703
20
47.851263199941336
30
0.0
 70
     32
  0
VERTEX
  8
MY3DLAYER
10
484.18457515246917
20
47.64415641875479
30
0.0
 70
     32
  0
VERTEX
  8
MY3DLAYER
10
484.08467472996455
20
47.40297546385732
30
0.0
 70
     32
  0
VERTEX
  8
MY3DLAYER
10
484.0506005562536
20
47.14415641875479
30
0.0
 70
     32
  0
VERTEX
  8
MY3DLAYER
10
484.08467472996455
20
46.88533737365228
30
0.0
 70
     32
  0
VERTEX
  8
MY3DLAYER
10
484.18457515246917
20
46.64415641875479
30
0.0
 70
     32
  0
VERTEX
  8
MY3DLAYER
10
484.34349377506703
20
46.437049637568244
30
0.0
 70
     32
  0
VERTEX
  8
MY3DLAYER
10
484.5506005562537
20
46.27813101497035
30
0.0
 70
     32
  0
VERTEX
  8
MY3DLAYER
10
484.7917815111511
20
46.178230592465724
30
0.0
 70
     32
  0
VERTEX
  8
MY3DLAYER
10
485.05060055625364
20
46.14415641875479
30
0.0
 70
     32
  0
VERTEX
  8
MY3DLAYER
10
485.3094196013562
20
46.178230592465724
30
0.0
 70
     32
  0
VERTEX
  8
MY3DLAYER
10
485.55060055625364
20
46.27813101497035
30
0.0
 70
     32
  0
VERTEX
  8
MY3DLAYER
10
485.75770733744014
20
46.437049637568244
30
0.0
 70
     32
  0
VERTEX
  8
MY3DLAYER
10
485.91662596003806
20
46.64415641875479
30
0.0
 70
     32
  0
VERTEX
  8
MY3DLAYER
10
486.0165263825427
20
46.88533737365227
30
0.0
 70
     32
  0
VERTEX
  8
MY3DLAYER
10
486.0506005562536
20
47.14415641875479
30
0.0
 70
     32
  0
VERTEX
  8
MY3DLAYER
10
486.0165263825427
20
47.40297546385732
30
0.0
 70
     32
  0
VERTEX
  8
MY3DLAYER
10
485.91662596003806
20
47.64415641875479
30
0.0
 70
     32
  0
VERTEX
  8
MY3DLAYER
10
485.75770733744014
20
47.851263199941336
30
0.0
 70
     32
  0
VERTEX
  8
MY3DLAYER
10
485.55060055625364
20
48.01018182253923
30
0.0
 70
     32
  0
VERTEX
  8
MY3DLAYER
10
485.3094196013562
20
48.110082245043856
30
0.0
 70
     32
  0
SEQEND
  0
POLYLINE
 8
Layer0
 66
     1
70
    8
 10
0.0
 20
 0.0
 30
0.0
  0
VERTEX
  8
MY3DLAYER
10
483.55060055625364
20
30.144156418754793
30
0.0
 70
     32
  0
VERTEX
  8
MY3DLAYER
10
486.5506005562537
20
30.144156418754793
30
0.0
 70
     32
  0
VERTEX
  8
MY3DLAYER
10
486.5506005562537
20
40.14415641875479
30
0.0
 70
     32
  0
VERTEX
  8
MY3DLAYER
10
483.55060055625364
20
40.14415641875479
30
0.0
 70
     32
  0
VERTEX
  8
MY3DLAYER
10
483.55060055625364
20
30.144156418754793
30
0.0
 70
     32
  0
SEQEND
  0
POLYLINE
 8
Layer0
 66
     1
70
    8
 10
0.0
 20
 0.0
 30
0.0
  0
VERTEX
  8
MY3DLAYER
10
511.9035529434973
20
31.72934185303213
30
0.0
 70
     32
  0
VERTEX
  8
MY3DLAYER
10
512.5506005562536
20
31.644156418754797
30
0.0
 70
     32
  0
VERTEX
  8
MY3DLAYER
10
513.19764816901
20
31.72934185303213
30
0.0
 70
     32
  0
VERTEX
  8
MY3DLAYER
10
513.8006005562536
20
31.9790929092937
30
0.0
 70
     32
  0
VERTEX
  8
MY3DLAYER
10
514.31836750922
20
32.37638946578843
30
0.0
 70
     32
  0
VERTEX
  8
MY3DLAYER
10
514.7156640657147
20
32.8941564187548
30
0.0
 70
     32
  0
VERTEX
  8
MY3DLAYER
10
514.9654151219763
20
33.497108805998494
30
0.0
 70
     32
  0
VERTEX
  8
MY3DLAYER
10
515.0506005562536
20
34.1441564187548
30
0.0
 70
     32
  0
VERTEX
  8
MY3DLAYER
10
514.9654151219763
20
34.7912040315111
30
0.0
 70
     32
  0
VERTEX
  8
MY3DLAYER
10
514.7156640657147
20
35.3941564187548
30
0.0
 70
     32
  0
VERTEX
  8
MY3DLAYER
10
514.31836750922
20
35.911923371721166
30
0.0
 70
     32
  0
VERTEX
  8
MY3DLAYER
10
513.8006005562536
20
36.309219928215896
30
0.0
 70
     32
  0
VERTEX
  8
MY3DLAYER
10
513.19764816901
20
36.55897098447747
30
0.0
 70
     32
  0
VERTEX
  8
MY3DLAYER
10
512.5506005562536
20
36.6441564187548
30
0.0
 70
     32
  0
VERTEX
  8
MY3DLAYER
10
511.9035529434973
20
36.55897098447747
30
0.0
 70
     32
  0
VERTEX
  8
MY3DLAYER
10
511.30060055625364
20
36.309219928215896
30
0.0
 70
     32
  0
VERTEX
  8
MY3DLAYER
10
510.7828336032872
20
35.911923371721166
30
0.0
 70
     32
  0
VERTEX
  8
MY3DLAYER
10
510.38553704679254
20
35.394156418754804
30
0.0
 70
     32
  0
VERTEX
  8
MY3DLAYER
10
510.13578599053096
20
34.7912040315111
30
0.0
 70
     32
  0
VERTEX
  8
MY3DLAYER
10
510.05060055625364
20
34.1441564187548
30
0.0
 70
     32
  0
VERTEX
  8
MY3DLAYER
10
510.13578599053096
20
33.497108805998494
30
0.0
 70
     32
  0
VERTEX
  8
MY3DLAYER
10
510.38553704679254
20
32.8941564187548
30
0.0
 70
     32
  0
VERTEX
  8
MY3DLAYER
10
510.7828336032872
20
32.37638946578843
30
0.0
 70
     32
  0
VERTEX
  8
MY3DLAYER
10
511.30060055625364
20
31.9790929092937
30
0.0
 70
     32
  0
VERTEX
  8
MY3DLAYER
10
511.9035529434973
20
31.72934185303213
30
0.0
 70
     32
  0
SEQEND
  0
POLYLINE
 8
Layer0
 66
     1
70
    8
 10
0.0
 20
 0.0
 30
0.0
  0
VERTEX
  8
MY3DLAYER
10
480.7225192917013
20
101.57459313284097
30
0.0
 70
     32
  0
VERTEX
  8
MY3DLAYER
10
474.53748532966085
20
101.57459313284124
30
0.0
 70
     32
  0
VERTEX
  8
MY3DLAYER
10
474.58940208359394
20
100.0049899470147
30
0.0
 70
     32
  0
VERTEX
  8
MY3DLAYER
10
474.79792955870136
20
96.22478586575487
30
0.0
 70
     32
  0
VERTEX
  8
MY3DLAYER
10
475.0897261664037
20
92.45009629658774
30
0.0
 70
     32
  0
VERTEX
  8
MY3DLAYER
10
475.46465013196644
20
88.68275524169314
30
0.0
 70
     32
  0
VERTEX
  8
MY3DLAYER
10
475.7998522663422
20
85.85634169520996
30
0.0
 70
     32
  0
VERTEX
  8
MY3DLAYER
10
475.9225192917013
20
84.92459313284093
30
0.0
 70
     32
  0
VERTEX
  8
MY3DLAYER
10
475.79985226634204
20
83.99284457047186
30
0.0
 70
     32
  0
VERTEX
  8
MY3DLAYER
10
475.4402107453253
20
83.12459313284114
30
0.0
 70
     32
  0
VERTEX
  8
MY3DLAYER
10
474.86810370397325
20
82.37900872056943
30
0.0
 70
     32
  0
VERTEX
  8
MY3DLAYER
10
474.12251929170134
20
81.80690167921716
30
0.0
 70
     32
  0
VERTEX
  8
MY3DLAYER
10
473.2542678540707
20
81.44726015820028
30
0.0
 70
     32
  0
VERTEX
  8
MY3DLAYER
10
472.3225192917014
20
81.32459313284107
30
0.0
 70
     32
  0
VERTEX
  8
MY3DLAYER
10
471.3907707293324
20
81.44726015820054
30
0.0
 70
     32
  0
VERTEX
  8
MY3DLAYER
10
470.52251929170177
20
81.806901679217
30
0.0
 70
     32
  0
VERTEX
  8
MY3DLAYER
10
469.7769348794297
20
82.37900872056967
30
0.0
 70
     32
  0
VERTEX
  8
MY3DLAYER
10
469.2048278380773
20
83.12459313284091
30
0.0
 70
     32
  0
VERTEX
  8
MY3DLAYER
10
468.84518631706084
20
83.99284457047203
30
0.0
 70
     32
  0
VERTEX
  8
MY3DLAYER
10
468.72251929170113
20
84.92459313284095
30
0.0
 70
     32
  0
VERTEX
  8
MY3DLAYER
10
468.84518631706055
20
85.85634169520992
30
0.0
 70
     32
  0
VERTEX
  8
MY3DLAYER
10
469.18038845143616
20
88.68275524169276
30
0.0
 70
     32
  0
VERTEX
  8
MY3DLAYER
10
469.55531241699873
20
92.45009629658763
30
0.0
 70
     32
  0
VERTEX
  8
MY3DLAYER
10
469.8471090247009
20
96.22478586575487
30
0.0
 70
     32
  0
VERTEX
  8
MY3DLAYER
10
470.05563649980843
20
100.00498994701464
30
0.0
 70
     32
  0
VERTEX
  8
MY3DLAYER
10
470.1075532537414
20
101.57459313284085
30
0.0
 70
     32
  0
VERTEX
  8
MY3DLAYER
10
470.1807935254204
20
103.78887185885957
30
0.0
 70
     32
  0
VERTEX
  8
MY3DLAYER
10
470.2225192917008
20
107.57459313284114
30
0.0
 70
     32
  0
VERTEX
  8
MY3DLAYER
10
470.1807935254204
20
111.36031440682241
30
0.0
 70
     32
  0
VERTEX
  8
MY3DLAYER
10
470.1075532537414
20
113.57459313284107
30
0.0
 70
     32
  0
VERTEX
  8
MY3DLAYER
10
470.0556364998079
20
115.14419631866734
30
0.0
 70
     32
  0
VERTEX
  8
MY3DLAYER
10
469.8471090247009
20
118.92440039992702
30
0.0
 70
     32
  0
VERTEX
  8
MY3DLAYER
10
469.555312416998
20
122.69908996909449
30
0.0
 70
     32
  0
VERTEX
  8
MY3DLAYER
10
469.18038845143565
20
126.46643102398917
30
0.0
 70
     32
  0
VERTEX
  8
MY3DLAYER
10
468.8451863170604
20
129.29284457047186
30
0.0
 70
     32
  0
VERTEX
  8
MY3DLAYER
10
468.72251929170056
20
130.2245931328411
30
0.0
 70
     32
  0
VERTEX
  8
MY3DLAYER
10
468.8451863170602
20
131.15634169521002
30
0.0
 70
     32
  0
VERTEX
  8
MY3DLAYER
10
469.20482783807677
20
132.02459313284115
30
0.0
 70
     32
  0
VERTEX
  8
MY3DLAYER
10
469.7769348794291
20
132.77017754511263
30
0.0
 70
     32
  0
VERTEX
  8
MY3DLAYER
10
470.5225192917009
20
133.34228458646484
30
0.0
 70
     32
  0
VERTEX
  8
MY3DLAYER
10
471.39077072933173
20
133.7019261074816
30
0.0
 70
     32
  0
VERTEX
  8
MY3DLAYER
10
472.3225192917008
20
133.82459313284116
30
0.0
 70
     32
  0
VERTEX
  8
MY3DLAYER
10
473.2542678540696
20
133.70192610748163
30
0.0
 70
     32
  0
VERTEX
  8
MY3DLAYER
10
474.12251929170077
20
133.34228458646498
30
0.0
 70
     32
  0
VERTEX
  8
MY3DLAYER
10
474.86810370397234
20
132.77017754511277
30
0.0
 70
     32
  0
VERTEX
  8
MY3DLAYER
10
475.44021074532475
20
132.02459313284115
30
0.0
 70
     32
  0
VERTEX
  8
MY3DLAYER
10
475.7998522663413
20
131.15634169521027
30
0.0
 70
     32
  0
VERTEX
  8
MY3DLAYER
10
475.92251929170095
20
130.22459313284125
30
0.0
 70
     32
  0
VERTEX
  8
MY3DLAYER
10
475.7998522663413
20
129.29284457047208
30
0.0
 70
     32
  0
VERTEX
  8
MY3DLAYER
10
475.4646501319657
20
126.46643102398917
30
0.0
 70
     32
  0
VERTEX
  8
MY3DLAYER
10
475.0897261664035
20
122.69908996909462
30
0.0
 70
     32
  0
VERTEX
  8
MY3DLAYER
10
474.79792955870096
20
118.92440039992702
30
0.0
 70
     32
  0
VERTEX
  8
MY3DLAYER
10
474.58940208359394
20
115.14419631866753
30
0.0
 70
     32
  0
VERTEX
  8
MY3DLAYER
10
474.5374853296607
20
113.57459313284112
30
0.0
 70
     32
  0
VERTEX
  8
MY3DLAYER
10
480.7225192917009
20
113.57459313284116
30
0.0
 70
     32
  0
VERTEX
  8
MY3DLAYER
10
482.2754335623161
20
113.37014809057544
30
0.0
 70
     32
  0
VERTEX
  8
MY3DLAYER
10
483.72251929170096
20
112.77074555554773
30
0.0
 70
     32
  0
VERTEX
  8
MY3DLAYER
10
484.9651599788201
20
111.81723381996046
30
0.0
 70
     32
  0
VERTEX
  8
MY3DLAYER
10
485.9186717144076
20
110.57459313284112
30
0.0
 70
     32
  0
VERTEX
  8
MY3DLAYER
10
486.51807424943553
20
109.12750740345624
30
0.0
 70
     32
  0
VERTEX
  8
MY3DLAYER
10
486.7225192917012
20
107.57459313284129
30
0.0
 70
     32
  0
VERTEX
  8
MY3DLAYER
10
486.51807424943553
20
106.02167886222601
30
0.0
 70
     32
  0
VERTEX
  8
MY3DLAYER
10
485.91867171440776
20
104.57459313284089
30
0.0
 70
     32
  0
VERTEX
  8
MY3DLAYER
10
484.9651599788203
20
103.33195244572185
30
0.0
 70
     32
  0
VERTEX
  8
MY3DLAYER
10
483.72251929170113
20
102.37844071013461
30
0.0
 70
     32
  0
VERTEX
  8
MY3DLAYER
10
482.2754335623161
20
101.7790381751065
30
0.0
 70
     32
  0
VERTEX
  8
MY3DLAYER
10
480.7225192917013
20
101.57459313284097
30
0.0
 70
     32
  0
SEQEND
  0
POLYLINE
 8
Layer0
 66
     1
70
    8
 10
0.0
 20
 0.0
 30
0.0
  0
VERTEX
  8
MY3DLAYER
10
471.80488120149596
20
128.292741480263
30
0.0
 70
     32
  0
VERTEX
  8
MY3DLAYER
10
472.32251929170064
20
128.22459313284114
30
0.0
 70
     32
  0
VERTEX
  8
MY3DLAYER
10
472.8401573819059
20
128.29274148026303
30
0.0
 70
     32
  0
VERTEX
  8
MY3DLAYER
10
473.3225192917006
20
128.49254232527235
30
0.0
 70
     32
  0
VERTEX
  8
MY3DLAYER
10
473.7367328540737
20
128.81037957046806
30
0.0
 70
     32
  0
VERTEX
  8
MY3DLAYER
10
474.0545700992694
20
129.22459313284125
30
0.0
 70
     32
  0
VERTEX
  8
MY3DLAYER
10
474.2543709442791
20
129.70695504263608
30
0.0
 70
     32
  0
VERTEX
  8
MY3DLAYER
10
474.3225192917009
20
130.22459313284122
30
0.0
 70
     32
  0
VERTEX
  8
MY3DLAYER
10
474.25437094427855
20
130.7422312230462
30
0.0
 70
     32
  0
VERTEX
  8
MY3DLAYER
10
474.0545700992694
20
131.2245931328411
30
0.0
 70
     32
  0
VERTEX
  8
MY3DLAYER
10
473.73673285407386
20
131.6388066952143
30
0.0
 70
     32
  0
VERTEX
  8
MY3DLAYER
10
473.3225192917008
20
131.95664394040995
30
0.0
 70
     32
  0
VERTEX
  8
MY3DLAYER
10
472.84015738190607
20
132.15644478541947
30
0.0
 70
     32
  0
VERTEX
  8
MY3DLAYER
10
472.3225192917008
20
132.22459313284108
30
0.0
 70
     32
  0
VERTEX
  8
MY3DLAYER
10
471.8048812014956
20
132.15644478541918
30
0.0
 70
     32
  0
VERTEX
  8
MY3DLAYER
10
471.32251929170087
20
131.95664394040998
30
0.0
 70
     32
  0
VERTEX
  8
MY3DLAYER
10
470.908305729328
20
131.63880669521419
30
0.0
 70
     32
  0
VERTEX
  8
MY3DLAYER
10
470.59046848413186
20
131.22459313284116
30
0.0
 70
     32
  0
VERTEX
  8
MY3DLAYER
10
470.3906676391224
20
130.7422312230461
30
0.0
 70
     32
  0
VERTEX
  8
MY3DLAYER
10
470.3225192917006
20
130.22459313284122
30
0.0
 70
     32
  0
VERTEX
  8
MY3DLAYER
10
470.39066763912297
20
129.706955042636
30
0.0
 70
     32
  0
VERTEX
  8
MY3DLAYER
10
470.59046848413186
20
129.22459313284116
30
0.0
 70
     32
  0
VERTEX
  8
MY3DLAYER
10
470.9083057293275
20
128.8103795704679
30
0.0
 70
     32
  0
VERTEX
  8
MY3DLAYER
10
471.32251929170053
20
128.49254232527213
30
0.0
 70
     32
  0
VERTEX
  8
MY3DLAYER
10
471.80488120149596
20
128.292741480263
30
0.0
 70
     32
  0
SEQEND
  0
POLYLINE
 8
Layer0
 66
     1
70
    8
 10
0.0
 20
 0.0
 30
0.0
  0
VERTEX
  8
MY3DLAYER
10
473.82251929170104
20
98.57459313284092
30
0.0
 70
     32
  0
VERTEX
  8
MY3DLAYER
10
470.8225192917008
20
98.57459313284092
30
0.0
 70
     32
  0
VERTEX
  8
MY3DLAYER
10
470.822519291701
20
97.5745931328411
30
0.0
 70
     32
  0
VERTEX
  8
MY3DLAYER
10
473.8225192917012
20
97.57459313284096
30
0.0
 70
     32
  0
VERTEX
  8
MY3DLAYER
10
473.82251929170104
20
98.57459313284092
30
0.0
 70
     32
  0
SEQEND
  0
POLYLINE
 8
Layer0
 66
     1
70
    8
 10
0.0
 20
 0.0
 30
0.0
  0
VERTEX
  8
MY3DLAYER
10
473.3225192917013
20
86.65664394040991
30
0.0
 70
     32
  0
VERTEX
  8
MY3DLAYER
10
472.84015738190647
20
86.85644478541919
30
0.0
 70
     32
  0
VERTEX
  8
MY3DLAYER
10
472.32251929170155
20
86.92459313284081
30
0.0
 70
     32
  0
VERTEX
  8
MY3DLAYER
10
471.80488120149647
20
86.856444785419
30
0.0
 70
     32
  0
VERTEX
  8
MY3DLAYER
10
471.3225192917016
20
86.65664394040998
30
0.0
 70
     32
  0
VERTEX
  8
MY3DLAYER
10
470.9083057293282
20
86.33880669521432
30
0.0
 70
     32
  0
VERTEX
  8
MY3DLAYER
10
470.5904684841326
20
85.92459313284103
30
0.0
 70
     32
  0
VERTEX
  8
MY3DLAYER
10
470.39066763912314
20
85.44223122304598
30
0.0
 70
     32
  0
VERTEX
  8
MY3DLAYER
10
470.32251929170127
20
84.92459313284104
30
0.0
 70
     32
  0
VERTEX
  8
MY3DLAYER
10
470.3906676391233
20
84.40695504263608
30
0.0
 70
     32
  0
VERTEX
  8
MY3DLAYER
10
470.5904684841326
20
83.92459313284114
30
0.0
 70
     32
  0
VERTEX
  8
MY3DLAYER
10
470.9083057293282
20
83.51037957046799
30
0.0
 70
     32
  0
VERTEX
  8
MY3DLAYER
10
471.32251929170144
20
83.19254232527223
30
0.0
 70
     32
  0
VERTEX
  8
MY3DLAYER
10
471.80488120149613
20
82.99274148026299
30
0.0
 70
     32
  0
VERTEX
  8
MY3DLAYER
10
472.32251929170155
20
82.92459313284107
30
0.0
 70
     32
  0
VERTEX
  8
MY3DLAYER
10
472.8401573819063
20
82.9927414802629
30
0.0
 70
     32
  0
VERTEX
  8
MY3DLAYER
10
473.3225192917015
20
83.19254232527217
30
0.0
 70
     32
  0
VERTEX
  8
MY3DLAYER
10
473.7367328540742
20
83.51037957046799
30
0.0
 70
     32
  0
VERTEX
  8
MY3DLAYER
10
474.05457009927034
20
83.92459313284103
30
0.0
 70
     32
  0
VERTEX
  8
MY3DLAYER
10
474.2543709442798
20
84.4069550426362
30
0.0
 70
     32
  0
VERTEX
  8
MY3DLAYER
10
474.3225192917015
20
84.92459313284103
30
0.0
 70
     32
  0
VERTEX
  8
MY3DLAYER
10
474.25437094427946
20
85.44223122304602
30
0.0
 70
     32
  0
VERTEX
  8
MY3DLAYER
10
474.05457009927017
20
85.92459313284107
30
0.0
 70
     32
  0
VERTEX
  8
MY3DLAYER
10
473.73673285407455
20
86.33880669521439
30
0.0
 70
     32
  0
VERTEX
  8
MY3DLAYER
10
473.3225192917013
20
86.65664394040991
30
0.0
 70
     32
  0
SEQEND
  0
POLYLINE
 8
Layer0
 66
     1
70
    8
 10
0.0
 20
 0.0
 30
0.0
  0
VERTEX
  8
MY3DLAYER
10
481.75659346541204
20
107.83341217794384
30
0.0
 70
     32
  0
VERTEX
  8
MY3DLAYER
10
481.72251929170085
20
107.57459313284133
30
0.0
 70
     32
  0
VERTEX
  8
MY3DLAYER
10
481.7565934654122
20
107.31577408773848
30
0.0
 70
     32
  0
VERTEX
  8
MY3DLAYER
10
481.8564938879166
20
107.0745931328412
30
0.0
 70
     32
  0
VERTEX
  8
MY3DLAYER
10
482.0154125105146
20
106.86748635165466
30
0.0
 70
     32
  0
VERTEX
  8
MY3DLAYER
10
482.2225192917013
20
106.70856772905678
30
0.0
 70
     32
  0
VERTEX
  8
MY3DLAYER
10
482.46370024659865
20
106.60866730655214
30
0.0
 70
     32
  0
VERTEX
  8
MY3DLAYER
10
482.7225192917012
20
106.57459313284126
30
0.0
 70
     32
  0
VERTEX
  8
MY3DLAYER
10
482.98133833680373
20
106.60866730655214
30
0.0
 70
     32
  0
VERTEX
  8
MY3DLAYER
10
483.22251929170125
20
106.7085677290567
30
0.0
 70
     32
  0
VERTEX
  8
MY3DLAYER
10
483.4296260728874
20
106.86748635165476
30
0.0
 70
     32
  0
VERTEX
  8
MY3DLAYER
10
483.5885446954854
20
107.0745931328412
30
0.0
 70
     32
  0
VERTEX
  8
MY3DLAYER
10
483.6884451179901
20
107.31577408773862
30
0.0
 70
     32
  0
VERTEX
  8
MY3DLAYER
10
483.72251929170096
20
107.57459313284133
30
0.0
 70
     32
  0
VERTEX
  8
MY3DLAYER
10
483.68844511798994
20
107.83341217794388
30
0.0
 70
     32
  0
VERTEX
  8
MY3DLAYER
10
483.58854469548555
20
108.07459313284114
30
0.0
 70
     32
  0
VERTEX
  8
MY3DLAYER
10
483.4296260728876
20
108.2816999140279
30
0.0
 70
     32
  0
VERTEX
  8
MY3DLAYER
10
483.22251929170125
20
108.44061853662569
30
0.0
 70
     32
  0
VERTEX
  8
MY3DLAYER
10
482.98133833680356
20
108.5405189591303
30
0.0
 70
     32
  0
VERTEX
  8
MY3DLAYER
10
482.722519291701
20
108.57459313284107
30
0.0
 70
     32
  0
VERTEX
  8
MY3DLAYER
10
482.46370024659865
20
108.54051895913013
30
0.0
 70
     32
  0
VERTEX
  8
MY3DLAYER
10
482.2225192917013
20
108.44061853662542
30
0.0
 70
     32
  0
VERTEX
  8
MY3DLAYER
10
482.0154125105146
20
108.28169991402781
30
0.0
 70
     32
  0
VERTEX
  8
MY3DLAYER
10
481.85649388791677
20
108.07459313284106
30
0.0
 70
     32
  0
VERTEX
  8
MY3DLAYER
10
481.75659346541204
20
107.83341217794384
30
0.0
 70
     32
  0
SEQEND
  0
POLYLINE
 8
Layer0
 66
     1
70
    8
 10
0.0
 20
 0.0
 30
0.0
  0
VERTEX
  8
MY3DLAYER
10
476.05192881425245
20
109.20755604598547
30
0.0
 70
     32
  0
VERTEX
  8
MY3DLAYER
10
475.9225192917011
20
109.22459313284106
30
0.0
 70
     32
  0
VERTEX
  8
MY3DLAYER
10
475.7931097691499
20
109.20755604598547
30
0.0
 70
     32
  0
VERTEX
  8
MY3DLAYER
10
475.672519291701
20
109.15760583473337
30
0.0
 70
     32
  0
VERTEX
  8
MY3DLAYER
10
475.5689659011079
20
109.07814652343448
30
0.0
 70
     32
  0
VERTEX
  8
MY3DLAYER
10
475.48950658980874
20
108.97459313284108
30
0.0
 70
     32
  0
VERTEX
  8
MY3DLAYER
10
475.43955637855635
20
108.85400265539226
30
0.0
 70
     32
  0
VERTEX
  8
MY3DLAYER
10
475.42251929170106
20
108.72459313284091
30
0.0
 70
     32
  0
VERTEX
  8
MY3DLAYER
10
475.43955637855635
20
108.59518361028974
30
0.0
 70
     32
  0
VERTEX
  8
MY3DLAYER
10
475.4895065898089
20
108.47459313284105
30
0.0
 70
     32
  0
VERTEX
  8
MY3DLAYER
10
475.56896590110773
20
108.37103974224779
30
0.0
 70
     32
  0
VERTEX
  8
MY3DLAYER
10
475.6725192917012
20
108.29158043094871
30
0.0
 70
     32
  0
VERTEX
  8
MY3DLAYER
10
475.79310976914957
20
108.2416302196967
30
0.0
 70
     32
  0
VERTEX
  8
MY3DLAYER
10
475.9225192917011
20
108.22459313284102
30
0.0
 70
     32
  0
VERTEX
  8
MY3DLAYER
10
476.05192881425194
20
108.24163021969666
30
0.0
 70
     32
  0
VERTEX
  8
MY3DLAYER
10
476.17251929170106
20
108.29158043094871
30
0.0
 70
     32
  0
VERTEX
  8
MY3DLAYER
10
476.2760726822945
20
108.37103974224762
30
0.0
 70
     32
  0
VERTEX
  8
MY3DLAYER
10
476.3555319935933
20
108.47459313284078
30
0.0
 70
     32
  0
VERTEX
  8
MY3DLAYER
10
476.4054822048455
20
108.59518361028978
30
0.0
 70
     32
  0
VERTEX
  8
MY3DLAYER
10
476.4225192917012
20
108.72459313284118
30
0.0
 70
     32
  0
VERTEX
  8
MY3DLAYER
10
476.4054822048455
20
108.85400265539214
30
0.0
 70
     32
  0
VERTEX
  8
MY3DLAYER
10
476.3555319935931
20
108.9745931328412
30
0.0
 70
     32
  0
VERTEX
  8
MY3DLAYER
10
476.2760726822945
20
109.07814652343421
30
0.0
 70
     32
  0
VERTEX
  8
MY3DLAYER
10
476.17251929170124
20
109.15760583473333
30
0.0
 70
     32
  0
VERTEX
  8
MY3DLAYER
10
476.05192881425245
20
109.20755604598547
30
0.0
 70
     32
  0
SEQEND
  0
POLYLINE
 8
Layer0
 66
     1
70
    8
 10
0.0
 20
 0.0
 30
0.0
  0
VERTEX
  8
MY3DLAYER
10
479.6884451179901
20
110.31577408773867
30
0.0
 70
     32
  0
VERTEX
  8
MY3DLAYER
10
479.7225192917008
20
110.57459313284117
30
0.0
 70
     32
  0
VERTEX
  8
MY3DLAYER
10
479.68844511798994
20
110.83341217794352
30
0.0
 70
     32
  0
VERTEX
  8
MY3DLAYER
10
479.5885446954852
20
111.074593132841
30
0.0
 70
     32
  0
VERTEX
  8
MY3DLAYER
10
479.4296260728874
20
111.28169991402775
30
0.0
 70
     32
  0
VERTEX
  8
MY3DLAYER
10
479.2225192917011
20
111.44061853662528
30
0.0
 70
     32
  0
VERTEX
  8
MY3DLAYER
10
478.98133833680356
20
111.54051895913042
30
0.0
 70
     32
  0
VERTEX
  8
MY3DLAYER
10
478.7225192917012
20
111.57459313284112
30
0.0
 70
     32
  0
VERTEX
  8
MY3DLAYER
10
478.4637002465988
20
111.54051895913025
30
0.0
 70
     32
  0
VERTEX
  8
MY3DLAYER
10
478.22251929170113
20
111.44061853662551
30
0.0
 70
     32
  0
VERTEX
  8
MY3DLAYER
10
478.0154125105144
20
111.28169991402771
30
0.0
 70
     32
  0
VERTEX
  8
MY3DLAYER
10
477.85649388791643
20
111.07459313284123
30
0.0
 70
     32
  0
VERTEX
  8
MY3DLAYER
10
477.75659346541187
20
110.83341217794339
30
0.0
 70
     32
  0
VERTEX
  8
MY3DLAYER
10
477.7225192917011
20
110.57459313284126
30
0.0
 70
     32
  0
VERTEX
  8
MY3DLAYER
10
477.75659346541204
20
110.31577408773845
30
0.0
 70
     32
  0
VERTEX
  8
MY3DLAYER
10
477.8564938879166
20
110.0745931328411
30
0.0
 70
     32
  0
VERTEX
  8
MY3DLAYER
10
478.0154125105146
20
109.86748635165466
30
0.0
 70
     32
  0
VERTEX
  8
MY3DLAYER
10
478.22251929170096
20
109.70856772905682
30
0.0
 70
     32
  0
VERTEX
  8
MY3DLAYER
10
478.4637002465985
20
109.60866730655204
30
0.0
 70
     32
  0
VERTEX
  8
MY3DLAYER
10
478.72251929170136
20
109.57459313284122
30
0.0
 70
     32
  0
VERTEX
  8
MY3DLAYER
10
478.98133833680356
20
109.60866730655204
30
0.0
 70
     32
  0
VERTEX
  8
MY3DLAYER
10
479.2225192917009
20
109.70856772905678
30
0.0
 70
     32
  0
VERTEX
  8
MY3DLAYER
10
479.42962607288763
20
109.86748635165466
30
0.0
 70
     32
  0
VERTEX
  8
MY3DLAYER
10
479.5885446954854
20
110.0745931328411
30
0.0
 70
     32
  0
VERTEX
  8
MY3DLAYER
10
479.6884451179901
20
110.31577408773867
30
0.0
 70
     32
  0
SEQEND
  0
POLYLINE
 8
Layer0
 66
     1
70
    8
 10
0.0
 20
 0.0
 30
0.0
  0
VERTEX
  8
MY3DLAYER
10
479.72251929170096
20
104.5745931328412
30
0.0
 70
     32
  0
VERTEX
  8
MY3DLAYER
10
479.68844511798994
20
104.83341217794364
30
0.0
 70
     32
  0
VERTEX
  8
MY3DLAYER
10
479.5885446954858
20
105.07459313284077
30
0.0
 70
     32
  0
VERTEX
  8
MY3DLAYER
10
479.42962607288763
20
105.28169991402761
30
0.0
 70
     32
  0
VERTEX
  8
MY3DLAYER
10
479.22251929170125
20
105.44061853662552
30
0.0
 70
     32
  0
VERTEX
  8
MY3DLAYER
10
478.98133833680373
20
105.54051895913027
30
0.0
 70
     32
  0
VERTEX
  8
MY3DLAYER
10
478.722519291701
20
105.57459313284109
30
0.0
 70
     32
  0
VERTEX
  8
MY3DLAYER
10
478.4637002465985
20
105.54051895913008
30
0.0
 70
     32
  0
VERTEX
  8
MY3DLAYER
10
478.22251929170113
20
105.4406185366256
30
0.0
 70
     32
  0
VERTEX
  8
MY3DLAYER
10
478.0154125105146
20
105.28169991402757
30
0.0
 70
     32
  0
VERTEX
  8
MY3DLAYER
10
477.85649388791643
20
105.07459313284113
30
0.0
 70
     32
  0
VERTEX
  8
MY3DLAYER
10
477.75659346541187
20
104.83341217794342
30
0.0
 70
     32
  0
VERTEX
  8
MY3DLAYER
10
477.7225192917011
20
104.57459313284102
30
0.0
 70
     32
  0
VERTEX
  8
MY3DLAYER
10
477.75659346541204
20
104.31577408773842
30
0.0
 70
     32
  0
VERTEX
  8
MY3DLAYER
10
477.85649388791643
20
104.07459313284102
30
0.0
 70
     32
  0
VERTEX
  8
MY3DLAYER
10
478.0154125105146
20
103.86748635165445
30
0.0
 70
     32
  0
VERTEX
  8
MY3DLAYER
10
478.22251929170096
20
103.70856772905665
30
0.0
 70
     32
  0
VERTEX
  8
MY3DLAYER
10
478.4637002465985
20
103.60866730655191
30
0.0
 70
     32
  0
VERTEX
  8
MY3DLAYER
10
478.7225192917012
20
103.57459313284096
30
0.0
 70
     32
  0
VERTEX
  8
MY3DLAYER
10
478.98133833680356
20
103.60866730655205
30
0.0
 70
     32
  0
VERTEX
  8
MY3DLAYER
10
479.2225192917014
20
103.70856772905638
30
0.0
 70
     32
  0
VERTEX
  8
MY3DLAYER
10
479.42962607288763
20
103.86748635165449
30
0.0
 70
     32
  0
VERTEX
  8
MY3DLAYER
10
479.5885446954854
20
104.07459313284116
30
0.0
 70
     32
  0
VERTEX
  8
MY3DLAYER
10
479.6884451179901
20
104.31577408773869
30
0.0
 70
     32
  0
VERTEX
  8
MY3DLAYER
10
479.72251929170096
20
104.5745931328412
30
0.0
 70
     32
  0
SEQEND
  0
POLYLINE
 8
Layer0
 66
     1
70
    8
 10
0.0
 20
 0.0
 30
0.0
  0
VERTEX
  8
MY3DLAYER
10
475.43955637855674
20
107.65400265539228
30
0.0
 70
     32
  0
VERTEX
  8
MY3DLAYER
10
475.42910191658046
20
107.5745931328411
30
0.0
 70
     32
  0
VERTEX
  8
MY3DLAYER
10
475.42251929170124
20
107.52459313284098
30
0.0
 70
     32
  0
VERTEX
  8
MY3DLAYER
10
475.4395563785565
20
107.39518361028976
30
0.0
 70
     32
  0
VERTEX
  8
MY3DLAYER
10
475.4895065898091
20
107.27459313284099
30
0.0
 70
     32
  0
VERTEX
  8
MY3DLAYER
10
475.5689659011079
20
107.1710397422477
30
0.0
 70
     32
  0
VERTEX
  8
MY3DLAYER
10
475.6725192917012
20
107.09158043094881
30
0.0
 70
     32
  0
VERTEX
  8
MY3DLAYER
10
475.79310976914957
20
107.04163021969664
30
0.0
 70
     32
  0
VERTEX
  8
MY3DLAYER
10
475.9225192917011
20
107.02459313284105
30
0.0
 70
     32
  0
VERTEX
  8
MY3DLAYER
10
476.05192881425245
20
107.0416302196965
30
0.0
 70
     32
  0
VERTEX
  8
MY3DLAYER
10
476.17251929170124
20
107.09158043094858
30
0.0
 70
     32
  0
VERTEX
  8
MY3DLAYER
10
476.2760726822945
20
107.1710397422478
30
0.0
 70
     32
  0
VERTEX
  8
MY3DLAYER
10
476.3555319935935
20
107.27459313284126
30
0.0
 70
     32
  0
VERTEX
  8
MY3DLAYER
10
476.4054822048455
20
107.39518361028985
30
0.0
 70
     32
  0
VERTEX
  8
MY3DLAYER
10
476.4225192917012
20
107.52459313284112
30
0.0
 70
     32
  0
VERTEX
  8
MY3DLAYER
10
476.4159366668218
20
107.57459313284129
30
0.0
 70
     32
  0
VERTEX
  8
MY3DLAYER
10
476.40548220484567
20
107.65400265539249
30
0.0
 70
     32
  0
VERTEX
  8
MY3DLAYER
10
476.3555319935933
20
107.77459313284095
30
0.0
 70
     32
  0
VERTEX
  8
MY3DLAYER
10
476.2760726822941
20
107.87814652343444
30
0.0
 70
     32
  0
VERTEX
  8
MY3DLAYER
10
476.1725192917009
20
107.95760583473333
30
0.0
 70
     32
  0
VERTEX
  8
MY3DLAYER
10
476.0519288142523
20
108.00755604598557
30
0.0
 70
     32
  0
VERTEX
  8
MY3DLAYER
10
475.9225192917007
20
108.02459313284098
30
0.0
 70
     32
  0
VERTEX
  8
MY3DLAYER
10
475.79310976914974
20
108.00755604598561
30
0.0
 70
     32
  0
VERTEX
  8
MY3DLAYER
10
475.672519291701
20
107.95760583473333
30
0.0
 70
     32
  0
VERTEX
  8
MY3DLAYER
10
475.56896590110756
20
107.8781465234344
30
0.0
 70
     32
  0
VERTEX
  8
MY3DLAYER
10
475.48950658980857
20
107.77459313284108
30
0.0
 70
     32
  0
VERTEX
  8
MY3DLAYER
10
475.43955637855674
20
107.65400265539228
30
0.0
 70
     32
  0
SEQEND
  0
POLYLINE
 8
Layer0
 66
     1
70
    8
 10
0.0
 20
 0.0
 30
0.0
  0
VERTEX
  8
MY3DLAYER
10
470.82251929170064
20
116.5745931328412
30
0.0
 70
     32
  0
VERTEX
  8
MY3DLAYER
10
473.8225192917007
20
116.57459313284106
30
0.0
 70
     32
  0
VERTEX
  8
MY3DLAYER
10
473.82251929170087
20
117.57459313284097
30
0.0
 70
     32
  0
VERTEX
  8
MY3DLAYER
10
470.82251929170064
20
117.5745931328411
30
0.0
 70
     32
  0
VERTEX
  8
MY3DLAYER
10
470.82251929170064
20
116.5745931328412
30
0.0
 70
     32
  0
SEQEND
  0
POLYLINE
 8
Layer0
 66
     1
70
    8
 10
0.0
 20
 0.0
 30
0.0
  0
VERTEX
  8
MY3DLAYER
10
470.8225192917008
20
112.57459313284139
30
0.0
 70
     32
  0
VERTEX
  8
MY3DLAYER
10
470.822519291701
20
102.57459313284104
30
0.0
 70
     32
  0
VERTEX
  8
MY3DLAYER
10
473.82251929170087
20
102.57459313284104
30
0.0
 70
     32
  0
VERTEX
  8
MY3DLAYER
10
473.82251929170104
20
112.57459313284139
30
0.0
 70
     32
  0
VERTEX
  8
MY3DLAYER
10
470.8225192917008
20
112.57459313284139
30
0.0
 70
     32
  0
SEQEND
  0
POLYLINE
 8
Layer0
 66
     1
70
    8
 10
0.0
 20
 0.0
 30
0.0
  0
VERTEX
  8
MY3DLAYER
10
461.4984489634348
20
151.48041149228956
30
0.0
 70
     32
  0
VERTEX
  8
MY3DLAYER
10
526.4984489634351
20
151.4804114922894
30
0.0
 70
     32
  0
VERTEX
  8
MY3DLAYER
10
526.4984489634351
20
41.48041149228935
30
0.0
 70
     32
  0
VERTEX
  8
MY3DLAYER
10
521.4984489634353
20
41.48041149228954
30
0.0
 70
     32
  0
VERTEX
  8
MY3DLAYER
10
521.4984489634353
20
43.48041149228954
30
0.0
 70
     32
  0
VERTEX
  8
MY3DLAYER
10
520.7219918281277
20
43.58263401342227
30
0.0
 70
     32
  0
VERTEX
  8
MY3DLAYER
10
519.9984489634354
20
43.882335280936104
30
0.0
 70
     32
  0
VERTEX
  8
MY3DLAYER
10
519.3771286198757
20
44.35909114872999
30
0.0
 70
     32
  0
VERTEX
  8
MY3DLAYER
10
518.9003727520818
20
44.98041149228955
30
0.0
 70
     32
  0
VERTEX
  8
MY3DLAYER
10
518.6006714845681
20
45.70395435698192
30
0.0
 70
     32
  0
VERTEX
  8
MY3DLAYER
10
520.8948955728422
20
45.69384539980402
30
0.0
 70
     32
  0
VERTEX
  8
MY3DLAYER
10
520.9984489634352
20
45.61438608850524
30
0.0
 70
     32
  0
VERTEX
  8
MY3DLAYER
10
521.239629918333
20
45.51448566600035
30
0.0
 70
     32
  0
VERTEX
  8
MY3DLAYER
10
521.4984489634355
20
45.480411492289655
30
0.0
 70
     32
  0
VERTEX
  8
MY3DLAYER
10
521.7572680085376
20
45.51448566600038
30
0.0
 70
     32
  0
VERTEX
  8
MY3DLAYER
10
521.998448963435
20
45.61438608850521
30
0.0
 70
     32
  0
VERTEX
  8
MY3DLAYER
10
522.2055557446218
20
45.77330471110319
30
0.0
 70
     32
  0
VERTEX
  8
MY3DLAYER
10
522.3644743672197
20
45.9804114922896
30
0.0
 70
     32
  0
VERTEX
  8
MY3DLAYER
10
522.4643747897243
20
46.22159244718691
30
0.0
 70
     32
  0
VERTEX
  8
MY3DLAYER
10
522.4984489634353
20
46.480411492289754
30
0.0
 70
     32
  0
VERTEX
  8
MY3DLAYER
10
522.4643747897244
20
46.739230537391975
30
0.0
 70
     32
  0
VERTEX
  8
MY3DLAYER
10
522.3644743672197
20
46.9804114922897
30
0.0
 70
     32
  0
VERTEX
  8
MY3DLAYER
10
522.2055557446217
20
47.187518273476144
30
0.0
 70
     32
  0
VERTEX
  8
MY3DLAYER
10
521.9984489634355
20
47.34643689607398
30
0.0
 70
     32
  0
VERTEX
  8
MY3DLAYER
10
521.7572680085382
20
47.4463373185787
30
0.0
 70
     32
  0
VERTEX
  8
MY3DLAYER
10
521.4984489634351
20
47.48041149228957
30
0.0
 70
     32
  0
VERTEX
  8
MY3DLAYER
10
521.2396299183328
20
47.446337318578585
30
0.0
 70
     32
  0
VERTEX
  8
MY3DLAYER
10
520.9984489634352
20
47.34643689607387
30
0.0
 70
     32
  0
VERTEX
  8
MY3DLAYER
10
520.894895572842
20
47.26697758477502
30
0.0
 70
     32
  0
VERTEX
  8
MY3DLAYER
10
518.6006714845681
20
47.256868627597086
30
0.0
 70
     32
  0
VERTEX
  8
MY3DLAYER
10
518.9003727520819
20
47.980411492289655
30
0.0
 70
     32
  0
VERTEX
  8
MY3DLAYER
10
519.3771286198757
20
48.60173183584906
30
0.0
 70
     32
  0
VERTEX
  8
MY3DLAYER
10
519.9984489634353
20
49.07848770364272
30
0.0
 70
     32
  0
VERTEX
  8
MY3DLAYER
10
520.7219918281277
20
49.37818897115667
30
0.0
 70
     32
  0
VERTEX
  8
MY3DLAYER
10
521.4984489634356
20
49.48041149228951
30
0.0
 70
     32
  0
VERTEX
  8
MY3DLAYER
10
521.4984489634353
20
69.48041149228955
30
0.0
 70
     32
  0
VERTEX
  8
MY3DLAYER
10
520.7219918281277
20
69.58263401342221
30
0.0
 70
     32
  0
VERTEX
  8
MY3DLAYER
10
519.9984489634353
20
69.88233528093633
30
0.0
 70
     32
  0
VERTEX
  8
MY3DLAYER
10
519.3771286198755
20
70.35909114872986
30
0.0
 70
     32
  0
VERTEX
  8
MY3DLAYER
10
518.9003727520818
20
70.98041149228963
30
0.0
 70
     32
  0
VERTEX
  8
MY3DLAYER
10
518.6006714845681
20
71.70395435698182
30
0.0
 70
     32
  0
VERTEX
  8
MY3DLAYER
10
520.894895572842
20
71.69384539980389
30
0.0
 70
     32
  0
VERTEX
  8
MY3DLAYER
10
520.9984489634352
20
71.61438608850509
30
0.0
 70
     32
  0
VERTEX
  8
MY3DLAYER
10
521.2396299183325
20
71.5144856660004
30
0.0
 70
     32
  0
VERTEX
  8
MY3DLAYER
10
521.4984489634353
20
71.48041149228935
30
0.0
 70
     32
  0
VERTEX
  8
MY3DLAYER
10
521.7572680085378
20
71.51448566600062
30
0.0
 70
     32
  0
VERTEX
  8
MY3DLAYER
10
521.9984489634354
20
71.61438608850509
30
0.0
 70
     32
  0
VERTEX
  8
MY3DLAYER
10
522.2055557446218
20
71.77330471110307
30
0.0
 70
     32
  0
VERTEX
  8
MY3DLAYER
10
522.3644743672197
20
71.98041149228936
30
0.0
 70
     32
  0
VERTEX
  8
MY3DLAYER
10
522.4643747897244
20
72.22159244718726
30
0.0
 70
     32
  0
VERTEX
  8
MY3DLAYER
10
522.4984489634348
20
72.48041149228966
30
0.0
 70
     32
  0
VERTEX
  8
MY3DLAYER
10
522.464374789724
20
72.73923053739188
30
0.0
 70
     32
  0
VERTEX
  8
MY3DLAYER
10
522.3644743672195
20
72.98041149228968
30
0.0
 70
     32
  0
VERTEX
  8
MY3DLAYER
10
522.2055557446218
20
73.18751827347607
30
0.0
 70
     32
  0
VERTEX
  8
MY3DLAYER
10
521.998448963435
20
73.346436896074
30
0.0
 70
     32
  0
VERTEX
  8
MY3DLAYER
10
521.7572680085381
20
73.44633731857866
30
0.0
 70
     32
  0
VERTEX
  8
MY3DLAYER
10
521.4984489634355
20
73.4804114922897
30
0.0
 70
     32
  0
VERTEX
  8
MY3DLAYER
10
521.2396299183328
20
73.44633731857883
30
0.0
 70
     32
  0
VERTEX
  8
MY3DLAYER
10
520.9984489634354
20
73.34643689607391
30
0.0
 70
     32
  0
VERTEX
  8
MY3DLAYER
10
520.8948955728422
20
73.26697758477496
30
0.0
 70
     32
  0
VERTEX
  8
MY3DLAYER
10
518.6006714845679
20
73.25686862759721
30
0.0
 70
     32
  0
VERTEX
  8
MY3DLAYER
10
518.9003727520819
20
73.98041149228959
30
0.0
 70
     32
  0
VERTEX
  8
MY3DLAYER
10
519.3771286198755
20
74.60173183584912
30
0.0
 70
     32
  0
VERTEX
  8
MY3DLAYER
10
519.9984489634354
20
75.07848770364292
30
0.0
 70
     32
  0
VERTEX
  8
MY3DLAYER
10
520.7219918281277
20
75.3781889711569
30
0.0
 70
     32
  0
VERTEX
  8
MY3DLAYER
10
521.4984489634353
20
75.48041149228943
30
0.0
 70
     32
  0
VERTEX
  8
MY3DLAYER
10
521.9984489634354
20
91.48041149228953
30
0.0
 70
     32
  0
VERTEX
  8
MY3DLAYER
10
521.2219918281278
20
91.5826340134221
30
0.0
 70
     32
  0
VERTEX
  8
MY3DLAYER
10
520.498448963435
20
91.88233528093623
30
0.0
 70
     32
  0
VERTEX
  8
MY3DLAYER
10
519.8771286198756
20
92.35909114872997
30
0.0
 70
     32
  0
VERTEX
  8
MY3DLAYER
10
519.4003727520818
20
92.98041149228946
30
0.0
 70
     32
  0
VERTEX
  8
MY3DLAYER
10
519.1006714845684
20
93.70395435698201
30
0.0
 70
     32
  0
VERTEX
  8
MY3DLAYER
10
521.3948955728421
20
93.69384539980422
30
0.0
 70
     32
  0
VERTEX
  8
MY3DLAYER
10
521.4984489634355
20
93.61438608850504
30
0.0
 70
     32
  0
VERTEX
  8
MY3DLAYER
10
521.7396299183329
20
93.51448566600044
30
0.0
 70
     32
  0
VERTEX
  8
MY3DLAYER
10
521.9984489634352
20
93.48041149228958
30
0.0
 70
     32
  0
VERTEX
  8
MY3DLAYER
10
522.2572680085381
20
93.51448566600027
30
0.0
 70
     32
  0
VERTEX
  8
MY3DLAYER
10
522.4984489634353
20
93.61438608850527
30
0.0
 70
     32
  0
VERTEX
  8
MY3DLAYER
10
522.705555744622
20
93.7733047111029
30
0.0
 70
     32
  0
VERTEX
  8
MY3DLAYER
10
522.8644743672197
20
93.9804114922895
30
0.0
 70
     32
  0
VERTEX
  8
MY3DLAYER
10
522.9643747897243
20
94.22159244718713
30
0.0
 70
     32
  0
VERTEX
  8
MY3DLAYER
10
522.9984489634355
20
94.48041149228953
30
0.0
 70
     32
  0
VERTEX
  8
MY3DLAYER
10
522.9643747897243
20
94.73923053739198
30
0.0
 70
     32
  0
VERTEX
  8
MY3DLAYER
10
522.8644743672199
20
94.98041149228946
30
0.0
 70
     32
  0
VERTEX
  8
MY3DLAYER
10
522.7055557446216
20
95.18751827347617
30
0.0
 70
     32
  0
VERTEX
  8
MY3DLAYER
10
522.4984489634353
20
95.34643689607387
30
0.0
 70
     32
  0
VERTEX
  8
MY3DLAYER
10
522.257268008538
20
95.44633731857851
30
0.0
 70
     32
  0
VERTEX
  8
MY3DLAYER
10
521.9984489634352
20
95.48041149228952
30
0.0
 70
     32
  0
VERTEX
  8
MY3DLAYER
10
521.7396299183329
20
95.44633731857861
30
0.0
 70
     32
  0
VERTEX
  8
MY3DLAYER
10
521.4984489634353
20
95.34643689607383
30
0.0
 70
     32
  0
VERTEX
  8
MY3DLAYER
10
521.3948955728422
20
95.26697758477498
30
0.0
 70
     32
  0
VERTEX
  8
MY3DLAYER
10
519.1006714845678
20
95.256868627597
30
0.0
 70
     32
  0
VERTEX
  8
MY3DLAYER
10
519.4003727520818
20
95.98041149228963
30
0.0
 70
     32
  0
VERTEX
  8
MY3DLAYER
10
519.8771286198757
20
96.60173183584898
30
0.0
 70
     32
  0
VERTEX
  8
MY3DLAYER
10
520.4984489634355
20
97.0784877036428
30
0.0
 70
     32
  0
VERTEX
  8
MY3DLAYER
10
521.2219918281278
20
97.37818897115672
30
0.0
 70
     32
  0
VERTEX
  8
MY3DLAYER
10
521.9984489634352
20
97.4804114922895
30
0.0
 70
     32
  0
VERTEX
  8
MY3DLAYER
10
523.4984489634352
20
130.48041149228965
30
0.0
 70
     32
  0
VERTEX
  8
MY3DLAYER
10
522.7219918281276
20
130.5826340134224
30
0.0
 70
     32
  0
VERTEX
  8
MY3DLAYER
10
521.9984489634352
20
130.8823352809363
30
0.0
 70
     32
  0
VERTEX
  8
MY3DLAYER
10
521.3771286198757
20
131.35909114872962
30
0.0
 70
     32
  0
VERTEX
  8
MY3DLAYER
10
520.9003727520818
20
131.98041149228956
30
0.0
 70
     32
  0
VERTEX
  8
MY3DLAYER
10
520.6006714845684
20
132.70395435698202
30
0.0
 70
     32
  0
VERTEX
  8
MY3DLAYER
10
522.8948955728418
20
132.69384539980413
30
0.0
 70
     32
  0
VERTEX
  8
MY3DLAYER
10
522.9984489634353
20
132.6143860885049
30
0.0
 70
     32
  0
VERTEX
  8
MY3DLAYER
10
523.2396299183325
20
132.51448566600047
30
0.0
 70
     32
  0
VERTEX
  8
MY3DLAYER
10
523.4984489634352
20
132.48041149228945
30
0.0
 70
     32
  0
VERTEX
  8
MY3DLAYER
10
523.7572680085376
20
132.5144856660005
30
0.0
 70
     32
  0
VERTEX
  8
MY3DLAYER
10
523.9984489634353
20
132.61438608850528
30
0.0
 70
     32
  0
VERTEX
  8
MY3DLAYER
10
524.2055557446218
20
132.77330471110295
30
0.0
 70
     32
  0
VERTEX
  8
MY3DLAYER
10
524.3644743672199
20
132.98041149228965
30
0.0
 70
     32
  0
VERTEX
  8
MY3DLAYER
10
524.4643747897243
20
133.22159244718702
30
0.0
 70
     32
  0
VERTEX
  8
MY3DLAYER
10
524.4984489634352
20
133.48041149228936
30
0.0
 70
     32
  0
VERTEX
  8
MY3DLAYER
10
524.4643747897242
20
133.73923053739227
30
0.0
 70
     32
  0
VERTEX
  8
MY3DLAYER
10
524.3644743672197
20
133.98041149228956
30
0.0
 70
     32
  0
VERTEX
  8
MY3DLAYER
10
524.2055557446218
20
134.18751827347606
30
0.0
 70
     32
  0
VERTEX
  8
MY3DLAYER
10
523.9984489634353
20
134.3464368960739
30
0.0
 70
     32
  0
VERTEX
  8
MY3DLAYER
10
523.7572680085376
20
134.44633731857854
30
0.0
 70
     32
  0
VERTEX
  8
MY3DLAYER
10
523.4984489634348
20
134.48041149228945
30
0.0
 70
     32
  0
VERTEX
  8
MY3DLAYER
10
523.2396299183329
20
134.44633731857846
30
0.0
 70
     32
  0
VERTEX
  8
MY3DLAYER
10
522.9984489634355
20
134.3464368960738
30
0.0
 70
     32
  0
VERTEX
  8
MY3DLAYER
10
522.8948955728421
20
134.26697758477493
30
0.0
 70
     32
  0
VERTEX
  8
MY3DLAYER
10
520.4984489634355
20
134.25686862759696
30
0.0
 70
     32
  0
VERTEX
  8
MY3DLAYER
10
520.498448963435
20
141.4804114922894
30
0.0
 70
     32
  0
VERTEX
  8
MY3DLAYER
10
503.9984489634353
20
138.4804114922894
30
0.0
 70
     32
  0
VERTEX
  8
MY3DLAYER
10
493.99844896343495
20
138.4804114922893
30
0.0
 70
     32
  0
VERTEX
  8
MY3DLAYER
10
483.9984489634349
20
138.48041149228945
30
0.0
 70
     32
  0
VERTEX
  8
MY3DLAYER
10
467.498448963435
20
141.48041149228962
30
0.0
 70
     32
  0
VERTEX
  8
MY3DLAYER
10
467.49844896343495
20
134.25686862759707
30
0.0
 70
     32
  0
VERTEX
  8
MY3DLAYER
10
465.1020023540281
20
134.26697758477485
30
0.0
 70
     32
  0
VERTEX
  8
MY3DLAYER
10
464.9984489634348
20
134.34643689607407
30
0.0
 70
     32
  0
VERTEX
  8
MY3DLAYER
10
464.75726800853744
20
134.44633731857857
30
0.0
 70
     32
  0
VERTEX
  8
MY3DLAYER
10
464.49844896343484
20
134.48041149228936
30
0.0
 70
     32
  0
VERTEX
  8
MY3DLAYER
10
464.2396299183323
20
134.4463373185784
30
0.0
 70
     32
  0
VERTEX
  8
MY3DLAYER
10
463.99844896343484
20
134.3464368960742
30
0.0
 70
     32
  0
VERTEX
  8
MY3DLAYER
10
463.7913421822483
20
134.18751827347614
30
0.0
 70
     32
  0
VERTEX
  8
MY3DLAYER
10
463.6324235596506
20
133.98041149228942
30
0.0
 70
     32
  0
VERTEX
  8
MY3DLAYER
10
463.53252313714586
20
133.73923053739205
30
0.0
 70
     32
  0
VERTEX
  8
MY3DLAYER
10
463.49844896343484
20
133.48041149228945
30
0.0
 70
     32
  0
VERTEX
  8
MY3DLAYER
10
463.5325231371458
20
133.22159244718694
30
0.0
 70
     32
  0
VERTEX
  8
MY3DLAYER
10
463.63242355965025
20
132.9804114922894
30
0.0
 70
     32
  0
VERTEX
  8
MY3DLAYER
10
463.7913421822484
20
132.773304711103
30
0.0
 70
     32
  0
VERTEX
  8
MY3DLAYER
10
463.99844896343495
20
132.61438608850506
30
0.0
 70
     32
  0
VERTEX
  8
MY3DLAYER
10
464.2396299183323
20
132.51448566600047
30
0.0
 70
     32
  0
VERTEX
  8
MY3DLAYER
10
464.49844896343484
20
132.4804114922896
30
0.0
 70
     32
  0
VERTEX
  8
MY3DLAYER
10
464.75726800853727
20
132.5144856660005
30
0.0
 70
     32
  0
VERTEX
  8
MY3DLAYER
10
464.9984489634349
20
132.61438608850528
30
0.0
 70
     32
  0
VERTEX
  8
MY3DLAYER
10
465.10200235402834
20
132.69384539980427
30
0.0
 70
     32
  0
VERTEX
  8
MY3DLAYER
10
467.396226442302
20
132.70395435698217
30
0.0
 70
     32
  0
VERTEX
  8
MY3DLAYER
10
467.09652517478816
20
131.98041149228953
30
0.0
 70
     32
  0
VERTEX
  8
MY3DLAYER
10
466.6197693069942
20
131.35909114873004
30
0.0
 70
     32
  0
VERTEX
  8
MY3DLAYER
10
465.99844896343467
20
130.8823352809362
30
0.0
 70
     32
  0
VERTEX
  8
MY3DLAYER
10
465.2749060987425
20
130.58263401342248
30
0.0
 70
     32
  0
VERTEX
  8
MY3DLAYER
10
464.4984489634346
20
130.48041149228933
30
0.0
 70
     32
  0
VERTEX
  8
MY3DLAYER
10
465.9984489634349
20
97.4804114922894
30
0.0
 70
     32
  0
VERTEX
  8
MY3DLAYER
10
466.77490609874246
20
97.37818897115662
30
0.0
 70
     32
  0
VERTEX
  8
MY3DLAYER
10
467.49844896343484
20
97.07848770364272
30
0.0
 70
     32
  0
VERTEX
  8
MY3DLAYER
10
468.1197693069945
20
96.6017318358492
30
0.0
 70
     32
  0
VERTEX
  8
MY3DLAYER
10
468.5965251747879
20
95.98041149228978
30
0.0
 70
     32
  0
VERTEX
  8
MY3DLAYER
10
468.8962264423018
20
95.25686862759694
30
0.0
 70
     32
  0
VERTEX
  8
MY3DLAYER
10
466.602002354028
20
95.26697758477525
30
0.0
 70
     32
  0
VERTEX
  8
MY3DLAYER
10
466.4984489634349
20
95.34643689607401
30
0.0
 70
     32
  0
VERTEX
  8
MY3DLAYER
10
466.2572680085374
20
95.44633731857847
30
0.0
 70
     32
  0
VERTEX
  8
MY3DLAYER
10
465.9984489634345
20
95.48041149228935
30
0.0
 70
     32
  0
VERTEX
  8
MY3DLAYER
10
465.7396299183323
20
95.4463373185787
30
0.0
 70
     32
  0
VERTEX
  8
MY3DLAYER
10
465.49844896343484
20
95.34643689607418
30
0.0
 70
     32
  0
VERTEX
  8
MY3DLAYER
10
465.29134218224823
20
95.18751827347599
30
0.0
 70
     32
  0
VERTEX
  8
MY3DLAYER
10
465.1324235596504
20
94.98041149228973
30
0.0
 70
     32
  0
VERTEX
  8
MY3DLAYER
10
465.0325231371455
20
94.73923053739175
30
0.0
 70
     32
  0
VERTEX
  8
MY3DLAYER
10
464.9984489634346
20
94.48041149228958
30
0.0
 70
     32
  0
VERTEX
  8
MY3DLAYER
10
465.03252313714586
20
94.22159244718718
30
0.0
 70
     32
  0
VERTEX
  8
MY3DLAYER
10
465.13242355965025
20
93.98041149228932
30
0.0
 70
     32
  0
VERTEX
  8
MY3DLAYER
10
465.29134218224806
20
93.77330471110298
30
0.0
 70
     32
  0
VERTEX
  8
MY3DLAYER
10
465.4984489634346
20
93.61438608850514
30
0.0
 70
     32
  0
VERTEX
  8
MY3DLAYER
10
465.7396299183322
20
93.51448566600062
30
0.0
 70
     32
  0
VERTEX
  8
MY3DLAYER
10
465.9984489634347
20
93.48041149228953
30
0.0
 70
     32
  0
VERTEX
  8
MY3DLAYER
10
466.2572680085374
20
93.51448566600031
30
0.0
 70
     32
  0
VERTEX
  8
MY3DLAYER
10
466.4984489634348
20
93.61438608850541
30
0.0
 70
     32
  0
VERTEX
  8
MY3DLAYER
10
466.602002354028
20
93.69384539980418
30
0.0
 70
     32
  0
VERTEX
  8
MY3DLAYER
10
468.8962264423021
20
93.70395435698188
30
0.0
 70
     32
  0
VERTEX
  8
MY3DLAYER
10
468.5965251747884
20
92.9804114922896
30
0.0
 70
     32
  0
VERTEX
  8
MY3DLAYER
10
468.1197693069948
20
92.35909114873006
30
0.0
 70
     32
  0
VERTEX
  8
MY3DLAYER
10
467.49844896343495
20
91.88233528093609
30
0.0
 70
     32
  0
VERTEX
  8
MY3DLAYER
10
466.77490609874224
20
91.58263401342255
30
0.0
 70
     32
  0
VERTEX
  8
MY3DLAYER
10
465.998448963435
20
91.48041149228949
30
0.0
 70
     32
  0
VERTEX
  8
MY3DLAYER
10
466.4984489634347
20
75.48041149228938
30
0.0
 70
     32
  0
VERTEX
  8
MY3DLAYER
10
467.2749060987424
20
75.37818897115686
30
0.0
 70
     32
  0
VERTEX
  8
MY3DLAYER
10
467.9984489634347
20
75.07848770364274
30
0.0
 70
     32
  0
VERTEX
  8
MY3DLAYER
10
468.6197693069943
20
74.60173183584917
30
0.0
 70
     32
  0
VERTEX
  8
MY3DLAYER
10
469.09652517478804
20
73.98041149228945
30
0.0
 70
     32
  0
VERTEX
  8
MY3DLAYER
10
469.396226442302
20
73.25686862759721
30
0.0
 70
     32
  0
VERTEX
  8
MY3DLAYER
10
467.1020023540278
20
73.26697758477506
30
0.0
 70
     32
  0
VERTEX
  8
MY3DLAYER
10
466.9984489634348
20
73.34643689607395
30
0.0
 70
     32
  0
VERTEX
  8
MY3DLAYER
10
466.7572680085373
20
73.44633731857856
30
0.0
 70
     32
  0
VERTEX
  8
MY3DLAYER
10
466.4984489634347
20
73.48041149228966
30
0.0
 70
     32
  0
VERTEX
  8
MY3DLAYER
10
466.2396299183322
20
73.44633731857861
30
0.0
 70
     32
  0
VERTEX
  8
MY3DLAYER
10
465.9984489634347
20
73.346436896074
30
0.0
 70
     32
  0
VERTEX
  8
MY3DLAYER
10
465.7913421822485
20
73.18751827347599
30
0.0
 70
     32
  0
VERTEX
  8
MY3DLAYER
10
465.63242355965025
20
72.98041149228936
30
0.0
 70
     32
  0
VERTEX
  8
MY3DLAYER
10
465.5325231371457
20
72.73923053739192
30
0.0
 70
     32
  0
VERTEX
  8
MY3DLAYER
10
465.4984489634348
20
72.48041149228952
30
0.0
 70
     32
  0
VERTEX
  8
MY3DLAYER
10
465.53252313714586
20
72.22159244718695
30
0.0
 70
     32
  0
VERTEX
  8
MY3DLAYER
10
465.6324235596506
20
71.9804114922894
30
0.0
 70
     32
  0
VERTEX
  8
MY3DLAYER
10
465.79134218224794
20
71.77330471110288
30
0.0
 70
     32
  0
VERTEX
  8
MY3DLAYER
10
465.99844896343484
20
71.614386088505
30
0.0
 70
     32
  0
VERTEX
  8
MY3DLAYER
10
466.2396299183322
20
71.51448566600025
30
0.0
 70
     32
  0
VERTEX
  8
MY3DLAYER
10
466.4984489634348
20
71.48041149228952
30
0.0
 70
     32
  0
VERTEX
  8
MY3DLAYER
10
466.75726800853727
20
71.51448566600035
30
0.0
 70
     32
  0
VERTEX
  8
MY3DLAYER
10
466.99844896343495
20
71.61438608850531
30
0.0
 70
     32
  0
VERTEX
  8
MY3DLAYER
10
467.10200235402806
20
71.69384539980412
30
0.0
 70
     32
  0
VERTEX
  8
MY3DLAYER
10
469.396226442302
20
71.7039543569821
30
0.0
 70
     32
  0
VERTEX
  8
MY3DLAYER
10
469.09652517478804
20
70.98041149228963
30
0.0
 70
     32
  0
VERTEX
  8
MY3DLAYER
10
468.6197693069945
20
70.3590911487298
30
0.0
 70
     32
  0
VERTEX
  8
MY3DLAYER
10
467.99844896343456
20
69.88233528093629
30
0.0
 70
     32
  0
VERTEX
  8
MY3DLAYER
10
467.2749060987425
20
69.58263401342244
30
0.0
 70
     32
  0
VERTEX
  8
MY3DLAYER
10
466.4984489634348
20
69.48041149228978
30
0.0
 70
     32
  0
VERTEX
  8
MY3DLAYER
10
466.4984489634349
20
49.480411492289576
30
0.0
 70
     32
  0
VERTEX
  8
MY3DLAYER
10
467.27490609874235
20
49.37818897115678
30
0.0
 70
     32
  0
VERTEX
  8
MY3DLAYER
10
467.9984489634349
20
49.07848770364265
30
0.0
 70
     32
  0
VERTEX
  8
MY3DLAYER
10
468.6197693069945
20
48.601731835849215
30
0.0
 70
     32
  0
VERTEX
  8
MY3DLAYER
10
469.09652517478844
20
47.98041149228952
30
0.0
 70
     32
  0
VERTEX
  8
MY3DLAYER
10
469.3962264423021
20
47.25686862759715
30
0.0
 70
     32
  0
VERTEX
  8
MY3DLAYER
10
467.10200235402806
20
47.266977584775134
30
0.0
 70
     32
  0
VERTEX
  8
MY3DLAYER
10
466.9984489634346
20
47.34643689607398
30
0.0
 70
     32
  0
VERTEX
  8
MY3DLAYER
10
466.75726800853727
20
47.446337318578635
30
0.0
 70
     32
  0
VERTEX
  8
MY3DLAYER
10
466.4984489634352
20
47.480411492289434
30
0.0
 70
     32
  0
VERTEX
  8
MY3DLAYER
10
466.23962991833235
20
47.446337318578635
30
0.0
 70
     32
  0
VERTEX
  8
MY3DLAYER
10
465.9984489634347
20
47.34643689607419
30
0.0
 70
     32
  0
VERTEX
  8
MY3DLAYER
10
465.7913421822483
20
47.187518273476414
30
0.0
 70
     32
  0
VERTEX
  8
MY3DLAYER
10
465.63242355965053
20
46.98041149228979
30
0.0
 70
     32
  0
VERTEX
  8
MY3DLAYER
10
465.53252313714586
20
46.73923053739228
30
0.0
 70
     32
  0
VERTEX
  8
MY3DLAYER
10
465.498448963435
20
46.4804114922894
30
0.0
 70
     32
  0
VERTEX
  8
MY3DLAYER
10
465.5325231371457
20
46.2215924471871
30
0.0
 70
     32
  0
VERTEX
  8
MY3DLAYER
10
465.63242355965053
20
45.9804114922896
30
0.0
 70
     32
  0
VERTEX
  8
MY3DLAYER
10
465.7913421822481
20
45.773304711102995
30
0.0
 70
     32
  0
VERTEX
  8
MY3DLAYER
10
465.9984489634347
20
45.6143860885052
30
0.0
 70
     32
  0
VERTEX
  8
MY3DLAYER
10
466.2396299183322
20
45.514485666000596
30
0.0
 70
     32
  0
VERTEX
  8
MY3DLAYER
10
466.49844896343456
20
45.480411492289534
30
0.0
 70
     32
  0
VERTEX
  8
MY3DLAYER
10
466.75726800853727
20
45.51448566600039
30
0.0
 70
     32
  0
VERTEX
  8
MY3DLAYER
10
466.9984489634348
20
45.614386088505135
30
0.0
 70
     32
  0
VERTEX
  8
MY3DLAYER
10
467.10200235402823
20
45.69384539980404
30
0.0
 70
     32
  0
VERTEX
  8
MY3DLAYER
10
469.396226442302
20
45.703954356981995
30
0.0
 70
     32
  0
VERTEX
  8
MY3DLAYER
10
469.096525174788
20
44.98041149228969
30
0.0
 70
     32
  0
VERTEX
  8
MY3DLAYER
10
468.6197693069946
20
44.359091148730016
30
0.0
 70
     32
  0
VERTEX
  8
MY3DLAYER
10
467.9984489634347
20
43.88233528093633
30
0.0
 70
     32
  0
VERTEX
  8
MY3DLAYER
10
467.2749060987425
20
43.58263401342235
30
0.0
 70
     32
  0
VERTEX
  8
MY3DLAYER
10
466.49844896343507
20
43.480411492289626
30
0.0
 70
     32
  0
VERTEX
  8
MY3DLAYER
10
466.4984489634349
20
41.48041149228942
30
0.0
 70
     32
  0
VERTEX
  8
MY3DLAYER
10
461.49844896343507
20
41.48041149228956
30
0.0
 70
     32
  0
VERTEX
  8
MY3DLAYER
10
461.4984489634348
20
151.48041149228956
30
0.0
 70
     32
  0
SEQEND
  0
POLYLINE
 8
Layer0
 66
     1
70
    8
 10
0.0
 20
 0.0
 30
0.0
  0
VERTEX
  8
MY3DLAYER
10
495.498448963435
20
140.48041149228962
30
0.0
 70
     32
  0
VERTEX
  8
MY3DLAYER
10
495.4984489634352
20
150.4804114922895
30
0.0
 70
     32
  0
VERTEX
  8
MY3DLAYER
10
492.4984489634351
20
150.48041149228965
30
0.0
 70
     32
  0
VERTEX
  8
MY3DLAYER
10
492.4984489634353
20
140.4804114922896
30
0.0
 70
     32
  0
VERTEX
  8
MY3DLAYER
10
495.498448963435
20
140.48041149228962
30
0.0
 70
     32
  0
SEQEND
  0
POLYLINE
 8
Layer0
 66
     1
70
    8
 10
0.0
 20
 0.0
 30
0.0
  0
VERTEX
  8
MY3DLAYER
10
522.1454965761917
20
148.8952260580122
30
0.0
 70
     32
  0
VERTEX
  8
MY3DLAYER
10
521.4984489634353
20
148.9804114922895
30
0.0
 70
     32
  0
VERTEX
  8
MY3DLAYER
10
520.851401350679
20
148.8952260580122
30
0.0
 70
     32
  0
VERTEX
  8
MY3DLAYER
10
520.2484489634352
20
148.64547500175064
30
0.0
 70
     32
  0
VERTEX
  8
MY3DLAYER
10
519.7306820104691
20
148.24817844525592
30
0.0
 70
     32
  0
VERTEX
  8
MY3DLAYER
10
519.3333854539743
20
147.73041149228936
30
0.0
 70
     32
  0
VERTEX
  8
MY3DLAYER
10
519.0836343977127
20
147.12745910504586
30
0.0
 70
     32
  0
VERTEX
  8
MY3DLAYER
10
518.9984489634355
20
146.48041149228965
30
0.0
 70
     32
  0
VERTEX
  8
MY3DLAYER
10
519.0836343977124
20
145.83336387953327
30
0.0
 70
     32
  0
VERTEX
  8
MY3DLAYER
10
519.3333854539743
20
145.23041149228945
30
0.0
 70
     32
  0
VERTEX
  8
MY3DLAYER
10
519.7306820104691
20
144.71264453932298
30
0.0
 70
     32
  0
VERTEX
  8
MY3DLAYER
10
520.2484489634351
20
144.31534798282843
30
0.0
 70
     32
  0
VERTEX
  8
MY3DLAYER
10
520.8514013506789
20
144.06559692656683
30
0.0
 70
     32
  0
VERTEX
  8
MY3DLAYER
10
521.4984489634353
20
143.98041149228956
30
0.0
 70
     32
  0
VERTEX
  8
MY3DLAYER
10
522.1454965761917
20
144.06559692656697
30
0.0
 70
     32
  0
VERTEX
  8
MY3DLAYER
10
522.7484489634352
20
144.31534798282877
30
0.0
 70
     32
  0
VERTEX
  8
MY3DLAYER
10
523.2662159164015
20
144.71264453932312
30
0.0
 70
     32
  0
VERTEX
  8
MY3DLAYER
10
523.6635124728961
20
145.2304114922895
30
0.0
 70
     32
  0
VERTEX
  8
MY3DLAYER
10
523.9132635291579
20
145.83336387953324
30
0.0
 70
     32
  0
VERTEX
  8
MY3DLAYER
10
523.9984489634351
20
146.48041149228965
30
0.0
 70
     32
  0
VERTEX
  8
MY3DLAYER
10
523.9132635291578
20
147.12745910504594
30
0.0
 70
     32
  0
VERTEX
  8
MY3DLAYER
10
523.6635124728964
20
147.73041149228965
30
0.0
 70
     32
  0
VERTEX
  8
MY3DLAYER
10
523.2662159164015
20
148.24817844525577
30
0.0
 70
     32
  0
VERTEX
  8
MY3DLAYER
10
522.7484489634354
20
148.64547500175073
30
0.0
 70
     32
  0
VERTEX
  8
MY3DLAYER
10
522.1454965761917
20
148.8952260580122
30
0.0
 70
     32
  0
SEQEND
  0
POLYLINE
 8
Layer0
 66
     1
70
    8
 10
0.0
 20
 0.0
 30
0.0
  0
VERTEX
  8
MY3DLAYER
10
467.14549657619096
20
148.89522605801216
30
0.0
 70
     32
  0
VERTEX
  8
MY3DLAYER
10
466.4984489634348
20
148.9804114922895
30
0.0
 70
     32
  0
VERTEX
  8
MY3DLAYER
10
465.8514013506785
20
148.89522605801224
30
0.0
 70
     32
  0
VERTEX
  8
MY3DLAYER
10
465.248448963435
20
148.64547500175073
30
0.0
 70
     32
  0
VERTEX
  8
MY3DLAYER
10
464.73068201046834
20
148.24817844525592
30
0.0
 70
     32
  0
VERTEX
  8
MY3DLAYER
10
464.33338545397373
20
147.7304114922895
30
0.0
 70
     32
  0
VERTEX
  8
MY3DLAYER
10
464.0836343977123
20
147.127459105046
30
0.0
 70
     32
  0
VERTEX
  8
MY3DLAYER
10
463.9984489634351
20
146.48041149228953
30
0.0
 70
     32
  0
VERTEX
  8
MY3DLAYER
10
464.0836343977121
20
145.83336387953338
30
0.0
 70
     32
  0
VERTEX
  8
MY3DLAYER
10
464.3333854539739
20
145.2304114922895
30
0.0
 70
     32
  0
VERTEX
  8
MY3DLAYER
10
464.73068201046834
20
144.7126445393231
30
0.0
 70
     32
  0
VERTEX
  8
MY3DLAYER
10
465.24844896343484
20
144.31534798282823
30
0.0
 70
     32
  0
VERTEX
  8
MY3DLAYER
10
465.85140135067866
20
144.06559692656674
30
0.0
 70
     32
  0
VERTEX
  8
MY3DLAYER
10
466.4984489634347
20
143.98041149228942
30
0.0
 70
     32
  0
VERTEX
  8
MY3DLAYER
10
467.14549657619114
20
144.0655969265667
30
0.0
 70
     32
  0
VERTEX
  8
MY3DLAYER
10
467.7484489634348
20
144.3153479828285
30
0.0
 70
     32
  0
VERTEX
  8
MY3DLAYER
10
468.2662159164012
20
144.71264453932312
30
0.0
 70
     32
  0
VERTEX
  8
MY3DLAYER
10
468.6635124728958
20
145.23041149228962
30
0.0
 70
     32
  0
VERTEX
  8
MY3DLAYER
10
468.9132635291575
20
145.83336387953307
30
0.0
 70
     32
  0
VERTEX
  8
MY3DLAYER
10
468.9984489634348
20
146.4804114922897
30
0.0
 70
     32
  0
VERTEX
  8
MY3DLAYER
10
468.9132635291575
20
147.1274591050458
30
0.0
 70
     32
  0
VERTEX
  8
MY3DLAYER
10
468.6635124728957
20
147.73041149228948
30
0.0
 70
     32
  0
VERTEX
  8
MY3DLAYER
10
468.2662159164011
20
148.24817844525592
30
0.0
 70
     32
  0
VERTEX
  8
MY3DLAYER
10
467.74844896343495
20
148.64547500175064
30
0.0
 70
     32
  0
VERTEX
  8
MY3DLAYER
10
467.14549657619096
20
148.89522605801216
30
0.0
 70
     32
  0
SEQEND
 0
ENDSEC
 0
EOF
