 0
SECTION
 2
ENTITIES
  0
POLYLINE
 8
Layer0
 66
     1
70
    8
 10
0.0
 20
 0.0
 30
0.0
  0
VERTEX
  8
MY3DLAYER
10
327.98029632569046
20
48.523432725978495
30
0.0
 70
     32
  0
VERTEX
  8
MY3DLAYER
10
327.98029632569046
20
54.708466688018845
30
0.0
 70
     32
  0
VERTEX
  8
MY3DLAYER
10
326.4106931398642
20
54.65654993408557
30
0.0
 70
     32
  0
VERTEX
  8
MY3DLAYER
10
322.63048905860444
20
54.448022458978315
30
0.0
 70
     32
  0
VERTEX
  8
MY3DLAYER
10
318.8557994894371
20
54.15622585127582
30
0.0
 70
     32
  0
VERTEX
  8
MY3DLAYER
10
315.08845843454253
20
53.78130188571347
30
0.0
 70
     32
  0
VERTEX
  8
MY3DLAYER
10
312.26204488805956
20
53.44609975133787
30
0.0
 70
     32
  0
VERTEX
  8
MY3DLAYER
10
311.3302963256905
20
53.323432725978506
30
0.0
 70
     32
  0
VERTEX
  8
MY3DLAYER
10
310.3985477633214
20
53.44609975133787
30
0.0
 70
     32
  0
VERTEX
  8
MY3DLAYER
10
309.5302963256905
20
53.805741272354524
30
0.0
 70
     32
  0
VERTEX
  8
MY3DLAYER
10
308.7847119134189
20
54.377848313706934
30
0.0
 70
     32
  0
VERTEX
  8
MY3DLAYER
10
308.2126048720665
20
55.1234327259785
30
0.0
 70
     32
  0
VERTEX
  8
MY3DLAYER
10
307.8529633510498
20
55.991684163609435
30
0.0
 70
     32
  0
VERTEX
  8
MY3DLAYER
10
307.73029632569046
20
56.9234327259785
30
0.0
 70
     32
  0
VERTEX
  8
MY3DLAYER
10
307.8529633510498
20
57.85518128834758
30
0.0
 70
     32
  0
VERTEX
  8
MY3DLAYER
10
308.2126048720665
20
58.7234327259785
30
0.0
 70
     32
  0
VERTEX
  8
MY3DLAYER
10
308.7847119134189
20
59.46901713825007
30
0.0
 70
     32
  0
VERTEX
  8
MY3DLAYER
10
309.5302963256905
20
60.04112417960248
30
0.0
 70
     32
  0
VERTEX
  8
MY3DLAYER
10
310.3985477633214
20
60.40076570061913
30
0.0
 70
     32
  0
VERTEX
  8
MY3DLAYER
10
311.3302963256905
20
60.523432725978495
30
0.0
 70
     32
  0
VERTEX
  8
MY3DLAYER
10
312.26204488805956
20
60.40076570061913
30
0.0
 70
     32
  0
VERTEX
  8
MY3DLAYER
10
315.0884584345425
20
60.06556356624353
30
0.0
 70
     32
  0
VERTEX
  8
MY3DLAYER
10
318.85579948943706
20
59.69063960068118
30
0.0
 70
     32
  0
VERTEX
  8
MY3DLAYER
10
322.6304890586044
20
59.398842992978686
30
0.0
 70
     32
  0
VERTEX
  8
MY3DLAYER
10
326.4106931398641
20
59.19031551787141
30
0.0
 70
     32
  0
VERTEX
  8
MY3DLAYER
10
327.98029632569046
20
59.138398763938135
30
0.0
 70
     32
  0
VERTEX
  8
MY3DLAYER
10
330.194575051709
20
59.06515849225899
30
0.0
 70
     32
  0
VERTEX
  8
MY3DLAYER
10
333.9802963256904
20
59.02343272597849
30
0.0
 70
     32
  0
VERTEX
  8
MY3DLAYER
10
337.7660175996719
20
59.06515849225899
30
0.0
 70
     32
  0
VERTEX
  8
MY3DLAYER
10
339.9802963256905
20
59.13839876393815
30
0.0
 70
     32
  0
VERTEX
  8
MY3DLAYER
10
341.5498995115168
20
59.19031551787141
30
0.0
 70
     32
  0
VERTEX
  8
MY3DLAYER
10
345.3301035927765
20
59.398842992978665
30
0.0
 70
     32
  0
VERTEX
  8
MY3DLAYER
10
349.1047931619438
20
59.69063960068116
30
0.0
 70
     32
  0
VERTEX
  8
MY3DLAYER
10
352.87213421683845
20
60.065563566243505
30
0.0
 70
     32
  0
VERTEX
  8
MY3DLAYER
10
355.69854776332136
20
60.40076570061913
30
0.0
 70
     32
  0
VERTEX
  8
MY3DLAYER
10
356.63029632569044
20
60.523432725978495
30
0.0
 70
     32
  0
VERTEX
  8
MY3DLAYER
10
357.5620448880595
20
60.40076570061913
30
0.0
 70
     32
  0
VERTEX
  8
MY3DLAYER
10
358.43029632569045
20
60.04112417960248
30
0.0
 70
     32
  0
VERTEX
  8
MY3DLAYER
10
359.175880737962
20
59.46901713825007
30
0.0
 70
     32
  0
VERTEX
  8
MY3DLAYER
10
359.7479877793144
20
58.7234327259785
30
0.0
 70
     32
  0
VERTEX
  8
MY3DLAYER
10
360.1076293003311
20
57.855181288347566
30
0.0
 70
     32
  0
VERTEX
  8
MY3DLAYER
10
360.23029632569046
20
56.9234327259785
30
0.0
 70
     32
  0
VERTEX
  8
MY3DLAYER
10
360.1076293003311
20
55.99168416360942
30
0.0
 70
     32
  0
VERTEX
  8
MY3DLAYER
10
359.7479877793144
20
55.1234327259785
30
0.0
 70
     32
  0
VERTEX
  8
MY3DLAYER
10
359.175880737962
20
54.377848313706934
30
0.0
 70
     32
  0
VERTEX
  8
MY3DLAYER
10
358.43029632569045
20
53.805741272354524
30
0.0
 70
     32
  0
VERTEX
  8
MY3DLAYER
10
357.5620448880595
20
53.44609975133787
30
0.0
 70
     32
  0
VERTEX
  8
MY3DLAYER
10
356.63029632569044
20
53.323432725978506
30
0.0
 70
     32
  0
VERTEX
  8
MY3DLAYER
10
355.69854776332136
20
53.44609975133787
30
0.0
 70
     32
  0
VERTEX
  8
MY3DLAYER
10
352.87213421683845
20
53.78130188571345
30
0.0
 70
     32
  0
VERTEX
  8
MY3DLAYER
10
349.10479316194386
20
54.15622585127579
30
0.0
 70
     32
  0
VERTEX
  8
MY3DLAYER
10
345.33010359277654
20
54.44802245897829
30
0.0
 70
     32
  0
VERTEX
  8
MY3DLAYER
10
341.5498995115168
20
54.65654993408557
30
0.0
 70
     32
  0
VERTEX
  8
MY3DLAYER
10
339.9802963256905
20
54.70846668801883
30
0.0
 70
     32
  0
VERTEX
  8
MY3DLAYER
10
339.9802963256905
20
48.523432725978495
30
0.0
 70
     32
  0
VERTEX
  8
MY3DLAYER
10
339.7758512834249
20
46.970518455363354
30
0.0
 70
     32
  0
VERTEX
  8
MY3DLAYER
10
339.1764487483971
20
45.52343272597847
30
0.0
 70
     32
  0
VERTEX
  8
MY3DLAYER
10
338.2229370128098
20
44.28079203885918
30
0.0
 70
     32
  0
VERTEX
  8
MY3DLAYER
10
336.98029632569046
20
43.32728030327183
30
0.0
 70
     32
  0
VERTEX
  8
MY3DLAYER
10
335.5332105963056
20
42.72787776824405
30
0.0
 70
     32
  0
VERTEX
  8
MY3DLAYER
10
333.98029632569046
20
42.52343272597846
30
0.0
 70
     32
  0
VERTEX
  8
MY3DLAYER
10
332.4273820550753
20
42.72787776824405
30
0.0
 70
     32
  0
VERTEX
  8
MY3DLAYER
10
330.9802963256904
20
43.327280303271834
30
0.0
 70
     32
  0
VERTEX
  8
MY3DLAYER
10
329.73765563857114
20
44.28079203885919
30
0.0
 70
     32
  0
VERTEX
  8
MY3DLAYER
10
328.7841439029838
20
45.52343272597847
30
0.0
 70
     32
  0
VERTEX
  8
MY3DLAYER
10
328.184741367956
20
46.97051845536336
30
0.0
 70
     32
  0
VERTEX
  8
MY3DLAYER
10
327.98029632569046
20
48.523432725978495
30
0.0
 70
     32
  0
SEQEND
  0
POLYLINE
 8
Layer0
 66
     1
70
    8
 10
0.0
 20
 0.0
 30
0.0
  0
VERTEX
  8
MY3DLAYER
10
354.69844467311236
20
57.44107081618355
30
0.0
 70
     32
  0
VERTEX
  8
MY3DLAYER
10
354.63029632569044
20
56.9234327259785
30
0.0
 70
     32
  0
VERTEX
  8
MY3DLAYER
10
354.69844467311236
20
56.40579463577347
30
0.0
 70
     32
  0
VERTEX
  8
MY3DLAYER
10
354.8982455181216
20
55.9234327259785
30
0.0
 70
     32
  0
VERTEX
  8
MY3DLAYER
10
355.21608276331733
20
55.509219163605415
30
0.0
 70
     32
  0
VERTEX
  8
MY3DLAYER
10
355.63029632569044
20
55.191381918409625
30
0.0
 70
     32
  0
VERTEX
  8
MY3DLAYER
10
356.1126582354854
20
54.99158107340037
30
0.0
 70
     32
  0
VERTEX
  8
MY3DLAYER
10
356.63029632569044
20
54.92343272597851
30
0.0
 70
     32
  0
VERTEX
  8
MY3DLAYER
10
357.14793441589546
20
54.99158107340037
30
0.0
 70
     32
  0
VERTEX
  8
MY3DLAYER
10
357.63029632569044
20
55.191381918409625
30
0.0
 70
     32
  0
VERTEX
  8
MY3DLAYER
10
358.04450988806354
20
55.509219163605415
30
0.0
 70
     32
  0
VERTEX
  8
MY3DLAYER
10
358.36234713325933
20
55.9234327259785
30
0.0
 70
     32
  0
VERTEX
  8
MY3DLAYER
10
358.56214797826857
20
56.405794635773454
30
0.0
 70
     32
  0
VERTEX
  8
MY3DLAYER
10
358.63029632569044
20
56.9234327259785
30
0.0
 70
     32
  0
VERTEX
  8
MY3DLAYER
10
358.56214797826857
20
57.44107081618355
30
0.0
 70
     32
  0
VERTEX
  8
MY3DLAYER
10
358.36234713325933
20
57.9234327259785
30
0.0
 70
     32
  0
VERTEX
  8
MY3DLAYER
10
358.04450988806354
20
58.337646288351586
30
0.0
 70
     32
  0
VERTEX
  8
MY3DLAYER
10
357.63029632569044
20
58.65548353354738
30
0.0
 70
     32
  0
VERTEX
  8
MY3DLAYER
10
357.14793441589546
20
58.85528437855663
30
0.0
 70
     32
  0
VERTEX
  8
MY3DLAYER
10
356.63029632569044
20
58.9234327259785
30
0.0
 70
     32
  0
VERTEX
  8
MY3DLAYER
10
356.1126582354854
20
58.85528437855663
30
0.0
 70
     32
  0
VERTEX
  8
MY3DLAYER
10
355.63029632569044
20
58.65548353354738
30
0.0
 70
     32
  0
VERTEX
  8
MY3DLAYER
10
355.21608276331733
20
58.337646288351586
30
0.0
 70
     32
  0
VERTEX
  8
MY3DLAYER
10
354.8982455181216
20
57.9234327259785
30
0.0
 70
     32
  0
VERTEX
  8
MY3DLAYER
10
354.69844467311236
20
57.44107081618355
30
0.0
 70
     32
  0
SEQEND
  0
POLYLINE
 8
Layer0
 66
     1
70
    8
 10
0.0
 20
 0.0
 30
0.0
  0
VERTEX
  8
MY3DLAYER
10
324.98029632569046
20
55.42343272597863
30
0.0
 70
     32
  0
VERTEX
  8
MY3DLAYER
10
324.98029632569046
20
58.42343272597862
30
0.0
 70
     32
  0
VERTEX
  8
MY3DLAYER
10
323.98029632569046
20
58.42343272597862
30
0.0
 70
     32
  0
VERTEX
  8
MY3DLAYER
10
323.98029632569046
20
55.42343272597863
30
0.0
 70
     32
  0
VERTEX
  8
MY3DLAYER
10
324.98029632569046
20
55.42343272597863
30
0.0
 70
     32
  0
SEQEND
  0
POLYLINE
 8
Layer0
 66
     1
70
    8
 10
0.0
 20
 0.0
 30
0.0
  0
VERTEX
  8
MY3DLAYER
10
313.0623471332593
20
55.9234327259785
30
0.0
 70
     32
  0
VERTEX
  8
MY3DLAYER
10
313.2621479782686
20
56.405794635773454
30
0.0
 70
     32
  0
VERTEX
  8
MY3DLAYER
10
313.3302963256905
20
56.9234327259785
30
0.0
 70
     32
  0
VERTEX
  8
MY3DLAYER
10
313.2621479782686
20
57.44107081618355
30
0.0
 70
     32
  0
VERTEX
  8
MY3DLAYER
10
313.0623471332593
20
57.9234327259785
30
0.0
 70
     32
  0
VERTEX
  8
MY3DLAYER
10
312.7445098880636
20
58.337646288351586
30
0.0
 70
     32
  0
VERTEX
  8
MY3DLAYER
10
312.3302963256905
20
58.65548353354738
30
0.0
 70
     32
  0
VERTEX
  8
MY3DLAYER
10
311.8479344158955
20
58.85528437855663
30
0.0
 70
     32
  0
VERTEX
  8
MY3DLAYER
10
311.3302963256905
20
58.9234327259785
30
0.0
 70
     32
  0
VERTEX
  8
MY3DLAYER
10
310.81265823548546
20
58.85528437855663
30
0.0
 70
     32
  0
VERTEX
  8
MY3DLAYER
10
310.3302963256905
20
58.65548353354738
30
0.0
 70
     32
  0
VERTEX
  8
MY3DLAYER
10
309.9160827633174
20
58.337646288351586
30
0.0
 70
     32
  0
VERTEX
  8
MY3DLAYER
10
309.5982455181216
20
57.9234327259785
30
0.0
 70
     32
  0
VERTEX
  8
MY3DLAYER
10
309.39844467311235
20
57.44107081618355
30
0.0
 70
     32
  0
VERTEX
  8
MY3DLAYER
10
309.3302963256905
20
56.9234327259785
30
0.0
 70
     32
  0
VERTEX
  8
MY3DLAYER
10
309.39844467311235
20
56.40579463577347
30
0.0
 70
     32
  0
VERTEX
  8
MY3DLAYER
10
309.5982455181216
20
55.9234327259785
30
0.0
 70
     32
  0
VERTEX
  8
MY3DLAYER
10
309.9160827633174
20
55.509219163605415
30
0.0
 70
     32
  0
VERTEX
  8
MY3DLAYER
10
310.3302963256905
20
55.191381918409625
30
0.0
 70
     32
  0
VERTEX
  8
MY3DLAYER
10
310.81265823548546
20
54.99158107340037
30
0.0
 70
     32
  0
VERTEX
  8
MY3DLAYER
10
311.3302963256905
20
54.92343272597851
30
0.0
 70
     32
  0
VERTEX
  8
MY3DLAYER
10
311.8479344158955
20
54.99158107340037
30
0.0
 70
     32
  0
VERTEX
  8
MY3DLAYER
10
312.3302963256905
20
55.191381918409625
30
0.0
 70
     32
  0
VERTEX
  8
MY3DLAYER
10
312.7445098880636
20
55.509219163605415
30
0.0
 70
     32
  0
VERTEX
  8
MY3DLAYER
10
313.0623471332593
20
55.9234327259785
30
0.0
 70
     32
  0
SEQEND
  0
POLYLINE
 8
Layer0
 66
     1
70
    8
 10
0.0
 20
 0.0
 30
0.0
  0
VERTEX
  8
MY3DLAYER
10
334.239115370793
20
47.48935855226756
30
0.0
 70
     32
  0
VERTEX
  8
MY3DLAYER
10
333.98029632569046
20
47.52343272597849
30
0.0
 70
     32
  0
VERTEX
  8
MY3DLAYER
10
333.7214772805879
20
47.48935855226756
30
0.0
 70
     32
  0
VERTEX
  8
MY3DLAYER
10
333.48029632569046
20
47.38945812976293
30
0.0
 70
     32
  0
VERTEX
  8
MY3DLAYER
10
333.2731895445039
20
47.230539507165034
30
0.0
 70
     32
  0
VERTEX
  8
MY3DLAYER
10
333.11427092190604
20
47.02343272597849
30
0.0
 70
     32
  0
VERTEX
  8
MY3DLAYER
10
333.01437049940137
20
46.782251771081015
30
0.0
 70
     32
  0
VERTEX
  8
MY3DLAYER
10
332.98029632569046
20
46.523432725978495
30
0.0
 70
     32
  0
VERTEX
  8
MY3DLAYER
10
333.01437049940137
20
46.264613680875975
30
0.0
 70
     32
  0
VERTEX
  8
MY3DLAYER
10
333.11427092190604
20
46.023432725978495
30
0.0
 70
     32
  0
VERTEX
  8
MY3DLAYER
10
333.2731895445039
20
45.81632594479195
30
0.0
 70
     32
  0
VERTEX
  8
MY3DLAYER
10
333.48029632569046
20
45.657407322194054
30
0.0
 70
     32
  0
VERTEX
  8
MY3DLAYER
10
333.7214772805879
20
45.55750689968942
30
0.0
 70
     32
  0
VERTEX
  8
MY3DLAYER
10
333.98029632569046
20
45.523432725978495
30
0.0
 70
     32
  0
VERTEX
  8
MY3DLAYER
10
334.239115370793
20
45.55750689968942
30
0.0
 70
     32
  0
VERTEX
  8
MY3DLAYER
10
334.48029632569046
20
45.657407322194054
30
0.0
 70
     32
  0
VERTEX
  8
MY3DLAYER
10
334.687403106877
20
45.81632594479195
30
0.0
 70
     32
  0
VERTEX
  8
MY3DLAYER
10
334.8463217294749
20
46.023432725978495
30
0.0
 70
     32
  0
VERTEX
  8
MY3DLAYER
10
334.94622215197955
20
46.26461368087597
30
0.0
 70
     32
  0
VERTEX
  8
MY3DLAYER
10
334.98029632569046
20
46.523432725978495
30
0.0
 70
     32
  0
VERTEX
  8
MY3DLAYER
10
334.94622215197955
20
46.782251771081015
30
0.0
 70
     32
  0
VERTEX
  8
MY3DLAYER
10
334.8463217294749
20
47.02343272597849
30
0.0
 70
     32
  0
VERTEX
  8
MY3DLAYER
10
334.687403106877
20
47.230539507165034
30
0.0
 70
     32
  0
VERTEX
  8
MY3DLAYER
10
334.48029632569046
20
47.38945812976293
30
0.0
 70
     32
  0
VERTEX
  8
MY3DLAYER
10
334.239115370793
20
47.48935855226756
30
0.0
 70
     32
  0
SEQEND
  0
POLYLINE
 8
Layer0
 66
     1
70
    8
 10
0.0
 20
 0.0
 30
0.0
  0
VERTEX
  8
MY3DLAYER
10
335.613259238835
20
53.19402320342725
30
0.0
 70
     32
  0
VERTEX
  8
MY3DLAYER
10
335.6302963256905
20
53.323432725978506
30
0.0
 70
     32
  0
VERTEX
  8
MY3DLAYER
10
335.613259238835
20
53.45284224852976
30
0.0
 70
     32
  0
VERTEX
  8
MY3DLAYER
10
335.5633090275827
20
53.573432725978506
30
0.0
 70
     32
  0
VERTEX
  8
MY3DLAYER
10
335.4838497162837
20
53.67698611657178
30
0.0
 70
     32
  0
VERTEX
  8
MY3DLAYER
10
335.38029632569044
20
53.75644542787072
30
0.0
 70
     32
  0
VERTEX
  8
MY3DLAYER
10
335.25970584824177
20
53.80639563912304
30
0.0
 70
     32
  0
VERTEX
  8
MY3DLAYER
10
335.1302963256905
20
53.823432725978506
30
0.0
 70
     32
  0
VERTEX
  8
MY3DLAYER
10
335.0008868031392
20
53.80639563912304
30
0.0
 70
     32
  0
VERTEX
  8
MY3DLAYER
10
334.8802963256905
20
53.75644542787072
30
0.0
 70
     32
  0
VERTEX
  8
MY3DLAYER
10
334.7767429350972
20
53.67698611657178
30
0.0
 70
     32
  0
VERTEX
  8
MY3DLAYER
10
334.6972836237982
20
53.573432725978506
30
0.0
 70
     32
  0
VERTEX
  8
MY3DLAYER
10
334.64733341254595
20
53.45284224852976
30
0.0
 70
     32
  0
VERTEX
  8
MY3DLAYER
10
334.63029632569044
20
53.323432725978506
30
0.0
 70
     32
  0
VERTEX
  8
MY3DLAYER
10
334.64733341254595
20
53.19402320342725
30
0.0
 70
     32
  0
VERTEX
  8
MY3DLAYER
10
334.6972836237982
20
53.073432725978506
30
0.0
 70
     32
  0
VERTEX
  8
MY3DLAYER
10
334.7767429350972
20
52.96987933538523
30
0.0
 70
     32
  0
VERTEX
  8
MY3DLAYER
10
334.8802963256905
20
52.89042002408629
30
0.0
 70
     32
  0
VERTEX
  8
MY3DLAYER
10
335.0008868031392
20
52.84046981283398
30
0.0
 70
     32
  0
VERTEX
  8
MY3DLAYER
10
335.1302963256905
20
52.823432725978506
30
0.0
 70
     32
  0
VERTEX
  8
MY3DLAYER
10
335.25970584824177
20
52.84046981283398
30
0.0
 70
     32
  0
VERTEX
  8
MY3DLAYER
10
335.38029632569044
20
52.89042002408629
30
0.0
 70
     32
  0
VERTEX
  8
MY3DLAYER
10
335.4838497162837
20
52.96987933538523
30
0.0
 70
     32
  0
VERTEX
  8
MY3DLAYER
10
335.5633090275827
20
53.073432725978506
30
0.0
 70
     32
  0
VERTEX
  8
MY3DLAYER
10
335.613259238835
20
53.19402320342725
30
0.0
 70
     32
  0
SEQEND
  0
POLYLINE
 8
Layer0
 66
     1
70
    8
 10
0.0
 20
 0.0
 30
0.0
  0
VERTEX
  8
MY3DLAYER
10
336.7214772805879
20
49.55750689968943
30
0.0
 70
     32
  0
VERTEX
  8
MY3DLAYER
10
336.98029632569046
20
49.523432725978495
30
0.0
 70
     32
  0
VERTEX
  8
MY3DLAYER
10
337.239115370793
20
49.55750689968943
30
0.0
 70
     32
  0
VERTEX
  8
MY3DLAYER
10
337.48029632569046
20
49.657407322194054
30
0.0
 70
     32
  0
VERTEX
  8
MY3DLAYER
10
337.687403106877
20
49.81632594479195
30
0.0
 70
     32
  0
VERTEX
  8
MY3DLAYER
10
337.8463217294749
20
50.023432725978495
30
0.0
 70
     32
  0
VERTEX
  8
MY3DLAYER
10
337.94622215197955
20
50.264613680875975
30
0.0
 70
     32
  0
VERTEX
  8
MY3DLAYER
10
337.98029632569046
20
50.523432725978495
30
0.0
 70
     32
  0
VERTEX
  8
MY3DLAYER
10
337.94622215197955
20
50.78225177108102
30
0.0
 70
     32
  0
VERTEX
  8
MY3DLAYER
10
337.8463217294749
20
51.02343272597849
30
0.0
 70
     32
  0
VERTEX
  8
MY3DLAYER
10
337.687403106877
20
51.23053950716504
30
0.0
 70
     32
  0
VERTEX
  8
MY3DLAYER
10
337.48029632569046
20
51.389458129762936
30
0.0
 70
     32
  0
VERTEX
  8
MY3DLAYER
10
337.239115370793
20
51.48935855226756
30
0.0
 70
     32
  0
VERTEX
  8
MY3DLAYER
10
336.98029632569046
20
51.5234327259785
30
0.0
 70
     32
  0
VERTEX
  8
MY3DLAYER
10
336.7214772805879
20
51.48935855226756
30
0.0
 70
     32
  0
VERTEX
  8
MY3DLAYER
10
336.48029632569046
20
51.389458129762936
30
0.0
 70
     32
  0
VERTEX
  8
MY3DLAYER
10
336.2731895445039
20
51.23053950716504
30
0.0
 70
     32
  0
VERTEX
  8
MY3DLAYER
10
336.11427092190604
20
51.0234327259785
30
0.0
 70
     32
  0
VERTEX
  8
MY3DLAYER
10
336.01437049940137
20
50.78225177108102
30
0.0
 70
     32
  0
VERTEX
  8
MY3DLAYER
10
335.98029632569046
20
50.523432725978495
30
0.0
 70
     32
  0
VERTEX
  8
MY3DLAYER
10
336.01437049940137
20
50.264613680875975
30
0.0
 70
     32
  0
VERTEX
  8
MY3DLAYER
10
336.11427092190604
20
50.023432725978495
30
0.0
 70
     32
  0
VERTEX
  8
MY3DLAYER
10
336.2731895445039
20
49.81632594479195
30
0.0
 70
     32
  0
VERTEX
  8
MY3DLAYER
10
336.48029632569046
20
49.657407322194054
30
0.0
 70
     32
  0
VERTEX
  8
MY3DLAYER
10
336.7214772805879
20
49.55750689968943
30
0.0
 70
     32
  0
SEQEND
  0
POLYLINE
 8
Layer0
 66
     1
70
    8
 10
0.0
 20
 0.0
 30
0.0
  0
VERTEX
  8
MY3DLAYER
10
330.98029632569046
20
49.523432725978495
30
0.0
 70
     32
  0
VERTEX
  8
MY3DLAYER
10
331.239115370793
20
49.55750689968943
30
0.0
 70
     32
  0
VERTEX
  8
MY3DLAYER
10
331.48029632569046
20
49.657407322194054
30
0.0
 70
     32
  0
VERTEX
  8
MY3DLAYER
10
331.687403106877
20
49.81632594479195
30
0.0
 70
     32
  0
VERTEX
  8
MY3DLAYER
10
331.8463217294749
20
50.023432725978495
30
0.0
 70
     32
  0
VERTEX
  8
MY3DLAYER
10
331.94622215197955
20
50.264613680875975
30
0.0
 70
     32
  0
VERTEX
  8
MY3DLAYER
10
331.98029632569046
20
50.523432725978495
30
0.0
 70
     32
  0
VERTEX
  8
MY3DLAYER
10
331.94622215197955
20
50.78225177108102
30
0.0
 70
     32
  0
VERTEX
  8
MY3DLAYER
10
331.8463217294749
20
51.02343272597849
30
0.0
 70
     32
  0
VERTEX
  8
MY3DLAYER
10
331.687403106877
20
51.23053950716504
30
0.0
 70
     32
  0
VERTEX
  8
MY3DLAYER
10
331.4802963256905
20
51.389458129762936
30
0.0
 70
     32
  0
VERTEX
  8
MY3DLAYER
10
331.239115370793
20
51.48935855226756
30
0.0
 70
     32
  0
VERTEX
  8
MY3DLAYER
10
330.98029632569046
20
51.5234327259785
30
0.0
 70
     32
  0
VERTEX
  8
MY3DLAYER
10
330.7214772805879
20
51.48935855226756
30
0.0
 70
     32
  0
VERTEX
  8
MY3DLAYER
10
330.4802963256905
20
51.389458129762936
30
0.0
 70
     32
  0
VERTEX
  8
MY3DLAYER
10
330.2731895445039
20
51.23053950716504
30
0.0
 70
     32
  0
VERTEX
  8
MY3DLAYER
10
330.11427092190604
20
51.0234327259785
30
0.0
 70
     32
  0
VERTEX
  8
MY3DLAYER
10
330.01437049940137
20
50.78225177108102
30
0.0
 70
     32
  0
VERTEX
  8
MY3DLAYER
10
329.98029632569046
20
50.523432725978495
30
0.0
 70
     32
  0
VERTEX
  8
MY3DLAYER
10
330.01437049940137
20
50.264613680875975
30
0.0
 70
     32
  0
VERTEX
  8
MY3DLAYER
10
330.11427092190604
20
50.023432725978495
30
0.0
 70
     32
  0
VERTEX
  8
MY3DLAYER
10
330.2731895445039
20
49.81632594479195
30
0.0
 70
     32
  0
VERTEX
  8
MY3DLAYER
10
330.48029632569046
20
49.657407322194054
30
0.0
 70
     32
  0
VERTEX
  8
MY3DLAYER
10
330.7214772805879
20
49.55750689968943
30
0.0
 70
     32
  0
VERTEX
  8
MY3DLAYER
10
330.98029632569046
20
49.523432725978495
30
0.0
 70
     32
  0
SEQEND
  0
POLYLINE
 8
Layer0
 66
     1
70
    8
 10
0.0
 20
 0.0
 30
0.0
  0
VERTEX
  8
MY3DLAYER
10
334.0597058482417
20
53.80639563912304
30
0.0
 70
     32
  0
VERTEX
  8
MY3DLAYER
10
333.98029632569046
20
53.81685010109914
30
0.0
 70
     32
  0
VERTEX
  8
MY3DLAYER
10
333.93029632569045
20
53.823432725978506
30
0.0
 70
     32
  0
VERTEX
  8
MY3DLAYER
10
333.80088680313924
20
53.80639563912304
30
0.0
 70
     32
  0
VERTEX
  8
MY3DLAYER
10
333.6802963256905
20
53.75644542787072
30
0.0
 70
     32
  0
VERTEX
  8
MY3DLAYER
10
333.57674293509723
20
53.67698611657178
30
0.0
 70
     32
  0
VERTEX
  8
MY3DLAYER
10
333.49728362379824
20
53.573432725978506
30
0.0
 70
     32
  0
VERTEX
  8
MY3DLAYER
10
333.44733341254596
20
53.45284224852976
30
0.0
 70
     32
  0
VERTEX
  8
MY3DLAYER
10
333.43029632569045
20
53.323432725978506
30
0.0
 70
     32
  0
VERTEX
  8
MY3DLAYER
10
333.44733341254596
20
53.19402320342725
30
0.0
 70
     32
  0
VERTEX
  8
MY3DLAYER
10
333.49728362379824
20
53.073432725978506
30
0.0
 70
     32
  0
VERTEX
  8
MY3DLAYER
10
333.57674293509723
20
52.96987933538523
30
0.0
 70
     32
  0
VERTEX
  8
MY3DLAYER
10
333.6802963256905
20
52.89042002408629
30
0.0
 70
     32
  0
VERTEX
  8
MY3DLAYER
10
333.80088680313924
20
52.84046981283398
30
0.0
 70
     32
  0
VERTEX
  8
MY3DLAYER
10
333.93029632569045
20
52.823432725978506
30
0.0
 70
     32
  0
VERTEX
  8
MY3DLAYER
10
333.98029632569046
20
52.83001535085787
30
0.0
 70
     32
  0
VERTEX
  8
MY3DLAYER
10
334.0597058482417
20
52.84046981283398
30
0.0
 70
     32
  0
VERTEX
  8
MY3DLAYER
10
334.18029632569045
20
52.89042002408629
30
0.0
 70
     32
  0
VERTEX
  8
MY3DLAYER
10
334.2838497162837
20
52.96987933538523
30
0.0
 70
     32
  0
VERTEX
  8
MY3DLAYER
10
334.3633090275827
20
53.073432725978506
30
0.0
 70
     32
  0
VERTEX
  8
MY3DLAYER
10
334.413259238835
20
53.19402320342725
30
0.0
 70
     32
  0
VERTEX
  8
MY3DLAYER
10
334.4302963256905
20
53.323432725978506
30
0.0
 70
     32
  0
VERTEX
  8
MY3DLAYER
10
334.413259238835
20
53.45284224852976
30
0.0
 70
     32
  0
VERTEX
  8
MY3DLAYER
10
334.3633090275827
20
53.573432725978506
30
0.0
 70
     32
  0
VERTEX
  8
MY3DLAYER
10
334.2838497162837
20
53.67698611657178
30
0.0
 70
     32
  0
VERTEX
  8
MY3DLAYER
10
334.18029632569045
20
53.75644542787072
30
0.0
 70
     32
  0
VERTEX
  8
MY3DLAYER
10
334.0597058482417
20
53.80639563912304
30
0.0
 70
     32
  0
SEQEND
  0
POLYLINE
 8
Layer0
 66
     1
70
    8
 10
0.0
 20
 0.0
 30
0.0
  0
VERTEX
  8
MY3DLAYER
10
342.9802963256905
20
58.42343272597862
30
0.0
 70
     32
  0
VERTEX
  8
MY3DLAYER
10
342.9802963256905
20
55.42343272597863
30
0.0
 70
     32
  0
VERTEX
  8
MY3DLAYER
10
343.9802963256905
20
55.42343272597863
30
0.0
 70
     32
  0
VERTEX
  8
MY3DLAYER
10
343.9802963256905
20
58.42343272597862
30
0.0
 70
     32
  0
VERTEX
  8
MY3DLAYER
10
342.9802963256905
20
58.42343272597862
30
0.0
 70
     32
  0
SEQEND
  0
POLYLINE
 8
Layer0
 66
     1
70
    8
 10
0.0
 20
 0.0
 30
0.0
  0
VERTEX
  8
MY3DLAYER
10
339.9802963256905
20
58.42343272597862
30
0.0
 70
     32
  0
VERTEX
  8
MY3DLAYER
10
327.98029632569046
20
58.42343272597862
30
0.0
 70
     32
  0
VERTEX
  8
MY3DLAYER
10
327.98029632569046
20
55.423432725978614
30
0.0
 70
     32
  0
VERTEX
  8
MY3DLAYER
10
339.9802963256905
20
55.423432725978614
30
0.0
 70
     32
  0
VERTEX
  8
MY3DLAYER
10
339.9802963256905
20
58.42343272597862
30
0.0
 70
     32
  0
SEQEND
 0
ENDSEC
 0
EOF
