solid Fabrikator-Fanduct
facet normal 0.9858558466698175 0.16759549393386897 0.0
  outer loop
    vertex 10.399999999999999 20.0 0.0
    vertex 13.799999999999997 -1.2309377503185269e-15 21.599999999999987
    vertex 13.799999999999997 -1.2309377503185269e-15 0.0
  endloop
endfacet
facet normal 0.9858558466698175 0.16759549393386897 0.0
  outer loop
    vertex 13.799999999999997 -1.2309377503185269e-15 21.599999999999987
    vertex 10.399999999999999 20.0 0.0
    vertex 10.399999999999999 20.0 21.599999999999987
  endloop
endfacet
facet normal 5.274746294020548e-33 2.579758512952662e-32 -1.0
  outer loop
    vertex 42.2 30.0 21.599999999999987
    vertex 39.95647735372337 11.841185892607587 21.599999999999987
    vertex 39.272687702853524 12.534541051239755 21.599999999999987
  endloop
endfacet
facet normal 5.274746294020548e-33 2.579758512952662e-32 -1.0
  outer loop
    vertex 39.95647735372337 11.841185892607587 21.599999999999987
    vertex 42.2 30.0 21.599999999999987
    vertex 43.0 30.0 21.599999999999987
  endloop
endfacet
facet normal 5.274746294020548e-33 2.579758512952662e-32 -1.0
  outer loop
    vertex 13.842795420378156 12.636448978825253 21.599999999999987
    vertex 12.888736847327056 12.419195015723172 21.599999999999987
    vertex 12.161962391587023 16.69433887301747 21.599999999999987
  endloop
endfacet
facet normal 5.274746294020548e-33 2.579758512952662e-32 -1.0
  outer loop
    vertex 12.888736847327056 12.419195015723172 21.599999999999987
    vertex 13.842795420378156 12.636448978825253 21.599999999999987
    vertex 13.000241073762826 12.150000000000013 21.599999999999987
  endloop
endfacet
facet normal 5.274746294020548e-33 2.579758512952662e-32 -1.0
  outer loop
    vertex 13.000241073762826 12.150000000000013 21.599999999999987
    vertex 13.842795420378156 12.636448978825253 21.599999999999987
    vertex 15.49526344854972 8.898423535371206 21.599999999999987
  endloop
endfacet
facet normal 5.274746294020548e-33 2.579758512952662e-32 -1.0
  outer loop
    vertex 15.49526344854972 8.898423535371206 21.599999999999987
    vertex 13.842795420378156 12.636448978825253 21.599999999999987
    vertex 16.183206191806928 9.58636627862842 21.599999999999987
  endloop
endfacet
facet normal 5.274746294020548e-33 2.579758512952662e-32 -1.0
  outer loop
    vertex 15.49526344854972 8.898423535371206 21.599999999999987
    vertex 16.183206191806928 9.58636627862842 21.599999999999987
    vertex 18.746839913178512 6.4034011605843215 21.599999999999987
  endloop
endfacet
facet normal 5.274746294020548e-33 2.579758512952662e-32 -1.0
  outer loop
    vertex 18.746839913178512 6.4034011605843215 21.599999999999987
    vertex 16.183206191806928 9.58636627862842 21.599999999999987
    vertex 19.233288892003756 7.245955507199648 21.599999999999987
  endloop
endfacet
facet normal 5.274746294020548e-33 2.579758512952662e-32 -1.0
  outer loop
    vertex 18.746839913178512 6.4034011605843215 21.599999999999987
    vertex 19.233288892003756 7.245955507199648 21.599999999999987
    vertex 22.53338090506893 4.8349645272616355 21.599999999999987
  endloop
endfacet
facet normal 5.274746294020548e-33 2.579758512952662e-32 -1.0
  outer loop
    vertex 22.53338090506893 4.8349645272616355 21.599999999999987
    vertex 19.233288892003756 7.245955507199648 21.599999999999987
    vertex 22.785185425450226 5.774711790900134 21.599999999999987
  endloop
endfacet
facet normal 5.274746294020548e-33 2.579758512952662e-32 -1.0
  outer loop
    vertex 22.53338090506893 4.8349645272616355 21.599999999999987
    vertex 22.785185425450226 5.774711790900134 21.599999999999987
    vertex 26.59683991317852 4.300000000000003 21.599999999999987
  endloop
endfacet
facet normal 5.274746294020548e-33 2.579758512952662e-32 -1.0
  outer loop
    vertex 26.59683991317852 4.300000000000003 21.599999999999987
    vertex 22.785185425450226 5.774711790900134 21.599999999999987
    vertex 26.596839913178513 5.272897957650496 21.599999999999987
  endloop
endfacet
facet normal 5.274746294020548e-33 2.579758512952662e-32 -1.0
  outer loop
    vertex 26.59683991317852 4.300000000000003 21.599999999999987
    vertex 26.596839913178513 5.272897957650496 21.599999999999987
    vertex 28.0 5.4576274875954915 21.599999999999987
  endloop
endfacet
facet normal 5.274746294020548e-33 2.579758512952662e-32 -1.0
  outer loop
    vertex 26.59683991317852 4.300000000000003 21.599999999999987
    vertex 28.0 5.4576274875954915 21.599999999999987
    vertex 28.0 4.484729529944998 21.599999999999987
  endloop
endfacet
facet normal 5.274746294020548e-33 2.579758512952662e-32 -1.0
  outer loop
    vertex 28.0 4.484729529944998 21.599999999999987
    vertex 28.0 5.4576274875954915 21.599999999999987
    vertex 30.40849440090679 5.7747117909001275 21.599999999999987
  endloop
endfacet
facet normal 5.274746294020548e-33 2.579758512952662e-32 -1.0
  outer loop
    vertex 28.0 4.484729529944998 21.599999999999987
    vertex 30.40849440090679 5.7747117909001275 21.599999999999987
    vertex 30.660298921288096 4.834964527261629 21.599999999999987
  endloop
endfacet
facet normal 5.274746294020548e-33 2.579758512952662e-32 -1.0
  outer loop
    vertex 30.660298921288096 4.834964527261629 21.599999999999987
    vertex 30.40849440090679 5.7747117909001275 21.599999999999987
    vertex 33.960390934353256 7.245955507199634 21.599999999999987
  endloop
endfacet
facet normal 5.274746294020548e-33 2.579758512952662e-32 -1.0
  outer loop
    vertex 30.660298921288096 4.834964527261629 21.599999999999987
    vertex 33.960390934353256 7.245955507199634 21.599999999999987
    vertex 34.446839913178515 6.403401160584316 21.599999999999987
  endloop
endfacet
facet normal 5.274746294020548e-33 2.579758512952662e-32 -1.0
  outer loop
    vertex 34.446839913178515 6.403401160584316 21.599999999999987
    vertex 33.960390934353256 7.245955507199634 21.599999999999987
    vertex 37.01047363455011 9.58636627862841 21.599999999999987
  endloop
endfacet
facet normal 5.274746294020548e-33 2.579758512952662e-32 -1.0
  outer loop
    vertex 34.446839913178515 6.403401160584316 21.599999999999987
    vertex 37.01047363455011 9.58636627862841 21.599999999999987
    vertex 37.69841637780731 8.898423535371206 21.599999999999987
  endloop
endfacet
facet normal 5.274746294020548e-33 2.579758512952662e-32 -1.0
  outer loop
    vertex 37.69841637780731 8.898423535371206 21.599999999999987
    vertex 37.01047363455011 9.58636627862841 21.599999999999987
    vertex 39.272687702853524 12.534541051239755 21.599999999999987
  endloop
endfacet
facet normal 5.274746294020548e-33 2.579758512952662e-32 -1.0
  outer loop
    vertex 37.69841637780731 8.898423535371206 21.599999999999987
    vertex 39.272687702853524 12.534541051239755 21.599999999999987
    vertex 38.756477353723376 10.277315445198141 21.599999999999987
  endloop
endfacet
facet normal 5.274746294020548e-33 2.579758512952662e-32 -1.0
  outer loop
    vertex 38.756477353723376 10.277315445198141 21.599999999999987
    vertex 39.272687702853524 12.534541051239755 21.599999999999987
    vertex 38.756477353723376 -1.4099832412739487e-15 21.599999999999987
  endloop
endfacet
facet normal 5.274746294020548e-33 2.579758512952662e-32 -1.0
  outer loop
    vertex 38.756477353723376 -1.4099832412739487e-15 21.599999999999987
    vertex 39.272687702853524 12.534541051239755 21.599999999999987
    vertex 39.95647735372337 -1.4099832412739487e-15 21.599999999999987
  endloop
endfacet
facet normal 5.274746294020548e-33 2.579758512952662e-32 -1.0
  outer loop
    vertex 39.95647735372337 -1.4099832412739487e-15 21.599999999999987
    vertex 39.272687702853524 12.534541051239755 21.599999999999987
    vertex 39.95647735372337 11.841185892607587 21.599999999999987
  endloop
endfacet
facet normal 5.274746294020548e-33 2.579758512952662e-32 -1.0
  outer loop
    vertex 11.599999999999998 20.0 21.599999999999987
    vertex 13.799999999999997 -1.2309377503185269e-15 21.599999999999987
    vertex 10.399999999999999 20.0 21.599999999999987
  endloop
endfacet
facet normal 5.274746294020548e-33 2.579758512952662e-32 -1.0
  outer loop
    vertex 13.799999999999997 -1.2309377503185269e-15 21.599999999999987
    vertex 11.599999999999998 20.0 21.599999999999987
    vertex 12.161962391587023 16.69433887301747 21.599999999999987
  endloop
endfacet
facet normal 5.274746294020548e-33 2.579758512952662e-32 -1.0
  outer loop
    vertex 13.799999999999997 -1.2309377503185269e-15 21.599999999999987
    vertex 12.161962391587023 16.69433887301747 21.599999999999987
    vertex 12.888736847327056 12.419195015723172 21.599999999999987
  endloop
endfacet
facet normal 5.274746294020548e-33 2.579758512952662e-32 -1.0
  outer loop
    vertex 13.799999999999997 -1.2309377503185269e-15 21.599999999999987
    vertex 12.888736847327056 12.419195015723172 21.599999999999987
    vertex 14.999999999999998 -1.4099832412739487e-15 21.599999999999987
  endloop
endfacet
facet normal 0.0 0.0 -1.0
  outer loop
    vertex 28.0 20.0 0.0
    vertex 12.161962391587023 16.69433887301747 0.0
    vertex 11.599999999999998 20.0 0.0
  endloop
endfacet
facet normal 0.0 0.0 -1.0
  outer loop
    vertex 12.161962391587023 16.69433887301747 0.0
    vertex 28.0 20.0 0.0
    vertex 13.842795420378156 12.636448978825253 0.0
  endloop
endfacet
facet normal 0.0 0.0 -1.0
  outer loop
    vertex 13.842795420378156 12.636448978825253 0.0
    vertex 28.0 20.0 0.0
    vertex 16.183206191806928 9.58636627862842 0.0
  endloop
endfacet
facet normal 0.0 0.0 -1.0
  outer loop
    vertex 16.183206191806928 9.58636627862842 0.0
    vertex 28.0 20.0 0.0
    vertex 19.233288892003756 7.245955507199648 0.0
  endloop
endfacet
facet normal 0.0 0.0 -1.0
  outer loop
    vertex 19.233288892003756 7.245955507199648 0.0
    vertex 28.0 20.0 0.0
    vertex 22.785185425450226 5.774711790900134 0.0
  endloop
endfacet
facet normal 0.0 0.0 -1.0
  outer loop
    vertex 22.785185425450226 5.774711790900134 0.0
    vertex 28.0 20.0 0.0
    vertex 26.596839913178513 5.272897957650496 0.0
  endloop
endfacet
facet normal 0.0 0.0 -1.0
  outer loop
    vertex 26.596839913178513 5.272897957650496 0.0
    vertex 28.0 20.0 0.0
    vertex 28.0 5.4576274875954915 0.0
  endloop
endfacet
facet normal 0.0 0.0 -1.0
  outer loop
    vertex 28.0 5.4576274875954915 0.0
    vertex 28.0 20.0 0.0
    vertex 28.127778151415992 19.02942858086555 0.0
  endloop
endfacet
facet normal 0.0 0.0 -1.0
  outer loop
    vertex 28.0 5.4576274875954915 0.0
    vertex 28.127778151415992 19.02942858086555 0.0
    vertex 30.40849440090679 5.7747117909001275 0.0
  endloop
endfacet
facet normal 0.0 0.0 -1.0
  outer loop
    vertex 30.40849440090679 5.7747117909001275 0.0
    vertex 28.127778151415992 19.02942858086555 0.0
    vertex 28.502404735808355 18.125 0.0
  endloop
endfacet
facet normal 0.0 0.0 -1.0
  outer loop
    vertex 30.40849440090679 5.7747117909001275 0.0
    vertex 28.502404735808355 18.125 0.0
    vertex 29.098349570550443 17.34834957055045 0.0
  endloop
endfacet
facet normal 0.0 0.0 -1.0
  outer loop
    vertex 30.40849440090679 5.7747117909001275 0.0
    vertex 29.098349570550443 17.34834957055045 0.0
    vertex 29.874999999999996 16.75240473580836 0.0
  endloop
endfacet
facet normal 0.0 0.0 -1.0
  outer loop
    vertex 30.40849440090679 5.7747117909001275 0.0
    vertex 29.874999999999996 16.75240473580836 0.0
    vertex 30.779428580865545 16.377778151415995 0.0
  endloop
endfacet
facet normal 0.0 0.0 -1.0
  outer loop
    vertex 30.40849440090679 5.7747117909001275 0.0
    vertex 30.779428580865545 16.377778151415995 0.0
    vertex 33.960390934353256 7.245955507199634 0.0
  endloop
endfacet
facet normal 0.0 0.0 -1.0
  outer loop
    vertex 33.960390934353256 7.245955507199634 0.0
    vertex 30.779428580865545 16.377778151415995 0.0
    vertex 31.75 16.25 0.0
  endloop
endfacet
facet normal 0.0 0.0 -1.0
  outer loop
    vertex 33.960390934353256 7.245955507199634 0.0
    vertex 31.75 16.25 0.0
    vertex 32.72057141913445 16.377778151415995 0.0
  endloop
endfacet
facet normal 0.0 0.0 -1.0
  outer loop
    vertex 33.960390934353256 7.245955507199634 0.0
    vertex 32.72057141913445 16.377778151415995 0.0
    vertex 33.62499999999999 16.752404735808355 0.0
  endloop
endfacet
facet normal 0.0 0.0 -1.0
  outer loop
    vertex 33.960390934353256 7.245955507199634 0.0
    vertex 33.62499999999999 16.752404735808355 0.0
    vertex 34.40165042944955 17.34834957055045 0.0
  endloop
endfacet
facet normal 0.0 0.0 -1.0
  outer loop
    vertex 33.960390934353256 7.245955507199634 0.0
    vertex 34.40165042944955 17.34834957055045 0.0
    vertex 37.01047363455011 9.58636627862841 0.0
  endloop
endfacet
facet normal 0.0 0.0 -1.0
  outer loop
    vertex 37.01047363455011 9.58636627862841 0.0
    vertex 34.40165042944955 17.34834957055045 0.0
    vertex 34.99759526419164 18.125 0.0
  endloop
endfacet
facet normal 0.0 0.0 -1.0
  outer loop
    vertex 37.01047363455011 9.58636627862841 0.0
    vertex 34.99759526419164 18.125 0.0
    vertex 35.372221848584005 19.029428580865545 0.0
  endloop
endfacet
facet normal 0.0 0.0 -1.0
  outer loop
    vertex 37.01047363455011 9.58636627862841 0.0
    vertex 35.372221848584005 19.029428580865545 0.0
    vertex 40.0 30.0 0.0
  endloop
endfacet
facet normal 0.0 0.0 -1.0
  outer loop
    vertex 37.01047363455011 9.58636627862841 0.0
    vertex 40.0 30.0 0.0
    vertex 39.272687702853524 12.534541051239755 0.0
  endloop
endfacet
facet normal 0.0 0.0 -1.0
  outer loop
    vertex 39.272687702853524 12.534541051239755 0.0
    vertex 40.0 30.0 0.0
    vertex 42.2 30.0 0.0
  endloop
endfacet
facet normal -1.0 0.0 0.0
  outer loop
    vertex 39.95647735372337 11.841185892607587 21.599999999999987
    vertex 39.95647735372337 0.0 -0.8000000000000002
    vertex 39.95647735372337 -1.4099832412739487e-15 21.599999999999987
  endloop
endfacet
facet normal -1.0 0.0 0.0
  outer loop
    vertex 39.95647735372337 0.0 -0.8000000000000002
    vertex 39.95647735372337 11.841185892607587 21.599999999999987
    vertex 39.95647735372337 11.841185892607587 -0.8000000000000002
  endloop
endfacet
facet normal -0.9862433145917812 0.1653001041228261 0.0
  outer loop
    vertex 43.0 30.0 21.599999999999987
    vertex 39.95647735372337 11.841185892607587 -0.8000000000000002
    vertex 39.95647735372337 11.841185892607587 21.599999999999987
  endloop
endfacet
facet normal -0.9862433145917812 0.1653001041228261 0.0
  outer loop
    vertex 39.95647735372337 11.841185892607587 -0.8000000000000002
    vertex 43.0 30.0 21.599999999999987
    vertex 43.0 30.0 -0.8000000000000002
  endloop
endfacet
facet normal 0.9213771442641574 -0.3886697287255929 -0.0
  outer loop
    vertex 39.2 30.0 -0.8000000000000002
    vertex 34.98164347634217 19.999999999999996 21.599999999999987
    vertex 34.98164347634217 19.999999999999996 -0.8000000000000002
  endloop
endfacet
facet normal 0.9213771442641574 -0.3886697287255929 -0.0
  outer loop
    vertex 34.98164347634217 19.999999999999996 21.599999999999987
    vertex 39.2 30.0 -0.8000000000000002
    vertex 39.2 30.0 21.599999999999987
  endloop
endfacet
facet normal -5.78430795072292e-17 -1.0 7.906698420337989e-18
  outer loop
    vertex 11.599999999999998 20.0 21.599999999999987
    vertex 10.399999999999999 20.0 0.0
    vertex 11.599999999999998 20.0 0.0
  endloop
endfacet
facet normal -5.78430795072292e-17 -1.0 7.906698420337989e-18
  outer loop
    vertex 10.399999999999999 20.0 0.0
    vertex 11.599999999999998 20.0 21.599999999999987
    vertex 10.399999999999999 20.0 21.599999999999987
  endloop
endfacet
facet normal -5.78430795072292e-17 -1.0 7.906698420337989e-18
  outer loop
    vertex 0.0 20.0 -0.8000000000000002
    vertex 1.2 20.0 0.0
    vertex 0.0 20.0 21.6
  endloop
endfacet
facet normal -5.78430795072292e-17 -1.0 7.906698420337989e-18
  outer loop
    vertex 1.2 20.0 0.0
    vertex 0.0 20.0 -0.8000000000000002
    vertex 28.0 20.0 0.0
  endloop
endfacet
facet normal -5.78430795072292e-17 -1.0 7.906698420337989e-18
  outer loop
    vertex 1.2 20.0 0.0
    vertex 28.0 20.0 0.0
    vertex 11.599999999999998 20.0 0.0
  endloop
endfacet
facet normal -5.78430795072292e-17 -1.0 7.906698420337989e-18
  outer loop
    vertex 1.2 20.0 0.0
    vertex 11.599999999999998 20.0 0.0
    vertex 10.399999999999999 20.0 0.0
  endloop
endfacet
facet normal -5.78430795072292e-17 -1.0 7.906698420337989e-18
  outer loop
    vertex 0.0 20.0 21.6
    vertex 1.2 20.0 0.0
    vertex 1.2 20.0 21.6
  endloop
endfacet
facet normal -5.78430795072292e-17 -1.0 7.906698420337989e-18
  outer loop
    vertex 34.98164347634217 19.999999999999996 -0.8000000000000002
    vertex 28.0 20.0 0.0
    vertex 0.0 20.0 -0.8000000000000002
  endloop
endfacet
facet normal -5.78430795072292e-17 -1.0 7.906698420337989e-18
  outer loop
    vertex 28.0 20.0 0.0
    vertex 34.98164347634217 19.999999999999996 -0.8000000000000002
    vertex 34.98164347634217 19.999999999999996 21.599999999999987
  endloop
endfacet
facet normal -5.78430795072292e-17 -1.0 7.906698420337989e-18
  outer loop
    vertex 28.0 20.0 0.0
    vertex 34.98164347634217 19.999999999999996 21.599999999999987
    vertex 28.0 20.0 21.599999999999987
  endloop
endfacet
facet normal 1.0 -0.0 -0.0
  outer loop
    vertex 0.0 20.0 -0.8000000000000002
    vertex 0.0 0.0 21.6
    vertex 0.0 0.0 -0.8000000000000002
  endloop
endfacet
facet normal 1.0 -0.0 -0.0
  outer loop
    vertex 0.0 0.0 21.6
    vertex 0.0 20.0 -0.8000000000000002
    vertex 0.0 20.0 21.6
  endloop
endfacet
facet normal -0.0 -0.0 1.0
  outer loop
    vertex 39.95647735372337 0.0 -0.8000000000000002
    vertex 0.0 20.0 -0.8000000000000002
    vertex 0.0 0.0 -0.8000000000000002
  endloop
endfacet
facet normal -0.0 -0.0 1.0
  outer loop
    vertex 0.0 20.0 -0.8000000000000002
    vertex 39.95647735372337 0.0 -0.8000000000000002
    vertex 34.98164347634217 19.999999999999996 -0.8000000000000002
  endloop
endfacet
facet normal -0.0 -0.0 1.0
  outer loop
    vertex 34.98164347634217 19.999999999999996 -0.8000000000000002
    vertex 39.95647735372337 0.0 -0.8000000000000002
    vertex 39.2 30.0 -0.8000000000000002
  endloop
endfacet
facet normal -0.0 -0.0 1.0
  outer loop
    vertex 39.2 30.0 -0.8000000000000002
    vertex 39.95647735372337 0.0 -0.8000000000000002
    vertex 39.95647735372337 11.841185892607587 -0.8000000000000002
  endloop
endfacet
facet normal -0.0 -0.0 1.0
  outer loop
    vertex 39.2 30.0 -0.8000000000000002
    vertex 39.95647735372337 11.841185892607587 -0.8000000000000002
    vertex 43.0 30.0 -0.8000000000000002
  endloop
endfacet
facet normal 0.0 0.0 -1.0
  outer loop
    vertex 13.000241073762826 12.150000000000013 0.0
    vertex 14.999999999999998 -1.4099832412739487e-15 0.0
    vertex 12.888736847327056 12.419195015723172 0.0
  endloop
endfacet
facet normal 0.0 0.0 -1.0
  outer loop
    vertex 14.999999999999998 -1.4099832412739487e-15 0.0
    vertex 13.000241073762826 12.150000000000013 0.0
    vertex 15.49526344854972 8.898423535371206 0.0
  endloop
endfacet
facet normal 0.0 0.0 -1.0
  outer loop
    vertex 14.999999999999998 -1.4099832412739487e-15 0.0
    vertex 15.49526344854972 8.898423535371206 0.0
    vertex 18.746839913178512 6.4034011605843215 0.0
  endloop
endfacet
facet normal 0.0 0.0 -1.0
  outer loop
    vertex 14.999999999999998 -1.4099832412739487e-15 0.0
    vertex 18.746839913178512 6.4034011605843215 0.0
    vertex 22.53338090506893 4.8349645272616355 0.0
  endloop
endfacet
facet normal 0.0 0.0 -1.0
  outer loop
    vertex 14.999999999999998 -1.4099832412739487e-15 0.0
    vertex 22.53338090506893 4.8349645272616355 0.0
    vertex 38.756477353723376 -1.4099832412739487e-15 0.0
  endloop
endfacet
facet normal 0.0 0.0 -1.0
  outer loop
    vertex 38.756477353723376 -1.4099832412739487e-15 0.0
    vertex 22.53338090506893 4.8349645272616355 0.0
    vertex 26.59683991317852 4.300000000000003 0.0
  endloop
endfacet
facet normal 0.0 0.0 -1.0
  outer loop
    vertex 38.756477353723376 -1.4099832412739487e-15 0.0
    vertex 26.59683991317852 4.300000000000003 0.0
    vertex 28.0 4.484729529944998 0.0
  endloop
endfacet
facet normal 0.0 0.0 -1.0
  outer loop
    vertex 38.756477353723376 -1.4099832412739487e-15 0.0
    vertex 28.0 4.484729529944998 0.0
    vertex 30.660298921288096 4.834964527261629 0.0
  endloop
endfacet
facet normal 0.0 0.0 -1.0
  outer loop
    vertex 38.756477353723376 -1.4099832412739487e-15 0.0
    vertex 30.660298921288096 4.834964527261629 0.0
    vertex 34.446839913178515 6.403401160584316 0.0
  endloop
endfacet
facet normal 0.0 0.0 -1.0
  outer loop
    vertex 38.756477353723376 -1.4099832412739487e-15 0.0
    vertex 34.446839913178515 6.403401160584316 0.0
    vertex 37.69841637780731 8.898423535371206 0.0
  endloop
endfacet
facet normal 0.0 0.0 -1.0
  outer loop
    vertex 38.756477353723376 -1.4099832412739487e-15 0.0
    vertex 37.69841637780731 8.898423535371206 0.0
    vertex 38.756477353723376 10.277315445198141 0.0
  endloop
endfacet
facet normal 0.0 0.0 -1.0
  outer loop
    vertex 10.399999999999999 20.0 0.0
    vertex 1.2 0.0 0.0
    vertex 1.2 20.0 0.0
  endloop
endfacet
facet normal 0.0 0.0 -1.0
  outer loop
    vertex 1.2 0.0 0.0
    vertex 10.399999999999999 20.0 0.0
    vertex 13.799999999999997 -1.2309377503185269e-15 0.0
  endloop
endfacet
facet normal -0.9213771442641575 0.3886697287255929 -0.0
  outer loop
    vertex 40.0 30.0 21.599999999999987
    vertex 35.372221848584005 19.029428580865545 0.0
    vertex 35.372221848584005 19.029428580865545 21.599999999999987
  endloop
endfacet
facet normal -0.9213771442641575 0.3886697287255929 -0.0
  outer loop
    vertex 35.372221848584005 19.029428580865545 0.0
    vertex 40.0 30.0 21.599999999999987
    vertex 40.0 30.0 0.0
  endloop
endfacet
facet normal -0.9238795325112856 0.3826834323650927 -0.0
  outer loop
    vertex 35.372221848584005 19.029428580865545 21.599999999999987
    vertex 34.99759526419164 18.125 0.0
    vertex 34.99759526419164 18.125 21.599999999999987
  endloop
endfacet
facet normal -0.8660254037844384 0.5000000000000006 0.0
  outer loop
    vertex 34.99759526419164 18.125 0.0
    vertex 35.372221848584005 19.029428580865545 21.599999999999987
    vertex 35.372221848584005 19.029428580865545 0.0
  endloop
endfacet
facet normal -0.8660254037844384 0.5000000000000006 0.0
  outer loop
    vertex 34.99759526419164 18.125 21.599999999999987
    vertex 34.40165042944955 17.34834957055045 0.0
    vertex 34.40165042944955 17.34834957055045 21.599999999999987
  endloop
endfacet
facet normal -0.7071067811865478 0.7071067811865471 0.0
  outer loop
    vertex 34.40165042944955 17.34834957055045 0.0
    vertex 34.99759526419164 18.125 21.599999999999987
    vertex 34.99759526419164 18.125 0.0
  endloop
endfacet
facet normal -0.4999999999999987 0.8660254037844394 0.0
  outer loop
    vertex 33.62499999999999 16.752404735808355 21.599999999999987
    vertex 34.40165042944955 17.34834957055045 0.0
    vertex 33.62499999999999 16.752404735808355 0.0
  endloop
endfacet
facet normal -0.7071067811865478 0.7071067811865471 0.0
  outer loop
    vertex 34.40165042944955 17.34834957055045 0.0
    vertex 33.62499999999999 16.752404735808355 21.599999999999987
    vertex 34.40165042944955 17.34834957055045 21.599999999999987
  endloop
endfacet
facet normal -0.2588190451025206 0.9659258262890684 0.0
  outer loop
    vertex 32.72057141913445 16.377778151415995 21.599999999999987
    vertex 33.62499999999999 16.752404735808355 0.0
    vertex 32.72057141913445 16.377778151415995 0.0
  endloop
endfacet
facet normal -0.4999999999999987 0.8660254037844394 0.0
  outer loop
    vertex 33.62499999999999 16.752404735808355 0.0
    vertex 32.72057141913445 16.377778151415995 21.599999999999987
    vertex 33.62499999999999 16.752404735808355 21.599999999999987
  endloop
endfacet
facet normal 0.0 1.0 0.0
  outer loop
    vertex 31.75 16.25 21.599999999999987
    vertex 32.72057141913445 16.377778151415995 0.0
    vertex 31.75 16.25 0.0
  endloop
endfacet
facet normal -0.2588190451025206 0.9659258262890684 0.0
  outer loop
    vertex 32.72057141913445 16.377778151415995 0.0
    vertex 31.75 16.25 21.599999999999987
    vertex 32.72057141913445 16.377778151415995 21.599999999999987
  endloop
endfacet
facet normal 0.25881904510252074 0.9659258262890682 0.0
  outer loop
    vertex 30.779428580865545 16.377778151415995 21.599999999999987
    vertex 31.75 16.25 0.0
    vertex 30.779428580865545 16.377778151415995 0.0
  endloop
endfacet
facet normal 0.0 1.0 0.0
  outer loop
    vertex 31.75 16.25 0.0
    vertex 30.779428580865545 16.377778151415995 21.599999999999987
    vertex 31.75 16.25 21.599999999999987
  endloop
endfacet
facet normal 0.49999999999999944 0.8660254037844389 0.0
  outer loop
    vertex 29.874999999999996 16.75240473580836 21.599999999999987
    vertex 30.779428580865545 16.377778151415995 0.0
    vertex 29.874999999999996 16.75240473580836 0.0
  endloop
endfacet
facet normal 0.25881904510252074 0.9659258262890682 0.0
  outer loop
    vertex 30.779428580865545 16.377778151415995 0.0
    vertex 29.874999999999996 16.75240473580836 21.599999999999987
    vertex 30.779428580865545 16.377778151415995 21.599999999999987
  endloop
endfacet
facet normal 0.7071067811865482 0.7071067811865467 0.0
  outer loop
    vertex 29.098349570550443 17.34834957055045 21.599999999999987
    vertex 29.874999999999996 16.75240473580836 0.0
    vertex 29.098349570550443 17.34834957055045 0.0
  endloop
endfacet
facet normal 0.49999999999999944 0.8660254037844389 0.0
  outer loop
    vertex 29.874999999999996 16.75240473580836 0.0
    vertex 29.098349570550443 17.34834957055045 21.599999999999987
    vertex 29.874999999999996 16.75240473580836 21.599999999999987
  endloop
endfacet
facet normal 0.8660254037844386 0.5 0.0
  outer loop
    vertex 28.502404735808355 18.125 0.0
    vertex 29.098349570550443 17.34834957055045 21.599999999999987
    vertex 29.098349570550443 17.34834957055045 0.0
  endloop
endfacet
facet normal 0.7071067811865482 0.7071067811865467 0.0
  outer loop
    vertex 29.098349570550443 17.34834957055045 21.599999999999987
    vertex 28.502404735808355 18.125 0.0
    vertex 28.502404735808355 18.125 21.599999999999987
  endloop
endfacet
facet normal 0.9659258262890681 0.25881904510252113 0.0
  outer loop
    vertex 28.127778151415992 19.02942858086555 0.0
    vertex 28.502404735808355 18.125 21.599999999999987
    vertex 28.502404735808355 18.125 0.0
  endloop
endfacet
facet normal 0.8660254037844386 0.5 0.0
  outer loop
    vertex 28.502404735808355 18.125 21.599999999999987
    vertex 28.127778151415992 19.02942858086555 0.0
    vertex 28.127778151415992 19.02942858086555 21.599999999999987
  endloop
endfacet
facet normal 0.9914448613738106 0.13052619222005044 0.0
  outer loop
    vertex 28.0 20.0 0.0
    vertex 28.127778151415992 19.02942858086555 21.599999999999987
    vertex 28.127778151415992 19.02942858086555 0.0
  endloop
endfacet
facet normal 0.9659258262890681 0.25881904510252113 0.0
  outer loop
    vertex 28.127778151415992 19.02942858086555 21.599999999999987
    vertex 28.0 20.0 0.0
    vertex 28.0 20.0 21.599999999999987
  endloop
endfacet
facet normal -0.9238795325112874 -0.3826834323650882 -0.0
  outer loop
    vertex 12.161962391587023 16.69433887301747 21.599999999999987
    vertex 13.842795420378156 12.636448978825253 0.0
    vertex 13.842795420378156 12.636448978825253 21.599999999999987
  endloop
endfacet
facet normal -0.9238795325112874 -0.3826834323650882 -0.0
  outer loop
    vertex 13.842795420378156 12.636448978825253 0.0
    vertex 12.161962391587023 16.69433887301747 21.599999999999987
    vertex 12.161962391587023 16.69433887301747 0.0
  endloop
endfacet
facet normal -0.7933533402912352 -0.6087614290087207 -0.0
  outer loop
    vertex 13.842795420378156 12.636448978825253 21.599999999999987
    vertex 16.183206191806928 9.58636627862842 0.0
    vertex 16.183206191806928 9.58636627862842 21.599999999999987
  endloop
endfacet
facet normal -0.7071067811865478 -0.7071067811865472 0.0
  outer loop
    vertex 16.183206191806928 9.58636627862842 0.0
    vertex 13.842795420378156 12.636448978825253 21.599999999999987
    vertex 13.842795420378156 12.636448978825253 0.0
  endloop
endfacet
facet normal -0.500000000000001 -0.866025403784438 0.0
  outer loop
    vertex 19.233288892003756 7.245955507199648 21.599999999999987
    vertex 16.183206191806928 9.58636627862842 0.0
    vertex 19.233288892003756 7.245955507199648 0.0
  endloop
endfacet
facet normal -0.7071067811865478 -0.7071067811865472 0.0
  outer loop
    vertex 16.183206191806928 9.58636627862842 0.0
    vertex 19.233288892003756 7.245955507199648 21.599999999999987
    vertex 16.183206191806928 9.58636627862842 21.599999999999987
  endloop
endfacet
facet normal -0.25881904510252174 -0.9659258262890681 0.0
  outer loop
    vertex 22.785185425450226 5.774711790900134 21.599999999999987
    vertex 19.233288892003756 7.245955507199648 0.0
    vertex 22.785185425450226 5.774711790900134 0.0
  endloop
endfacet
facet normal -0.500000000000001 -0.866025403784438 0.0
  outer loop
    vertex 19.233288892003756 7.245955507199648 0.0
    vertex 22.785185425450226 5.774711790900134 21.599999999999987
    vertex 19.233288892003756 7.245955507199648 21.599999999999987
  endloop
endfacet
facet normal -2.851555166607009e-16 -1.0 0.0
  outer loop
    vertex 26.596839913178513 5.272897957650496 21.599999999999987
    vertex 22.785185425450226 5.774711790900134 0.0
    vertex 26.596839913178513 5.272897957650496 0.0
  endloop
endfacet
facet normal -0.25881904510252174 -0.9659258262890681 0.0
  outer loop
    vertex 22.785185425450226 5.774711790900134 0.0
    vertex 26.596839913178513 5.272897957650496 21.599999999999987
    vertex 22.785185425450226 5.774711790900134 21.599999999999987
  endloop
endfacet
facet normal 0.1305261922200516 -0.9914448613738106 -0.0
  outer loop
    vertex 28.0 5.4576274875954915 21.599999999999987
    vertex 26.596839913178513 5.272897957650496 0.0
    vertex 28.0 5.4576274875954915 0.0
  endloop
endfacet
facet normal -2.851555166607009e-16 -1.0 0.0
  outer loop
    vertex 26.596839913178513 5.272897957650496 0.0
    vertex 28.0 5.4576274875954915 21.599999999999987
    vertex 26.596839913178513 5.272897957650496 21.599999999999987
  endloop
endfacet
facet normal 0.2588190451025203 -0.9659258262890684 0.0
  outer loop
    vertex 30.40849440090679 5.7747117909001275 21.599999999999987
    vertex 28.0 5.4576274875954915 0.0
    vertex 30.40849440090679 5.7747117909001275 0.0
  endloop
endfacet
facet normal 0.1305261922200508 -0.9914448613738105 -0.0
  outer loop
    vertex 28.0 5.4576274875954915 0.0
    vertex 30.40849440090679 5.7747117909001275 21.599999999999987
    vertex 28.0 5.4576274875954915 21.599999999999987
  endloop
endfacet
facet normal 0.49999999999999906 -0.8660254037844394 0.0
  outer loop
    vertex 33.960390934353256 7.245955507199634 21.599999999999987
    vertex 30.40849440090679 5.7747117909001275 0.0
    vertex 33.960390934353256 7.245955507199634 0.0
  endloop
endfacet
facet normal 0.2588190451025203 -0.9659258262890684 0.0
  outer loop
    vertex 30.40849440090679 5.7747117909001275 0.0
    vertex 33.960390934353256 7.245955507199634 21.599999999999987
    vertex 30.40849440090679 5.7747117909001275 21.599999999999987
  endloop
endfacet
facet normal 0.7071067811865471 -0.7071067811865478 0.0
  outer loop
    vertex 37.01047363455011 9.58636627862841 21.599999999999987
    vertex 33.960390934353256 7.245955507199634 0.0
    vertex 37.01047363455011 9.58636627862841 0.0
  endloop
endfacet
facet normal 0.49999999999999906 -0.8660254037844394 0.0
  outer loop
    vertex 33.960390934353256 7.245955507199634 0.0
    vertex 37.01047363455011 9.58636627862841 21.599999999999987
    vertex 33.960390934353256 7.245955507199634 21.599999999999987
  endloop
endfacet
facet normal 0.7933533402912358 -0.6087614290087199 -0.0
  outer loop
    vertex 39.272687702853524 12.534541051239755 0.0
    vertex 37.01047363455011 9.58636627862841 21.599999999999987
    vertex 37.01047363455011 9.58636627862841 0.0
  endloop
endfacet
facet normal 0.7071067811865471 -0.7071067811865478 0.0
  outer loop
    vertex 37.01047363455011 9.58636627862841 21.599999999999987
    vertex 39.272687702853524 12.534541051239755 0.0
    vertex 39.272687702853524 12.534541051239755 21.599999999999987
  endloop
endfacet
facet normal 0.9862433145917809 -0.1653001041228267 -0.0
  outer loop
    vertex 42.2 30.0 0.0
    vertex 39.272687702853524 12.534541051239755 21.599999999999987
    vertex 39.272687702853524 12.534541051239755 0.0
  endloop
endfacet
facet normal 0.9862433145917809 -0.1653001041228267 -0.0
  outer loop
    vertex 39.272687702853524 12.534541051239755 21.599999999999987
    vertex 42.2 30.0 0.0
    vertex 42.2 30.0 21.599999999999987
  endloop
endfacet
facet normal 3.1795593100464274e-17 1.0 6.176146964853365e-17
  outer loop
    vertex 13.799999999999997 -1.2309377503185269e-15 21.599999999999987
    vertex 14.999999999999998 -1.4099832412739487e-15 0.0
    vertex 13.799999999999997 -1.2309377503185269e-15 0.0
  endloop
endfacet
facet normal 3.1795593100464274e-17 1.0 6.176146964853365e-17
  outer loop
    vertex 14.999999999999998 -1.4099832412739487e-15 0.0
    vertex 13.799999999999997 -1.2309377503185269e-15 21.599999999999987
    vertex 14.999999999999998 -1.4099832412739487e-15 21.599999999999987
  endloop
endfacet
facet normal 3.1795593100464274e-17 1.0 6.176146964853365e-17
  outer loop
    vertex 39.95647735372337 0.0 -0.8000000000000002
    vertex 38.756477353723376 -1.4099832412739487e-15 0.0
    vertex 39.95647735372337 -1.4099832412739487e-15 21.599999999999987
  endloop
endfacet
facet normal 3.1795593100464274e-17 1.0 6.176146964853365e-17
  outer loop
    vertex 38.756477353723376 -1.4099832412739487e-15 0.0
    vertex 39.95647735372337 0.0 -0.8000000000000002
    vertex 1.2 0.0 0.0
  endloop
endfacet
facet normal 3.1795593100464274e-17 1.0 6.176146964853365e-17
  outer loop
    vertex 38.756477353723376 -1.4099832412739487e-15 0.0
    vertex 1.2 0.0 0.0
    vertex 13.799999999999997 -1.2309377503185269e-15 0.0
  endloop
endfacet
facet normal 3.1795593100464274e-17 1.0 6.176146964853365e-17
  outer loop
    vertex 38.756477353723376 -1.4099832412739487e-15 0.0
    vertex 13.799999999999997 -1.2309377503185269e-15 0.0
    vertex 14.999999999999998 -1.4099832412739487e-15 0.0
  endloop
endfacet
facet normal 3.1795593100464274e-17 1.0 6.176146964853365e-17
  outer loop
    vertex 39.95647735372337 -1.4099832412739487e-15 21.599999999999987
    vertex 38.756477353723376 -1.4099832412739487e-15 0.0
    vertex 38.756477353723376 -1.4099832412739487e-15 21.599999999999987
  endloop
endfacet
facet normal 3.1795593100464274e-17 1.0 6.176146964853365e-17
  outer loop
    vertex 0.0 0.0 -0.8000000000000002
    vertex 1.2 0.0 0.0
    vertex 39.95647735372337 0.0 -0.8000000000000002
  endloop
endfacet
facet normal 3.1795593100464274e-17 1.0 6.176146964853365e-17
  outer loop
    vertex 1.2 0.0 0.0
    vertex 0.0 0.0 -0.8000000000000002
    vertex 0.0 0.0 21.6
  endloop
endfacet
facet normal 3.1795593100464274e-17 1.0 6.176146964853365e-17
  outer loop
    vertex 1.2 0.0 0.0
    vertex 0.0 0.0 21.6
    vertex 1.2 0.0 21.6
  endloop
endfacet
facet normal 0.0 0.0 -1.0
  outer loop
    vertex 1.2 20.0 21.6
    vertex 0.0 0.0 21.6
    vertex 0.0 20.0 21.6
  endloop
endfacet
facet normal 0.0 0.0 -1.0
  outer loop
    vertex 0.0 0.0 21.6
    vertex 1.2 20.0 21.6
    vertex 1.2 0.0 21.6
  endloop
endfacet
facet normal 0.0 0.0 -1.0
  outer loop
    vertex 34.98164347634217 19.999999999999996 21.599999999999987
    vertex 28.127778151415992 19.02942858086555 21.599999999999987
    vertex 28.0 20.0 21.599999999999987
  endloop
endfacet
facet normal 0.0 0.0 -1.0
  outer loop
    vertex 28.127778151415992 19.02942858086555 21.599999999999987
    vertex 34.98164347634217 19.999999999999996 21.599999999999987
    vertex 28.502404735808355 18.125 21.599999999999987
  endloop
endfacet
facet normal 0.0 0.0 -1.0
  outer loop
    vertex 28.502404735808355 18.125 21.599999999999987
    vertex 34.98164347634217 19.999999999999996 21.599999999999987
    vertex 29.098349570550443 17.34834957055045 21.599999999999987
  endloop
endfacet
facet normal 0.0 0.0 -1.0
  outer loop
    vertex 29.098349570550443 17.34834957055045 21.599999999999987
    vertex 34.98164347634217 19.999999999999996 21.599999999999987
    vertex 29.874999999999996 16.75240473580836 21.599999999999987
  endloop
endfacet
facet normal 0.0 0.0 -1.0
  outer loop
    vertex 29.874999999999996 16.75240473580836 21.599999999999987
    vertex 34.98164347634217 19.999999999999996 21.599999999999987
    vertex 30.779428580865545 16.377778151415995 21.599999999999987
  endloop
endfacet
facet normal 0.0 0.0 -1.0
  outer loop
    vertex 30.779428580865545 16.377778151415995 21.599999999999987
    vertex 34.98164347634217 19.999999999999996 21.599999999999987
    vertex 31.75 16.25 21.599999999999987
  endloop
endfacet
facet normal 0.0 0.0 -1.0
  outer loop
    vertex 31.75 16.25 21.599999999999987
    vertex 34.98164347634217 19.999999999999996 21.599999999999987
    vertex 32.72057141913445 16.377778151415995 21.599999999999987
  endloop
endfacet
facet normal 0.0 0.0 -1.0
  outer loop
    vertex 32.72057141913445 16.377778151415995 21.599999999999987
    vertex 34.98164347634217 19.999999999999996 21.599999999999987
    vertex 33.62499999999999 16.752404735808355 21.599999999999987
  endloop
endfacet
facet normal 0.0 0.0 -1.0
  outer loop
    vertex 33.62499999999999 16.752404735808355 21.599999999999987
    vertex 34.98164347634217 19.999999999999996 21.599999999999987
    vertex 34.40165042944955 17.34834957055045 21.599999999999987
  endloop
endfacet
facet normal 0.0 0.0 -1.0
  outer loop
    vertex 34.40165042944955 17.34834957055045 21.599999999999987
    vertex 34.98164347634217 19.999999999999996 21.599999999999987
    vertex 34.99759526419164 18.125 21.599999999999987
  endloop
endfacet
facet normal 0.0 0.0 -1.0
  outer loop
    vertex 34.99759526419164 18.125 21.599999999999987
    vertex 34.98164347634217 19.999999999999996 21.599999999999987
    vertex 39.2 30.0 21.599999999999987
  endloop
endfacet
facet normal 0.0 0.0 -1.0
  outer loop
    vertex 34.99759526419164 18.125 21.599999999999987
    vertex 39.2 30.0 21.599999999999987
    vertex 35.372221848584005 19.029428580865545 21.599999999999987
  endloop
endfacet
facet normal 0.0 0.0 -1.0
  outer loop
    vertex 35.372221848584005 19.029428580865545 21.599999999999987
    vertex 39.2 30.0 21.599999999999987
    vertex 40.0 30.0 21.599999999999987
  endloop
endfacet
facet normal 5.613999234257551e-16 1.0 0.0
  outer loop
    vertex 26.59683991317852 4.300000000000003 21.599999999999987
    vertex 28.0 4.484729529944998 0.0
    vertex 26.59683991317852 4.300000000000003 0.0
  endloop
endfacet
facet normal -0.1305261922200511 0.9914448613738105 -0.0
  outer loop
    vertex 28.0 4.484729529944998 0.0
    vertex 26.59683991317852 4.300000000000003 21.599999999999987
    vertex 28.0 4.484729529944998 21.599999999999987
  endloop
endfacet
facet normal 0.2588190451025213 0.9659258262890682 0.0
  outer loop
    vertex 22.53338090506893 4.8349645272616355 21.599999999999987
    vertex 26.59683991317852 4.300000000000003 0.0
    vertex 22.53338090506893 4.8349645272616355 0.0
  endloop
endfacet
facet normal 5.613999234257551e-16 1.0 0.0
  outer loop
    vertex 26.59683991317852 4.300000000000003 0.0
    vertex 22.53338090506893 4.8349645272616355 21.599999999999987
    vertex 26.59683991317852 4.300000000000003 21.599999999999987
  endloop
endfacet
facet normal 0.5 0.8660254037844386 0.0
  outer loop
    vertex 18.746839913178512 6.4034011605843215 21.599999999999987
    vertex 22.53338090506893 4.8349645272616355 0.0
    vertex 18.746839913178512 6.4034011605843215 0.0
  endloop
endfacet
facet normal 0.2588190451025213 0.9659258262890682 0.0
  outer loop
    vertex 22.53338090506893 4.8349645272616355 0.0
    vertex 18.746839913178512 6.4034011605843215 21.599999999999987
    vertex 22.53338090506893 4.8349645272616355 21.599999999999987
  endloop
endfacet
facet normal 0.7071067811865478 0.7071067811865472 0.0
  outer loop
    vertex 15.49526344854972 8.898423535371206 21.599999999999987
    vertex 18.746839913178512 6.4034011605843215 0.0
    vertex 15.49526344854972 8.898423535371206 0.0
  endloop
endfacet
facet normal 0.5 0.8660254037844386 0.0
  outer loop
    vertex 18.746839913178512 6.4034011605843215 0.0
    vertex 15.49526344854972 8.898423535371206 21.599999999999987
    vertex 18.746839913178512 6.4034011605843215 21.599999999999987
  endloop
endfacet
facet normal 0.8660254037844398 0.49999999999999795 0.0
  outer loop
    vertex 13.000241073762826 12.150000000000013 0.0
    vertex 15.49526344854972 8.898423535371206 21.599999999999987
    vertex 15.49526344854972 8.898423535371206 0.0
  endloop
endfacet
facet normal 0.7071067811865478 0.7071067811865472 0.0
  outer loop
    vertex 15.49526344854972 8.898423535371206 21.599999999999987
    vertex 13.000241073762826 12.150000000000013 0.0
    vertex 13.000241073762826 12.150000000000013 21.599999999999987
  endloop
endfacet
facet normal 0.9238795325112882 0.38268343236508634 0.0
  outer loop
    vertex 12.888736847327056 12.419195015723172 0.0
    vertex 13.000241073762826 12.150000000000013 21.599999999999987
    vertex 13.000241073762826 12.150000000000013 0.0
  endloop
endfacet
facet normal 0.8660254037844398 0.49999999999999795 0.0
  outer loop
    vertex 13.000241073762826 12.150000000000013 21.599999999999987
    vertex 12.888736847327056 12.419195015723172 0.0
    vertex 12.888736847327056 12.419195015723172 21.599999999999987
  endloop
endfacet
facet normal -0.9858558466698173 -0.16759549393386908 -0.0
  outer loop
    vertex 12.888736847327056 12.419195015723172 21.599999999999987
    vertex 14.999999999999998 -1.4099832412739487e-15 0.0
    vertex 14.999999999999998 -1.4099832412739487e-15 21.599999999999987
  endloop
endfacet
facet normal -0.9858558466698173 -0.16759549393386908 -0.0
  outer loop
    vertex 14.999999999999998 -1.4099832412739487e-15 0.0
    vertex 12.888736847327056 12.419195015723172 21.599999999999987
    vertex 12.888736847327056 12.419195015723172 0.0
  endloop
endfacet
facet normal -0.9858558466698176 -0.16759549393386758 -0.0
  outer loop
    vertex 11.599999999999998 20.0 21.599999999999987
    vertex 12.161962391587023 16.69433887301747 0.0
    vertex 12.161962391587023 16.69433887301747 21.599999999999987
  endloop
endfacet
facet normal -0.9858558466698176 -0.16759549393386758 -0.0
  outer loop
    vertex 12.161962391587023 16.69433887301747 0.0
    vertex 11.599999999999998 20.0 21.599999999999987
    vertex 11.599999999999998 20.0 0.0
  endloop
endfacet
facet normal -0.2588190451025208 0.9659258262890682 0.0
  outer loop
    vertex 30.660298921288096 4.834964527261629 21.599999999999987
    vertex 34.446839913178515 6.403401160584316 0.0
    vertex 30.660298921288096 4.834964527261629 0.0
  endloop
endfacet
facet normal -0.5 0.8660254037844386 0.0
  outer loop
    vertex 34.446839913178515 6.403401160584316 0.0
    vertex 30.660298921288096 4.834964527261629 21.599999999999987
    vertex 34.446839913178515 6.403401160584316 21.599999999999987
  endloop
endfacet
facet normal -0.13052619222005127 0.9914448613738105 -0.0
  outer loop
    vertex 28.0 4.484729529944998 21.599999999999987
    vertex 30.660298921288096 4.834964527261629 0.0
    vertex 28.0 4.484729529944998 0.0
  endloop
endfacet
facet normal -0.2588190451025208 0.9659258262890682 0.0
  outer loop
    vertex 30.660298921288096 4.834964527261629 0.0
    vertex 28.0 4.484729529944998 21.599999999999987
    vertex 30.660298921288096 4.834964527261629 21.599999999999987
  endloop
endfacet
facet normal 1.0 -0.0 -0.0
  outer loop
    vertex 38.756477353723376 10.277315445198141 0.0
    vertex 38.756477353723376 -1.4099832412739487e-15 21.599999999999987
    vertex 38.756477353723376 -1.4099832412739487e-15 0.0
  endloop
endfacet
facet normal 1.0 -0.0 -0.0
  outer loop
    vertex 38.756477353723376 -1.4099832412739487e-15 21.599999999999987
    vertex 38.756477353723376 10.277315445198141 0.0
    vertex 38.756477353723376 10.277315445198141 21.599999999999987
  endloop
endfacet
facet normal -0.7933533402912346 0.6087614290087214 -0.0
  outer loop
    vertex 38.756477353723376 10.277315445198141 21.599999999999987
    vertex 37.69841637780731 8.898423535371206 0.0
    vertex 37.69841637780731 8.898423535371206 21.599999999999987
  endloop
endfacet
facet normal -0.707106781186547 0.707106781186548 0.0
  outer loop
    vertex 37.69841637780731 8.898423535371206 0.0
    vertex 38.756477353723376 10.277315445198141 21.599999999999987
    vertex 38.756477353723376 10.277315445198141 0.0
  endloop
endfacet
facet normal -0.5 0.8660254037844386 0.0
  outer loop
    vertex 34.446839913178515 6.403401160584316 21.599999999999987
    vertex 37.69841637780731 8.898423535371206 0.0
    vertex 34.446839913178515 6.403401160584316 0.0
  endloop
endfacet
facet normal -0.707106781186547 0.707106781186548 0.0
  outer loop
    vertex 37.69841637780731 8.898423535371206 0.0
    vertex 34.446839913178515 6.403401160584316 21.599999999999987
    vertex 37.69841637780731 8.898423535371206 21.599999999999987
  endloop
endfacet
facet normal -1.0 -0.0 -0.0
  outer loop
    vertex 1.2 20.0 21.6
    vertex 1.2 0.0 0.0
    vertex 1.2 0.0 21.6
  endloop
endfacet
facet normal -1.0 -0.0 -0.0
  outer loop
    vertex 1.2 0.0 0.0
    vertex 1.2 20.0 21.6
    vertex 1.2 20.0 0.0
  endloop
endfacet
facet normal 0.0 -1.0 0.0
  outer loop
    vertex 43.0 30.0 -0.8000000000000002
    vertex 42.2 30.0 0.0
    vertex 39.2 30.0 -0.8000000000000002
  endloop
endfacet
facet normal 0.0 -1.0 0.0
  outer loop
    vertex 42.2 30.0 0.0
    vertex 43.0 30.0 -0.8000000000000002
    vertex 43.0 30.0 21.599999999999987
  endloop
endfacet
facet normal 0.0 -1.0 0.0
  outer loop
    vertex 42.2 30.0 0.0
    vertex 43.0 30.0 21.599999999999987
    vertex 42.2 30.0 21.599999999999987
  endloop
endfacet
facet normal 0.0 -1.0 0.0
  outer loop
    vertex 39.2 30.0 -0.8000000000000002
    vertex 40.0 30.0 0.0
    vertex 39.2 30.0 21.599999999999987
  endloop
endfacet
facet normal 0.0 -1.0 0.0
  outer loop
    vertex 40.0 30.0 0.0
    vertex 39.2 30.0 -0.8000000000000002
    vertex 42.2 30.0 0.0
  endloop
endfacet
facet normal 0.0 -1.0 0.0
  outer loop
    vertex 39.2 30.0 21.599999999999987
    vertex 40.0 30.0 0.0
    vertex 40.0 30.0 21.599999999999987
  endloop
endfacet
endsolid Fabrikator-Fanduct
