solid Fabrikator-Fanduct
facet normal 0.0 0.0 1.0
  outer loop
    vertex 93.74674787300428 1.4099832412739487e-15 -0.8000000000000002
    vertex 53.7902705192809 20.000000000000004 -0.8000000000000002
    vertex 53.7902705192809 1.4099832412739487e-15 -0.8000000000000002
  endloop
endfacet
facet normal 0.0 0.0 1.0
  outer loop
    vertex 53.7902705192809 20.000000000000004 -0.8000000000000002
    vertex 93.74674787300428 1.4099832412739487e-15 -0.8000000000000002
    vertex 88.77191399562308 19.999999999999996 -0.8000000000000002
  endloop
endfacet
facet normal 0.0 0.0 1.0
  outer loop
    vertex 88.77191399562308 19.999999999999996 -0.8000000000000002
    vertex 93.74674787300428 1.4099832412739487e-15 -0.8000000000000002
    vertex 92.99027051928091 30.0 -0.8000000000000002
  endloop
endfacet
facet normal 0.0 0.0 1.0
  outer loop
    vertex 92.99027051928091 30.0 -0.8000000000000002
    vertex 93.74674787300428 1.4099832412739487e-15 -0.8000000000000002
    vertex 93.74674787300428 11.841185892607587 -0.8000000000000002
  endloop
endfacet
facet normal 0.0 0.0 1.0
  outer loop
    vertex 92.99027051928091 30.0 -0.8000000000000002
    vertex 93.74674787300428 11.841185892607587 -0.8000000000000002
    vertex 96.79027051928091 30.0 -0.8000000000000002
  endloop
endfacet
facet normal 1.0 0.0 0.0
  outer loop
    vertex 53.7902705192809 20.000000000000004 -0.8000000000000002
    vertex 53.7902705192809 1.4099832412739487e-15 4.93494134445882e-15
    vertex 53.7902705192809 1.4099832412739487e-15 -0.8000000000000002
  endloop
endfacet
facet normal 1.0 0.0 0.0
  outer loop
    vertex 53.7902705192809 1.4099832412739487e-15 4.93494134445882e-15
    vertex 53.7902705192809 20.000000000000004 -0.8000000000000002
    vertex 53.7902705192809 20.000000000000004 4.93494134445882e-15
  endloop
endfacet
facet normal -1.0 0.0 0.0
  outer loop
    vertex 93.74674787300428 11.841185892607587 -6.3449245857327695e-15
    vertex 93.74674787300428 1.4099832412739487e-15 -0.8000000000000002
    vertex 93.74674787300428 0.0 -6.3449245857327695e-15
  endloop
endfacet
facet normal -1.0 0.0 0.0
  outer loop
    vertex 93.74674787300428 1.4099832412739487e-15 -0.8000000000000002
    vertex 93.74674787300428 11.841185892607587 -6.3449245857327695e-15
    vertex 93.74674787300428 11.841185892607587 -0.8000000000000002
  endloop
endfacet
facet normal -0.9862433145917812 0.1653001041228261 0.0
  outer loop
    vertex 96.79027051928091 30.0 -6.3449245857327695e-15
    vertex 93.74674787300428 11.841185892607587 -0.8000000000000002
    vertex 93.74674787300428 11.841185892607587 -6.3449245857327695e-15
  endloop
endfacet
facet normal -0.9862433145917812 0.1653001041228261 0.0
  outer loop
    vertex 93.74674787300428 11.841185892607587 -0.8000000000000002
    vertex 96.79027051928091 30.0 -6.3449245857327695e-15
    vertex 96.79027051928091 30.0 -0.8000000000000002
  endloop
endfacet
facet normal 0.9213771442641576 -0.388669728725593 0.0
  outer loop
    vertex 92.99027051928091 30.0 -0.8000000000000002
    vertex 88.77191399562308 19.999999999999996 7.049916206369744e-16
    vertex 88.77191399562308 19.999999999999996 -0.8000000000000002
  endloop
endfacet
facet normal 0.9213771442641576 -0.388669728725593 0.0
  outer loop
    vertex 88.77191399562308 19.999999999999996 7.049916206369744e-16
    vertex 92.99027051928091 30.0 -0.8000000000000002
    vertex 92.99027051928091 30.0 7.049916206369744e-16
  endloop
endfacet
facet normal -1.3127752348915176e-16 -1.0 1.820261226237568e-15
  outer loop
    vertex 88.77191399562308 19.999999999999996 7.049916206369744e-16
    vertex 53.7902705192809 20.000000000000004 -0.8000000000000002
    vertex 88.77191399562308 19.999999999999996 -0.8000000000000002
  endloop
endfacet
facet normal -1.3127752348915176e-16 -1.0 1.820261226237568e-15
  outer loop
    vertex 53.7902705192809 20.000000000000004 -0.8000000000000002
    vertex 88.77191399562308 19.999999999999996 7.049916206369744e-16
    vertex 53.7902705192809 20.000000000000004 4.93494134445882e-15
  endloop
endfacet
facet normal 3.473584743445064e-17 1.0 4.0545712992658423e-16
  outer loop
    vertex 53.7902705192809 1.4099832412739487e-15 4.93494134445882e-15
    vertex 93.74674787300428 1.4099832412739487e-15 -0.8000000000000002
    vertex 53.7902705192809 1.4099832412739487e-15 -0.8000000000000002
  endloop
endfacet
facet normal 3.473584743445064e-17 1.0 4.0545712992658423e-16
  outer loop
    vertex 93.74674787300428 1.4099832412739487e-15 -0.8000000000000002
    vertex 53.7902705192809 1.4099832412739487e-15 4.93494134445882e-15
    vertex 93.74674787300428 0.0 -6.3449245857327695e-15
  endloop
endfacet
facet normal -2.0781322888088078e-16 8.438738563087787e-17 -1.0
  outer loop
    vertex 96.79027051928091 30.0 -6.3449245857327695e-15
    vertex 93.74674787300428 11.841185892607587 -6.3449245857327695e-15
    vertex 92.99027051928091 30.0 7.049916206369744e-16
  endloop
endfacet
facet normal -2.0781322888088078e-16 8.438738563087787e-17 -1.0
  outer loop
    vertex 88.77191399562308 19.999999999999996 7.049916206369744e-16
    vertex 53.7902705192809 1.4099832412739487e-15 4.93494134445882e-15
    vertex 53.7902705192809 20.000000000000004 4.93494134445882e-15
  endloop
endfacet
facet normal -2.0781322888088078e-16 8.438738563087787e-17 -1.0
  outer loop
    vertex 53.7902705192809 1.4099832412739487e-15 4.93494134445882e-15
    vertex 88.77191399562308 19.999999999999996 7.049916206369744e-16
    vertex 93.74674787300428 0.0 -6.3449245857327695e-15
  endloop
endfacet
facet normal -2.0781322888088078e-16 8.438738563087787e-17 -1.0
  outer loop
    vertex 93.74674787300428 0.0 -6.3449245857327695e-15
    vertex 88.77191399562308 19.999999999999996 7.049916206369744e-16
    vertex 92.99027051928091 30.0 7.049916206369744e-16
  endloop
endfacet
facet normal -2.0781322888088078e-16 8.438738563087787e-17 -1.0
  outer loop
    vertex 93.74674787300428 0.0 -6.3449245857327695e-15
    vertex 92.99027051928091 30.0 7.049916206369744e-16
    vertex 93.74674787300428 11.841185892607587 -6.3449245857327695e-15
  endloop
endfacet
facet normal 0.0 -1.0 0.0
  outer loop
    vertex 96.79027051928091 30.0 -6.3449245857327695e-15
    vertex 92.99027051928091 30.0 -0.8000000000000002
    vertex 96.79027051928091 30.0 -0.8000000000000002
  endloop
endfacet
facet normal 0.0 -1.0 0.0
  outer loop
    vertex 92.99027051928091 30.0 -0.8000000000000002
    vertex 96.79027051928091 30.0 -6.3449245857327695e-15
    vertex 92.99027051928091 30.0 7.049916206369744e-16
  endloop
endfacet
endsolid Fabrikator-Fanduct
